<svg width="159mm" height="81mm" viewBox="0 0 159 81" xmlns="http://www.w3.org/2000/svg" version="1.1" preserveAspectRatio="xMidYMid meet"><g id="svgGroup" stroke-linecap="round" fill-rule="evenodd" font-size="9pt" stroke="#000" stroke-width="0.25mm" fill="none" style="stroke:#000;stroke-width:0.25mm;fill:none"><path d="M 0 59 L 0 65.125 L 3 65.125 L 3 74.875 L 0 74.875 L 0 81 L 13.875 81 L 13.875 78 L 23.625 78 L 23.625 81 L 33.375 81 L 33.375 78 L 43.125 78 L 43.125 81 L 52.875 81 L 57 81 L 57 74.875 L 54 74.875 L 54 65.125 L 57 65.125 L 57 59 L 43.125 59 L 43.125 62 L 33.375 62 L 33.375 59 L 23.625 59 L 23.625 62 L 13.875 62 L 13.875 59 L 4.125 59 L 0 59 Z" id="front_outsideCutPath" stroke="#FF0000" stroke-width="0.1" style="stroke:#FF0000;stroke-width:0.1" vector-effect="non-scaling-stroke"/><path d="M 63 59 L 63 65.125 L 60 65.125 L 60 74.875 L 63 74.875 L 63 81 L 74.625 81 L 74.625 78 L 84.375 78 L 84.375 81 L 94.125 81 L 96 81 L 96 74.875 L 99 74.875 L 99 65.125 L 96 65.125 L 96 59 L 84.375 59 L 84.375 62 L 74.625 62 L 74.625 59 L 64.875 59 L 63 59 Z" id="left_outsideCutPath" stroke="#FF0000" stroke-width="0.1" style="stroke:#FF0000;stroke-width:0.1" vector-effect="non-scaling-stroke"/><path d="M 105 45 L 105 56.625 L 102 56.625 L 102 66.375 L 105 66.375 L 105 76.125 L 105 78 L 115.875 78 L 115.875 81 L 125.625 81 L 125.625 78 L 135.375 78 L 135.375 81 L 145.125 81 L 145.125 78 L 154.875 78 L 156 78 L 156 66.375 L 159 66.375 L 159 56.625 L 156 56.625 L 156 46.875 L 156 45 L 145.125 45 L 145.125 42 L 135.375 42 L 135.375 45 L 125.625 45 L 125.625 42 L 115.875 42 L 115.875 45 L 106.125 45 L 105 45 Z" id="top_outsideCutPath" stroke="#FF0000" stroke-width="0.1" style="stroke:#FF0000;stroke-width:0.1" vector-effect="non-scaling-stroke"/><path d="M 0 34 L 0 40.125 L 3 40.125 L 3 49.875 L 0 49.875 L 0 56 L 13.875 56 L 13.875 53 L 23.625 53 L 23.625 56 L 33.375 56 L 33.375 53 L 43.125 53 L 43.125 56 L 52.875 56 L 57 56 L 57 49.875 L 54 49.875 L 54 40.125 L 57 40.125 L 57 34 L 43.125 34 L 43.125 37 L 33.375 37 L 33.375 34 L 23.625 34 L 23.625 37 L 13.875 37 L 13.875 34 L 4.125 34 L 0 34 Z" id="back_outsideCutPath" stroke="#FF0000" stroke-width="0.1" style="stroke:#FF0000;stroke-width:0.1" vector-effect="non-scaling-stroke"/><path d="M 63 34 L 63 40.125 L 60 40.125 L 60 49.875 L 63 49.875 L 63 56 L 74.625 56 L 74.625 53 L 84.375 53 L 84.375 56 L 94.125 56 L 96 56 L 96 49.875 L 99 49.875 L 99 40.125 L 96 40.125 L 96 34 L 84.375 34 L 84.375 37 L 74.625 37 L 74.625 34 L 64.875 34 L 63 34 Z" id="right_outsideCutPath" stroke="#FF0000" stroke-width="0.1" style="stroke:#FF0000;stroke-width:0.1" vector-effect="non-scaling-stroke"/><path d="M 105 3 L 105 14.625 L 102 14.625 L 102 24.375 L 105 24.375 L 105 34.125 L 105 36 L 115.875 36 L 115.875 39 L 125.625 39 L 125.625 36 L 135.375 36 L 135.375 39 L 145.125 39 L 145.125 36 L 154.875 36 L 156 36 L 156 24.375 L 159 24.375 L 159 14.625 L 156 14.625 L 156 4.875 L 156 3 L 145.125 3 L 145.125 0 L 135.375 0 L 135.375 3 L 125.625 3 L 125.625 0 L 115.875 0 L 115.875 3 L 106.125 3 L 105 3 Z" id="bottom_outsideCutPath" stroke="#FF0000" stroke-width="0.1" style="stroke:#FF0000;stroke-width:0.1" vector-effect="non-scaling-stroke"/></g></svg>