0
SECTION
2
HEADER
9
$INSUNITS
70
1
0
ENDSEC
0
SECTION
2
TABLES
0
TABLE
2
LAYER
0
ENDTAB
0
ENDSEC
0
SECTION
2
ENTITIES
0
LINE
8
front_outsideCutPath
10
0
20
30
11
0
21
21.5625
0
LINE
8
front_outsideCutPath
10
0
20
21.5625
11
3
21
21.5625
0
LINE
8
front_outsideCutPath
10
3
20
21.5625
11
3
21
11.4375
0
LINE
8
front_outsideCutPath
10
3
20
11.4375
11
0
21
11.4375
0
LINE
8
front_outsideCutPath
10
0
20
11.4375
11
0
21
3
0
LINE
8
front_outsideCutPath
10
0
20
3
11
13.3125
21
3
0
LINE
8
front_outsideCutPath
10
13.3125
20
3
11
13.3125
21
6
0
LINE
8
front_outsideCutPath
10
13.3125
20
6
11
23.4375
21
6
0
LINE
8
front_outsideCutPath
10
23.4375
20
6
11
23.4375
21
3
0
LINE
8
front_outsideCutPath
10
23.4375
20
3
11
33.5625
21
3
0
LINE
8
front_outsideCutPath
10
33.5625
20
3
11
33.5625
21
6
0
LINE
8
front_outsideCutPath
10
33.5625
20
6
11
43.6875
21
6
0
LINE
8
front_outsideCutPath
10
43.6875
20
6
11
43.6875
21
3
0
LINE
8
front_outsideCutPath
10
43.6875
20
3
11
53.8125
21
3
0
LINE
8
front_outsideCutPath
10
53.8125
20
3
11
57
21
3
0
LINE
8
front_outsideCutPath
10
57
20
3
11
57
21
11.4375
0
LINE
8
front_outsideCutPath
10
57
20
11.4375
11
54
21
11.4375
0
LINE
8
front_outsideCutPath
10
54
20
11.4375
11
54
21
21.5625
0
LINE
8
front_outsideCutPath
10
54
20
21.5625
11
57
21
21.5625
0
LINE
8
front_outsideCutPath
10
57
20
21.5625
11
57
21
30
0
LINE
8
front_outsideCutPath
10
57
20
30
11
43.6875
21
30
0
LINE
8
front_outsideCutPath
10
43.6875
20
30
11
43.6875
21
27
0
LINE
8
front_outsideCutPath
10
43.6875
20
27
11
33.5625
21
27
0
LINE
8
front_outsideCutPath
10
33.5625
20
27
11
33.5625
21
30
0
LINE
8
front_outsideCutPath
10
33.5625
20
30
11
23.4375
21
30
0
LINE
8
front_outsideCutPath
10
23.4375
20
30
11
23.4375
21
27
0
LINE
8
front_outsideCutPath
10
23.4375
20
27
11
13.3125
21
27
0
LINE
8
front_outsideCutPath
10
13.3125
20
27
11
13.3125
21
30
0
LINE
8
front_outsideCutPath
10
13.3125
20
30
11
3.1875
21
30
0
LINE
8
front_outsideCutPath
10
3.1875
20
30
11
0
21
30
0
LINE
8
left_outsideCutPath
10
63
20
30
11
63
21
21.5625
0
LINE
8
left_outsideCutPath
10
63
20
21.5625
11
60
21
21.5625
0
LINE
8
left_outsideCutPath
10
60
20
21.5625
11
60
21
11.4375
0
LINE
8
left_outsideCutPath
10
60
20
11.4375
11
63
21
11.4375
0
LINE
8
left_outsideCutPath
10
63
20
11.4375
11
63
21
3
0
LINE
8
left_outsideCutPath
10
63
20
3
11
74.4375
21
3
0
LINE
8
left_outsideCutPath
10
74.4375
20
3
11
74.4375
21
6
0
LINE
8
left_outsideCutPath
10
74.4375
20
6
11
84.5625
21
6
0
LINE
8
left_outsideCutPath
10
84.5625
20
6
11
84.5625
21
3
0
LINE
8
left_outsideCutPath
10
84.5625
20
3
11
94.6875
21
3
0
LINE
8
left_outsideCutPath
10
94.6875
20
3
11
96
21
3
0
LINE
8
left_outsideCutPath
10
96
20
3
11
96
21
11.4375
0
LINE
8
left_outsideCutPath
10
96
20
11.4375
11
99
21
11.4375
0
LINE
8
left_outsideCutPath
10
99
20
11.4375
11
99
21
21.5625
0
LINE
8
left_outsideCutPath
10
99
20
21.5625
11
96
21
21.5625
0
LINE
8
left_outsideCutPath
10
96
20
21.5625
11
96
21
30
0
LINE
8
left_outsideCutPath
10
96
20
30
11
84.5625
21
30
0
LINE
8
left_outsideCutPath
10
84.5625
20
30
11
84.5625
21
27
0
LINE
8
left_outsideCutPath
10
84.5625
20
27
11
74.4375
21
27
0
LINE
8
left_outsideCutPath
10
74.4375
20
27
11
74.4375
21
30
0
LINE
8
left_outsideCutPath
10
74.4375
20
30
11
64.3125
21
30
0
LINE
8
left_outsideCutPath
10
64.3125
20
30
11
63
21
30
0
LINE
8
top_outsideCutPath
10
105
20
39
11
105
21
27.5625
0
LINE
8
top_outsideCutPath
10
105
20
27.5625
11
102
21
27.5625
0
LINE
8
top_outsideCutPath
10
102
20
27.5625
11
102
21
17.4375
0
LINE
8
top_outsideCutPath
10
102
20
17.4375
11
105
21
17.4375
0
LINE
8
top_outsideCutPath
10
105
20
17.4375
11
105
21
7.3125
0
LINE
8
top_outsideCutPath
10
105
20
7.3125
11
105
21
6
0
LINE
8
top_outsideCutPath
10
105
20
6
11
115.3125
21
6
0
LINE
8
top_outsideCutPath
10
115.3125
20
6
11
115.3125
21
3
0
LINE
8
top_outsideCutPath
10
115.3125
20
3
11
125.4375
21
3
0
LINE
8
top_outsideCutPath
10
125.4375
20
3
11
125.4375
21
6
0
LINE
8
top_outsideCutPath
10
125.4375
20
6
11
135.5625
21
6
0
LINE
8
top_outsideCutPath
10
135.5625
20
6
11
135.5625
21
3
0
LINE
8
top_outsideCutPath
10
135.5625
20
3
11
145.6875
21
3
0
LINE
8
top_outsideCutPath
10
145.6875
20
3
11
145.6875
21
6
0
LINE
8
top_outsideCutPath
10
145.6875
20
6
11
155.8125
21
6
0
LINE
8
top_outsideCutPath
10
155.8125
20
6
11
156
21
6
0
LINE
8
top_outsideCutPath
10
156
20
6
11
156
21
17.4375
0
LINE
8
top_outsideCutPath
10
156
20
17.4375
11
159
21
17.4375
0
LINE
8
top_outsideCutPath
10
159
20
17.4375
11
159
21
27.5625
0
LINE
8
top_outsideCutPath
10
159
20
27.5625
11
156
21
27.5625
0
LINE
8
top_outsideCutPath
10
156
20
27.5625
11
156
21
37.6875
0
LINE
8
top_outsideCutPath
10
156
20
37.6875
11
156
21
39
0
LINE
8
top_outsideCutPath
10
156
20
39
11
145.6875
21
39
0
LINE
8
top_outsideCutPath
10
145.6875
20
39
11
145.6875
21
42
0
LINE
8
top_outsideCutPath
10
145.6875
20
42
11
135.5625
21
42
0
LINE
8
top_outsideCutPath
10
135.5625
20
42
11
135.5625
21
39
0
LINE
8
top_outsideCutPath
10
135.5625
20
39
11
125.4375
21
39
0
LINE
8
top_outsideCutPath
10
125.4375
20
39
11
125.4375
21
42
0
LINE
8
top_outsideCutPath
10
125.4375
20
42
11
115.3125
21
42
0
LINE
8
top_outsideCutPath
10
115.3125
20
42
11
115.3125
21
39
0
LINE
8
top_outsideCutPath
10
115.3125
20
39
11
105.1875
21
39
0
LINE
8
top_outsideCutPath
10
105.1875
20
39
11
105
21
39
0
LINE
8
back_outsideCutPath
10
0
20
60
11
0
21
51.5625
0
LINE
8
back_outsideCutPath
10
0
20
51.5625
11
3
21
51.5625
0
LINE
8
back_outsideCutPath
10
3
20
51.5625
11
3
21
41.4375
0
LINE
8
back_outsideCutPath
10
3
20
41.4375
11
0
21
41.4375
0
LINE
8
back_outsideCutPath
10
0
20
41.4375
11
0
21
33
0
LINE
8
back_outsideCutPath
10
0
20
33
11
13.3125
21
33
0
LINE
8
back_outsideCutPath
10
13.3125
20
33
11
13.3125
21
36
0
LINE
8
back_outsideCutPath
10
13.3125
20
36
11
23.4375
21
36
0
LINE
8
back_outsideCutPath
10
23.4375
20
36
11
23.4375
21
33
0
LINE
8
back_outsideCutPath
10
23.4375
20
33
11
33.5625
21
33
0
LINE
8
back_outsideCutPath
10
33.5625
20
33
11
33.5625
21
36
0
LINE
8
back_outsideCutPath
10
33.5625
20
36
11
43.6875
21
36
0
LINE
8
back_outsideCutPath
10
43.6875
20
36
11
43.6875
21
33
0
LINE
8
back_outsideCutPath
10
43.6875
20
33
11
53.8125
21
33
0
LINE
8
back_outsideCutPath
10
53.8125
20
33
11
57
21
33
0
LINE
8
back_outsideCutPath
10
57
20
33
11
57
21
41.4375
0
LINE
8
back_outsideCutPath
10
57
20
41.4375
11
54
21
41.4375
0
LINE
8
back_outsideCutPath
10
54
20
41.4375
11
54
21
51.5625
0
LINE
8
back_outsideCutPath
10
54
20
51.5625
11
57
21
51.5625
0
LINE
8
back_outsideCutPath
10
57
20
51.5625
11
57
21
60
0
LINE
8
back_outsideCutPath
10
57
20
60
11
43.6875
21
60
0
LINE
8
back_outsideCutPath
10
43.6875
20
60
11
43.6875
21
57
0
LINE
8
back_outsideCutPath
10
43.6875
20
57
11
33.5625
21
57
0
LINE
8
back_outsideCutPath
10
33.5625
20
57
11
33.5625
21
60
0
LINE
8
back_outsideCutPath
10
33.5625
20
60
11
23.4375
21
60
0
LINE
8
back_outsideCutPath
10
23.4375
20
60
11
23.4375
21
57
0
LINE
8
back_outsideCutPath
10
23.4375
20
57
11
13.3125
21
57
0
LINE
8
back_outsideCutPath
10
13.3125
20
57
11
13.3125
21
60
0
LINE
8
back_outsideCutPath
10
13.3125
20
60
11
3.1875
21
60
0
LINE
8
back_outsideCutPath
10
3.1875
20
60
11
0
21
60
0
LINE
8
right_outsideCutPath
10
63
20
60
11
63
21
51.5625
0
LINE
8
right_outsideCutPath
10
63
20
51.5625
11
60
21
51.5625
0
LINE
8
right_outsideCutPath
10
60
20
51.5625
11
60
21
41.4375
0
LINE
8
right_outsideCutPath
10
60
20
41.4375
11
63
21
41.4375
0
LINE
8
right_outsideCutPath
10
63
20
41.4375
11
63
21
33
0
LINE
8
right_outsideCutPath
10
63
20
33
11
74.4375
21
33
0
LINE
8
right_outsideCutPath
10
74.4375
20
33
11
74.4375
21
36
0
LINE
8
right_outsideCutPath
10
74.4375
20
36
11
84.5625
21
36
0
LINE
8
right_outsideCutPath
10
84.5625
20
36
11
84.5625
21
33
0
LINE
8
right_outsideCutPath
10
84.5625
20
33
11
94.6875
21
33
0
LINE
8
right_outsideCutPath
10
94.6875
20
33
11
96
21
33
0
LINE
8
right_outsideCutPath
10
96
20
33
11
96
21
41.4375
0
LINE
8
right_outsideCutPath
10
96
20
41.4375
11
99
21
41.4375
0
LINE
8
right_outsideCutPath
10
99
20
41.4375
11
99
21
51.5625
0
LINE
8
right_outsideCutPath
10
99
20
51.5625
11
96
21
51.5625
0
LINE
8
right_outsideCutPath
10
96
20
51.5625
11
96
21
60
0
LINE
8
right_outsideCutPath
10
96
20
60
11
84.5625
21
60
0
LINE
8
right_outsideCutPath
10
84.5625
20
60
11
84.5625
21
57
0
LINE
8
right_outsideCutPath
10
84.5625
20
57
11
74.4375
21
57
0
LINE
8
right_outsideCutPath
10
74.4375
20
57
11
74.4375
21
60
0
LINE
8
right_outsideCutPath
10
74.4375
20
60
11
64.3125
21
60
0
LINE
8
right_outsideCutPath
10
64.3125
20
60
11
63
21
60
0
LINE
8
bottom_outsideCutPath
10
105
20
81
11
105
21
69.5625
0
LINE
8
bottom_outsideCutPath
10
105
20
69.5625
11
102
21
69.5625
0
LINE
8
bottom_outsideCutPath
10
102
20
69.5625
11
102
21
59.4375
0
LINE
8
bottom_outsideCutPath
10
102
20
59.4375
11
105
21
59.4375
0
LINE
8
bottom_outsideCutPath
10
105
20
59.4375
11
105
21
49.3125
0
LINE
8
bottom_outsideCutPath
10
105
20
49.3125
11
105
21
48
0
LINE
8
bottom_outsideCutPath
10
105
20
48
11
115.3125
21
48
0
LINE
8
bottom_outsideCutPath
10
115.3125
20
48
11
115.3125
21
45
0
LINE
8
bottom_outsideCutPath
10
115.3125
20
45
11
125.4375
21
45
0
LINE
8
bottom_outsideCutPath
10
125.4375
20
45
11
125.4375
21
48
0
LINE
8
bottom_outsideCutPath
10
125.4375
20
48
11
135.5625
21
48
0
LINE
8
bottom_outsideCutPath
10
135.5625
20
48
11
135.5625
21
45
0
LINE
8
bottom_outsideCutPath
10
135.5625
20
45
11
145.6875
21
45
0
LINE
8
bottom_outsideCutPath
10
145.6875
20
45
11
145.6875
21
48
0
LINE
8
bottom_outsideCutPath
10
145.6875
20
48
11
155.8125
21
48
0
LINE
8
bottom_outsideCutPath
10
155.8125
20
48
11
156
21
48
0
LINE
8
bottom_outsideCutPath
10
156
20
48
11
156
21
59.4375
0
LINE
8
bottom_outsideCutPath
10
156
20
59.4375
11
159
21
59.4375
0
LINE
8
bottom_outsideCutPath
10
159
20
59.4375
11
159
21
69.5625
0
LINE
8
bottom_outsideCutPath
10
159
20
69.5625
11
156
21
69.5625
0
LINE
8
bottom_outsideCutPath
10
156
20
69.5625
11
156
21
79.6875
0
LINE
8
bottom_outsideCutPath
10
156
20
79.6875
11
156
21
81
0
LINE
8
bottom_outsideCutPath
10
156
20
81
11
145.6875
21
81
0
LINE
8
bottom_outsideCutPath
10
145.6875
20
81
11
145.6875
21
84
0
LINE
8
bottom_outsideCutPath
10
145.6875
20
84
11
135.5625
21
84
0
LINE
8
bottom_outsideCutPath
10
135.5625
20
84
11
135.5625
21
81
0
LINE
8
bottom_outsideCutPath
10
135.5625
20
81
11
125.4375
21
81
0
LINE
8
bottom_outsideCutPath
10
125.4375
20
81
11
125.4375
21
84
0
LINE
8
bottom_outsideCutPath
10
125.4375
20
84
11
115.3125
21
84
0
LINE
8
bottom_outsideCutPath
10
115.3125
20
84
11
115.3125
21
81
0
LINE
8
bottom_outsideCutPath
10
115.3125
20
81
11
105.1875
21
81
0
LINE
8
bottom_outsideCutPath
10
105.1875
20
81
11
105
21
81
0
ENDSEC
0
EOF