%MOIN*%
%OFA0B0*%
%FSLAX44Y44*%
%IPPOS*%
%LPD*%
%ADD10C,0*%
D10*
X00004246Y00023972D02*
X00004246Y00023972D01*
X00004225Y00023973D01*
X00004204Y00023974D01*
X00004183Y00023977D01*
X00004162Y00023981D01*
X00004141Y00023986D01*
X00004121Y00023993D01*
X00004101Y00024000D01*
X00004081Y00024008D01*
X00004062Y00024018D01*
X00004044Y00024028D01*
X00004026Y00024040D01*
X00004009Y00024052D01*
X00003992Y00024065D01*
X00003976Y00024079D01*
X00003961Y00024094D01*
X00003947Y00024110D01*
X00003934Y00024127D01*
X00003921Y00024144D01*
X00003910Y00024162D01*
X00003899Y00024180D01*
X00003645Y00024657D01*
X00003627Y00024694D01*
X00003614Y00024732D01*
X00003605Y00024772D01*
X00003599Y00024812D01*
X00003598Y00024853D01*
X00003601Y00024893D01*
X00003609Y00024933D01*
X00003620Y00024972D01*
X00003635Y00025009D01*
X00003654Y00025045D01*
X00003677Y00025079D01*
X00003703Y00025110D01*
X00003732Y00025138D01*
X00003764Y00025163D01*
X00003798Y00025185D01*
X00003834Y00025203D01*
X00003872Y00025218D01*
X00003911Y00025228D01*
X00003951Y00025234D01*
X00003992Y00025236D01*
X00008999Y00025236D01*
X00009040Y00025234D01*
X00009080Y00025228D01*
X00009119Y00025218D01*
X00009157Y00025203D01*
X00009193Y00025185D01*
X00009227Y00025163D01*
X00009259Y00025138D01*
X00009288Y00025110D01*
X00009314Y00025079D01*
X00009337Y00025045D01*
X00009356Y00025009D01*
X00009371Y00024972D01*
X00009382Y00024933D01*
X00009390Y00024893D01*
X00009393Y00024853D01*
X00009392Y00024812D01*
X00009386Y00024772D01*
X00009377Y00024732D01*
X00009364Y00024694D01*
X00009347Y00024657D01*
X00009092Y00024180D01*
X00009082Y00024162D01*
X00009070Y00024144D01*
X00009058Y00024127D01*
X00009044Y00024110D01*
X00009030Y00024094D01*
X00009015Y00024079D01*
X00008999Y00024065D01*
X00008982Y00024052D01*
X00008965Y00024040D01*
X00008947Y00024028D01*
X00008929Y00024018D01*
X00008910Y00024008D01*
X00008890Y00024000D01*
X00008870Y00023993D01*
X00008850Y00023986D01*
X00008829Y00023981D01*
X00008808Y00023977D01*
X00008787Y00023974D01*
X00008766Y00023973D01*
X00008745Y00023972D01*
X00004246Y00023972D01*
X00025939Y00034336D02*
X00025939Y00034336D01*
X00025940Y00034357D01*
X00025941Y00034378D01*
X00025944Y00034400D01*
X00025948Y00034420D01*
X00025953Y00034441D01*
X00025960Y00034462D01*
X00025967Y00034482D01*
X00025975Y00034501D01*
X00025985Y00034520D01*
X00025995Y00034539D01*
X00026007Y00034557D01*
X00026019Y00034574D01*
X00026033Y00034591D01*
X00026047Y00034607D01*
X00026062Y00034622D01*
X00026078Y00034636D01*
X00026094Y00034649D01*
X00026112Y00034662D01*
X00026130Y00034673D01*
X00026148Y00034684D01*
X00026627Y00034937D01*
X00026663Y00034955D01*
X00026702Y00034968D01*
X00026741Y00034977D01*
X00026781Y00034982D01*
X00026822Y00034983D01*
X00026862Y00034980D01*
X00026902Y00034973D01*
X00026941Y00034961D01*
X00026978Y00034946D01*
X00027014Y00034927D01*
X00027048Y00034904D01*
X00027079Y00034878D01*
X00027107Y00034849D01*
X00027132Y00034818D01*
X00027154Y00034784D01*
X00027172Y00034747D01*
X00027186Y00034709D01*
X00027197Y00034670D01*
X00027203Y00034630D01*
X00027205Y00034590D01*
X00027205Y00029976D01*
X00027203Y00029936D01*
X00027197Y00029896D01*
X00027186Y00029857D01*
X00027172Y00029819D01*
X00027154Y00029782D01*
X00027132Y00029748D01*
X00027107Y00029716D01*
X00027079Y00029687D01*
X00027048Y00029661D01*
X00027014Y00029639D01*
X00026978Y00029620D01*
X00026941Y00029604D01*
X00026902Y00029593D01*
X00026862Y00029586D01*
X00026822Y00029583D01*
X00026781Y00029584D01*
X00026741Y00029589D01*
X00026702Y00029598D01*
X00026663Y00029611D01*
X00026627Y00029628D01*
X00026148Y00029882D01*
X00026130Y00029893D01*
X00026112Y00029904D01*
X00026094Y00029917D01*
X00026078Y00029930D01*
X00026062Y00029944D01*
X00026047Y00029959D01*
X00026033Y00029975D01*
X00026019Y00029992D01*
X00026007Y00030009D01*
X00025995Y00030027D01*
X00025985Y00030046D01*
X00025975Y00030065D01*
X00025967Y00030084D01*
X00025960Y00030104D01*
X00025953Y00030125D01*
X00025948Y00030145D01*
X00025944Y00030166D01*
X00025941Y00030188D01*
X00025940Y00030209D01*
X00025939Y00030230D01*
X00025939Y00034336D01*
X00012160Y00034594D02*
X00012160Y00034594D01*
X00012161Y00034625D01*
X00012164Y00034656D01*
X00012170Y00034687D01*
X00012179Y00034716D01*
X00012190Y00034746D01*
X00012203Y00034774D01*
X00012218Y00034801D01*
X00012235Y00034826D01*
X00012254Y00034851D01*
X00012276Y00034874D01*
X00012298Y00034894D01*
X00012323Y00034914D01*
X00012349Y00034931D01*
X00012376Y00034946D01*
X00012404Y00034959D01*
X00012433Y00034969D01*
X00012463Y00034978D01*
X00012493Y00034984D01*
X00012524Y00034987D01*
X00012555Y00034988D01*
X00013427Y00034983D01*
X00013458Y00034982D01*
X00013489Y00034978D01*
X00013519Y00034972D01*
X00013549Y00034964D01*
X00013577Y00034953D01*
X00013605Y00034940D01*
X00013632Y00034925D01*
X00013658Y00034907D01*
X00013682Y00034888D01*
X00013704Y00034867D01*
X00013725Y00034845D01*
X00013744Y00034820D01*
X00013761Y00034795D01*
X00013776Y00034768D01*
X00013789Y00034740D01*
X00013800Y00034711D01*
X00013808Y00034681D01*
X00013814Y00034651D01*
X00013818Y00034620D01*
X00013819Y00034590D01*
X00013819Y00029976D01*
X00013818Y00029945D01*
X00013814Y00029915D01*
X00013808Y00029885D01*
X00013800Y00029855D01*
X00013789Y00029826D01*
X00013776Y00029798D01*
X00013761Y00029771D01*
X00013744Y00029745D01*
X00013725Y00029721D01*
X00013704Y00029699D01*
X00013682Y00029678D01*
X00013658Y00029658D01*
X00013632Y00029641D01*
X00013605Y00029626D01*
X00013577Y00029613D01*
X00013549Y00029602D01*
X00013519Y00029594D01*
X00013489Y00029588D01*
X00013458Y00029584D01*
X00013427Y00029583D01*
X00012555Y00029578D01*
X00012524Y00029579D01*
X00012493Y00029582D01*
X00012463Y00029588D01*
X00012433Y00029597D01*
X00012404Y00029607D01*
X00012376Y00029620D01*
X00012349Y00029635D01*
X00012323Y00029652D01*
X00012298Y00029671D01*
X00012276Y00029692D01*
X00012254Y00029715D01*
X00012235Y00029739D01*
X00012218Y00029765D01*
X00012203Y00029792D01*
X00012190Y00029820D01*
X00012179Y00029849D01*
X00012170Y00029879D01*
X00012164Y00029910D01*
X00012161Y00029941D01*
X00012160Y00029972D01*
X00012160Y00034594D01*
X00010939Y00023972D02*
X00010939Y00023972D01*
X00010918Y00023973D01*
X00010897Y00023974D01*
X00010876Y00023977D01*
X00010855Y00023981D01*
X00010834Y00023986D01*
X00010814Y00023993D01*
X00010794Y00024000D01*
X00010774Y00024008D01*
X00010755Y00024018D01*
X00010737Y00024028D01*
X00010719Y00024040D01*
X00010702Y00024052D01*
X00010685Y00024065D01*
X00010669Y00024079D01*
X00010654Y00024094D01*
X00010640Y00024110D01*
X00010626Y00024127D01*
X00010614Y00024144D01*
X00010602Y00024162D01*
X00010592Y00024180D01*
X00010338Y00024657D01*
X00010320Y00024694D01*
X00010307Y00024732D01*
X00010298Y00024772D01*
X00010292Y00024812D01*
X00010291Y00024853D01*
X00010294Y00024893D01*
X00010302Y00024933D01*
X00010313Y00024972D01*
X00010328Y00025009D01*
X00010347Y00025045D01*
X00010370Y00025079D01*
X00010396Y00025110D01*
X00010425Y00025138D01*
X00010457Y00025163D01*
X00010491Y00025185D01*
X00010527Y00025203D01*
X00010565Y00025218D01*
X00010604Y00025228D01*
X00010644Y00025234D01*
X00010685Y00025236D01*
X00012160Y00025236D01*
X00012160Y00028295D01*
X00012161Y00028326D01*
X00012164Y00028357D01*
X00012170Y00028387D01*
X00012179Y00028417D01*
X00012190Y00028446D01*
X00012203Y00028474D01*
X00012218Y00028502D01*
X00012235Y00028527D01*
X00012254Y00028552D01*
X00012276Y00028574D01*
X00012298Y00028595D01*
X00012323Y00028614D01*
X00012349Y00028632D01*
X00012376Y00028647D01*
X00012404Y00028659D01*
X00012433Y00028670D01*
X00012463Y00028678D01*
X00012493Y00028684D01*
X00012524Y00028688D01*
X00012555Y00028689D01*
X00013427Y00028684D01*
X00013458Y00028683D01*
X00013489Y00028679D01*
X00013519Y00028673D01*
X00013549Y00028664D01*
X00013577Y00028654D01*
X00013605Y00028641D01*
X00013632Y00028625D01*
X00013658Y00028608D01*
X00013682Y00028589D01*
X00013704Y00028568D01*
X00013725Y00028545D01*
X00013744Y00028521D01*
X00013761Y00028496D01*
X00013776Y00028469D01*
X00013789Y00028441D01*
X00013800Y00028412D01*
X00013808Y00028382D01*
X00013814Y00028352D01*
X00013818Y00028321D01*
X00013819Y00028291D01*
X00013819Y00025236D01*
X00015830Y00025236D01*
X00015851Y00025236D01*
X00015872Y00025234D01*
X00015893Y00025231D01*
X00015914Y00025227D01*
X00015934Y00025222D01*
X00015955Y00025216D01*
X00015974Y00025209D01*
X00015994Y00025201D01*
X00016013Y00025191D01*
X00016031Y00025181D01*
X00016049Y00025170D01*
X00016066Y00025157D01*
X00016083Y00025144D01*
X00016099Y00025130D01*
X00016114Y00025116D01*
X00016128Y00025100D01*
X00016141Y00025084D01*
X00016154Y00025066D01*
X00016165Y00025049D01*
X00016176Y00025030D01*
X00016435Y00024554D01*
X00016452Y00024517D01*
X00016466Y00024479D01*
X00016476Y00024439D01*
X00016481Y00024399D01*
X00016483Y00024358D01*
X00016480Y00024317D01*
X00016473Y00024277D01*
X00016461Y00024238D01*
X00016446Y00024200D01*
X00016427Y00024164D01*
X00016405Y00024131D01*
X00016379Y00024099D01*
X00016350Y00024071D01*
X00016318Y00024045D01*
X00016284Y00024023D01*
X00016247Y00024005D01*
X00016209Y00023991D01*
X00016170Y00023980D01*
X00016130Y00023974D01*
X00016089Y00023972D01*
X00013819Y00023972D01*
X00013819Y00020337D01*
X00013818Y00020307D01*
X00013815Y00020277D01*
X00013809Y00020248D01*
X00013801Y00020219D01*
X00013791Y00020191D01*
X00013779Y00020164D01*
X00013765Y00020138D01*
X00013749Y00020112D01*
X00013731Y00020089D01*
X00013711Y00020066D01*
X00013690Y00020045D01*
X00013667Y00020026D01*
X00013643Y00020009D01*
X00013617Y00019993D01*
X00013591Y00019980D01*
X00013563Y00019968D01*
X00013535Y00019959D01*
X00013506Y00019951D01*
X00013476Y00019946D01*
X00013447Y00019944D01*
X00012574Y00019897D01*
X00012542Y00019896D01*
X00012511Y00019898D01*
X00012479Y00019903D01*
X00012448Y00019910D01*
X00012417Y00019920D01*
X00012388Y00019932D01*
X00012359Y00019947D01*
X00012332Y00019964D01*
X00012307Y00019983D01*
X00012282Y00020004D01*
X00012260Y00020027D01*
X00012240Y00020051D01*
X00012221Y00020078D01*
X00012205Y00020105D01*
X00012192Y00020134D01*
X00012180Y00020164D01*
X00012171Y00020195D01*
X00012165Y00020226D01*
X00012161Y00020258D01*
X00012160Y00020290D01*
X00012160Y00023972D01*
X00010939Y00023972D01*
X00024461Y00023972D02*
X00024461Y00023972D01*
X00024421Y00023974D01*
X00024380Y00023980D01*
X00024341Y00023991D01*
X00024303Y00024005D01*
X00024267Y00024023D01*
X00024232Y00024045D01*
X00024200Y00024071D01*
X00024171Y00024099D01*
X00024145Y00024131D01*
X00024123Y00024164D01*
X00024104Y00024200D01*
X00024089Y00024238D01*
X00024078Y00024277D01*
X00024071Y00024317D01*
X00024068Y00024358D01*
X00024069Y00024399D01*
X00024074Y00024439D01*
X00024084Y00024479D01*
X00024098Y00024517D01*
X00024115Y00024554D01*
X00024374Y00025030D01*
X00024385Y00025049D01*
X00024396Y00025066D01*
X00024409Y00025084D01*
X00024422Y00025100D01*
X00024436Y00025116D01*
X00024451Y00025130D01*
X00024467Y00025144D01*
X00024484Y00025157D01*
X00024501Y00025170D01*
X00024519Y00025181D01*
X00024537Y00025191D01*
X00024556Y00025201D01*
X00024576Y00025209D01*
X00024596Y00025216D01*
X00024616Y00025222D01*
X00024636Y00025227D01*
X00024657Y00025231D01*
X00024678Y00025234D01*
X00024699Y00025236D01*
X00024720Y00025236D01*
X00025939Y00025236D01*
X00025939Y00028037D01*
X00025940Y00028058D01*
X00025941Y00028079D01*
X00025944Y00028100D01*
X00025948Y00028121D01*
X00025953Y00028142D01*
X00025960Y00028162D01*
X00025967Y00028182D01*
X00025975Y00028202D01*
X00025985Y00028221D01*
X00025995Y00028240D01*
X00026007Y00028258D01*
X00026019Y00028275D01*
X00026033Y00028291D01*
X00026047Y00028307D01*
X00026062Y00028322D01*
X00026078Y00028337D01*
X00026094Y00028350D01*
X00026112Y00028362D01*
X00026130Y00028374D01*
X00026148Y00028384D01*
X00026627Y00028638D01*
X00026663Y00028655D01*
X00026702Y00028669D01*
X00026741Y00028678D01*
X00026781Y00028683D01*
X00026822Y00028684D01*
X00026862Y00028681D01*
X00026902Y00028674D01*
X00026941Y00028662D01*
X00026978Y00028647D01*
X00027014Y00028628D01*
X00027048Y00028605D01*
X00027079Y00028579D01*
X00027107Y00028550D01*
X00027132Y00028518D01*
X00027154Y00028484D01*
X00027172Y00028448D01*
X00027186Y00028410D01*
X00027197Y00028371D01*
X00027203Y00028331D01*
X00027205Y00028291D01*
X00027205Y00025236D01*
X00029216Y00025236D01*
X00029237Y00025236D01*
X00029258Y00025234D01*
X00029279Y00025231D01*
X00029300Y00025227D01*
X00029320Y00025222D01*
X00029340Y00025216D01*
X00029360Y00025209D01*
X00029380Y00025201D01*
X00029399Y00025191D01*
X00029417Y00025181D01*
X00029435Y00025170D01*
X00029452Y00025157D01*
X00029469Y00025144D01*
X00029485Y00025130D01*
X00029500Y00025116D01*
X00029514Y00025100D01*
X00029527Y00025084D01*
X00029540Y00025066D01*
X00029551Y00025049D01*
X00029562Y00025030D01*
X00029821Y00024554D01*
X00029838Y00024517D01*
X00029852Y00024479D01*
X00029862Y00024439D01*
X00029867Y00024399D01*
X00029868Y00024358D01*
X00029866Y00024317D01*
X00029858Y00024277D01*
X00029847Y00024238D01*
X00029832Y00024200D01*
X00029813Y00024164D01*
X00029791Y00024131D01*
X00029765Y00024099D01*
X00029736Y00024071D01*
X00029704Y00024045D01*
X00029669Y00024023D01*
X00029633Y00024005D01*
X00029595Y00023991D01*
X00029556Y00023980D01*
X00029515Y00023974D01*
X00029475Y00023972D01*
X00027205Y00023972D01*
X00027205Y00020527D01*
X00027203Y00020487D01*
X00027197Y00020447D01*
X00027186Y00020408D01*
X00027172Y00020370D01*
X00027154Y00020334D01*
X00027132Y00020299D01*
X00027107Y00020268D01*
X00027079Y00020239D01*
X00027048Y00020213D01*
X00027014Y00020190D01*
X00026978Y00020171D01*
X00026941Y00020156D01*
X00026902Y00020144D01*
X00026862Y00020137D01*
X00026822Y00020134D01*
X00026781Y00020135D01*
X00026741Y00020140D01*
X00026702Y00020149D01*
X00026663Y00020163D01*
X00026627Y00020180D01*
X00026148Y00020433D01*
X00026130Y00020444D01*
X00026112Y00020455D01*
X00026094Y00020468D01*
X00026078Y00020481D01*
X00026062Y00020496D01*
X00026047Y00020511D01*
X00026033Y00020526D01*
X00026019Y00020543D01*
X00026007Y00020560D01*
X00025995Y00020578D01*
X00025985Y00020597D01*
X00025975Y00020616D01*
X00025967Y00020636D01*
X00025960Y00020656D01*
X00025953Y00020676D01*
X00025948Y00020697D01*
X00025944Y00020718D01*
X00025941Y00020739D01*
X00025940Y00020760D01*
X00025939Y00020781D01*
X00025939Y00023972D01*
X00024461Y00023972D01*
X00013819Y00012653D02*
X00013819Y00012653D01*
X00013818Y00012623D01*
X00013814Y00012592D01*
X00013808Y00012562D01*
X00013800Y00012532D01*
X00013789Y00012503D01*
X00013776Y00012475D01*
X00013761Y00012448D01*
X00013744Y00012423D01*
X00013725Y00012398D01*
X00013704Y00012376D01*
X00013682Y00012355D01*
X00013658Y00012336D01*
X00013632Y00012318D01*
X00013605Y00012303D01*
X00013577Y00012290D01*
X00013549Y00012279D01*
X00013519Y00012271D01*
X00013489Y00012265D01*
X00013458Y00012261D01*
X00013427Y00012260D01*
X00012555Y00012255D01*
X00012524Y00012256D01*
X00012493Y00012260D01*
X00012463Y00012265D01*
X00012433Y00012274D01*
X00012404Y00012284D01*
X00012376Y00012297D01*
X00012349Y00012312D01*
X00012323Y00012329D01*
X00012298Y00012349D01*
X00012276Y00012370D01*
X00012254Y00012392D01*
X00012235Y00012417D01*
X00012218Y00012442D01*
X00012203Y00012469D01*
X00012190Y00012498D01*
X00012179Y00012527D01*
X00012170Y00012557D01*
X00012164Y00012587D01*
X00012161Y00012618D01*
X00012160Y00012649D01*
X00012160Y00018657D01*
X00012161Y00018689D01*
X00012165Y00018721D01*
X00012171Y00018752D01*
X00012180Y00018783D01*
X00012192Y00018813D01*
X00012205Y00018842D01*
X00012221Y00018869D01*
X00012240Y00018895D01*
X00012260Y00018920D01*
X00012282Y00018943D01*
X00012307Y00018964D01*
X00012332Y00018983D01*
X00012359Y00019000D01*
X00012388Y00019014D01*
X00012417Y00019027D01*
X00012448Y00019036D01*
X00012479Y00019044D01*
X00012511Y00019049D01*
X00012542Y00019051D01*
X00012574Y00019050D01*
X00013447Y00019003D01*
X00013476Y00019000D01*
X00013506Y00018995D01*
X00013535Y00018988D01*
X00013563Y00018979D01*
X00013591Y00018967D01*
X00013617Y00018954D01*
X00013643Y00018938D01*
X00013667Y00018921D01*
X00013690Y00018902D01*
X00013711Y00018881D01*
X00013731Y00018858D01*
X00013749Y00018834D01*
X00013765Y00018809D01*
X00013779Y00018783D01*
X00013791Y00018756D01*
X00013801Y00018728D01*
X00013809Y00018699D01*
X00013815Y00018669D01*
X00013818Y00018640D01*
X00013819Y00018610D01*
X00013819Y00012653D01*
X00027205Y00012653D02*
X00027205Y00012653D01*
X00027203Y00012613D01*
X00027197Y00012573D01*
X00027186Y00012534D01*
X00027172Y00012496D01*
X00027154Y00012460D01*
X00027132Y00012425D01*
X00027107Y00012394D01*
X00027079Y00012365D01*
X00027048Y00012339D01*
X00027014Y00012316D01*
X00026978Y00012297D01*
X00026941Y00012282D01*
X00026902Y00012270D01*
X00026862Y00012263D01*
X00026822Y00012260D01*
X00026781Y00012261D01*
X00026741Y00012266D01*
X00026702Y00012275D01*
X00026663Y00012288D01*
X00026627Y00012306D01*
X00026148Y00012559D01*
X00026130Y00012570D01*
X00026112Y00012581D01*
X00026094Y00012594D01*
X00026078Y00012607D01*
X00026062Y00012621D01*
X00026047Y00012637D01*
X00026033Y00012652D01*
X00026019Y00012669D01*
X00026007Y00012686D01*
X00025995Y00012704D01*
X00025985Y00012723D01*
X00025975Y00012742D01*
X00025967Y00012762D01*
X00025960Y00012782D01*
X00025953Y00012802D01*
X00025948Y00012823D01*
X00025944Y00012844D01*
X00025941Y00012865D01*
X00025940Y00012886D01*
X00025939Y00012907D01*
X00025939Y00018588D01*
X00025940Y00018609D01*
X00025941Y00018630D01*
X00025944Y00018651D01*
X00025948Y00018672D01*
X00025953Y00018693D01*
X00025960Y00018713D01*
X00025967Y00018734D01*
X00025975Y00018753D01*
X00025985Y00018772D01*
X00025995Y00018791D01*
X00026007Y00018809D01*
X00026019Y00018826D01*
X00026033Y00018843D01*
X00026047Y00018859D01*
X00026062Y00018874D01*
X00026078Y00018888D01*
X00026094Y00018901D01*
X00026112Y00018914D01*
X00026130Y00018925D01*
X00026148Y00018936D01*
X00026627Y00019189D01*
X00026663Y00019207D01*
X00026702Y00019220D01*
X00026741Y00019229D01*
X00026781Y00019234D01*
X00026822Y00019235D01*
X00026862Y00019232D01*
X00026902Y00019225D01*
X00026941Y00019213D01*
X00026978Y00019198D01*
X00027014Y00019179D01*
X00027048Y00019156D01*
X00027079Y00019130D01*
X00027107Y00019101D01*
X00027132Y00019070D01*
X00027154Y00019035D01*
X00027172Y00018999D01*
X00027186Y00018961D01*
X00027197Y00018922D01*
X00027203Y00018882D01*
X00027205Y00018842D01*
X00027205Y00012653D01*
X00031154Y00023972D02*
X00031154Y00023972D01*
X00031113Y00023974D01*
X00031073Y00023980D01*
X00031034Y00023991D01*
X00030996Y00024005D01*
X00030960Y00024023D01*
X00030925Y00024045D01*
X00030893Y00024071D01*
X00030864Y00024099D01*
X00030838Y00024131D01*
X00030816Y00024164D01*
X00030797Y00024200D01*
X00030782Y00024238D01*
X00030770Y00024277D01*
X00030763Y00024317D01*
X00030761Y00024358D01*
X00030762Y00024399D01*
X00030767Y00024439D01*
X00030777Y00024479D01*
X00030791Y00024517D01*
X00030808Y00024554D01*
X00031067Y00025030D01*
X00031078Y00025049D01*
X00031089Y00025066D01*
X00031102Y00025084D01*
X00031115Y00025100D01*
X00031129Y00025116D01*
X00031144Y00025130D01*
X00031160Y00025144D01*
X00031177Y00025157D01*
X00031194Y00025170D01*
X00031212Y00025181D01*
X00031230Y00025191D01*
X00031249Y00025201D01*
X00031269Y00025209D01*
X00031288Y00025216D01*
X00031309Y00025222D01*
X00031329Y00025227D01*
X00031350Y00025231D01*
X00031371Y00025234D01*
X00031392Y00025236D01*
X00031413Y00025236D01*
X00035413Y00025236D01*
X00035436Y00025236D01*
X00035460Y00025234D01*
X00035483Y00025230D01*
X00035506Y00025225D01*
X00035528Y00025219D01*
X00035551Y00025211D01*
X00035572Y00025203D01*
X00035594Y00025192D01*
X00035614Y00025181D01*
X00035634Y00025168D01*
X00035653Y00025155D01*
X00035671Y00025140D01*
X00035688Y00025124D01*
X00035705Y00025107D01*
X00035720Y00025089D01*
X00035734Y00025070D01*
X00035747Y00025051D01*
X00035759Y00025031D01*
X00035769Y00025010D01*
X00035779Y00024988D01*
X00035968Y00024511D01*
X00035981Y00024475D01*
X00035989Y00024438D01*
X00035995Y00024400D01*
X00035996Y00024361D01*
X00035994Y00024323D01*
X00035988Y00024285D01*
X00035978Y00024248D01*
X00035965Y00024212D01*
X00035948Y00024177D01*
X00035928Y00024145D01*
X00035905Y00024114D01*
X00035879Y00024086D01*
X00035851Y00024060D01*
X00035820Y00024037D01*
X00035787Y00024018D01*
X00035752Y00024002D01*
X00035716Y00023989D01*
X00035679Y00023979D01*
X00035641Y00023974D01*
X00035602Y00023972D01*
X00031154Y00023972D01*
X00017768Y00023972D02*
X00017768Y00023972D01*
X00017728Y00023974D01*
X00017687Y00023980D01*
X00017648Y00023991D01*
X00017610Y00024005D01*
X00017574Y00024023D01*
X00017539Y00024045D01*
X00017508Y00024071D01*
X00017479Y00024099D01*
X00017453Y00024131D01*
X00017430Y00024164D01*
X00017411Y00024200D01*
X00017396Y00024238D01*
X00017385Y00024277D01*
X00017378Y00024317D01*
X00017375Y00024358D01*
X00017376Y00024399D01*
X00017381Y00024439D01*
X00017391Y00024479D01*
X00017405Y00024517D01*
X00017422Y00024554D01*
X00017681Y00025030D01*
X00017692Y00025049D01*
X00017703Y00025066D01*
X00017716Y00025084D01*
X00017729Y00025100D01*
X00017743Y00025116D01*
X00017758Y00025130D01*
X00017774Y00025144D01*
X00017791Y00025157D01*
X00017808Y00025170D01*
X00017826Y00025181D01*
X00017844Y00025191D01*
X00017863Y00025201D01*
X00017883Y00025209D01*
X00017903Y00025216D01*
X00017923Y00025222D01*
X00017943Y00025227D01*
X00017964Y00025231D01*
X00017985Y00025234D01*
X00018006Y00025236D01*
X00018027Y00025236D01*
X00022523Y00025236D01*
X00022544Y00025236D01*
X00022565Y00025234D01*
X00022586Y00025231D01*
X00022607Y00025227D01*
X00022627Y00025222D01*
X00022648Y00025216D01*
X00022667Y00025209D01*
X00022687Y00025201D01*
X00022706Y00025191D01*
X00022724Y00025181D01*
X00022742Y00025170D01*
X00022759Y00025157D01*
X00022776Y00025144D01*
X00022792Y00025130D01*
X00022807Y00025116D01*
X00022821Y00025100D01*
X00022834Y00025084D01*
X00022847Y00025066D01*
X00022858Y00025049D01*
X00022869Y00025030D01*
X00023128Y00024554D01*
X00023145Y00024517D01*
X00023159Y00024479D01*
X00023169Y00024439D01*
X00023174Y00024399D01*
X00023175Y00024358D01*
X00023173Y00024317D01*
X00023166Y00024277D01*
X00023154Y00024238D01*
X00023139Y00024200D01*
X00023120Y00024164D01*
X00023098Y00024131D01*
X00023072Y00024099D01*
X00023043Y00024071D01*
X00023011Y00024045D01*
X00022976Y00024023D01*
X00022940Y00024005D01*
X00022902Y00023991D01*
X00022863Y00023980D01*
X00022823Y00023974D01*
X00022782Y00023972D01*
X00017768Y00023972D01*
X00002306Y00025236D02*
X00002306Y00025236D01*
X00002347Y00025234D01*
X00002387Y00025228D01*
X00002426Y00025218D01*
X00002464Y00025203D01*
X00002500Y00025185D01*
X00002534Y00025163D01*
X00002566Y00025138D01*
X00002595Y00025110D01*
X00002621Y00025079D01*
X00002644Y00025045D01*
X00002663Y00025009D01*
X00002678Y00024972D01*
X00002689Y00024933D01*
X00002697Y00024893D01*
X00002700Y00024853D01*
X00002699Y00024812D01*
X00002694Y00024772D01*
X00002684Y00024732D01*
X00002671Y00024694D01*
X00002654Y00024657D01*
X00002399Y00024180D01*
X00002389Y00024162D01*
X00002377Y00024144D01*
X00002365Y00024127D01*
X00002351Y00024110D01*
X00002337Y00024094D01*
X00002322Y00024079D01*
X00002306Y00024065D01*
X00002290Y00024052D01*
X00002272Y00024040D01*
X00002254Y00024028D01*
X00002236Y00024018D01*
X00002217Y00024008D01*
X00002197Y00024000D01*
X00002177Y00023993D01*
X00002157Y00023986D01*
X00002136Y00023981D01*
X00002115Y00023977D01*
X00002094Y00023974D01*
X00002073Y00023973D01*
X00002052Y00023972D01*
X00000039Y00023972D01*
X00000039Y00009882D01*
X00012160Y00009882D01*
X00012160Y00010972D01*
X00012161Y00011003D01*
X00012164Y00011034D01*
X00012170Y00011065D01*
X00012179Y00011094D01*
X00012190Y00011123D01*
X00012203Y00011152D01*
X00012218Y00011179D01*
X00012235Y00011204D01*
X00012254Y00011229D01*
X00012276Y00011251D01*
X00012298Y00011272D01*
X00012323Y00011292D01*
X00012349Y00011309D01*
X00012376Y00011324D01*
X00012404Y00011337D01*
X00012433Y00011347D01*
X00012463Y00011356D01*
X00012493Y00011361D01*
X00012524Y00011365D01*
X00012555Y00011366D01*
X00013427Y00011361D01*
X00013458Y00011360D01*
X00013489Y00011356D01*
X00013519Y00011350D01*
X00013549Y00011342D01*
X00013577Y00011331D01*
X00013605Y00011318D01*
X00013632Y00011303D01*
X00013658Y00011285D01*
X00013682Y00011266D01*
X00013704Y00011245D01*
X00013725Y00011223D01*
X00013744Y00011198D01*
X00013761Y00011173D01*
X00013776Y00011146D01*
X00013789Y00011118D01*
X00013800Y00011089D01*
X00013808Y00011059D01*
X00013814Y00011029D01*
X00013818Y00010998D01*
X00013819Y00010968D01*
X00013819Y00009882D01*
X00025939Y00009882D01*
X00025939Y00010714D01*
X00025940Y00010735D01*
X00025941Y00010756D01*
X00025944Y00010777D01*
X00025948Y00010798D01*
X00025953Y00010819D01*
X00025960Y00010839D01*
X00025967Y00010859D01*
X00025975Y00010879D01*
X00025985Y00010898D01*
X00025995Y00010917D01*
X00026007Y00010935D01*
X00026019Y00010952D01*
X00026033Y00010969D01*
X00026047Y00010984D01*
X00026062Y00011000D01*
X00026078Y00011014D01*
X00026094Y00011027D01*
X00026112Y00011040D01*
X00026130Y00011051D01*
X00026148Y00011062D01*
X00026627Y00011315D01*
X00026663Y00011333D01*
X00026702Y00011346D01*
X00026741Y00011355D01*
X00026781Y00011360D01*
X00026822Y00011361D01*
X00026862Y00011358D01*
X00026902Y00011351D01*
X00026941Y00011339D01*
X00026978Y00011324D01*
X00027014Y00011305D01*
X00027048Y00011282D01*
X00027079Y00011256D01*
X00027107Y00011227D01*
X00027132Y00011196D01*
X00027154Y00011161D01*
X00027172Y00011125D01*
X00027186Y00011087D01*
X00027197Y00011048D01*
X00027203Y00011008D01*
X00027205Y00010968D01*
X00027205Y00009882D01*
X00039325Y00009882D01*
X00039325Y00023972D01*
X00037377Y00023972D01*
X00037339Y00023974D01*
X00037301Y00023979D01*
X00037264Y00023989D01*
X00037228Y00024002D01*
X00037193Y00024018D01*
X00037160Y00024037D01*
X00037129Y00024060D01*
X00037100Y00024086D01*
X00037074Y00024114D01*
X00037051Y00024145D01*
X00037031Y00024177D01*
X00037015Y00024212D01*
X00037001Y00024248D01*
X00036992Y00024285D01*
X00036986Y00024323D01*
X00036983Y00024361D01*
X00036985Y00024400D01*
X00036990Y00024438D01*
X00036999Y00024475D01*
X00037011Y00024511D01*
X00037201Y00024988D01*
X00037210Y00025010D01*
X00037221Y00025031D01*
X00037233Y00025051D01*
X00037246Y00025070D01*
X00037260Y00025089D01*
X00037275Y00025107D01*
X00037291Y00025124D01*
X00037308Y00025140D01*
X00037327Y00025155D01*
X00037346Y00025168D01*
X00037365Y00025181D01*
X00037386Y00025192D01*
X00037407Y00025203D01*
X00037429Y00025211D01*
X00037451Y00025219D01*
X00037474Y00025225D01*
X00037497Y00025230D01*
X00037520Y00025234D01*
X00037543Y00025236D01*
X00037567Y00025236D01*
X00039325Y00025236D01*
X00039325Y00039326D01*
X00027205Y00039326D01*
X00027205Y00036275D01*
X00027203Y00036235D01*
X00027197Y00036195D01*
X00027186Y00036156D01*
X00027172Y00036118D01*
X00027154Y00036082D01*
X00027132Y00036047D01*
X00027107Y00036016D01*
X00027079Y00035987D01*
X00027048Y00035961D01*
X00027014Y00035938D01*
X00026978Y00035919D01*
X00026941Y00035904D01*
X00026902Y00035892D01*
X00026862Y00035885D01*
X00026822Y00035882D01*
X00026781Y00035883D01*
X00026741Y00035888D01*
X00026702Y00035897D01*
X00026663Y00035911D01*
X00026627Y00035928D01*
X00026148Y00036182D01*
X00026130Y00036192D01*
X00026112Y00036203D01*
X00026094Y00036216D01*
X00026078Y00036229D01*
X00026062Y00036244D01*
X00026047Y00036259D01*
X00026033Y00036274D01*
X00026019Y00036291D01*
X00026007Y00036308D01*
X00025995Y00036326D01*
X00025985Y00036345D01*
X00025975Y00036364D01*
X00025967Y00036384D01*
X00025960Y00036404D01*
X00025953Y00036424D01*
X00025948Y00036445D01*
X00025944Y00036466D01*
X00025941Y00036487D01*
X00025940Y00036508D01*
X00025939Y00036529D01*
X00025939Y00039326D01*
X00013819Y00039326D01*
X00013819Y00036275D01*
X00013818Y00036245D01*
X00013814Y00036214D01*
X00013808Y00036184D01*
X00013800Y00036154D01*
X00013789Y00036125D01*
X00013776Y00036097D01*
X00013761Y00036070D01*
X00013744Y00036045D01*
X00013725Y00036020D01*
X00013704Y00035998D01*
X00013682Y00035977D01*
X00013658Y00035958D01*
X00013632Y00035940D01*
X00013605Y00035925D01*
X00013577Y00035912D01*
X00013549Y00035902D01*
X00013519Y00035893D01*
X00013489Y00035887D01*
X00013458Y00035883D01*
X00013427Y00035882D01*
X00012555Y00035877D01*
X00012524Y00035878D01*
X00012493Y00035882D01*
X00012463Y00035888D01*
X00012433Y00035896D01*
X00012404Y00035906D01*
X00012376Y00035919D01*
X00012349Y00035934D01*
X00012323Y00035952D01*
X00012298Y00035971D01*
X00012276Y00035992D01*
X00012254Y00036014D01*
X00012235Y00036039D01*
X00012218Y00036064D01*
X00012203Y00036091D01*
X00012190Y00036120D01*
X00012179Y00036149D01*
X00012170Y00036179D01*
X00012164Y00036209D01*
X00012161Y00036240D01*
X00012160Y00036271D01*
X00012160Y00039326D01*
X00000039Y00039326D01*
X00000039Y00025236D01*
X00002306Y00025236D01*
M02*