%
M48
METRIC,000.000
T01C5.00
T100C0.97
T101C0.40
T102C0.92
T103C0.50
%
T01
X027444Y068188
X062444Y068188
X096444Y068188
X027444Y029188
X062444Y029188
X096444Y029188
T100
X009245Y078927
X018234Y068422
X009245Y076387
X018234Y070962
X002181Y096552
X013751Y068386
X009245Y084007
X002786Y065915
X015085Y096956
X025245Y096956
X013751Y065846
X002786Y068455
X002181Y088932
X017625Y096956
X022705Y096956
X002181Y091472
X013751Y070926
X009245Y081467
X027785Y096956
X002181Y094012
X018234Y065882
X020165Y096956
X044245Y078927
X053234Y068422
X044245Y076387
X053234Y070962
X037181Y096552
X048751Y068386
X044245Y084007
X037786Y065915
X050085Y096956
X060245Y096956
X048751Y065846
X037786Y068455
X037181Y088932
X052625Y096956
X057705Y096956
X037181Y091472
X048751Y070926
X044245Y081467
X062785Y096956
X037181Y094012
X053234Y065882
X055165Y096956
X078245Y078927
X087234Y068422
X078245Y076387
X087234Y070962
X071181Y096552
X082751Y068386
X078245Y084007
X071786Y065915
X084085Y096956
X094245Y096956
X082751Y065846
X071786Y068455
X071181Y088932
X086625Y096956
X091705Y096956
X071181Y091472
X082751Y070926
X078245Y081467
X096785Y096956
X071181Y094012
X087234Y065882
X089165Y096956
X009245Y039927
X018234Y029422
X009245Y037387
X018234Y031962
X002181Y057552
X013751Y029386
X009245Y045007
X002786Y026915
X015085Y057956
X025245Y057956
X013751Y026846
X002786Y029455
X002181Y049932
X017625Y057956
X022705Y057956
X002181Y052472
X013751Y031926
X009245Y042467
X027785Y057956
X002181Y055012
X018234Y026882
X020165Y057956
X044245Y039927
X053234Y029422
X044245Y037387
X053234Y031962
X037181Y057552
X048751Y029386
X044245Y045007
X037786Y026915
X050085Y057956
X060245Y057956
X048751Y026846
X037786Y029455
X037181Y049932
X052625Y057956
X057705Y057956
X037181Y052472
X048751Y031926
X044245Y042467
X062785Y057956
X037181Y055012
X053234Y026882
X055165Y057956
X078245Y039927
X087234Y029422
X078245Y037387
X087234Y031962
X071181Y057552
X082751Y029386
X078245Y045007
X071786Y026915
X084085Y057956
X094245Y057956
X082751Y026846
X071786Y029455
X071181Y049932
X086625Y057956
X091705Y057956
X071181Y052472
X082751Y031926
X078245Y042467
X096785Y057956
X071181Y055012
X087234Y026882
X089165Y057956
T101
X022562Y078998
X057562Y078998
X091562Y078998
X022562Y039998
X057562Y039998
X091562Y039998
T102
X005811Y089118
X028671Y091658
X028671Y078958
X028671Y081498
X005811Y081498
X005811Y086578
X028671Y084038
X005811Y078958
X028671Y076418
X028671Y086578
X028671Y073878
X005811Y076418
X005811Y091658
X028671Y089118
X005811Y084038
X005811Y073878
X040811Y089118
X063671Y091658
X063671Y078958
X063671Y081498
X040811Y081498
X040811Y086578
X063671Y084038
X040811Y078958
X063671Y076418
X063671Y086578
X063671Y073878
X040811Y076418
X040811Y091658
X063671Y089118
X040811Y084038
X040811Y073878
X074811Y089118
X097671Y091658
X097671Y078958
X097671Y081498
X074811Y081498
X074811Y086578
X097671Y084038
X074811Y078958
X097671Y076418
X097671Y086578
X097671Y073878
X074811Y076418
X074811Y091658
X097671Y089118
X074811Y084038
X074811Y073878
X005811Y050118
X028671Y052658
X028671Y039958
X028671Y042498
X005811Y042498
X005811Y047578
X028671Y045038
X005811Y039958
X028671Y037418
X028671Y047578
X028671Y034878
X005811Y037418
X005811Y052658
X028671Y050118
X005811Y045038
X005811Y034878
X040811Y050118
X063671Y052658
X063671Y039958
X063671Y042498
X040811Y042498
X040811Y047578
X063671Y045038
X040811Y039958
X063671Y037418
X063671Y047578
X063671Y034878
X040811Y037418
X040811Y052658
X063671Y050118
X040811Y045038
X040811Y034878
X074811Y050118
X097671Y052658
X097671Y039958
X097671Y042498
X074811Y042498
X074811Y047578
X097671Y045038
X074811Y039958
X097671Y037418
X097671Y047578
X097671Y034878
X074811Y037418
X074811Y052658
X097671Y050118
X074811Y045038
X074811Y034878
T103
X006168Y063851
X007168Y063851
X008167Y063851
X009168Y063851
X010168Y063851
X010460Y061140
X009460Y061140
X008460Y061140
X007460Y061140
X006460Y061140
X005460Y061140
X040168Y063851
X041168Y063851
X042168Y063851
X043168Y063851
X044168Y063851
X045168Y063851
X044460Y061140
X043460Y061140
X042460Y061140
X041460Y061140
X074168Y063851
X075168Y063851
X076168Y063851
X077168Y063851
X078168Y063851
X079168Y063851
X078460Y061140
X077460Y061140
X076460Y061140
X075460Y061140
X066136Y027708
X066136Y028708
X066136Y029708
X066136Y030708
X066136Y031708
X066136Y032708
X068851Y031641
X068851Y030641
X068851Y029641
X068851Y028641
X068851Y027641
X031136Y027708
X031136Y028708
X031136Y029708
X031136Y030708
X031136Y031708
X034851Y031641
X034851Y030641
X034851Y029641
X034851Y028641
X034851Y027641
X031136Y047708
X031136Y048708
X031136Y049708
X031136Y050708
X031136Y051708
X034851Y051641
X034851Y050641
X034851Y049641
X034851Y048641
X034851Y047641
X066136Y047708
X066136Y048708
X066136Y049708
X066136Y050708
X066136Y051708
X066136Y052708
X068851Y051641
X068851Y050641
X068851Y049641
X068851Y048641
X068851Y047641
X090168Y063851
X091168Y063851
X092168Y063851
X093168Y063851
X094168Y063851
X095168Y063851
X094460Y061140
X093460Y061140
X092460Y061140
X091460Y061140
X090460Y061140
X057168Y063851
X058168Y063851
X059168Y063851
X060168Y063851
X061168Y063851
X062168Y063851
X061460Y061140
X060460Y061140
X059460Y061140
X058460Y061140
X023168Y063851
X024168Y063851
X025168Y063851
X026168Y063851
X027168Y063851
X027460Y061140
X026460Y061140
X025460Y061140
X024460Y061140
X023460Y061140
X022460Y061140
X031136Y087708
X031136Y088708
X031136Y089708
X031136Y090708
X031136Y091708
X034851Y091641
X034851Y090641
X034851Y089641
X034851Y088641
X034851Y087641
X031136Y071708
X031136Y072708
X031136Y073708
X031136Y074708
X031136Y075708
X034851Y075641
X034851Y074641
X034851Y073641
X034851Y072641
X034851Y071641
X066136Y087708
X066136Y088708
X066136Y089708
X066136Y090708
X066136Y091708
X066136Y092708
X068851Y091641
X068851Y090641
X068851Y089641
X068851Y088641
X068851Y087641
X066136Y071708
X066136Y072708
X066136Y073708
X066136Y074708
X066136Y075708
X066136Y076708
X068851Y075641
X068851Y074641
X068851Y073641
X068851Y072641
X068851Y071641
M30