0
SECTION
2
HEADER
9
$INSUNITS
70
1
0
ENDSEC
0
SECTION
2
TABLES
0
TABLE
2
LAYER
0
ENDTAB
0
ENDSEC
0
SECTION
2
ENTITIES
0
LINE
8
front_outsideCutPath
10
0
20
25
11
0
21
18.875
0
LINE
8
front_outsideCutPath
10
0
20
18.875
11
3
21
18.875
0
LINE
8
front_outsideCutPath
10
3
20
18.875
11
3
21
9.125
0
LINE
8
front_outsideCutPath
10
3
20
9.125
11
0
21
9.125
0
LINE
8
front_outsideCutPath
10
0
20
9.125
11
0
21
3
0
LINE
8
front_outsideCutPath
10
0
20
3
11
13.875
21
3
0
LINE
8
front_outsideCutPath
10
13.875
20
3
11
13.875
21
6
0
LINE
8
front_outsideCutPath
10
13.875
20
6
11
23.625
21
6
0
LINE
8
front_outsideCutPath
10
23.625
20
6
11
23.625
21
3
0
LINE
8
front_outsideCutPath
10
23.625
20
3
11
33.375
21
3
0
LINE
8
front_outsideCutPath
10
33.375
20
3
11
33.375
21
6
0
LINE
8
front_outsideCutPath
10
33.375
20
6
11
43.125
21
6
0
LINE
8
front_outsideCutPath
10
43.125
20
6
11
43.125
21
3
0
LINE
8
front_outsideCutPath
10
43.125
20
3
11
52.875
21
3
0
LINE
8
front_outsideCutPath
10
52.875
20
3
11
57
21
3
0
LINE
8
front_outsideCutPath
10
57
20
3
11
57
21
9.125
0
LINE
8
front_outsideCutPath
10
57
20
9.125
11
54
21
9.125
0
LINE
8
front_outsideCutPath
10
54
20
9.125
11
54
21
18.875
0
LINE
8
front_outsideCutPath
10
54
20
18.875
11
57
21
18.875
0
LINE
8
front_outsideCutPath
10
57
20
18.875
11
57
21
25
0
LINE
8
front_outsideCutPath
10
57
20
25
11
43.125
21
25
0
LINE
8
front_outsideCutPath
10
43.125
20
25
11
43.125
21
22
0
LINE
8
front_outsideCutPath
10
43.125
20
22
11
33.375
21
22
0
LINE
8
front_outsideCutPath
10
33.375
20
22
11
33.375
21
25
0
LINE
8
front_outsideCutPath
10
33.375
20
25
11
23.625
21
25
0
LINE
8
front_outsideCutPath
10
23.625
20
25
11
23.625
21
22
0
LINE
8
front_outsideCutPath
10
23.625
20
22
11
13.875
21
22
0
LINE
8
front_outsideCutPath
10
13.875
20
22
11
13.875
21
25
0
LINE
8
front_outsideCutPath
10
13.875
20
25
11
4.125
21
25
0
LINE
8
front_outsideCutPath
10
4.125
20
25
11
0
21
25
0
LINE
8
left_outsideCutPath
10
63
20
25
11
63
21
18.875
0
LINE
8
left_outsideCutPath
10
63
20
18.875
11
60
21
18.875
0
LINE
8
left_outsideCutPath
10
60
20
18.875
11
60
21
9.125
0
LINE
8
left_outsideCutPath
10
60
20
9.125
11
63
21
9.125
0
LINE
8
left_outsideCutPath
10
63
20
9.125
11
63
21
3
0
LINE
8
left_outsideCutPath
10
63
20
3
11
74.625
21
3
0
LINE
8
left_outsideCutPath
10
74.625
20
3
11
74.625
21
6
0
LINE
8
left_outsideCutPath
10
74.625
20
6
11
84.375
21
6
0
LINE
8
left_outsideCutPath
10
84.375
20
6
11
84.375
21
3
0
LINE
8
left_outsideCutPath
10
84.375
20
3
11
94.125
21
3
0
LINE
8
left_outsideCutPath
10
94.125
20
3
11
96
21
3
0
LINE
8
left_outsideCutPath
10
96
20
3
11
96
21
9.125
0
LINE
8
left_outsideCutPath
10
96
20
9.125
11
99
21
9.125
0
LINE
8
left_outsideCutPath
10
99
20
9.125
11
99
21
18.875
0
LINE
8
left_outsideCutPath
10
99
20
18.875
11
96
21
18.875
0
LINE
8
left_outsideCutPath
10
96
20
18.875
11
96
21
25
0
LINE
8
left_outsideCutPath
10
96
20
25
11
84.375
21
25
0
LINE
8
left_outsideCutPath
10
84.375
20
25
11
84.375
21
22
0
LINE
8
left_outsideCutPath
10
84.375
20
22
11
74.625
21
22
0
LINE
8
left_outsideCutPath
10
74.625
20
22
11
74.625
21
25
0
LINE
8
left_outsideCutPath
10
74.625
20
25
11
64.875
21
25
0
LINE
8
left_outsideCutPath
10
64.875
20
25
11
63
21
25
0
LINE
8
top_outsideCutPath
10
105
20
39
11
105
21
27.375
0
LINE
8
top_outsideCutPath
10
105
20
27.375
11
102
21
27.375
0
LINE
8
top_outsideCutPath
10
102
20
27.375
11
102
21
17.625
0
LINE
8
top_outsideCutPath
10
102
20
17.625
11
105
21
17.625
0
LINE
8
top_outsideCutPath
10
105
20
17.625
11
105
21
7.875
0
LINE
8
top_outsideCutPath
10
105
20
7.875
11
105
21
6
0
LINE
8
top_outsideCutPath
10
105
20
6
11
115.875
21
6
0
LINE
8
top_outsideCutPath
10
115.875
20
6
11
115.875
21
3
0
LINE
8
top_outsideCutPath
10
115.875
20
3
11
125.625
21
3
0
LINE
8
top_outsideCutPath
10
125.625
20
3
11
125.625
21
6
0
LINE
8
top_outsideCutPath
10
125.625
20
6
11
135.375
21
6
0
LINE
8
top_outsideCutPath
10
135.375
20
6
11
135.375
21
3
0
LINE
8
top_outsideCutPath
10
135.375
20
3
11
145.125
21
3
0
LINE
8
top_outsideCutPath
10
145.125
20
3
11
145.125
21
6
0
LINE
8
top_outsideCutPath
10
145.125
20
6
11
154.875
21
6
0
LINE
8
top_outsideCutPath
10
154.875
20
6
11
156
21
6
0
LINE
8
top_outsideCutPath
10
156
20
6
11
156
21
17.625
0
LINE
8
top_outsideCutPath
10
156
20
17.625
11
159
21
17.625
0
LINE
8
top_outsideCutPath
10
159
20
17.625
11
159
21
27.375
0
LINE
8
top_outsideCutPath
10
159
20
27.375
11
156
21
27.375
0
LINE
8
top_outsideCutPath
10
156
20
27.375
11
156
21
37.125
0
LINE
8
top_outsideCutPath
10
156
20
37.125
11
156
21
39
0
LINE
8
top_outsideCutPath
10
156
20
39
11
145.125
21
39
0
LINE
8
top_outsideCutPath
10
145.125
20
39
11
145.125
21
42
0
LINE
8
top_outsideCutPath
10
145.125
20
42
11
135.375
21
42
0
LINE
8
top_outsideCutPath
10
135.375
20
42
11
135.375
21
39
0
LINE
8
top_outsideCutPath
10
135.375
20
39
11
125.625
21
39
0
LINE
8
top_outsideCutPath
10
125.625
20
39
11
125.625
21
42
0
LINE
8
top_outsideCutPath
10
125.625
20
42
11
115.875
21
42
0
LINE
8
top_outsideCutPath
10
115.875
20
42
11
115.875
21
39
0
LINE
8
top_outsideCutPath
10
115.875
20
39
11
106.125
21
39
0
LINE
8
top_outsideCutPath
10
106.125
20
39
11
105
21
39
0
LINE
8
back_outsideCutPath
10
0
20
50
11
0
21
43.875
0
LINE
8
back_outsideCutPath
10
0
20
43.875
11
3
21
43.875
0
LINE
8
back_outsideCutPath
10
3
20
43.875
11
3
21
34.125
0
LINE
8
back_outsideCutPath
10
3
20
34.125
11
0
21
34.125
0
LINE
8
back_outsideCutPath
10
0
20
34.125
11
0
21
28
0
LINE
8
back_outsideCutPath
10
0
20
28
11
13.875
21
28
0
LINE
8
back_outsideCutPath
10
13.875
20
28
11
13.875
21
31
0
LINE
8
back_outsideCutPath
10
13.875
20
31
11
23.625
21
31
0
LINE
8
back_outsideCutPath
10
23.625
20
31
11
23.625
21
28
0
LINE
8
back_outsideCutPath
10
23.625
20
28
11
33.375
21
28
0
LINE
8
back_outsideCutPath
10
33.375
20
28
11
33.375
21
31
0
LINE
8
back_outsideCutPath
10
33.375
20
31
11
43.125
21
31
0
LINE
8
back_outsideCutPath
10
43.125
20
31
11
43.125
21
28
0
LINE
8
back_outsideCutPath
10
43.125
20
28
11
52.875
21
28
0
LINE
8
back_outsideCutPath
10
52.875
20
28
11
57
21
28
0
LINE
8
back_outsideCutPath
10
57
20
28
11
57
21
34.125
0
LINE
8
back_outsideCutPath
10
57
20
34.125
11
54
21
34.125
0
LINE
8
back_outsideCutPath
10
54
20
34.125
11
54
21
43.875
0
LINE
8
back_outsideCutPath
10
54
20
43.875
11
57
21
43.875
0
LINE
8
back_outsideCutPath
10
57
20
43.875
11
57
21
50
0
LINE
8
back_outsideCutPath
10
57
20
50
11
43.125
21
50
0
LINE
8
back_outsideCutPath
10
43.125
20
50
11
43.125
21
47
0
LINE
8
back_outsideCutPath
10
43.125
20
47
11
33.375
21
47
0
LINE
8
back_outsideCutPath
10
33.375
20
47
11
33.375
21
50
0
LINE
8
back_outsideCutPath
10
33.375
20
50
11
23.625
21
50
0
LINE
8
back_outsideCutPath
10
23.625
20
50
11
23.625
21
47
0
LINE
8
back_outsideCutPath
10
23.625
20
47
11
13.875
21
47
0
LINE
8
back_outsideCutPath
10
13.875
20
47
11
13.875
21
50
0
LINE
8
back_outsideCutPath
10
13.875
20
50
11
4.125
21
50
0
LINE
8
back_outsideCutPath
10
4.125
20
50
11
0
21
50
0
LINE
8
right_outsideCutPath
10
63
20
50
11
63
21
43.875
0
LINE
8
right_outsideCutPath
10
63
20
43.875
11
60
21
43.875
0
LINE
8
right_outsideCutPath
10
60
20
43.875
11
60
21
34.125
0
LINE
8
right_outsideCutPath
10
60
20
34.125
11
63
21
34.125
0
LINE
8
right_outsideCutPath
10
63
20
34.125
11
63
21
28
0
LINE
8
right_outsideCutPath
10
63
20
28
11
74.625
21
28
0
LINE
8
right_outsideCutPath
10
74.625
20
28
11
74.625
21
31
0
LINE
8
right_outsideCutPath
10
74.625
20
31
11
84.375
21
31
0
LINE
8
right_outsideCutPath
10
84.375
20
31
11
84.375
21
28
0
LINE
8
right_outsideCutPath
10
84.375
20
28
11
94.125
21
28
0
LINE
8
right_outsideCutPath
10
94.125
20
28
11
96
21
28
0
LINE
8
right_outsideCutPath
10
96
20
28
11
96
21
34.125
0
LINE
8
right_outsideCutPath
10
96
20
34.125
11
99
21
34.125
0
LINE
8
right_outsideCutPath
10
99
20
34.125
11
99
21
43.875
0
LINE
8
right_outsideCutPath
10
99
20
43.875
11
96
21
43.875
0
LINE
8
right_outsideCutPath
10
96
20
43.875
11
96
21
50
0
LINE
8
right_outsideCutPath
10
96
20
50
11
84.375
21
50
0
LINE
8
right_outsideCutPath
10
84.375
20
50
11
84.375
21
47
0
LINE
8
right_outsideCutPath
10
84.375
20
47
11
74.625
21
47
0
LINE
8
right_outsideCutPath
10
74.625
20
47
11
74.625
21
50
0
LINE
8
right_outsideCutPath
10
74.625
20
50
11
64.875
21
50
0
LINE
8
right_outsideCutPath
10
64.875
20
50
11
63
21
50
0
LINE
8
bottom_outsideCutPath
10
105
20
81
11
105
21
69.375
0
LINE
8
bottom_outsideCutPath
10
105
20
69.375
11
102
21
69.375
0
LINE
8
bottom_outsideCutPath
10
102
20
69.375
11
102
21
59.625
0
LINE
8
bottom_outsideCutPath
10
102
20
59.625
11
105
21
59.625
0
LINE
8
bottom_outsideCutPath
10
105
20
59.625
11
105
21
49.875
0
LINE
8
bottom_outsideCutPath
10
105
20
49.875
11
105
21
48
0
LINE
8
bottom_outsideCutPath
10
105
20
48
11
115.875
21
48
0
LINE
8
bottom_outsideCutPath
10
115.875
20
48
11
115.875
21
45
0
LINE
8
bottom_outsideCutPath
10
115.875
20
45
11
125.625
21
45
0
LINE
8
bottom_outsideCutPath
10
125.625
20
45
11
125.625
21
48
0
LINE
8
bottom_outsideCutPath
10
125.625
20
48
11
135.375
21
48
0
LINE
8
bottom_outsideCutPath
10
135.375
20
48
11
135.375
21
45
0
LINE
8
bottom_outsideCutPath
10
135.375
20
45
11
145.125
21
45
0
LINE
8
bottom_outsideCutPath
10
145.125
20
45
11
145.125
21
48
0
LINE
8
bottom_outsideCutPath
10
145.125
20
48
11
154.875
21
48
0
LINE
8
bottom_outsideCutPath
10
154.875
20
48
11
156
21
48
0
LINE
8
bottom_outsideCutPath
10
156
20
48
11
156
21
59.625
0
LINE
8
bottom_outsideCutPath
10
156
20
59.625
11
159
21
59.625
0
LINE
8
bottom_outsideCutPath
10
159
20
59.625
11
159
21
69.375
0
LINE
8
bottom_outsideCutPath
10
159
20
69.375
11
156
21
69.375
0
LINE
8
bottom_outsideCutPath
10
156
20
69.375
11
156
21
79.125
0
LINE
8
bottom_outsideCutPath
10
156
20
79.125
11
156
21
81
0
LINE
8
bottom_outsideCutPath
10
156
20
81
11
145.125
21
81
0
LINE
8
bottom_outsideCutPath
10
145.125
20
81
11
145.125
21
84
0
LINE
8
bottom_outsideCutPath
10
145.125
20
84
11
135.375
21
84
0
LINE
8
bottom_outsideCutPath
10
135.375
20
84
11
135.375
21
81
0
LINE
8
bottom_outsideCutPath
10
135.375
20
81
11
125.625
21
81
0
LINE
8
bottom_outsideCutPath
10
125.625
20
81
11
125.625
21
84
0
LINE
8
bottom_outsideCutPath
10
125.625
20
84
11
115.875
21
84
0
LINE
8
bottom_outsideCutPath
10
115.875
20
84
11
115.875
21
81
0
LINE
8
bottom_outsideCutPath
10
115.875
20
81
11
106.125
21
81
0
LINE
8
bottom_outsideCutPath
10
106.125
20
81
11
105
21
81
0
ENDSEC
0
EOF