<?xml version="1.0" encoding="UTF-8" standalone="no"?>
<svg
   xmlns:dc="http://purl.org/dc/elements/1.1/"
   xmlns:cc="http://creativecommons.org/ns#"
   xmlns:rdf="http://www.w3.org/1999/02/22-rdf-syntax-ns#"
   xmlns:svg="http://www.w3.org/2000/svg"
   xmlns="http://www.w3.org/2000/svg"
   xmlns:sodipodi="http://sodipodi.sourceforge.net/DTD/sodipodi-0.dtd"
   xmlns:inkscape="http://www.inkscape.org/namespaces/inkscape"
   width="159.09999mm"
   height="81.099998mm"
   viewBox="0 0 159.09999 81.099998"
   version="1.1"
   preserveAspectRatio="xMidYMid meet"
   id="svg885"
   sodipodi:docname="V1.4 ]box.svg"
   inkscape:version="0.92.4 (5da689c313, 2019-01-14)">
  <metadata
     id="metadata891">
    <rdf:RDF>
      <cc:Work
         rdf:about="">
        <dc:format>image/svg+xml</dc:format>
        <dc:type
           rdf:resource="http://purl.org/dc/dcmitype/StillImage" />
        <dc:title></dc:title>
      </cc:Work>
    </rdf:RDF>
  </metadata>
  <defs
     id="defs889" />
  <sodipodi:namedview
     pagecolor="#ffffff"
     bordercolor="#666666"
     borderopacity="1"
     objecttolerance="10"
     gridtolerance="10"
     guidetolerance="10"
     inkscape:pageopacity="0"
     inkscape:pageshadow="2"
     inkscape:window-width="2560"
     inkscape:window-height="1057"
     id="namedview887"
     showgrid="false"
     inkscape:zoom="1.8903564"
     inkscape:cx="300.66142"
     inkscape:cy="153.25984"
     inkscape:window-x="-8"
     inkscape:window-y="-8"
     inkscape:window-maximized="1"
     inkscape:current-layer="svg885"
     inkscape:document-units="mm"
     fit-margin-top="0"
     fit-margin-left="0"
     fit-margin-right="0"
     fit-margin-bottom="0" />
  <g
     id="svgGroup"
     font-size="9pt"
     style="font-size:12px;fill:none;fill-rule:evenodd;stroke:#000000;stroke-width:0.25000001mm;stroke-linecap:round"
     transform="rotate(-180,79.525,40.525)">
    <path
       d="m 0,54 v 8.438 H 3 V 72.563 H 0 V 81 h 13.313 v -3 h 10.125 v 3 h 10.125 v -3 h 10.125 v 3 H 53.813 57 V 72.563 H 54 V 62.438 h 3 V 54 H 43.688 v 3 H 33.563 V 54 H 23.438 v 3 H 13.313 V 54 H 3.188 Z"
       id="front_outsideCutPath"
       style="vector-effect:non-scaling-stroke;stroke:#ff0000;stroke-width:0.1"
       inkscape:connector-curvature="0" />
    <path
       d="m 63,54 v 8.438 h -3 v 10.125 h 3 V 81 h 11.438 v -3 h 10.125 v 3 H 94.688 96 v -8.437 h 3 V 62.438 H 96 V 54 H 84.563 v 3 H 74.438 V 54 H 64.313 Z"
       id="left_outsideCutPath"
       style="vector-effect:non-scaling-stroke;stroke:#ff0000;stroke-width:0.1"
       inkscape:connector-curvature="0" />
    <path
       d="m 105,45 v 11.438 h -3 v 10.125 h 3 V 76.688 78 h 10.313 v 3 h 10.125 v -3 h 10.125 v 3 h 10.125 V 78 H 155.813 156 V 66.563 h 3 V 56.438 h -3 V 46.313 45 h -10.312 v -3 h -10.125 v 3 h -10.125 v -3 h -10.125 v 3 h -10.125 z"
       id="top_outsideCutPath"
       style="vector-effect:non-scaling-stroke;stroke:#ff0000;stroke-width:0.1"
       inkscape:connector-curvature="0" />
    <path
       d="m 0,24 v 8.438 H 3 V 42.563 H 0 V 51 h 13.313 v -3 h 10.125 v 3 h 10.125 v -3 h 10.125 v 3 H 53.813 57 V 42.563 H 54 V 32.438 h 3 V 24 H 43.688 v 3 H 33.563 V 24 H 23.438 v 3 H 13.313 V 24 H 3.188 Z"
       id="back_outsideCutPath"
       style="vector-effect:non-scaling-stroke;stroke:#ff0000;stroke-width:0.1"
       inkscape:connector-curvature="0" />
    <path
       d="m 63,24 v 8.438 h -3 v 10.125 h 3 V 51 h 11.438 v -3 h 10.125 v 3 H 94.688 96 v -8.437 h 3 V 32.438 H 96 V 24 H 84.563 v 3 H 74.438 V 24 H 64.313 Z"
       id="right_outsideCutPath"
       style="vector-effect:non-scaling-stroke;stroke:#ff0000;stroke-width:0.1"
       inkscape:connector-curvature="0" />
    <path
       d="m 105,3 v 11.438 h -3 v 10.125 h 3 V 34.688 36 h 10.313 v 3 h 10.125 v -3 h 10.125 v 3 h 10.125 V 36 H 155.813 156 V 24.563 h 3 V 14.438 h -3 V 4.313 3 H 145.688 V 0 H 135.563 V 3 H 125.438 V 0 h -10.125 v 3 h -10.125 z"
       id="bottom_outsideCutPath"
       style="vector-effect:non-scaling-stroke;stroke:#ff0000;stroke-width:0.1"
       inkscape:connector-curvature="0" />
  </g>
  <text
     xml:space="preserve"
     style="font-style:normal;font-variant:normal;font-weight:normal;font-stretch:normal;font-size:11.09109879px;line-height:13.86387157px;font-family:'Franklin Gothic Heavy';-inkscape-font-specification:'Franklin Gothic Heavy, ';letter-spacing:0px;word-spacing:0px;fill:#000000;fill-opacity:0.98604647;stroke:none;stroke-width:0.27771404;stroke-miterlimit:4;stroke-dasharray:none;stroke-opacity:1"
     x="-53.163738"
     y="32.761589"
     id="text4590"
     transform="scale(-1,1)"><tspan
       sodipodi:role="line"
       id="tspan4588"
       x="-53.163738"
       y="32.761589"
       style="font-style:normal;font-variant:normal;font-weight:normal;font-stretch:normal;font-size:8.87287807px;line-height:13.86387157px;font-family:'Franklin Gothic Heavy';-inkscape-font-specification:'Franklin Gothic Heavy, ';fill:#000000;fill-opacity:0.98604647;stroke:none;stroke-width:0.27771404;stroke-miterlimit:4;stroke-dasharray:none;stroke-opacity:1">ResQ</tspan></text>
  <text
     xml:space="preserve"
     style="font-style:normal;font-variant:normal;font-weight:normal;font-stretch:normal;font-size:2.71201038px;line-height:3.39001322px;font-family:Bahnschrift;-inkscape-font-specification:Bahnschrift;letter-spacing:0px;word-spacing:0px;fill:#000000;fill-opacity:1;stroke:none;stroke-width:0.3390013"
     x="-51.999878"
     y="6.6750383"
     id="text5237"
     transform="scale(-1,1)"><tspan
       sodipodi:role="line"
       id="tspan5235"
       x="-51.999878"
       y="6.6750383"
       style="font-style:normal;font-variant:normal;font-weight:bold;font-stretch:normal;line-height:3.39001322px;font-family:'Franklin Gothic Heavy';-inkscape-font-specification:'Franklin Gothic Heavy,  Bold';stroke-width:0.3390013">OPEN SOURCE SEARCH AND RESCUE</tspan></text>
  <text
     xml:space="preserve"
     style="font-style:normal;font-variant:normal;font-weight:bold;font-stretch:normal;font-size:4.07473469px;line-height:21.39235306px;font-family:Bahnschrift;-inkscape-font-specification:'Bahnschrift Bold';letter-spacing:0px;word-spacing:0px;fill:#000000;fill-opacity:1;stroke:none;stroke-width:0.50934184"
     x="-28.981558"
     y="33.558411"
     id="text5267"
     transform="scale(-1,1)"><tspan
       sodipodi:role="line"
       id="tspan5265"
       x="-28.981558"
       y="33.558411"
       style="font-style:normal;font-variant:normal;font-weight:bold;font-stretch:normal;font-size:4.07473469px;line-height:21.39235306px;font-family:'Franklin Gothic Heavy';-inkscape-font-specification:'Franklin Gothic Heavy,  Bold';stroke-width:0.50934184">MKME.ORG</tspan></text>
  <rect
     style="fill:none;fill-opacity:1;fill-rule:nonzero;stroke:#fd0000;stroke-width:0.10272746;stroke-linecap:round;stroke-linejoin:round;stroke-miterlimit:4;stroke-dasharray:none;stroke-opacity:1;paint-order:stroke fill markers"
     id="rect4560"
     width="25.997272"
     height="18.997272"
     x="5.2410169"
     y="-27.670626"
     transform="scale(1,-1)" />
  <ellipse
     style="fill:none;fill-opacity:1;fill-rule:nonzero;stroke:#ff0808;stroke-width:0.17088602;stroke-linecap:round;stroke-linejoin:round;stroke-miterlimit:4;stroke-dasharray:none;stroke-opacity:1;paint-order:stroke fill markers"
     id="path4586"
     cx="80.017334"
     cy="-13.753122"
     rx="3.1645572"
     ry="3.164557"
     transform="scale(1,-1)" />
  <rect
     style="fill:none;fill-opacity:1;fill-rule:nonzero;stroke:#ff0000;stroke-width:0.11386964;stroke-linecap:round;stroke-linejoin:round;stroke-miterlimit:4;stroke-dasharray:none;stroke-opacity:1;paint-order:stroke fill markers"
     id="rect5269"
     width="11.720024"
     height="3.3956463"
     x="80.201752"
     y="-51.786396"
     transform="scale(1,-1)" />
</svg>
