G04 MADE WITH FRITZING*
G04 WWW.FRITZING.ORG*
G04 DOUBLE SIDED*
G04 HOLES PLATED*
G04 CONTOUR ON CENTER OF CONTOUR VECTOR*
%ASAXBY*%
%FSLAX23Y23*%
%MOIN*%
%OFA0B0*%
%SFA1.0B1.0*%
%ADD10C,0.075000*%
%ADD11C,0.078000*%
%ADD12C,0.077778*%
%ADD13C,0.039370*%
%ADD14C,0.024000*%
%LNCOPPER0*%
G90*
G70*
G54D10*
X183Y1285D03*
X390Y1168D03*
G54D11*
X1094Y1298D03*
X994Y1298D03*
X894Y1298D03*
X794Y1298D03*
X694Y1298D03*
X594Y1298D03*
X364Y488D03*
X364Y588D03*
X364Y688D03*
X364Y788D03*
X110Y75D03*
X110Y175D03*
X718Y74D03*
X718Y174D03*
X718Y274D03*
X86Y982D03*
X86Y1082D03*
X86Y1182D03*
X86Y1282D03*
X541Y73D03*
X541Y173D03*
X541Y273D03*
G54D12*
X1129Y1089D03*
X1129Y989D03*
X1129Y889D03*
X1129Y789D03*
X1129Y689D03*
X1129Y589D03*
X1129Y489D03*
X1129Y389D03*
X229Y389D03*
X229Y489D03*
X229Y589D03*
X229Y689D03*
X229Y789D03*
X229Y889D03*
X229Y989D03*
X229Y1089D03*
X1129Y1089D03*
X1129Y989D03*
X1129Y889D03*
X1129Y789D03*
X1129Y689D03*
X1129Y589D03*
X1129Y489D03*
X1129Y389D03*
X229Y389D03*
X229Y489D03*
X229Y589D03*
X229Y689D03*
X229Y789D03*
X229Y889D03*
X229Y989D03*
X229Y1089D03*
G54D13*
X888Y591D03*
G54D14*
X387Y332D02*
X250Y468D01*
D02*
X390Y211D02*
X387Y332D01*
D02*
X389Y175D02*
X390Y211D01*
D02*
X511Y173D02*
X389Y175D01*
D02*
X821Y394D02*
X678Y677D01*
D02*
X678Y677D02*
X587Y785D01*
D02*
X1018Y394D02*
X821Y394D01*
D02*
X587Y785D02*
X394Y787D01*
D02*
X1100Y390D02*
X1018Y394D01*
D02*
X699Y766D02*
X768Y685D01*
D02*
X768Y685D02*
X1123Y682D01*
D02*
X694Y1267D02*
X699Y766D01*
D02*
X1123Y682D02*
X1110Y667D01*
D02*
X797Y837D02*
X856Y778D01*
D02*
X856Y778D02*
X1130Y782D01*
D02*
X794Y1267D02*
X797Y837D01*
D02*
X1130Y782D02*
X1132Y760D01*
D02*
X487Y1278D02*
X204Y1195D01*
D02*
X204Y1195D02*
X91Y1087D01*
D02*
X564Y1292D02*
X487Y1278D01*
D02*
X91Y1087D02*
X106Y1104D01*
D02*
X907Y590D02*
X1100Y589D01*
G36*
X733Y1269D02*
X733Y1267D01*
X731Y1267D01*
X731Y1265D01*
X729Y1265D01*
X729Y1263D01*
X727Y1263D01*
X727Y1261D01*
X725Y1261D01*
X725Y1259D01*
X723Y1259D01*
X723Y1257D01*
X719Y1257D01*
X719Y1255D01*
X717Y1255D01*
X717Y1043D01*
X719Y1043D01*
X719Y827D01*
X721Y827D01*
X721Y773D01*
X723Y773D01*
X723Y771D01*
X725Y771D01*
X725Y767D01*
X727Y767D01*
X727Y765D01*
X729Y765D01*
X729Y763D01*
X731Y763D01*
X731Y761D01*
X733Y761D01*
X733Y759D01*
X735Y759D01*
X735Y757D01*
X847Y757D01*
X847Y759D01*
X843Y759D01*
X843Y761D01*
X841Y761D01*
X841Y763D01*
X839Y763D01*
X839Y765D01*
X837Y765D01*
X837Y767D01*
X835Y767D01*
X835Y769D01*
X833Y769D01*
X833Y771D01*
X831Y771D01*
X831Y773D01*
X829Y773D01*
X829Y775D01*
X827Y775D01*
X827Y777D01*
X825Y777D01*
X825Y779D01*
X823Y779D01*
X823Y781D01*
X821Y781D01*
X821Y783D01*
X819Y783D01*
X819Y785D01*
X817Y785D01*
X817Y787D01*
X815Y787D01*
X815Y789D01*
X813Y789D01*
X813Y791D01*
X811Y791D01*
X811Y793D01*
X809Y793D01*
X809Y795D01*
X807Y795D01*
X807Y797D01*
X805Y797D01*
X805Y799D01*
X803Y799D01*
X803Y801D01*
X801Y801D01*
X801Y803D01*
X799Y803D01*
X799Y805D01*
X797Y805D01*
X797Y807D01*
X795Y807D01*
X795Y809D01*
X793Y809D01*
X793Y811D01*
X791Y811D01*
X791Y813D01*
X789Y813D01*
X789Y815D01*
X787Y815D01*
X787Y817D01*
X785Y817D01*
X785Y819D01*
X783Y819D01*
X783Y821D01*
X781Y821D01*
X781Y823D01*
X779Y823D01*
X779Y825D01*
X777Y825D01*
X777Y829D01*
X775Y829D01*
X775Y949D01*
X773Y949D01*
X773Y1243D01*
X771Y1243D01*
X771Y1255D01*
X767Y1255D01*
X767Y1257D01*
X765Y1257D01*
X765Y1259D01*
X763Y1259D01*
X763Y1261D01*
X759Y1261D01*
X759Y1263D01*
X757Y1263D01*
X757Y1267D01*
X755Y1267D01*
X755Y1269D01*
X733Y1269D01*
G37*
D02*
G36*
X1011Y759D02*
X1011Y757D01*
X1091Y757D01*
X1091Y759D01*
X1011Y759D01*
G37*
D02*
G36*
X735Y757D02*
X735Y755D01*
X1093Y755D01*
X1093Y757D01*
X735Y757D01*
G37*
D02*
G36*
X735Y757D02*
X735Y755D01*
X1093Y755D01*
X1093Y757D01*
X735Y757D01*
G37*
D02*
G36*
X737Y755D02*
X737Y753D01*
X739Y753D01*
X739Y751D01*
X741Y751D01*
X741Y749D01*
X743Y749D01*
X743Y747D01*
X745Y747D01*
X745Y745D01*
X747Y745D01*
X747Y741D01*
X749Y741D01*
X749Y739D01*
X751Y739D01*
X751Y737D01*
X753Y737D01*
X753Y735D01*
X755Y735D01*
X755Y733D01*
X757Y733D01*
X757Y731D01*
X759Y731D01*
X759Y727D01*
X761Y727D01*
X761Y725D01*
X763Y725D01*
X763Y723D01*
X765Y723D01*
X765Y721D01*
X767Y721D01*
X767Y719D01*
X769Y719D01*
X769Y715D01*
X771Y715D01*
X771Y713D01*
X773Y713D01*
X773Y711D01*
X775Y711D01*
X775Y709D01*
X777Y709D01*
X777Y707D01*
X871Y707D01*
X871Y705D01*
X1083Y705D01*
X1083Y709D01*
X1085Y709D01*
X1085Y713D01*
X1087Y713D01*
X1087Y715D01*
X1089Y715D01*
X1089Y719D01*
X1091Y719D01*
X1091Y721D01*
X1093Y721D01*
X1093Y723D01*
X1095Y723D01*
X1095Y725D01*
X1097Y725D01*
X1097Y727D01*
X1099Y727D01*
X1099Y729D01*
X1101Y729D01*
X1101Y749D01*
X1099Y749D01*
X1099Y751D01*
X1097Y751D01*
X1097Y753D01*
X1095Y753D01*
X1095Y755D01*
X737Y755D01*
G37*
D02*
G36*
X45Y1377D02*
X45Y1347D01*
X1097Y1347D01*
X1097Y1345D01*
X1107Y1345D01*
X1107Y1343D01*
X1113Y1343D01*
X1113Y1341D01*
X1117Y1341D01*
X1117Y1339D01*
X1121Y1339D01*
X1121Y1337D01*
X1123Y1337D01*
X1123Y1335D01*
X1125Y1335D01*
X1125Y1333D01*
X1129Y1333D01*
X1129Y1329D01*
X1131Y1329D01*
X1131Y1327D01*
X1133Y1327D01*
X1133Y1325D01*
X1135Y1325D01*
X1135Y1321D01*
X1137Y1321D01*
X1137Y1317D01*
X1139Y1317D01*
X1139Y1313D01*
X1141Y1313D01*
X1141Y1305D01*
X1143Y1305D01*
X1143Y1291D01*
X1141Y1291D01*
X1141Y1283D01*
X1139Y1283D01*
X1139Y1277D01*
X1137Y1277D01*
X1137Y1273D01*
X1135Y1273D01*
X1135Y1269D01*
X1133Y1269D01*
X1133Y1267D01*
X1131Y1267D01*
X1131Y1265D01*
X1129Y1265D01*
X1129Y1263D01*
X1127Y1263D01*
X1127Y1261D01*
X1125Y1261D01*
X1125Y1259D01*
X1123Y1259D01*
X1123Y1257D01*
X1119Y1257D01*
X1119Y1255D01*
X1117Y1255D01*
X1117Y1253D01*
X1113Y1253D01*
X1113Y1251D01*
X1105Y1251D01*
X1105Y1249D01*
X1169Y1249D01*
X1169Y1377D01*
X45Y1377D01*
G37*
D02*
G36*
X45Y1347D02*
X45Y1331D01*
X91Y1331D01*
X91Y1329D01*
X99Y1329D01*
X99Y1327D01*
X105Y1327D01*
X105Y1325D01*
X109Y1325D01*
X109Y1323D01*
X113Y1323D01*
X113Y1321D01*
X115Y1321D01*
X115Y1319D01*
X117Y1319D01*
X117Y1317D01*
X121Y1317D01*
X121Y1313D01*
X123Y1313D01*
X123Y1311D01*
X125Y1311D01*
X125Y1309D01*
X127Y1309D01*
X127Y1305D01*
X129Y1305D01*
X129Y1301D01*
X131Y1301D01*
X131Y1297D01*
X133Y1297D01*
X133Y1289D01*
X135Y1289D01*
X135Y1273D01*
X133Y1273D01*
X133Y1267D01*
X131Y1267D01*
X131Y1261D01*
X129Y1261D01*
X129Y1257D01*
X127Y1257D01*
X127Y1253D01*
X125Y1253D01*
X125Y1251D01*
X123Y1251D01*
X123Y1249D01*
X121Y1249D01*
X121Y1247D01*
X119Y1247D01*
X119Y1245D01*
X117Y1245D01*
X117Y1243D01*
X115Y1243D01*
X115Y1241D01*
X113Y1241D01*
X113Y1221D01*
X115Y1221D01*
X115Y1219D01*
X117Y1219D01*
X117Y1217D01*
X121Y1217D01*
X121Y1213D01*
X123Y1213D01*
X123Y1211D01*
X125Y1211D01*
X125Y1209D01*
X127Y1209D01*
X127Y1205D01*
X129Y1205D01*
X129Y1201D01*
X131Y1201D01*
X131Y1197D01*
X133Y1197D01*
X133Y1189D01*
X135Y1189D01*
X135Y1177D01*
X155Y1177D01*
X155Y1179D01*
X157Y1179D01*
X157Y1181D01*
X159Y1181D01*
X159Y1183D01*
X161Y1183D01*
X161Y1185D01*
X163Y1185D01*
X163Y1187D01*
X165Y1187D01*
X165Y1189D01*
X167Y1189D01*
X167Y1191D01*
X169Y1191D01*
X169Y1193D01*
X171Y1193D01*
X171Y1195D01*
X173Y1195D01*
X173Y1197D01*
X175Y1197D01*
X175Y1199D01*
X177Y1199D01*
X177Y1201D01*
X179Y1201D01*
X179Y1203D01*
X181Y1203D01*
X181Y1205D01*
X183Y1205D01*
X183Y1207D01*
X185Y1207D01*
X185Y1209D01*
X187Y1209D01*
X187Y1211D01*
X191Y1211D01*
X191Y1213D01*
X193Y1213D01*
X193Y1215D01*
X197Y1215D01*
X197Y1217D01*
X205Y1217D01*
X205Y1219D01*
X211Y1219D01*
X211Y1221D01*
X217Y1221D01*
X217Y1223D01*
X225Y1223D01*
X225Y1225D01*
X231Y1225D01*
X231Y1227D01*
X239Y1227D01*
X239Y1229D01*
X245Y1229D01*
X245Y1231D01*
X251Y1231D01*
X251Y1233D01*
X259Y1233D01*
X259Y1235D01*
X265Y1235D01*
X265Y1237D01*
X273Y1237D01*
X273Y1239D01*
X279Y1239D01*
X279Y1241D01*
X287Y1241D01*
X287Y1243D01*
X293Y1243D01*
X293Y1245D01*
X299Y1245D01*
X299Y1247D01*
X307Y1247D01*
X307Y1249D01*
X313Y1249D01*
X313Y1251D01*
X321Y1251D01*
X321Y1253D01*
X327Y1253D01*
X327Y1255D01*
X333Y1255D01*
X333Y1257D01*
X341Y1257D01*
X341Y1259D01*
X347Y1259D01*
X347Y1261D01*
X355Y1261D01*
X355Y1263D01*
X361Y1263D01*
X361Y1265D01*
X369Y1265D01*
X369Y1267D01*
X375Y1267D01*
X375Y1269D01*
X381Y1269D01*
X381Y1271D01*
X389Y1271D01*
X389Y1273D01*
X395Y1273D01*
X395Y1275D01*
X403Y1275D01*
X403Y1277D01*
X409Y1277D01*
X409Y1279D01*
X415Y1279D01*
X415Y1281D01*
X423Y1281D01*
X423Y1283D01*
X429Y1283D01*
X429Y1285D01*
X437Y1285D01*
X437Y1287D01*
X443Y1287D01*
X443Y1289D01*
X451Y1289D01*
X451Y1291D01*
X457Y1291D01*
X457Y1293D01*
X463Y1293D01*
X463Y1295D01*
X471Y1295D01*
X471Y1297D01*
X477Y1297D01*
X477Y1299D01*
X485Y1299D01*
X485Y1301D01*
X497Y1301D01*
X497Y1303D01*
X507Y1303D01*
X507Y1305D01*
X519Y1305D01*
X519Y1307D01*
X529Y1307D01*
X529Y1309D01*
X541Y1309D01*
X541Y1311D01*
X547Y1311D01*
X547Y1315D01*
X549Y1315D01*
X549Y1319D01*
X551Y1319D01*
X551Y1323D01*
X553Y1323D01*
X553Y1325D01*
X555Y1325D01*
X555Y1329D01*
X557Y1329D01*
X557Y1331D01*
X559Y1331D01*
X559Y1333D01*
X561Y1333D01*
X561Y1335D01*
X565Y1335D01*
X565Y1337D01*
X567Y1337D01*
X567Y1339D01*
X571Y1339D01*
X571Y1341D01*
X573Y1341D01*
X573Y1343D01*
X581Y1343D01*
X581Y1345D01*
X591Y1345D01*
X591Y1347D01*
X45Y1347D01*
G37*
D02*
G36*
X597Y1347D02*
X597Y1345D01*
X607Y1345D01*
X607Y1343D01*
X613Y1343D01*
X613Y1341D01*
X617Y1341D01*
X617Y1339D01*
X621Y1339D01*
X621Y1337D01*
X623Y1337D01*
X623Y1335D01*
X625Y1335D01*
X625Y1333D01*
X629Y1333D01*
X629Y1329D01*
X631Y1329D01*
X631Y1327D01*
X633Y1327D01*
X633Y1325D01*
X655Y1325D01*
X655Y1329D01*
X657Y1329D01*
X657Y1331D01*
X659Y1331D01*
X659Y1333D01*
X661Y1333D01*
X661Y1335D01*
X665Y1335D01*
X665Y1337D01*
X667Y1337D01*
X667Y1339D01*
X671Y1339D01*
X671Y1341D01*
X673Y1341D01*
X673Y1343D01*
X681Y1343D01*
X681Y1345D01*
X691Y1345D01*
X691Y1347D01*
X597Y1347D01*
G37*
D02*
G36*
X697Y1347D02*
X697Y1345D01*
X707Y1345D01*
X707Y1343D01*
X713Y1343D01*
X713Y1341D01*
X717Y1341D01*
X717Y1339D01*
X721Y1339D01*
X721Y1337D01*
X723Y1337D01*
X723Y1335D01*
X725Y1335D01*
X725Y1333D01*
X729Y1333D01*
X729Y1329D01*
X731Y1329D01*
X731Y1327D01*
X733Y1327D01*
X733Y1325D01*
X755Y1325D01*
X755Y1329D01*
X757Y1329D01*
X757Y1331D01*
X759Y1331D01*
X759Y1333D01*
X761Y1333D01*
X761Y1335D01*
X765Y1335D01*
X765Y1337D01*
X767Y1337D01*
X767Y1339D01*
X771Y1339D01*
X771Y1341D01*
X773Y1341D01*
X773Y1343D01*
X781Y1343D01*
X781Y1345D01*
X791Y1345D01*
X791Y1347D01*
X697Y1347D01*
G37*
D02*
G36*
X797Y1347D02*
X797Y1345D01*
X807Y1345D01*
X807Y1343D01*
X813Y1343D01*
X813Y1341D01*
X817Y1341D01*
X817Y1339D01*
X821Y1339D01*
X821Y1337D01*
X823Y1337D01*
X823Y1335D01*
X825Y1335D01*
X825Y1333D01*
X829Y1333D01*
X829Y1329D01*
X831Y1329D01*
X831Y1327D01*
X833Y1327D01*
X833Y1325D01*
X855Y1325D01*
X855Y1329D01*
X857Y1329D01*
X857Y1331D01*
X859Y1331D01*
X859Y1333D01*
X861Y1333D01*
X861Y1335D01*
X865Y1335D01*
X865Y1337D01*
X867Y1337D01*
X867Y1339D01*
X871Y1339D01*
X871Y1341D01*
X873Y1341D01*
X873Y1343D01*
X881Y1343D01*
X881Y1345D01*
X891Y1345D01*
X891Y1347D01*
X797Y1347D01*
G37*
D02*
G36*
X897Y1347D02*
X897Y1345D01*
X907Y1345D01*
X907Y1343D01*
X913Y1343D01*
X913Y1341D01*
X917Y1341D01*
X917Y1339D01*
X921Y1339D01*
X921Y1337D01*
X923Y1337D01*
X923Y1335D01*
X925Y1335D01*
X925Y1333D01*
X929Y1333D01*
X929Y1329D01*
X931Y1329D01*
X931Y1327D01*
X933Y1327D01*
X933Y1325D01*
X955Y1325D01*
X955Y1329D01*
X957Y1329D01*
X957Y1331D01*
X959Y1331D01*
X959Y1333D01*
X961Y1333D01*
X961Y1335D01*
X965Y1335D01*
X965Y1337D01*
X967Y1337D01*
X967Y1339D01*
X971Y1339D01*
X971Y1341D01*
X973Y1341D01*
X973Y1343D01*
X981Y1343D01*
X981Y1345D01*
X991Y1345D01*
X991Y1347D01*
X897Y1347D01*
G37*
D02*
G36*
X997Y1347D02*
X997Y1345D01*
X1007Y1345D01*
X1007Y1343D01*
X1013Y1343D01*
X1013Y1341D01*
X1017Y1341D01*
X1017Y1339D01*
X1021Y1339D01*
X1021Y1337D01*
X1023Y1337D01*
X1023Y1335D01*
X1025Y1335D01*
X1025Y1333D01*
X1029Y1333D01*
X1029Y1329D01*
X1031Y1329D01*
X1031Y1327D01*
X1033Y1327D01*
X1033Y1325D01*
X1055Y1325D01*
X1055Y1329D01*
X1057Y1329D01*
X1057Y1331D01*
X1059Y1331D01*
X1059Y1333D01*
X1061Y1333D01*
X1061Y1335D01*
X1065Y1335D01*
X1065Y1337D01*
X1067Y1337D01*
X1067Y1339D01*
X1071Y1339D01*
X1071Y1341D01*
X1073Y1341D01*
X1073Y1343D01*
X1081Y1343D01*
X1081Y1345D01*
X1091Y1345D01*
X1091Y1347D01*
X997Y1347D01*
G37*
D02*
G36*
X45Y1331D02*
X45Y1325D01*
X65Y1325D01*
X65Y1327D01*
X71Y1327D01*
X71Y1329D01*
X81Y1329D01*
X81Y1331D01*
X45Y1331D01*
G37*
D02*
G36*
X833Y1269D02*
X833Y1267D01*
X831Y1267D01*
X831Y1265D01*
X829Y1265D01*
X829Y1263D01*
X827Y1263D01*
X827Y1261D01*
X825Y1261D01*
X825Y1259D01*
X823Y1259D01*
X823Y1257D01*
X819Y1257D01*
X819Y1255D01*
X817Y1255D01*
X817Y1249D01*
X881Y1249D01*
X881Y1251D01*
X875Y1251D01*
X875Y1253D01*
X871Y1253D01*
X871Y1255D01*
X867Y1255D01*
X867Y1257D01*
X865Y1257D01*
X865Y1259D01*
X863Y1259D01*
X863Y1261D01*
X859Y1261D01*
X859Y1263D01*
X857Y1263D01*
X857Y1267D01*
X855Y1267D01*
X855Y1269D01*
X833Y1269D01*
G37*
D02*
G36*
X933Y1269D02*
X933Y1267D01*
X931Y1267D01*
X931Y1265D01*
X929Y1265D01*
X929Y1263D01*
X927Y1263D01*
X927Y1261D01*
X925Y1261D01*
X925Y1259D01*
X923Y1259D01*
X923Y1257D01*
X919Y1257D01*
X919Y1255D01*
X917Y1255D01*
X917Y1253D01*
X913Y1253D01*
X913Y1251D01*
X905Y1251D01*
X905Y1249D01*
X981Y1249D01*
X981Y1251D01*
X975Y1251D01*
X975Y1253D01*
X971Y1253D01*
X971Y1255D01*
X967Y1255D01*
X967Y1257D01*
X965Y1257D01*
X965Y1259D01*
X963Y1259D01*
X963Y1261D01*
X959Y1261D01*
X959Y1263D01*
X957Y1263D01*
X957Y1267D01*
X955Y1267D01*
X955Y1269D01*
X933Y1269D01*
G37*
D02*
G36*
X1033Y1269D02*
X1033Y1267D01*
X1031Y1267D01*
X1031Y1265D01*
X1029Y1265D01*
X1029Y1263D01*
X1027Y1263D01*
X1027Y1261D01*
X1025Y1261D01*
X1025Y1259D01*
X1023Y1259D01*
X1023Y1257D01*
X1019Y1257D01*
X1019Y1255D01*
X1017Y1255D01*
X1017Y1253D01*
X1013Y1253D01*
X1013Y1251D01*
X1005Y1251D01*
X1005Y1249D01*
X1081Y1249D01*
X1081Y1251D01*
X1075Y1251D01*
X1075Y1253D01*
X1071Y1253D01*
X1071Y1255D01*
X1067Y1255D01*
X1067Y1257D01*
X1065Y1257D01*
X1065Y1259D01*
X1063Y1259D01*
X1063Y1261D01*
X1059Y1261D01*
X1059Y1263D01*
X1057Y1263D01*
X1057Y1267D01*
X1055Y1267D01*
X1055Y1269D01*
X1033Y1269D01*
G37*
D02*
G36*
X817Y1249D02*
X817Y1247D01*
X1169Y1247D01*
X1169Y1249D01*
X817Y1249D01*
G37*
D02*
G36*
X817Y1249D02*
X817Y1247D01*
X1169Y1247D01*
X1169Y1249D01*
X817Y1249D01*
G37*
D02*
G36*
X817Y1249D02*
X817Y1247D01*
X1169Y1247D01*
X1169Y1249D01*
X817Y1249D01*
G37*
D02*
G36*
X817Y1249D02*
X817Y1247D01*
X1169Y1247D01*
X1169Y1249D01*
X817Y1249D01*
G37*
D02*
G36*
X817Y1247D02*
X817Y1137D01*
X1139Y1137D01*
X1139Y1135D01*
X1147Y1135D01*
X1147Y1133D01*
X1169Y1133D01*
X1169Y1247D01*
X817Y1247D01*
G37*
D02*
G36*
X817Y1137D02*
X817Y951D01*
X819Y951D01*
X819Y845D01*
X821Y845D01*
X821Y843D01*
X823Y843D01*
X823Y841D01*
X825Y841D01*
X825Y839D01*
X827Y839D01*
X827Y837D01*
X829Y837D01*
X829Y835D01*
X831Y835D01*
X831Y833D01*
X833Y833D01*
X833Y831D01*
X835Y831D01*
X835Y829D01*
X837Y829D01*
X837Y827D01*
X839Y827D01*
X839Y825D01*
X841Y825D01*
X841Y823D01*
X843Y823D01*
X843Y821D01*
X845Y821D01*
X845Y819D01*
X847Y819D01*
X847Y817D01*
X849Y817D01*
X849Y815D01*
X851Y815D01*
X851Y813D01*
X853Y813D01*
X853Y811D01*
X855Y811D01*
X855Y809D01*
X857Y809D01*
X857Y807D01*
X859Y807D01*
X859Y805D01*
X861Y805D01*
X861Y803D01*
X863Y803D01*
X863Y801D01*
X1009Y801D01*
X1009Y803D01*
X1083Y803D01*
X1083Y809D01*
X1085Y809D01*
X1085Y813D01*
X1087Y813D01*
X1087Y815D01*
X1089Y815D01*
X1089Y819D01*
X1091Y819D01*
X1091Y821D01*
X1093Y821D01*
X1093Y823D01*
X1095Y823D01*
X1095Y825D01*
X1097Y825D01*
X1097Y827D01*
X1099Y827D01*
X1099Y829D01*
X1101Y829D01*
X1101Y849D01*
X1099Y849D01*
X1099Y851D01*
X1097Y851D01*
X1097Y853D01*
X1095Y853D01*
X1095Y855D01*
X1093Y855D01*
X1093Y857D01*
X1091Y857D01*
X1091Y859D01*
X1089Y859D01*
X1089Y861D01*
X1087Y861D01*
X1087Y865D01*
X1085Y865D01*
X1085Y869D01*
X1083Y869D01*
X1083Y875D01*
X1081Y875D01*
X1081Y885D01*
X1079Y885D01*
X1079Y893D01*
X1081Y893D01*
X1081Y903D01*
X1083Y903D01*
X1083Y909D01*
X1085Y909D01*
X1085Y913D01*
X1087Y913D01*
X1087Y915D01*
X1089Y915D01*
X1089Y919D01*
X1091Y919D01*
X1091Y921D01*
X1093Y921D01*
X1093Y923D01*
X1095Y923D01*
X1095Y925D01*
X1097Y925D01*
X1097Y927D01*
X1099Y927D01*
X1099Y929D01*
X1101Y929D01*
X1101Y949D01*
X1099Y949D01*
X1099Y951D01*
X1097Y951D01*
X1097Y953D01*
X1095Y953D01*
X1095Y955D01*
X1093Y955D01*
X1093Y957D01*
X1091Y957D01*
X1091Y959D01*
X1089Y959D01*
X1089Y961D01*
X1087Y961D01*
X1087Y965D01*
X1085Y965D01*
X1085Y969D01*
X1083Y969D01*
X1083Y975D01*
X1081Y975D01*
X1081Y985D01*
X1079Y985D01*
X1079Y993D01*
X1081Y993D01*
X1081Y1003D01*
X1083Y1003D01*
X1083Y1009D01*
X1085Y1009D01*
X1085Y1013D01*
X1087Y1013D01*
X1087Y1015D01*
X1089Y1015D01*
X1089Y1019D01*
X1091Y1019D01*
X1091Y1021D01*
X1093Y1021D01*
X1093Y1023D01*
X1095Y1023D01*
X1095Y1025D01*
X1097Y1025D01*
X1097Y1027D01*
X1099Y1027D01*
X1099Y1029D01*
X1101Y1029D01*
X1101Y1049D01*
X1099Y1049D01*
X1099Y1051D01*
X1097Y1051D01*
X1097Y1053D01*
X1095Y1053D01*
X1095Y1055D01*
X1093Y1055D01*
X1093Y1057D01*
X1091Y1057D01*
X1091Y1059D01*
X1089Y1059D01*
X1089Y1061D01*
X1087Y1061D01*
X1087Y1065D01*
X1085Y1065D01*
X1085Y1069D01*
X1083Y1069D01*
X1083Y1075D01*
X1081Y1075D01*
X1081Y1085D01*
X1079Y1085D01*
X1079Y1093D01*
X1081Y1093D01*
X1081Y1103D01*
X1083Y1103D01*
X1083Y1109D01*
X1085Y1109D01*
X1085Y1113D01*
X1087Y1113D01*
X1087Y1115D01*
X1089Y1115D01*
X1089Y1119D01*
X1091Y1119D01*
X1091Y1121D01*
X1093Y1121D01*
X1093Y1123D01*
X1095Y1123D01*
X1095Y1125D01*
X1097Y1125D01*
X1097Y1127D01*
X1099Y1127D01*
X1099Y1129D01*
X1103Y1129D01*
X1103Y1131D01*
X1107Y1131D01*
X1107Y1133D01*
X1111Y1133D01*
X1111Y1135D01*
X1117Y1135D01*
X1117Y1137D01*
X817Y1137D01*
G37*
D02*
G36*
X633Y1269D02*
X633Y1267D01*
X631Y1267D01*
X631Y1265D01*
X629Y1265D01*
X629Y1263D01*
X627Y1263D01*
X627Y1261D01*
X625Y1261D01*
X625Y1259D01*
X623Y1259D01*
X623Y1257D01*
X619Y1257D01*
X619Y1255D01*
X617Y1255D01*
X617Y1253D01*
X613Y1253D01*
X613Y1251D01*
X605Y1251D01*
X605Y1249D01*
X673Y1249D01*
X673Y1253D01*
X671Y1253D01*
X671Y1255D01*
X667Y1255D01*
X667Y1257D01*
X665Y1257D01*
X665Y1259D01*
X663Y1259D01*
X663Y1261D01*
X659Y1261D01*
X659Y1263D01*
X657Y1263D01*
X657Y1267D01*
X655Y1267D01*
X655Y1269D01*
X633Y1269D01*
G37*
D02*
G36*
X533Y1265D02*
X533Y1263D01*
X523Y1263D01*
X523Y1261D01*
X511Y1261D01*
X511Y1259D01*
X501Y1259D01*
X501Y1257D01*
X491Y1257D01*
X491Y1255D01*
X483Y1255D01*
X483Y1253D01*
X477Y1253D01*
X477Y1251D01*
X471Y1251D01*
X471Y1249D01*
X581Y1249D01*
X581Y1251D01*
X575Y1251D01*
X575Y1253D01*
X571Y1253D01*
X571Y1255D01*
X567Y1255D01*
X567Y1257D01*
X565Y1257D01*
X565Y1259D01*
X563Y1259D01*
X563Y1261D01*
X559Y1261D01*
X559Y1263D01*
X557Y1263D01*
X557Y1265D01*
X533Y1265D01*
G37*
D02*
G36*
X463Y1249D02*
X463Y1247D01*
X673Y1247D01*
X673Y1249D01*
X463Y1249D01*
G37*
D02*
G36*
X463Y1249D02*
X463Y1247D01*
X673Y1247D01*
X673Y1249D01*
X463Y1249D01*
G37*
D02*
G36*
X457Y1247D02*
X457Y1245D01*
X449Y1245D01*
X449Y1243D01*
X443Y1243D01*
X443Y1241D01*
X435Y1241D01*
X435Y1239D01*
X429Y1239D01*
X429Y1237D01*
X423Y1237D01*
X423Y1235D01*
X415Y1235D01*
X415Y1233D01*
X409Y1233D01*
X409Y1231D01*
X401Y1231D01*
X401Y1229D01*
X395Y1229D01*
X395Y1227D01*
X389Y1227D01*
X389Y1225D01*
X381Y1225D01*
X381Y1223D01*
X375Y1223D01*
X375Y1221D01*
X367Y1221D01*
X367Y1219D01*
X361Y1219D01*
X361Y1217D01*
X353Y1217D01*
X353Y1215D01*
X347Y1215D01*
X347Y1213D01*
X341Y1213D01*
X341Y1211D01*
X333Y1211D01*
X333Y1209D01*
X327Y1209D01*
X327Y1207D01*
X319Y1207D01*
X319Y1205D01*
X313Y1205D01*
X313Y1203D01*
X307Y1203D01*
X307Y1201D01*
X299Y1201D01*
X299Y1199D01*
X293Y1199D01*
X293Y1197D01*
X285Y1197D01*
X285Y1195D01*
X279Y1195D01*
X279Y1193D01*
X271Y1193D01*
X271Y1191D01*
X265Y1191D01*
X265Y1189D01*
X259Y1189D01*
X259Y1187D01*
X251Y1187D01*
X251Y1185D01*
X245Y1185D01*
X245Y1183D01*
X237Y1183D01*
X237Y1181D01*
X231Y1181D01*
X231Y1179D01*
X225Y1179D01*
X225Y1177D01*
X217Y1177D01*
X217Y1175D01*
X213Y1175D01*
X213Y1173D01*
X211Y1173D01*
X211Y1171D01*
X209Y1171D01*
X209Y1169D01*
X207Y1169D01*
X207Y1167D01*
X205Y1167D01*
X205Y1165D01*
X203Y1165D01*
X203Y1163D01*
X201Y1163D01*
X201Y1161D01*
X199Y1161D01*
X199Y1159D01*
X197Y1159D01*
X197Y1157D01*
X195Y1157D01*
X195Y1155D01*
X193Y1155D01*
X193Y1153D01*
X191Y1153D01*
X191Y1151D01*
X189Y1151D01*
X189Y1149D01*
X187Y1149D01*
X187Y1147D01*
X185Y1147D01*
X185Y1145D01*
X183Y1145D01*
X183Y1143D01*
X181Y1143D01*
X181Y1141D01*
X179Y1141D01*
X179Y1139D01*
X177Y1139D01*
X177Y1137D01*
X239Y1137D01*
X239Y1135D01*
X247Y1135D01*
X247Y1133D01*
X251Y1133D01*
X251Y1131D01*
X255Y1131D01*
X255Y1129D01*
X257Y1129D01*
X257Y1127D01*
X259Y1127D01*
X259Y1125D01*
X263Y1125D01*
X263Y1123D01*
X265Y1123D01*
X265Y1119D01*
X267Y1119D01*
X267Y1117D01*
X269Y1117D01*
X269Y1115D01*
X271Y1115D01*
X271Y1111D01*
X273Y1111D01*
X273Y1107D01*
X275Y1107D01*
X275Y1099D01*
X277Y1099D01*
X277Y1077D01*
X275Y1077D01*
X275Y1071D01*
X273Y1071D01*
X273Y1067D01*
X271Y1067D01*
X271Y1063D01*
X269Y1063D01*
X269Y1061D01*
X267Y1061D01*
X267Y1057D01*
X265Y1057D01*
X265Y1055D01*
X263Y1055D01*
X263Y1053D01*
X261Y1053D01*
X261Y1051D01*
X259Y1051D01*
X259Y1049D01*
X255Y1049D01*
X255Y1029D01*
X257Y1029D01*
X257Y1027D01*
X259Y1027D01*
X259Y1025D01*
X263Y1025D01*
X263Y1023D01*
X265Y1023D01*
X265Y1019D01*
X267Y1019D01*
X267Y1017D01*
X269Y1017D01*
X269Y1015D01*
X271Y1015D01*
X271Y1011D01*
X273Y1011D01*
X273Y1007D01*
X275Y1007D01*
X275Y999D01*
X277Y999D01*
X277Y977D01*
X275Y977D01*
X275Y971D01*
X273Y971D01*
X273Y967D01*
X271Y967D01*
X271Y963D01*
X269Y963D01*
X269Y961D01*
X267Y961D01*
X267Y957D01*
X265Y957D01*
X265Y955D01*
X263Y955D01*
X263Y953D01*
X261Y953D01*
X261Y951D01*
X259Y951D01*
X259Y949D01*
X255Y949D01*
X255Y929D01*
X257Y929D01*
X257Y927D01*
X259Y927D01*
X259Y925D01*
X263Y925D01*
X263Y923D01*
X265Y923D01*
X265Y919D01*
X267Y919D01*
X267Y917D01*
X269Y917D01*
X269Y915D01*
X271Y915D01*
X271Y911D01*
X273Y911D01*
X273Y907D01*
X275Y907D01*
X275Y899D01*
X277Y899D01*
X277Y877D01*
X275Y877D01*
X275Y871D01*
X273Y871D01*
X273Y867D01*
X271Y867D01*
X271Y863D01*
X269Y863D01*
X269Y861D01*
X267Y861D01*
X267Y857D01*
X265Y857D01*
X265Y855D01*
X263Y855D01*
X263Y853D01*
X261Y853D01*
X261Y851D01*
X259Y851D01*
X259Y849D01*
X255Y849D01*
X255Y837D01*
X369Y837D01*
X369Y835D01*
X379Y835D01*
X379Y833D01*
X383Y833D01*
X383Y831D01*
X387Y831D01*
X387Y829D01*
X391Y829D01*
X391Y827D01*
X393Y827D01*
X393Y825D01*
X397Y825D01*
X397Y823D01*
X399Y823D01*
X399Y821D01*
X401Y821D01*
X401Y817D01*
X403Y817D01*
X403Y815D01*
X405Y815D01*
X405Y811D01*
X407Y811D01*
X407Y809D01*
X493Y809D01*
X493Y807D01*
X593Y807D01*
X593Y805D01*
X597Y805D01*
X597Y803D01*
X601Y803D01*
X601Y801D01*
X603Y801D01*
X603Y799D01*
X605Y799D01*
X605Y795D01*
X607Y795D01*
X607Y793D01*
X609Y793D01*
X609Y791D01*
X611Y791D01*
X611Y789D01*
X613Y789D01*
X613Y787D01*
X615Y787D01*
X615Y785D01*
X617Y785D01*
X617Y781D01*
X619Y781D01*
X619Y779D01*
X621Y779D01*
X621Y777D01*
X623Y777D01*
X623Y775D01*
X625Y775D01*
X625Y773D01*
X627Y773D01*
X627Y769D01*
X629Y769D01*
X629Y767D01*
X631Y767D01*
X631Y765D01*
X633Y765D01*
X633Y763D01*
X635Y763D01*
X635Y761D01*
X637Y761D01*
X637Y757D01*
X639Y757D01*
X639Y755D01*
X641Y755D01*
X641Y753D01*
X643Y753D01*
X643Y751D01*
X645Y751D01*
X645Y749D01*
X647Y749D01*
X647Y747D01*
X649Y747D01*
X649Y743D01*
X651Y743D01*
X651Y741D01*
X653Y741D01*
X653Y739D01*
X655Y739D01*
X655Y737D01*
X657Y737D01*
X657Y735D01*
X659Y735D01*
X659Y731D01*
X661Y731D01*
X661Y729D01*
X663Y729D01*
X663Y727D01*
X665Y727D01*
X665Y725D01*
X667Y725D01*
X667Y723D01*
X669Y723D01*
X669Y719D01*
X671Y719D01*
X671Y717D01*
X673Y717D01*
X673Y715D01*
X675Y715D01*
X675Y713D01*
X677Y713D01*
X677Y711D01*
X679Y711D01*
X679Y709D01*
X681Y709D01*
X681Y705D01*
X683Y705D01*
X683Y703D01*
X685Y703D01*
X685Y701D01*
X687Y701D01*
X687Y699D01*
X689Y699D01*
X689Y697D01*
X691Y697D01*
X691Y693D01*
X693Y693D01*
X693Y691D01*
X695Y691D01*
X695Y689D01*
X697Y689D01*
X697Y685D01*
X699Y685D01*
X699Y681D01*
X701Y681D01*
X701Y677D01*
X703Y677D01*
X703Y673D01*
X705Y673D01*
X705Y669D01*
X707Y669D01*
X707Y665D01*
X709Y665D01*
X709Y661D01*
X711Y661D01*
X711Y657D01*
X713Y657D01*
X713Y653D01*
X715Y653D01*
X715Y649D01*
X717Y649D01*
X717Y645D01*
X719Y645D01*
X719Y641D01*
X721Y641D01*
X721Y637D01*
X723Y637D01*
X723Y633D01*
X725Y633D01*
X725Y631D01*
X727Y631D01*
X727Y627D01*
X729Y627D01*
X729Y623D01*
X731Y623D01*
X731Y619D01*
X899Y619D01*
X899Y617D01*
X903Y617D01*
X903Y615D01*
X905Y615D01*
X905Y613D01*
X923Y613D01*
X923Y611D01*
X1085Y611D01*
X1085Y613D01*
X1087Y613D01*
X1087Y615D01*
X1089Y615D01*
X1089Y619D01*
X1091Y619D01*
X1091Y621D01*
X1093Y621D01*
X1093Y623D01*
X1095Y623D01*
X1095Y625D01*
X1097Y625D01*
X1097Y627D01*
X1099Y627D01*
X1099Y647D01*
X1097Y647D01*
X1097Y649D01*
X1095Y649D01*
X1095Y651D01*
X1093Y651D01*
X1093Y653D01*
X1091Y653D01*
X1091Y657D01*
X1089Y657D01*
X1089Y659D01*
X1077Y659D01*
X1077Y661D01*
X871Y661D01*
X871Y663D01*
X761Y663D01*
X761Y665D01*
X757Y665D01*
X757Y667D01*
X753Y667D01*
X753Y669D01*
X751Y669D01*
X751Y671D01*
X749Y671D01*
X749Y673D01*
X747Y673D01*
X747Y677D01*
X745Y677D01*
X745Y679D01*
X743Y679D01*
X743Y681D01*
X741Y681D01*
X741Y683D01*
X739Y683D01*
X739Y685D01*
X737Y685D01*
X737Y689D01*
X735Y689D01*
X735Y691D01*
X733Y691D01*
X733Y693D01*
X731Y693D01*
X731Y695D01*
X729Y695D01*
X729Y697D01*
X727Y697D01*
X727Y699D01*
X725Y699D01*
X725Y703D01*
X723Y703D01*
X723Y705D01*
X721Y705D01*
X721Y707D01*
X719Y707D01*
X719Y709D01*
X717Y709D01*
X717Y711D01*
X715Y711D01*
X715Y713D01*
X713Y713D01*
X713Y717D01*
X711Y717D01*
X711Y719D01*
X709Y719D01*
X709Y721D01*
X707Y721D01*
X707Y723D01*
X705Y723D01*
X705Y725D01*
X703Y725D01*
X703Y727D01*
X701Y727D01*
X701Y731D01*
X699Y731D01*
X699Y733D01*
X697Y733D01*
X697Y735D01*
X695Y735D01*
X695Y737D01*
X693Y737D01*
X693Y739D01*
X691Y739D01*
X691Y743D01*
X689Y743D01*
X689Y745D01*
X687Y745D01*
X687Y747D01*
X685Y747D01*
X685Y749D01*
X683Y749D01*
X683Y751D01*
X681Y751D01*
X681Y755D01*
X679Y755D01*
X679Y759D01*
X677Y759D01*
X677Y825D01*
X675Y825D01*
X675Y1043D01*
X673Y1043D01*
X673Y1247D01*
X457Y1247D01*
G37*
D02*
G36*
X175Y1137D02*
X175Y1135D01*
X171Y1135D01*
X171Y1133D01*
X169Y1133D01*
X169Y1131D01*
X167Y1131D01*
X167Y1129D01*
X165Y1129D01*
X165Y1127D01*
X163Y1127D01*
X163Y1125D01*
X161Y1125D01*
X161Y1123D01*
X159Y1123D01*
X159Y1121D01*
X157Y1121D01*
X157Y1119D01*
X155Y1119D01*
X155Y1117D01*
X153Y1117D01*
X153Y1115D01*
X151Y1115D01*
X151Y1113D01*
X149Y1113D01*
X149Y1111D01*
X147Y1111D01*
X147Y1109D01*
X145Y1109D01*
X145Y1107D01*
X143Y1107D01*
X143Y1105D01*
X141Y1105D01*
X141Y1103D01*
X139Y1103D01*
X139Y1101D01*
X137Y1101D01*
X137Y1099D01*
X135Y1099D01*
X135Y1073D01*
X133Y1073D01*
X133Y1067D01*
X131Y1067D01*
X131Y1061D01*
X129Y1061D01*
X129Y1057D01*
X127Y1057D01*
X127Y1053D01*
X125Y1053D01*
X125Y1051D01*
X123Y1051D01*
X123Y1049D01*
X121Y1049D01*
X121Y1047D01*
X119Y1047D01*
X119Y1045D01*
X117Y1045D01*
X117Y1043D01*
X115Y1043D01*
X115Y1041D01*
X113Y1041D01*
X113Y1021D01*
X115Y1021D01*
X115Y1019D01*
X117Y1019D01*
X117Y1017D01*
X121Y1017D01*
X121Y1013D01*
X123Y1013D01*
X123Y1011D01*
X125Y1011D01*
X125Y1009D01*
X127Y1009D01*
X127Y1005D01*
X129Y1005D01*
X129Y1001D01*
X131Y1001D01*
X131Y997D01*
X133Y997D01*
X133Y989D01*
X135Y989D01*
X135Y973D01*
X133Y973D01*
X133Y967D01*
X131Y967D01*
X131Y961D01*
X129Y961D01*
X129Y957D01*
X127Y957D01*
X127Y953D01*
X125Y953D01*
X125Y951D01*
X123Y951D01*
X123Y949D01*
X121Y949D01*
X121Y947D01*
X119Y947D01*
X119Y945D01*
X117Y945D01*
X117Y943D01*
X115Y943D01*
X115Y941D01*
X111Y941D01*
X111Y939D01*
X107Y939D01*
X107Y937D01*
X105Y937D01*
X105Y935D01*
X97Y935D01*
X97Y933D01*
X201Y933D01*
X201Y949D01*
X199Y949D01*
X199Y951D01*
X197Y951D01*
X197Y953D01*
X195Y953D01*
X195Y955D01*
X193Y955D01*
X193Y957D01*
X191Y957D01*
X191Y959D01*
X189Y959D01*
X189Y961D01*
X187Y961D01*
X187Y965D01*
X185Y965D01*
X185Y969D01*
X183Y969D01*
X183Y975D01*
X181Y975D01*
X181Y985D01*
X179Y985D01*
X179Y993D01*
X181Y993D01*
X181Y1003D01*
X183Y1003D01*
X183Y1009D01*
X185Y1009D01*
X185Y1013D01*
X187Y1013D01*
X187Y1015D01*
X189Y1015D01*
X189Y1019D01*
X191Y1019D01*
X191Y1021D01*
X193Y1021D01*
X193Y1023D01*
X195Y1023D01*
X195Y1025D01*
X197Y1025D01*
X197Y1027D01*
X199Y1027D01*
X199Y1029D01*
X201Y1029D01*
X201Y1049D01*
X199Y1049D01*
X199Y1051D01*
X197Y1051D01*
X197Y1053D01*
X195Y1053D01*
X195Y1055D01*
X193Y1055D01*
X193Y1057D01*
X191Y1057D01*
X191Y1059D01*
X189Y1059D01*
X189Y1061D01*
X187Y1061D01*
X187Y1065D01*
X185Y1065D01*
X185Y1069D01*
X183Y1069D01*
X183Y1075D01*
X181Y1075D01*
X181Y1085D01*
X179Y1085D01*
X179Y1093D01*
X181Y1093D01*
X181Y1103D01*
X183Y1103D01*
X183Y1109D01*
X185Y1109D01*
X185Y1113D01*
X187Y1113D01*
X187Y1115D01*
X189Y1115D01*
X189Y1119D01*
X191Y1119D01*
X191Y1121D01*
X193Y1121D01*
X193Y1123D01*
X195Y1123D01*
X195Y1125D01*
X197Y1125D01*
X197Y1127D01*
X199Y1127D01*
X199Y1129D01*
X203Y1129D01*
X203Y1131D01*
X207Y1131D01*
X207Y1133D01*
X211Y1133D01*
X211Y1135D01*
X217Y1135D01*
X217Y1137D01*
X175Y1137D01*
G37*
D02*
G36*
X45Y937D02*
X45Y933D01*
X75Y933D01*
X75Y935D01*
X67Y935D01*
X67Y937D01*
X45Y937D01*
G37*
D02*
G36*
X45Y933D02*
X45Y931D01*
X201Y931D01*
X201Y933D01*
X45Y933D01*
G37*
D02*
G36*
X45Y933D02*
X45Y931D01*
X201Y931D01*
X201Y933D01*
X45Y933D01*
G37*
D02*
G36*
X45Y931D02*
X45Y339D01*
X225Y339D01*
X225Y341D01*
X215Y341D01*
X215Y343D01*
X209Y343D01*
X209Y345D01*
X205Y345D01*
X205Y347D01*
X201Y347D01*
X201Y349D01*
X199Y349D01*
X199Y351D01*
X197Y351D01*
X197Y353D01*
X195Y353D01*
X195Y355D01*
X193Y355D01*
X193Y357D01*
X191Y357D01*
X191Y359D01*
X189Y359D01*
X189Y361D01*
X187Y361D01*
X187Y365D01*
X185Y365D01*
X185Y369D01*
X183Y369D01*
X183Y375D01*
X181Y375D01*
X181Y385D01*
X179Y385D01*
X179Y393D01*
X181Y393D01*
X181Y403D01*
X183Y403D01*
X183Y409D01*
X185Y409D01*
X185Y413D01*
X187Y413D01*
X187Y415D01*
X189Y415D01*
X189Y419D01*
X191Y419D01*
X191Y421D01*
X193Y421D01*
X193Y423D01*
X195Y423D01*
X195Y425D01*
X197Y425D01*
X197Y427D01*
X199Y427D01*
X199Y429D01*
X201Y429D01*
X201Y449D01*
X199Y449D01*
X199Y451D01*
X197Y451D01*
X197Y453D01*
X195Y453D01*
X195Y455D01*
X193Y455D01*
X193Y457D01*
X191Y457D01*
X191Y459D01*
X189Y459D01*
X189Y461D01*
X187Y461D01*
X187Y465D01*
X185Y465D01*
X185Y469D01*
X183Y469D01*
X183Y475D01*
X181Y475D01*
X181Y485D01*
X179Y485D01*
X179Y493D01*
X181Y493D01*
X181Y503D01*
X183Y503D01*
X183Y509D01*
X185Y509D01*
X185Y513D01*
X187Y513D01*
X187Y515D01*
X189Y515D01*
X189Y519D01*
X191Y519D01*
X191Y521D01*
X193Y521D01*
X193Y523D01*
X195Y523D01*
X195Y525D01*
X197Y525D01*
X197Y527D01*
X199Y527D01*
X199Y529D01*
X201Y529D01*
X201Y549D01*
X199Y549D01*
X199Y551D01*
X197Y551D01*
X197Y553D01*
X195Y553D01*
X195Y555D01*
X193Y555D01*
X193Y557D01*
X191Y557D01*
X191Y559D01*
X189Y559D01*
X189Y561D01*
X187Y561D01*
X187Y565D01*
X185Y565D01*
X185Y569D01*
X183Y569D01*
X183Y575D01*
X181Y575D01*
X181Y585D01*
X179Y585D01*
X179Y593D01*
X181Y593D01*
X181Y603D01*
X183Y603D01*
X183Y609D01*
X185Y609D01*
X185Y613D01*
X187Y613D01*
X187Y615D01*
X189Y615D01*
X189Y619D01*
X191Y619D01*
X191Y621D01*
X193Y621D01*
X193Y623D01*
X195Y623D01*
X195Y625D01*
X197Y625D01*
X197Y627D01*
X199Y627D01*
X199Y629D01*
X201Y629D01*
X201Y649D01*
X199Y649D01*
X199Y651D01*
X197Y651D01*
X197Y653D01*
X195Y653D01*
X195Y655D01*
X193Y655D01*
X193Y657D01*
X191Y657D01*
X191Y659D01*
X189Y659D01*
X189Y661D01*
X187Y661D01*
X187Y665D01*
X185Y665D01*
X185Y669D01*
X183Y669D01*
X183Y675D01*
X181Y675D01*
X181Y685D01*
X179Y685D01*
X179Y693D01*
X181Y693D01*
X181Y703D01*
X183Y703D01*
X183Y709D01*
X185Y709D01*
X185Y713D01*
X187Y713D01*
X187Y715D01*
X189Y715D01*
X189Y719D01*
X191Y719D01*
X191Y721D01*
X193Y721D01*
X193Y723D01*
X195Y723D01*
X195Y725D01*
X197Y725D01*
X197Y727D01*
X199Y727D01*
X199Y729D01*
X201Y729D01*
X201Y749D01*
X199Y749D01*
X199Y751D01*
X197Y751D01*
X197Y753D01*
X195Y753D01*
X195Y755D01*
X193Y755D01*
X193Y757D01*
X191Y757D01*
X191Y759D01*
X189Y759D01*
X189Y761D01*
X187Y761D01*
X187Y765D01*
X185Y765D01*
X185Y769D01*
X183Y769D01*
X183Y775D01*
X181Y775D01*
X181Y785D01*
X179Y785D01*
X179Y793D01*
X181Y793D01*
X181Y803D01*
X183Y803D01*
X183Y809D01*
X185Y809D01*
X185Y813D01*
X187Y813D01*
X187Y815D01*
X189Y815D01*
X189Y819D01*
X191Y819D01*
X191Y821D01*
X193Y821D01*
X193Y823D01*
X195Y823D01*
X195Y825D01*
X197Y825D01*
X197Y827D01*
X199Y827D01*
X199Y829D01*
X201Y829D01*
X201Y849D01*
X199Y849D01*
X199Y851D01*
X197Y851D01*
X197Y853D01*
X195Y853D01*
X195Y855D01*
X193Y855D01*
X193Y857D01*
X191Y857D01*
X191Y859D01*
X189Y859D01*
X189Y861D01*
X187Y861D01*
X187Y865D01*
X185Y865D01*
X185Y869D01*
X183Y869D01*
X183Y875D01*
X181Y875D01*
X181Y885D01*
X179Y885D01*
X179Y893D01*
X181Y893D01*
X181Y903D01*
X183Y903D01*
X183Y909D01*
X185Y909D01*
X185Y913D01*
X187Y913D01*
X187Y915D01*
X189Y915D01*
X189Y919D01*
X191Y919D01*
X191Y921D01*
X193Y921D01*
X193Y923D01*
X195Y923D01*
X195Y925D01*
X197Y925D01*
X197Y927D01*
X199Y927D01*
X199Y929D01*
X201Y929D01*
X201Y931D01*
X45Y931D01*
G37*
D02*
G36*
X255Y837D02*
X255Y829D01*
X257Y829D01*
X257Y827D01*
X259Y827D01*
X259Y825D01*
X263Y825D01*
X263Y823D01*
X265Y823D01*
X265Y819D01*
X267Y819D01*
X267Y817D01*
X269Y817D01*
X269Y815D01*
X271Y815D01*
X271Y811D01*
X273Y811D01*
X273Y807D01*
X275Y807D01*
X275Y799D01*
X277Y799D01*
X277Y777D01*
X275Y777D01*
X275Y771D01*
X273Y771D01*
X273Y767D01*
X271Y767D01*
X271Y763D01*
X269Y763D01*
X269Y761D01*
X267Y761D01*
X267Y757D01*
X265Y757D01*
X265Y755D01*
X263Y755D01*
X263Y753D01*
X261Y753D01*
X261Y751D01*
X259Y751D01*
X259Y749D01*
X255Y749D01*
X255Y729D01*
X257Y729D01*
X257Y727D01*
X259Y727D01*
X259Y725D01*
X263Y725D01*
X263Y723D01*
X265Y723D01*
X265Y719D01*
X267Y719D01*
X267Y717D01*
X269Y717D01*
X269Y715D01*
X271Y715D01*
X271Y711D01*
X273Y711D01*
X273Y707D01*
X275Y707D01*
X275Y699D01*
X277Y699D01*
X277Y677D01*
X275Y677D01*
X275Y671D01*
X273Y671D01*
X273Y667D01*
X271Y667D01*
X271Y663D01*
X269Y663D01*
X269Y661D01*
X267Y661D01*
X267Y657D01*
X265Y657D01*
X265Y655D01*
X263Y655D01*
X263Y653D01*
X261Y653D01*
X261Y651D01*
X259Y651D01*
X259Y649D01*
X255Y649D01*
X255Y629D01*
X257Y629D01*
X257Y627D01*
X259Y627D01*
X259Y625D01*
X263Y625D01*
X263Y623D01*
X265Y623D01*
X265Y619D01*
X267Y619D01*
X267Y617D01*
X269Y617D01*
X269Y615D01*
X271Y615D01*
X271Y611D01*
X273Y611D01*
X273Y607D01*
X275Y607D01*
X275Y599D01*
X277Y599D01*
X277Y577D01*
X275Y577D01*
X275Y571D01*
X273Y571D01*
X273Y567D01*
X271Y567D01*
X271Y563D01*
X269Y563D01*
X269Y561D01*
X267Y561D01*
X267Y557D01*
X265Y557D01*
X265Y555D01*
X263Y555D01*
X263Y553D01*
X261Y553D01*
X261Y551D01*
X259Y551D01*
X259Y549D01*
X255Y549D01*
X255Y529D01*
X257Y529D01*
X257Y527D01*
X259Y527D01*
X259Y525D01*
X263Y525D01*
X263Y523D01*
X265Y523D01*
X265Y519D01*
X267Y519D01*
X267Y517D01*
X269Y517D01*
X269Y515D01*
X271Y515D01*
X271Y511D01*
X273Y511D01*
X273Y507D01*
X275Y507D01*
X275Y499D01*
X277Y499D01*
X277Y471D01*
X279Y471D01*
X279Y469D01*
X281Y469D01*
X281Y467D01*
X283Y467D01*
X283Y465D01*
X285Y465D01*
X285Y463D01*
X287Y463D01*
X287Y461D01*
X289Y461D01*
X289Y459D01*
X291Y459D01*
X291Y457D01*
X293Y457D01*
X293Y455D01*
X295Y455D01*
X295Y453D01*
X297Y453D01*
X297Y451D01*
X299Y451D01*
X299Y449D01*
X301Y449D01*
X301Y447D01*
X303Y447D01*
X303Y445D01*
X305Y445D01*
X305Y443D01*
X307Y443D01*
X307Y441D01*
X309Y441D01*
X309Y439D01*
X353Y439D01*
X353Y441D01*
X345Y441D01*
X345Y443D01*
X341Y443D01*
X341Y445D01*
X339Y445D01*
X339Y447D01*
X335Y447D01*
X335Y449D01*
X333Y449D01*
X333Y451D01*
X331Y451D01*
X331Y453D01*
X329Y453D01*
X329Y455D01*
X327Y455D01*
X327Y457D01*
X325Y457D01*
X325Y459D01*
X323Y459D01*
X323Y463D01*
X321Y463D01*
X321Y465D01*
X319Y465D01*
X319Y471D01*
X317Y471D01*
X317Y477D01*
X315Y477D01*
X315Y497D01*
X317Y497D01*
X317Y505D01*
X319Y505D01*
X319Y509D01*
X321Y509D01*
X321Y513D01*
X323Y513D01*
X323Y515D01*
X325Y515D01*
X325Y519D01*
X327Y519D01*
X327Y521D01*
X329Y521D01*
X329Y523D01*
X331Y523D01*
X331Y525D01*
X333Y525D01*
X333Y527D01*
X337Y527D01*
X337Y547D01*
X335Y547D01*
X335Y549D01*
X333Y549D01*
X333Y551D01*
X331Y551D01*
X331Y553D01*
X329Y553D01*
X329Y555D01*
X327Y555D01*
X327Y557D01*
X325Y557D01*
X325Y559D01*
X323Y559D01*
X323Y563D01*
X321Y563D01*
X321Y565D01*
X319Y565D01*
X319Y571D01*
X317Y571D01*
X317Y577D01*
X315Y577D01*
X315Y597D01*
X317Y597D01*
X317Y605D01*
X319Y605D01*
X319Y609D01*
X321Y609D01*
X321Y613D01*
X323Y613D01*
X323Y615D01*
X325Y615D01*
X325Y619D01*
X327Y619D01*
X327Y621D01*
X329Y621D01*
X329Y623D01*
X331Y623D01*
X331Y625D01*
X333Y625D01*
X333Y627D01*
X337Y627D01*
X337Y647D01*
X335Y647D01*
X335Y649D01*
X333Y649D01*
X333Y651D01*
X331Y651D01*
X331Y653D01*
X329Y653D01*
X329Y655D01*
X327Y655D01*
X327Y657D01*
X325Y657D01*
X325Y659D01*
X323Y659D01*
X323Y663D01*
X321Y663D01*
X321Y665D01*
X319Y665D01*
X319Y671D01*
X317Y671D01*
X317Y677D01*
X315Y677D01*
X315Y697D01*
X317Y697D01*
X317Y705D01*
X319Y705D01*
X319Y709D01*
X321Y709D01*
X321Y713D01*
X323Y713D01*
X323Y715D01*
X325Y715D01*
X325Y719D01*
X327Y719D01*
X327Y721D01*
X329Y721D01*
X329Y723D01*
X331Y723D01*
X331Y725D01*
X333Y725D01*
X333Y727D01*
X337Y727D01*
X337Y747D01*
X335Y747D01*
X335Y749D01*
X333Y749D01*
X333Y751D01*
X331Y751D01*
X331Y753D01*
X329Y753D01*
X329Y755D01*
X327Y755D01*
X327Y757D01*
X325Y757D01*
X325Y759D01*
X323Y759D01*
X323Y763D01*
X321Y763D01*
X321Y765D01*
X319Y765D01*
X319Y771D01*
X317Y771D01*
X317Y777D01*
X315Y777D01*
X315Y797D01*
X317Y797D01*
X317Y805D01*
X319Y805D01*
X319Y809D01*
X321Y809D01*
X321Y813D01*
X323Y813D01*
X323Y815D01*
X325Y815D01*
X325Y819D01*
X327Y819D01*
X327Y821D01*
X329Y821D01*
X329Y823D01*
X331Y823D01*
X331Y825D01*
X333Y825D01*
X333Y827D01*
X337Y827D01*
X337Y829D01*
X341Y829D01*
X341Y831D01*
X343Y831D01*
X343Y833D01*
X349Y833D01*
X349Y835D01*
X359Y835D01*
X359Y837D01*
X255Y837D01*
G37*
D02*
G36*
X407Y765D02*
X407Y763D01*
X405Y763D01*
X405Y759D01*
X403Y759D01*
X403Y757D01*
X401Y757D01*
X401Y755D01*
X399Y755D01*
X399Y753D01*
X397Y753D01*
X397Y751D01*
X395Y751D01*
X395Y749D01*
X393Y749D01*
X393Y747D01*
X391Y747D01*
X391Y727D01*
X393Y727D01*
X393Y725D01*
X397Y725D01*
X397Y723D01*
X399Y723D01*
X399Y721D01*
X401Y721D01*
X401Y717D01*
X403Y717D01*
X403Y715D01*
X405Y715D01*
X405Y711D01*
X407Y711D01*
X407Y709D01*
X409Y709D01*
X409Y703D01*
X411Y703D01*
X411Y695D01*
X413Y695D01*
X413Y679D01*
X411Y679D01*
X411Y671D01*
X409Y671D01*
X409Y667D01*
X407Y667D01*
X407Y663D01*
X405Y663D01*
X405Y659D01*
X403Y659D01*
X403Y657D01*
X401Y657D01*
X401Y655D01*
X399Y655D01*
X399Y653D01*
X397Y653D01*
X397Y651D01*
X395Y651D01*
X395Y649D01*
X393Y649D01*
X393Y647D01*
X391Y647D01*
X391Y627D01*
X393Y627D01*
X393Y625D01*
X397Y625D01*
X397Y623D01*
X399Y623D01*
X399Y621D01*
X401Y621D01*
X401Y617D01*
X403Y617D01*
X403Y615D01*
X405Y615D01*
X405Y611D01*
X407Y611D01*
X407Y609D01*
X409Y609D01*
X409Y603D01*
X411Y603D01*
X411Y595D01*
X413Y595D01*
X413Y579D01*
X411Y579D01*
X411Y571D01*
X409Y571D01*
X409Y567D01*
X407Y567D01*
X407Y563D01*
X405Y563D01*
X405Y559D01*
X403Y559D01*
X403Y557D01*
X401Y557D01*
X401Y555D01*
X399Y555D01*
X399Y553D01*
X397Y553D01*
X397Y551D01*
X395Y551D01*
X395Y549D01*
X393Y549D01*
X393Y547D01*
X391Y547D01*
X391Y527D01*
X393Y527D01*
X393Y525D01*
X397Y525D01*
X397Y523D01*
X399Y523D01*
X399Y521D01*
X401Y521D01*
X401Y517D01*
X403Y517D01*
X403Y515D01*
X405Y515D01*
X405Y511D01*
X407Y511D01*
X407Y509D01*
X409Y509D01*
X409Y503D01*
X411Y503D01*
X411Y495D01*
X413Y495D01*
X413Y479D01*
X411Y479D01*
X411Y471D01*
X409Y471D01*
X409Y467D01*
X407Y467D01*
X407Y463D01*
X405Y463D01*
X405Y459D01*
X403Y459D01*
X403Y457D01*
X401Y457D01*
X401Y455D01*
X399Y455D01*
X399Y453D01*
X397Y453D01*
X397Y451D01*
X395Y451D01*
X395Y449D01*
X393Y449D01*
X393Y447D01*
X389Y447D01*
X389Y445D01*
X385Y445D01*
X385Y443D01*
X381Y443D01*
X381Y441D01*
X375Y441D01*
X375Y439D01*
X773Y439D01*
X773Y441D01*
X771Y441D01*
X771Y445D01*
X769Y445D01*
X769Y449D01*
X767Y449D01*
X767Y453D01*
X765Y453D01*
X765Y457D01*
X763Y457D01*
X763Y461D01*
X761Y461D01*
X761Y465D01*
X759Y465D01*
X759Y469D01*
X757Y469D01*
X757Y473D01*
X755Y473D01*
X755Y477D01*
X753Y477D01*
X753Y481D01*
X751Y481D01*
X751Y485D01*
X749Y485D01*
X749Y489D01*
X747Y489D01*
X747Y493D01*
X745Y493D01*
X745Y497D01*
X743Y497D01*
X743Y501D01*
X741Y501D01*
X741Y505D01*
X739Y505D01*
X739Y509D01*
X737Y509D01*
X737Y513D01*
X735Y513D01*
X735Y517D01*
X733Y517D01*
X733Y521D01*
X731Y521D01*
X731Y525D01*
X729Y525D01*
X729Y529D01*
X727Y529D01*
X727Y533D01*
X725Y533D01*
X725Y537D01*
X723Y537D01*
X723Y541D01*
X721Y541D01*
X721Y545D01*
X719Y545D01*
X719Y549D01*
X717Y549D01*
X717Y553D01*
X715Y553D01*
X715Y557D01*
X713Y557D01*
X713Y561D01*
X711Y561D01*
X711Y565D01*
X709Y565D01*
X709Y569D01*
X707Y569D01*
X707Y573D01*
X705Y573D01*
X705Y577D01*
X703Y577D01*
X703Y579D01*
X701Y579D01*
X701Y583D01*
X699Y583D01*
X699Y587D01*
X697Y587D01*
X697Y591D01*
X695Y591D01*
X695Y595D01*
X693Y595D01*
X693Y599D01*
X691Y599D01*
X691Y603D01*
X689Y603D01*
X689Y607D01*
X687Y607D01*
X687Y611D01*
X685Y611D01*
X685Y615D01*
X683Y615D01*
X683Y619D01*
X681Y619D01*
X681Y623D01*
X679Y623D01*
X679Y627D01*
X677Y627D01*
X677Y631D01*
X675Y631D01*
X675Y635D01*
X673Y635D01*
X673Y639D01*
X671Y639D01*
X671Y643D01*
X669Y643D01*
X669Y647D01*
X667Y647D01*
X667Y651D01*
X665Y651D01*
X665Y655D01*
X663Y655D01*
X663Y659D01*
X661Y659D01*
X661Y663D01*
X659Y663D01*
X659Y665D01*
X657Y665D01*
X657Y669D01*
X655Y669D01*
X655Y671D01*
X653Y671D01*
X653Y673D01*
X651Y673D01*
X651Y675D01*
X649Y675D01*
X649Y677D01*
X647Y677D01*
X647Y681D01*
X645Y681D01*
X645Y683D01*
X643Y683D01*
X643Y685D01*
X641Y685D01*
X641Y687D01*
X639Y687D01*
X639Y689D01*
X637Y689D01*
X637Y691D01*
X635Y691D01*
X635Y695D01*
X633Y695D01*
X633Y697D01*
X631Y697D01*
X631Y699D01*
X629Y699D01*
X629Y701D01*
X627Y701D01*
X627Y703D01*
X625Y703D01*
X625Y707D01*
X623Y707D01*
X623Y709D01*
X621Y709D01*
X621Y711D01*
X619Y711D01*
X619Y713D01*
X617Y713D01*
X617Y715D01*
X615Y715D01*
X615Y719D01*
X613Y719D01*
X613Y721D01*
X611Y721D01*
X611Y723D01*
X609Y723D01*
X609Y725D01*
X607Y725D01*
X607Y727D01*
X605Y727D01*
X605Y731D01*
X603Y731D01*
X603Y733D01*
X601Y733D01*
X601Y735D01*
X599Y735D01*
X599Y737D01*
X597Y737D01*
X597Y739D01*
X595Y739D01*
X595Y741D01*
X593Y741D01*
X593Y745D01*
X591Y745D01*
X591Y747D01*
X589Y747D01*
X589Y749D01*
X587Y749D01*
X587Y751D01*
X585Y751D01*
X585Y753D01*
X583Y753D01*
X583Y757D01*
X581Y757D01*
X581Y759D01*
X579Y759D01*
X579Y761D01*
X577Y761D01*
X577Y763D01*
X491Y763D01*
X491Y765D01*
X407Y765D01*
G37*
D02*
G36*
X733Y619D02*
X733Y615D01*
X735Y615D01*
X735Y611D01*
X737Y611D01*
X737Y607D01*
X739Y607D01*
X739Y603D01*
X741Y603D01*
X741Y599D01*
X743Y599D01*
X743Y595D01*
X745Y595D01*
X745Y591D01*
X747Y591D01*
X747Y587D01*
X749Y587D01*
X749Y583D01*
X751Y583D01*
X751Y579D01*
X753Y579D01*
X753Y575D01*
X755Y575D01*
X755Y571D01*
X757Y571D01*
X757Y567D01*
X759Y567D01*
X759Y563D01*
X761Y563D01*
X761Y561D01*
X879Y561D01*
X879Y563D01*
X875Y563D01*
X875Y565D01*
X871Y565D01*
X871Y567D01*
X869Y567D01*
X869Y569D01*
X867Y569D01*
X867Y571D01*
X865Y571D01*
X865Y573D01*
X863Y573D01*
X863Y577D01*
X861Y577D01*
X861Y581D01*
X859Y581D01*
X859Y599D01*
X861Y599D01*
X861Y605D01*
X863Y605D01*
X863Y607D01*
X865Y607D01*
X865Y609D01*
X867Y609D01*
X867Y611D01*
X869Y611D01*
X869Y613D01*
X871Y613D01*
X871Y615D01*
X873Y615D01*
X873Y617D01*
X877Y617D01*
X877Y619D01*
X733Y619D01*
G37*
D02*
G36*
X905Y567D02*
X905Y565D01*
X901Y565D01*
X901Y563D01*
X897Y563D01*
X897Y561D01*
X1087Y561D01*
X1087Y565D01*
X1085Y565D01*
X1085Y567D01*
X905Y567D01*
G37*
D02*
G36*
X761Y561D02*
X761Y559D01*
X1089Y559D01*
X1089Y561D01*
X761Y561D01*
G37*
D02*
G36*
X761Y561D02*
X761Y559D01*
X1089Y559D01*
X1089Y561D01*
X761Y561D01*
G37*
D02*
G36*
X763Y559D02*
X763Y555D01*
X765Y555D01*
X765Y551D01*
X767Y551D01*
X767Y547D01*
X769Y547D01*
X769Y543D01*
X771Y543D01*
X771Y539D01*
X773Y539D01*
X773Y535D01*
X775Y535D01*
X775Y531D01*
X777Y531D01*
X777Y527D01*
X779Y527D01*
X779Y523D01*
X781Y523D01*
X781Y519D01*
X783Y519D01*
X783Y515D01*
X785Y515D01*
X785Y511D01*
X787Y511D01*
X787Y507D01*
X789Y507D01*
X789Y503D01*
X791Y503D01*
X791Y499D01*
X793Y499D01*
X793Y495D01*
X795Y495D01*
X795Y491D01*
X797Y491D01*
X797Y487D01*
X799Y487D01*
X799Y483D01*
X801Y483D01*
X801Y479D01*
X803Y479D01*
X803Y475D01*
X805Y475D01*
X805Y471D01*
X807Y471D01*
X807Y467D01*
X809Y467D01*
X809Y465D01*
X811Y465D01*
X811Y461D01*
X813Y461D01*
X813Y457D01*
X815Y457D01*
X815Y453D01*
X817Y453D01*
X817Y449D01*
X819Y449D01*
X819Y445D01*
X821Y445D01*
X821Y441D01*
X823Y441D01*
X823Y437D01*
X825Y437D01*
X825Y433D01*
X827Y433D01*
X827Y429D01*
X829Y429D01*
X829Y425D01*
X831Y425D01*
X831Y421D01*
X833Y421D01*
X833Y417D01*
X835Y417D01*
X835Y415D01*
X1057Y415D01*
X1057Y413D01*
X1087Y413D01*
X1087Y415D01*
X1089Y415D01*
X1089Y419D01*
X1091Y419D01*
X1091Y421D01*
X1093Y421D01*
X1093Y423D01*
X1095Y423D01*
X1095Y425D01*
X1097Y425D01*
X1097Y427D01*
X1099Y427D01*
X1099Y429D01*
X1101Y429D01*
X1101Y449D01*
X1099Y449D01*
X1099Y451D01*
X1097Y451D01*
X1097Y453D01*
X1095Y453D01*
X1095Y455D01*
X1093Y455D01*
X1093Y457D01*
X1091Y457D01*
X1091Y459D01*
X1089Y459D01*
X1089Y461D01*
X1087Y461D01*
X1087Y465D01*
X1085Y465D01*
X1085Y469D01*
X1083Y469D01*
X1083Y475D01*
X1081Y475D01*
X1081Y485D01*
X1079Y485D01*
X1079Y493D01*
X1081Y493D01*
X1081Y503D01*
X1083Y503D01*
X1083Y509D01*
X1085Y509D01*
X1085Y513D01*
X1087Y513D01*
X1087Y515D01*
X1089Y515D01*
X1089Y519D01*
X1091Y519D01*
X1091Y521D01*
X1093Y521D01*
X1093Y523D01*
X1095Y523D01*
X1095Y525D01*
X1097Y525D01*
X1097Y527D01*
X1099Y527D01*
X1099Y529D01*
X1101Y529D01*
X1101Y549D01*
X1099Y549D01*
X1099Y551D01*
X1097Y551D01*
X1097Y553D01*
X1095Y553D01*
X1095Y555D01*
X1093Y555D01*
X1093Y557D01*
X1091Y557D01*
X1091Y559D01*
X763Y559D01*
G37*
D02*
G36*
X311Y439D02*
X311Y437D01*
X773Y437D01*
X773Y439D01*
X311Y439D01*
G37*
D02*
G36*
X311Y439D02*
X311Y437D01*
X773Y437D01*
X773Y439D01*
X311Y439D01*
G37*
D02*
G36*
X313Y437D02*
X313Y435D01*
X315Y435D01*
X315Y433D01*
X317Y433D01*
X317Y431D01*
X319Y431D01*
X319Y429D01*
X321Y429D01*
X321Y427D01*
X323Y427D01*
X323Y425D01*
X325Y425D01*
X325Y423D01*
X327Y423D01*
X327Y421D01*
X329Y421D01*
X329Y419D01*
X331Y419D01*
X331Y417D01*
X333Y417D01*
X333Y415D01*
X335Y415D01*
X335Y413D01*
X337Y413D01*
X337Y411D01*
X339Y411D01*
X339Y409D01*
X341Y409D01*
X341Y407D01*
X343Y407D01*
X343Y405D01*
X345Y405D01*
X345Y403D01*
X347Y403D01*
X347Y401D01*
X349Y401D01*
X349Y399D01*
X351Y399D01*
X351Y397D01*
X353Y397D01*
X353Y395D01*
X355Y395D01*
X355Y393D01*
X357Y393D01*
X357Y391D01*
X359Y391D01*
X359Y389D01*
X361Y389D01*
X361Y387D01*
X363Y387D01*
X363Y385D01*
X365Y385D01*
X365Y383D01*
X367Y383D01*
X367Y381D01*
X369Y381D01*
X369Y379D01*
X371Y379D01*
X371Y377D01*
X373Y377D01*
X373Y375D01*
X375Y375D01*
X375Y373D01*
X377Y373D01*
X377Y371D01*
X379Y371D01*
X379Y369D01*
X381Y369D01*
X381Y367D01*
X383Y367D01*
X383Y365D01*
X385Y365D01*
X385Y363D01*
X387Y363D01*
X387Y361D01*
X389Y361D01*
X389Y359D01*
X391Y359D01*
X391Y357D01*
X393Y357D01*
X393Y355D01*
X395Y355D01*
X395Y353D01*
X397Y353D01*
X397Y351D01*
X399Y351D01*
X399Y349D01*
X401Y349D01*
X401Y347D01*
X403Y347D01*
X403Y345D01*
X405Y345D01*
X405Y343D01*
X407Y343D01*
X407Y339D01*
X1125Y339D01*
X1125Y341D01*
X1115Y341D01*
X1115Y343D01*
X1109Y343D01*
X1109Y345D01*
X1105Y345D01*
X1105Y347D01*
X1101Y347D01*
X1101Y349D01*
X1099Y349D01*
X1099Y351D01*
X1097Y351D01*
X1097Y353D01*
X1095Y353D01*
X1095Y355D01*
X1093Y355D01*
X1093Y357D01*
X1091Y357D01*
X1091Y359D01*
X1089Y359D01*
X1089Y361D01*
X1087Y361D01*
X1087Y365D01*
X1085Y365D01*
X1085Y369D01*
X1055Y369D01*
X1055Y371D01*
X819Y371D01*
X819Y373D01*
X811Y373D01*
X811Y375D01*
X809Y375D01*
X809Y377D01*
X805Y377D01*
X805Y379D01*
X803Y379D01*
X803Y383D01*
X801Y383D01*
X801Y387D01*
X799Y387D01*
X799Y391D01*
X797Y391D01*
X797Y395D01*
X795Y395D01*
X795Y399D01*
X793Y399D01*
X793Y403D01*
X791Y403D01*
X791Y407D01*
X789Y407D01*
X789Y411D01*
X787Y411D01*
X787Y413D01*
X785Y413D01*
X785Y417D01*
X783Y417D01*
X783Y421D01*
X781Y421D01*
X781Y425D01*
X779Y425D01*
X779Y429D01*
X777Y429D01*
X777Y433D01*
X775Y433D01*
X775Y437D01*
X313Y437D01*
G37*
D02*
G36*
X277Y391D02*
X277Y377D01*
X275Y377D01*
X275Y371D01*
X273Y371D01*
X273Y367D01*
X271Y367D01*
X271Y363D01*
X269Y363D01*
X269Y361D01*
X267Y361D01*
X267Y357D01*
X265Y357D01*
X265Y355D01*
X263Y355D01*
X263Y353D01*
X261Y353D01*
X261Y351D01*
X259Y351D01*
X259Y349D01*
X255Y349D01*
X255Y347D01*
X251Y347D01*
X251Y345D01*
X249Y345D01*
X249Y343D01*
X243Y343D01*
X243Y341D01*
X233Y341D01*
X233Y339D01*
X347Y339D01*
X347Y341D01*
X345Y341D01*
X345Y343D01*
X343Y343D01*
X343Y345D01*
X341Y345D01*
X341Y347D01*
X339Y347D01*
X339Y349D01*
X337Y349D01*
X337Y351D01*
X335Y351D01*
X335Y353D01*
X333Y353D01*
X333Y355D01*
X331Y355D01*
X331Y357D01*
X329Y357D01*
X329Y359D01*
X327Y359D01*
X327Y361D01*
X325Y361D01*
X325Y363D01*
X323Y363D01*
X323Y365D01*
X321Y365D01*
X321Y367D01*
X319Y367D01*
X319Y369D01*
X317Y369D01*
X317Y371D01*
X315Y371D01*
X315Y373D01*
X313Y373D01*
X313Y375D01*
X311Y375D01*
X311Y377D01*
X309Y377D01*
X309Y379D01*
X307Y379D01*
X307Y381D01*
X305Y381D01*
X305Y383D01*
X303Y383D01*
X303Y385D01*
X301Y385D01*
X301Y387D01*
X299Y387D01*
X299Y389D01*
X297Y389D01*
X297Y391D01*
X277Y391D01*
G37*
D02*
G36*
X1149Y345D02*
X1149Y343D01*
X1143Y343D01*
X1143Y341D01*
X1133Y341D01*
X1133Y339D01*
X1169Y339D01*
X1169Y345D01*
X1149Y345D01*
G37*
D02*
G36*
X45Y339D02*
X45Y337D01*
X349Y337D01*
X349Y339D01*
X45Y339D01*
G37*
D02*
G36*
X45Y339D02*
X45Y337D01*
X349Y337D01*
X349Y339D01*
X45Y339D01*
G37*
D02*
G36*
X407Y339D02*
X407Y337D01*
X1169Y337D01*
X1169Y339D01*
X407Y339D01*
G37*
D02*
G36*
X407Y339D02*
X407Y337D01*
X1169Y337D01*
X1169Y339D01*
X407Y339D01*
G37*
D02*
G36*
X45Y337D02*
X45Y225D01*
X111Y225D01*
X111Y223D01*
X123Y223D01*
X123Y221D01*
X129Y221D01*
X129Y219D01*
X133Y219D01*
X133Y217D01*
X137Y217D01*
X137Y215D01*
X139Y215D01*
X139Y213D01*
X141Y213D01*
X141Y211D01*
X143Y211D01*
X143Y209D01*
X145Y209D01*
X145Y207D01*
X147Y207D01*
X147Y205D01*
X149Y205D01*
X149Y203D01*
X151Y203D01*
X151Y199D01*
X153Y199D01*
X153Y195D01*
X155Y195D01*
X155Y189D01*
X157Y189D01*
X157Y181D01*
X159Y181D01*
X159Y169D01*
X157Y169D01*
X157Y161D01*
X155Y161D01*
X155Y155D01*
X153Y155D01*
X153Y151D01*
X151Y151D01*
X151Y147D01*
X149Y147D01*
X149Y145D01*
X147Y145D01*
X147Y143D01*
X145Y143D01*
X145Y141D01*
X143Y141D01*
X143Y139D01*
X141Y139D01*
X141Y137D01*
X139Y137D01*
X139Y135D01*
X137Y135D01*
X137Y115D01*
X139Y115D01*
X139Y113D01*
X141Y113D01*
X141Y111D01*
X143Y111D01*
X143Y109D01*
X145Y109D01*
X145Y107D01*
X147Y107D01*
X147Y105D01*
X149Y105D01*
X149Y103D01*
X151Y103D01*
X151Y99D01*
X153Y99D01*
X153Y95D01*
X155Y95D01*
X155Y89D01*
X157Y89D01*
X157Y81D01*
X159Y81D01*
X159Y69D01*
X157Y69D01*
X157Y61D01*
X155Y61D01*
X155Y41D01*
X495Y41D01*
X495Y61D01*
X493Y61D01*
X493Y85D01*
X495Y85D01*
X495Y91D01*
X497Y91D01*
X497Y95D01*
X499Y95D01*
X499Y99D01*
X501Y99D01*
X501Y101D01*
X503Y101D01*
X503Y105D01*
X505Y105D01*
X505Y107D01*
X507Y107D01*
X507Y109D01*
X511Y109D01*
X511Y111D01*
X513Y111D01*
X513Y133D01*
X511Y133D01*
X511Y135D01*
X509Y135D01*
X509Y137D01*
X507Y137D01*
X507Y139D01*
X505Y139D01*
X505Y141D01*
X503Y141D01*
X503Y143D01*
X501Y143D01*
X501Y147D01*
X499Y147D01*
X499Y149D01*
X497Y149D01*
X497Y151D01*
X447Y151D01*
X447Y153D01*
X381Y153D01*
X381Y155D01*
X377Y155D01*
X377Y157D01*
X375Y157D01*
X375Y159D01*
X373Y159D01*
X373Y161D01*
X371Y161D01*
X371Y163D01*
X369Y163D01*
X369Y167D01*
X367Y167D01*
X367Y285D01*
X365Y285D01*
X365Y323D01*
X363Y323D01*
X363Y325D01*
X361Y325D01*
X361Y327D01*
X359Y327D01*
X359Y329D01*
X357Y329D01*
X357Y331D01*
X355Y331D01*
X355Y333D01*
X353Y333D01*
X353Y335D01*
X351Y335D01*
X351Y337D01*
X45Y337D01*
G37*
D02*
G36*
X409Y337D02*
X409Y323D01*
X725Y323D01*
X725Y321D01*
X733Y321D01*
X733Y319D01*
X739Y319D01*
X739Y317D01*
X743Y317D01*
X743Y315D01*
X745Y315D01*
X745Y313D01*
X747Y313D01*
X747Y311D01*
X751Y311D01*
X751Y309D01*
X753Y309D01*
X753Y307D01*
X755Y307D01*
X755Y303D01*
X757Y303D01*
X757Y301D01*
X759Y301D01*
X759Y299D01*
X761Y299D01*
X761Y295D01*
X763Y295D01*
X763Y289D01*
X765Y289D01*
X765Y281D01*
X767Y281D01*
X767Y273D01*
X1095Y273D01*
X1095Y271D01*
X1105Y271D01*
X1105Y269D01*
X1113Y269D01*
X1113Y267D01*
X1117Y267D01*
X1117Y265D01*
X1123Y265D01*
X1123Y263D01*
X1127Y263D01*
X1127Y261D01*
X1131Y261D01*
X1131Y259D01*
X1135Y259D01*
X1135Y257D01*
X1139Y257D01*
X1139Y255D01*
X1141Y255D01*
X1141Y253D01*
X1145Y253D01*
X1145Y251D01*
X1147Y251D01*
X1147Y249D01*
X1149Y249D01*
X1149Y247D01*
X1169Y247D01*
X1169Y337D01*
X409Y337D01*
G37*
D02*
G36*
X409Y323D02*
X409Y321D01*
X553Y321D01*
X553Y319D01*
X559Y319D01*
X559Y317D01*
X563Y317D01*
X563Y315D01*
X567Y315D01*
X567Y313D01*
X569Y313D01*
X569Y311D01*
X573Y311D01*
X573Y309D01*
X575Y309D01*
X575Y307D01*
X577Y307D01*
X577Y305D01*
X579Y305D01*
X579Y301D01*
X581Y301D01*
X581Y299D01*
X583Y299D01*
X583Y295D01*
X585Y295D01*
X585Y293D01*
X587Y293D01*
X587Y285D01*
X589Y285D01*
X589Y275D01*
X591Y275D01*
X591Y271D01*
X589Y271D01*
X589Y259D01*
X587Y259D01*
X587Y253D01*
X585Y253D01*
X585Y249D01*
X583Y249D01*
X583Y245D01*
X581Y245D01*
X581Y243D01*
X579Y243D01*
X579Y241D01*
X577Y241D01*
X577Y239D01*
X575Y239D01*
X575Y237D01*
X573Y237D01*
X573Y235D01*
X571Y235D01*
X571Y233D01*
X569Y233D01*
X569Y211D01*
X573Y211D01*
X573Y209D01*
X575Y209D01*
X575Y207D01*
X577Y207D01*
X577Y205D01*
X579Y205D01*
X579Y201D01*
X581Y201D01*
X581Y199D01*
X583Y199D01*
X583Y195D01*
X585Y195D01*
X585Y193D01*
X587Y193D01*
X587Y185D01*
X589Y185D01*
X589Y175D01*
X591Y175D01*
X591Y171D01*
X589Y171D01*
X589Y159D01*
X587Y159D01*
X587Y153D01*
X585Y153D01*
X585Y149D01*
X583Y149D01*
X583Y145D01*
X581Y145D01*
X581Y143D01*
X579Y143D01*
X579Y141D01*
X577Y141D01*
X577Y139D01*
X575Y139D01*
X575Y137D01*
X573Y137D01*
X573Y135D01*
X571Y135D01*
X571Y133D01*
X569Y133D01*
X569Y111D01*
X573Y111D01*
X573Y109D01*
X575Y109D01*
X575Y107D01*
X577Y107D01*
X577Y105D01*
X579Y105D01*
X579Y101D01*
X581Y101D01*
X581Y99D01*
X583Y99D01*
X583Y95D01*
X585Y95D01*
X585Y93D01*
X587Y93D01*
X587Y85D01*
X589Y85D01*
X589Y75D01*
X591Y75D01*
X591Y71D01*
X589Y71D01*
X589Y41D01*
X671Y41D01*
X671Y63D01*
X669Y63D01*
X669Y85D01*
X671Y85D01*
X671Y91D01*
X673Y91D01*
X673Y95D01*
X675Y95D01*
X675Y99D01*
X677Y99D01*
X677Y103D01*
X679Y103D01*
X679Y105D01*
X681Y105D01*
X681Y107D01*
X683Y107D01*
X683Y109D01*
X685Y109D01*
X685Y111D01*
X687Y111D01*
X687Y113D01*
X689Y113D01*
X689Y135D01*
X687Y135D01*
X687Y137D01*
X685Y137D01*
X685Y139D01*
X683Y139D01*
X683Y141D01*
X681Y141D01*
X681Y143D01*
X679Y143D01*
X679Y145D01*
X677Y145D01*
X677Y149D01*
X675Y149D01*
X675Y153D01*
X673Y153D01*
X673Y157D01*
X671Y157D01*
X671Y163D01*
X669Y163D01*
X669Y185D01*
X671Y185D01*
X671Y191D01*
X673Y191D01*
X673Y195D01*
X675Y195D01*
X675Y199D01*
X677Y199D01*
X677Y203D01*
X679Y203D01*
X679Y205D01*
X681Y205D01*
X681Y207D01*
X683Y207D01*
X683Y209D01*
X685Y209D01*
X685Y211D01*
X687Y211D01*
X687Y213D01*
X689Y213D01*
X689Y235D01*
X687Y235D01*
X687Y237D01*
X685Y237D01*
X685Y239D01*
X683Y239D01*
X683Y241D01*
X681Y241D01*
X681Y243D01*
X679Y243D01*
X679Y245D01*
X677Y245D01*
X677Y249D01*
X675Y249D01*
X675Y253D01*
X673Y253D01*
X673Y257D01*
X671Y257D01*
X671Y263D01*
X669Y263D01*
X669Y285D01*
X671Y285D01*
X671Y291D01*
X673Y291D01*
X673Y295D01*
X675Y295D01*
X675Y299D01*
X677Y299D01*
X677Y303D01*
X679Y303D01*
X679Y305D01*
X681Y305D01*
X681Y307D01*
X683Y307D01*
X683Y309D01*
X685Y309D01*
X685Y311D01*
X687Y311D01*
X687Y313D01*
X689Y313D01*
X689Y315D01*
X693Y315D01*
X693Y317D01*
X697Y317D01*
X697Y319D01*
X703Y319D01*
X703Y321D01*
X709Y321D01*
X709Y323D01*
X409Y323D01*
G37*
D02*
G36*
X409Y321D02*
X409Y285D01*
X411Y285D01*
X411Y215D01*
X413Y215D01*
X413Y197D01*
X447Y197D01*
X447Y195D01*
X499Y195D01*
X499Y199D01*
X501Y199D01*
X501Y201D01*
X503Y201D01*
X503Y205D01*
X505Y205D01*
X505Y207D01*
X507Y207D01*
X507Y209D01*
X511Y209D01*
X511Y211D01*
X513Y211D01*
X513Y233D01*
X511Y233D01*
X511Y235D01*
X509Y235D01*
X509Y237D01*
X507Y237D01*
X507Y239D01*
X505Y239D01*
X505Y241D01*
X503Y241D01*
X503Y243D01*
X501Y243D01*
X501Y247D01*
X499Y247D01*
X499Y249D01*
X497Y249D01*
X497Y253D01*
X495Y253D01*
X495Y261D01*
X493Y261D01*
X493Y285D01*
X495Y285D01*
X495Y291D01*
X497Y291D01*
X497Y295D01*
X499Y295D01*
X499Y299D01*
X501Y299D01*
X501Y301D01*
X503Y301D01*
X503Y305D01*
X505Y305D01*
X505Y307D01*
X507Y307D01*
X507Y309D01*
X511Y309D01*
X511Y311D01*
X513Y311D01*
X513Y313D01*
X515Y313D01*
X515Y315D01*
X519Y315D01*
X519Y317D01*
X523Y317D01*
X523Y319D01*
X529Y319D01*
X529Y321D01*
X409Y321D01*
G37*
D02*
G36*
X767Y273D02*
X767Y267D01*
X765Y267D01*
X765Y259D01*
X763Y259D01*
X763Y253D01*
X761Y253D01*
X761Y249D01*
X759Y249D01*
X759Y247D01*
X757Y247D01*
X757Y243D01*
X755Y243D01*
X755Y241D01*
X753Y241D01*
X753Y239D01*
X751Y239D01*
X751Y237D01*
X749Y237D01*
X749Y235D01*
X747Y235D01*
X747Y233D01*
X745Y233D01*
X745Y213D01*
X747Y213D01*
X747Y211D01*
X751Y211D01*
X751Y209D01*
X753Y209D01*
X753Y207D01*
X755Y207D01*
X755Y203D01*
X757Y203D01*
X757Y201D01*
X759Y201D01*
X759Y199D01*
X761Y199D01*
X761Y195D01*
X763Y195D01*
X763Y189D01*
X765Y189D01*
X765Y181D01*
X767Y181D01*
X767Y167D01*
X765Y167D01*
X765Y159D01*
X763Y159D01*
X763Y153D01*
X761Y153D01*
X761Y149D01*
X759Y149D01*
X759Y147D01*
X757Y147D01*
X757Y143D01*
X755Y143D01*
X755Y141D01*
X753Y141D01*
X753Y139D01*
X751Y139D01*
X751Y137D01*
X749Y137D01*
X749Y135D01*
X747Y135D01*
X747Y133D01*
X745Y133D01*
X745Y113D01*
X747Y113D01*
X747Y111D01*
X751Y111D01*
X751Y109D01*
X753Y109D01*
X753Y107D01*
X755Y107D01*
X755Y103D01*
X757Y103D01*
X757Y101D01*
X759Y101D01*
X759Y99D01*
X761Y99D01*
X761Y95D01*
X763Y95D01*
X763Y89D01*
X765Y89D01*
X765Y81D01*
X767Y81D01*
X767Y67D01*
X765Y67D01*
X765Y41D01*
X1053Y41D01*
X1053Y61D01*
X1045Y61D01*
X1045Y63D01*
X1041Y63D01*
X1041Y65D01*
X1035Y65D01*
X1035Y67D01*
X1031Y67D01*
X1031Y69D01*
X1027Y69D01*
X1027Y71D01*
X1025Y71D01*
X1025Y73D01*
X1021Y73D01*
X1021Y75D01*
X1019Y75D01*
X1019Y77D01*
X1015Y77D01*
X1015Y79D01*
X1013Y79D01*
X1013Y81D01*
X1011Y81D01*
X1011Y83D01*
X1007Y83D01*
X1007Y85D01*
X1005Y85D01*
X1005Y87D01*
X1003Y87D01*
X1003Y89D01*
X1001Y89D01*
X1001Y91D01*
X999Y91D01*
X999Y95D01*
X997Y95D01*
X997Y97D01*
X995Y97D01*
X995Y99D01*
X993Y99D01*
X993Y101D01*
X991Y101D01*
X991Y105D01*
X989Y105D01*
X989Y109D01*
X987Y109D01*
X987Y111D01*
X985Y111D01*
X985Y115D01*
X983Y115D01*
X983Y119D01*
X981Y119D01*
X981Y123D01*
X979Y123D01*
X979Y129D01*
X977Y129D01*
X977Y135D01*
X975Y135D01*
X975Y143D01*
X973Y143D01*
X973Y161D01*
X971Y161D01*
X971Y167D01*
X973Y167D01*
X973Y185D01*
X975Y185D01*
X975Y193D01*
X977Y193D01*
X977Y199D01*
X979Y199D01*
X979Y205D01*
X981Y205D01*
X981Y209D01*
X983Y209D01*
X983Y213D01*
X985Y213D01*
X985Y217D01*
X987Y217D01*
X987Y221D01*
X989Y221D01*
X989Y225D01*
X991Y225D01*
X991Y227D01*
X993Y227D01*
X993Y229D01*
X995Y229D01*
X995Y233D01*
X997Y233D01*
X997Y235D01*
X999Y235D01*
X999Y237D01*
X1001Y237D01*
X1001Y239D01*
X1003Y239D01*
X1003Y241D01*
X1005Y241D01*
X1005Y243D01*
X1007Y243D01*
X1007Y245D01*
X1009Y245D01*
X1009Y247D01*
X1011Y247D01*
X1011Y249D01*
X1013Y249D01*
X1013Y251D01*
X1017Y251D01*
X1017Y253D01*
X1019Y253D01*
X1019Y255D01*
X1023Y255D01*
X1023Y257D01*
X1025Y257D01*
X1025Y259D01*
X1029Y259D01*
X1029Y261D01*
X1033Y261D01*
X1033Y263D01*
X1037Y263D01*
X1037Y265D01*
X1043Y265D01*
X1043Y267D01*
X1049Y267D01*
X1049Y269D01*
X1055Y269D01*
X1055Y271D01*
X1067Y271D01*
X1067Y273D01*
X767Y273D01*
G37*
D02*
G36*
X45Y225D02*
X45Y193D01*
X65Y193D01*
X65Y197D01*
X67Y197D01*
X67Y201D01*
X69Y201D01*
X69Y203D01*
X71Y203D01*
X71Y207D01*
X73Y207D01*
X73Y209D01*
X75Y209D01*
X75Y211D01*
X77Y211D01*
X77Y213D01*
X81Y213D01*
X81Y215D01*
X83Y215D01*
X83Y217D01*
X87Y217D01*
X87Y219D01*
X89Y219D01*
X89Y221D01*
X97Y221D01*
X97Y223D01*
X107Y223D01*
X107Y225D01*
X45Y225D01*
G37*
D02*
G36*
X45Y157D02*
X45Y93D01*
X65Y93D01*
X65Y97D01*
X67Y97D01*
X67Y101D01*
X69Y101D01*
X69Y103D01*
X71Y103D01*
X71Y107D01*
X73Y107D01*
X73Y109D01*
X75Y109D01*
X75Y111D01*
X77Y111D01*
X77Y113D01*
X81Y113D01*
X81Y115D01*
X83Y115D01*
X83Y135D01*
X81Y135D01*
X81Y137D01*
X77Y137D01*
X77Y139D01*
X75Y139D01*
X75Y141D01*
X73Y141D01*
X73Y145D01*
X71Y145D01*
X71Y147D01*
X69Y147D01*
X69Y149D01*
X67Y149D01*
X67Y153D01*
X65Y153D01*
X65Y157D01*
X45Y157D01*
G37*
D02*
G36*
X1147Y81D02*
X1147Y79D01*
X1145Y79D01*
X1145Y77D01*
X1143Y77D01*
X1143Y75D01*
X1139Y75D01*
X1139Y73D01*
X1137Y73D01*
X1137Y71D01*
X1133Y71D01*
X1133Y69D01*
X1129Y69D01*
X1129Y67D01*
X1125Y67D01*
X1125Y65D01*
X1121Y65D01*
X1121Y63D01*
X1115Y63D01*
X1115Y61D01*
X1107Y61D01*
X1107Y41D01*
X1169Y41D01*
X1169Y81D01*
X1147Y81D01*
G37*
D02*
G04 End of Copper0*
M02*