G04 MADE WITH FRITZING*
G04 WWW.FRITZING.ORG*
G04 DOUBLE SIDED*
G04 HOLES PLATED*
G04 CONTOUR ON CENTER OF CONTOUR VECTOR*
%ASAXBY*%
%FSLAX23Y23*%
%MOIN*%
%OFA0B0*%
%SFA1.0B1.0*%
%ADD10C,0.088000*%
%ADD11C,0.087778*%
%ADD12C,0.206850*%
%ADD13C,0.049370*%
%LNMASK1*%
G90*
G70*
G54D10*
X1094Y1298D03*
X994Y1298D03*
X894Y1298D03*
X794Y1298D03*
X694Y1298D03*
X594Y1298D03*
X86Y982D03*
X86Y1082D03*
X86Y1182D03*
X86Y1282D03*
X110Y75D03*
X110Y175D03*
G54D11*
X1129Y1089D03*
X1129Y989D03*
X1129Y889D03*
X1129Y789D03*
X1129Y689D03*
X1129Y589D03*
X1129Y489D03*
X1129Y389D03*
X229Y389D03*
X229Y489D03*
X229Y589D03*
X229Y689D03*
X229Y789D03*
X229Y889D03*
X229Y989D03*
X229Y1089D03*
X1129Y1089D03*
X1129Y989D03*
X1129Y889D03*
X1129Y789D03*
X1129Y689D03*
X1129Y589D03*
X1129Y489D03*
X1129Y389D03*
X229Y389D03*
X229Y489D03*
X229Y589D03*
X229Y689D03*
X229Y789D03*
X229Y889D03*
X229Y989D03*
X229Y1089D03*
G54D10*
X541Y73D03*
X541Y173D03*
X541Y273D03*
X718Y74D03*
X718Y174D03*
X718Y274D03*
X364Y488D03*
X364Y588D03*
X364Y688D03*
X364Y788D03*
G54D12*
X1081Y165D03*
G54D13*
X888Y591D03*
G04 End of Mask1*
M02*