%TF.GenerationSoftware,KiCad,Pcbnew,(5.1.6)-1*%
%TF.CreationDate,2020-09-06T13:06:38-04:00*%
%TF.ProjectId,ResQ KiCad Version,52657351-204b-4694-9361-642056657273,rev?*%
%TF.SameCoordinates,Original*%
%TF.FileFunction,Copper,L2,Bot*%
%TF.FilePolarity,Positive*%
%FSLAX46Y46*%
G04 Gerber Fmt 4.6, Leading zero omitted, Abs format (unit mm)*
G04 Created by KiCad (PCBNEW (5.1.6)-1) date 2020-09-06 13:06:38*
%MOMM*%
%LPD*%
G01*
G04 APERTURE LIST*
%TA.AperFunction,ComponentPad*%
%ADD10O,2.000000X1.600000*%
%TD*%
%TA.AperFunction,ComponentPad*%
%ADD11R,2.000000X2.000000*%
%TD*%
%TA.AperFunction,ComponentPad*%
%ADD12O,1.700000X1.700000*%
%TD*%
%TA.AperFunction,ComponentPad*%
%ADD13R,1.700000X1.700000*%
%TD*%
%TA.AperFunction,ViaPad*%
%ADD14C,0.800000*%
%TD*%
%TA.AperFunction,Conductor*%
%ADD15C,0.250000*%
%TD*%
%TA.AperFunction,Conductor*%
%ADD16C,0.254000*%
%TD*%
G04 APERTURE END LIST*
D10*
%TO.P,U1,16*%
%TO.N,TX*%
X199465001Y-117705001D03*
%TO.P,U1,15*%
%TO.N,RX*%
X199465001Y-120245001D03*
%TO.P,U1,14*%
%TO.N,SCL*%
X199465001Y-122785001D03*
%TO.P,U1,13*%
%TO.N,SDA*%
X199465001Y-125325001D03*
%TO.P,U1,12*%
%TO.N,D3*%
X199465001Y-127865001D03*
%TO.P,U1,11*%
%TO.N,D4*%
X199465001Y-130405001D03*
%TO.P,U1,10*%
%TO.N,GND*%
X199465001Y-132945001D03*
%TO.P,U1,9*%
%TO.N,5V*%
X199465001Y-135485001D03*
%TO.P,U1,8*%
%TO.N,3V3*%
X176605001Y-135485001D03*
%TO.P,U1,7*%
%TO.N,CS*%
X176605001Y-132945001D03*
%TO.P,U1,6*%
%TO.N,MOSI*%
X176605001Y-130405001D03*
%TO.P,U1,5*%
%TO.N,MISO*%
X176605001Y-127865001D03*
%TO.P,U1,4*%
%TO.N,CLK*%
X176605001Y-125325001D03*
%TO.P,U1,3*%
%TO.N,D0*%
X176605001Y-122785001D03*
D11*
%TO.P,U1,1*%
%TO.N,N/C*%
X176605001Y-117705001D03*
D10*
%TO.P,U1,2*%
%TO.N,A0*%
X176605001Y-120245001D03*
%TD*%
D12*
%TO.P,J6,4*%
%TO.N,RX*%
X194564000Y-141732000D03*
%TO.P,J6,3*%
%TO.N,TX*%
X194564000Y-139192000D03*
%TO.P,J6,2*%
%TO.N,GND*%
X194564000Y-136652000D03*
D13*
%TO.P,J6,1*%
%TO.N,3V3*%
X194564000Y-134112000D03*
%TD*%
D12*
%TO.P,B1,2*%
%TO.N,GND*%
X199136000Y-141478000D03*
D13*
%TO.P,B1,1*%
%TO.N,5V*%
X199136000Y-138938000D03*
%TD*%
%TO.P,J1,1*%
%TO.N,3V3*%
X180086000Y-141986000D03*
D12*
%TO.P,J1,2*%
%TO.N,GND*%
X180086000Y-139446000D03*
%TO.P,J1,3*%
%TO.N,A0*%
X180086000Y-136906000D03*
%TD*%
%TO.P,J2,3*%
%TO.N,D0*%
X172466000Y-137414000D03*
%TO.P,J2,2*%
%TO.N,GND*%
X172466000Y-139954000D03*
D13*
%TO.P,J2,1*%
%TO.N,3V3*%
X172466000Y-142494000D03*
%TD*%
D12*
%TO.P,J3,4*%
%TO.N,SDA*%
X172212000Y-118110000D03*
%TO.P,J3,3*%
%TO.N,SCL*%
X172212000Y-115570000D03*
%TO.P,J3,2*%
%TO.N,3V3*%
X172212000Y-113030000D03*
D13*
%TO.P,J3,1*%
%TO.N,GND*%
X172212000Y-110490000D03*
%TD*%
%TO.P,J4,1*%
%TO.N,3V3*%
X185420000Y-111760000D03*
D12*
%TO.P,J4,2*%
%TO.N,CS*%
X187960000Y-111760000D03*
%TO.P,J4,3*%
%TO.N,MOSI*%
X190500000Y-111760000D03*
%TO.P,J4,4*%
%TO.N,CLK*%
X193040000Y-111760000D03*
%TO.P,J4,5*%
%TO.N,MISO*%
X195580000Y-111760000D03*
%TO.P,J4,6*%
%TO.N,GND*%
X198120000Y-111760000D03*
%TD*%
%TO.P,J5,4*%
%TO.N,GND*%
X185674000Y-141732000D03*
%TO.P,J5,3*%
%TO.N,D4*%
X185674000Y-139192000D03*
%TO.P,J5,2*%
%TO.N,D3*%
X185674000Y-136652000D03*
D13*
%TO.P,J5,1*%
%TO.N,3V3*%
X185674000Y-134112000D03*
%TD*%
D14*
%TO.N,GND*%
X183896000Y-130048000D03*
X172466000Y-122936000D03*
X192024000Y-124206000D03*
X193040000Y-129286000D03*
%TO.N,D3*%
X188214000Y-132276998D03*
%TO.N,D4*%
X189611000Y-132461000D03*
%TD*%
D15*
%TO.N,5V*%
X199465001Y-138608999D02*
X199136000Y-138938000D01*
X199465001Y-135485001D02*
X199465001Y-138608999D01*
%TO.N,GND*%
X198120000Y-111760000D02*
X198120000Y-113538000D01*
X200790011Y-116208011D02*
X200790011Y-132457989D01*
X198120000Y-113538000D02*
X200790011Y-116208011D01*
X200302999Y-132945001D02*
X199465001Y-132945001D01*
X200790011Y-132457989D02*
X200302999Y-132945001D01*
X198270999Y-132945001D02*
X199465001Y-132945001D01*
X194564000Y-136652000D02*
X198270999Y-132945001D01*
X199136000Y-141224000D02*
X199136000Y-141478000D01*
X194564000Y-136652000D02*
X199136000Y-141224000D01*
X190754000Y-136652000D02*
X185674000Y-141732000D01*
X194564000Y-136652000D02*
X190754000Y-136652000D01*
X179578000Y-139954000D02*
X180086000Y-139446000D01*
X172466000Y-139954000D02*
X179578000Y-139954000D01*
X172306999Y-110584999D02*
X172212000Y-110490000D01*
X196944999Y-110584999D02*
X172306999Y-110584999D01*
X198120000Y-111760000D02*
X196944999Y-110584999D01*
%TO.N,3V3*%
X173482000Y-111760000D02*
X172212000Y-113030000D01*
X185420000Y-111760000D02*
X173482000Y-111760000D01*
X194564000Y-134112000D02*
X185674000Y-134112000D01*
X180086000Y-141986000D02*
X182118000Y-141986000D01*
X182118000Y-137668000D02*
X185674000Y-134112000D01*
X172974000Y-141986000D02*
X172466000Y-142494000D01*
X180086000Y-141986000D02*
X172974000Y-141986000D01*
X180404003Y-135485001D02*
X182118000Y-137198998D01*
X182118000Y-137198998D02*
X182118000Y-137922000D01*
X176605001Y-135485001D02*
X180404003Y-135485001D01*
X182118000Y-141986000D02*
X182118000Y-137922000D01*
X182118000Y-137922000D02*
X182118000Y-137668000D01*
X171036999Y-141064999D02*
X172466000Y-142494000D01*
X171036999Y-114205001D02*
X171036999Y-141064999D01*
X172212000Y-113030000D02*
X171036999Y-114205001D01*
%TO.N,D0*%
X172466000Y-126924002D02*
X176605001Y-122785001D01*
X172466000Y-137414000D02*
X172466000Y-126924002D01*
%TO.N,SCL*%
X186539001Y-122785001D02*
X199465001Y-122785001D01*
X172466000Y-115824000D02*
X173228000Y-115824000D01*
X172212000Y-115570000D02*
X172466000Y-115824000D01*
X173990000Y-115062000D02*
X178816000Y-115062000D01*
X173228000Y-115824000D02*
X173990000Y-115062000D01*
X178816000Y-115062000D02*
X186539001Y-122785001D01*
%TO.N,SDA*%
X172212000Y-118110000D02*
X174440009Y-115881991D01*
X188191411Y-125325001D02*
X198215001Y-125325001D01*
X198215001Y-125325001D02*
X199465001Y-125325001D01*
X174440009Y-115881991D02*
X178748401Y-115881991D01*
X178748401Y-115881991D02*
X188191411Y-125325001D01*
%TO.N,D3*%
X192625997Y-127865001D02*
X188214000Y-132276998D01*
X199465001Y-127865001D02*
X192625997Y-127865001D01*
X188214000Y-132276998D02*
X188214000Y-132276998D01*
%TO.N,D4*%
X199465001Y-130405001D02*
X191666999Y-130405001D01*
X191666999Y-130405001D02*
X189611000Y-132461000D01*
X189611000Y-132461000D02*
X189484000Y-132588000D01*
%TD*%
D16*
%TO.N,GND*%
G36*
X198066069Y-131206102D02*
G01*
X198245393Y-131424609D01*
X198463900Y-131603933D01*
X198593346Y-131673123D01*
X198575774Y-131680571D01*
X198342339Y-131839328D01*
X198144362Y-132040576D01*
X197989450Y-132276580D01*
X197883557Y-132538271D01*
X197873097Y-132595962D01*
X197995086Y-132818001D01*
X199338001Y-132818001D01*
X199338001Y-132798001D01*
X199592001Y-132798001D01*
X199592001Y-132818001D01*
X199612001Y-132818001D01*
X199612001Y-133072001D01*
X199592001Y-133072001D01*
X199592001Y-133092001D01*
X199338001Y-133092001D01*
X199338001Y-133072001D01*
X197995086Y-133072001D01*
X197873097Y-133294040D01*
X197883557Y-133351731D01*
X197989450Y-133613422D01*
X198144362Y-133849426D01*
X198342339Y-134050674D01*
X198575774Y-134209431D01*
X198593346Y-134216879D01*
X198463900Y-134286069D01*
X198245393Y-134465393D01*
X198066069Y-134683900D01*
X197932819Y-134933193D01*
X197850765Y-135203692D01*
X197823058Y-135485001D01*
X197850765Y-135766310D01*
X197932819Y-136036809D01*
X198066069Y-136286102D01*
X198245393Y-136504609D01*
X198463900Y-136683933D01*
X198705001Y-136812805D01*
X198705002Y-137449928D01*
X198286000Y-137449928D01*
X198161518Y-137462188D01*
X198041820Y-137498498D01*
X197931506Y-137557463D01*
X197834815Y-137636815D01*
X197755463Y-137733506D01*
X197696498Y-137843820D01*
X197660188Y-137963518D01*
X197647928Y-138088000D01*
X197647928Y-139788000D01*
X197660188Y-139912482D01*
X197696498Y-140032180D01*
X197755463Y-140142494D01*
X197834815Y-140239185D01*
X197931506Y-140318537D01*
X198041820Y-140377502D01*
X198122466Y-140401966D01*
X198038412Y-140477731D01*
X197864359Y-140711080D01*
X197739175Y-140973901D01*
X197694524Y-141121110D01*
X197815845Y-141351000D01*
X199009000Y-141351000D01*
X199009000Y-141331000D01*
X199263000Y-141331000D01*
X199263000Y-141351000D01*
X200456155Y-141351000D01*
X200577476Y-141121110D01*
X200532825Y-140973901D01*
X200407641Y-140711080D01*
X200233588Y-140477731D01*
X200149534Y-140401966D01*
X200230180Y-140377502D01*
X200340494Y-140318537D01*
X200437185Y-140239185D01*
X200516537Y-140142494D01*
X200575502Y-140032180D01*
X200611812Y-139912482D01*
X200624072Y-139788000D01*
X200624072Y-138088000D01*
X200611812Y-137963518D01*
X200575502Y-137843820D01*
X200516537Y-137733506D01*
X200437185Y-137636815D01*
X200340494Y-137557463D01*
X200230180Y-137498498D01*
X200225001Y-137496927D01*
X200225001Y-136812804D01*
X200466102Y-136683933D01*
X200684609Y-136504609D01*
X200863933Y-136286102D01*
X200997183Y-136036809D01*
X201016001Y-135974774D01*
X201016001Y-143866000D01*
X173680896Y-143866000D01*
X173767185Y-143795185D01*
X173846537Y-143698494D01*
X173905502Y-143588180D01*
X173941812Y-143468482D01*
X173954072Y-143344000D01*
X173954072Y-142746000D01*
X178597928Y-142746000D01*
X178597928Y-142836000D01*
X178610188Y-142960482D01*
X178646498Y-143080180D01*
X178705463Y-143190494D01*
X178784815Y-143287185D01*
X178881506Y-143366537D01*
X178991820Y-143425502D01*
X179111518Y-143461812D01*
X179236000Y-143474072D01*
X180936000Y-143474072D01*
X181060482Y-143461812D01*
X181180180Y-143425502D01*
X181290494Y-143366537D01*
X181387185Y-143287185D01*
X181466537Y-143190494D01*
X181525502Y-143080180D01*
X181561812Y-142960482D01*
X181574072Y-142836000D01*
X181574072Y-142746000D01*
X182080667Y-142746000D01*
X182118000Y-142749677D01*
X182155333Y-142746000D01*
X182266986Y-142735003D01*
X182410247Y-142691546D01*
X182542276Y-142620974D01*
X182658001Y-142526001D01*
X182752974Y-142410276D01*
X182823546Y-142278247D01*
X182867003Y-142134986D01*
X182871543Y-142088890D01*
X184232524Y-142088890D01*
X184277175Y-142236099D01*
X184402359Y-142498920D01*
X184576412Y-142732269D01*
X184792645Y-142927178D01*
X185042748Y-143076157D01*
X185317109Y-143173481D01*
X185547000Y-143052814D01*
X185547000Y-141859000D01*
X185801000Y-141859000D01*
X185801000Y-143052814D01*
X186030891Y-143173481D01*
X186305252Y-143076157D01*
X186555355Y-142927178D01*
X186771588Y-142732269D01*
X186945641Y-142498920D01*
X187070825Y-142236099D01*
X187115476Y-142088890D01*
X186994155Y-141859000D01*
X185801000Y-141859000D01*
X185547000Y-141859000D01*
X184353845Y-141859000D01*
X184232524Y-142088890D01*
X182871543Y-142088890D01*
X182881677Y-141986000D01*
X182878000Y-141948667D01*
X182878000Y-137982801D01*
X184189000Y-136671802D01*
X184189000Y-136798260D01*
X184246068Y-137085158D01*
X184358010Y-137355411D01*
X184520525Y-137598632D01*
X184727368Y-137805475D01*
X184901760Y-137922000D01*
X184727368Y-138038525D01*
X184520525Y-138245368D01*
X184358010Y-138488589D01*
X184246068Y-138758842D01*
X184189000Y-139045740D01*
X184189000Y-139338260D01*
X184246068Y-139625158D01*
X184358010Y-139895411D01*
X184520525Y-140138632D01*
X184727368Y-140345475D01*
X184909534Y-140467195D01*
X184792645Y-140536822D01*
X184576412Y-140731731D01*
X184402359Y-140965080D01*
X184277175Y-141227901D01*
X184232524Y-141375110D01*
X184353845Y-141605000D01*
X185547000Y-141605000D01*
X185547000Y-141585000D01*
X185801000Y-141585000D01*
X185801000Y-141605000D01*
X186994155Y-141605000D01*
X187115476Y-141375110D01*
X187070825Y-141227901D01*
X186945641Y-140965080D01*
X186771588Y-140731731D01*
X186555355Y-140536822D01*
X186438466Y-140467195D01*
X186620632Y-140345475D01*
X186827475Y-140138632D01*
X186989990Y-139895411D01*
X187101932Y-139625158D01*
X187159000Y-139338260D01*
X187159000Y-139045740D01*
X193079000Y-139045740D01*
X193079000Y-139338260D01*
X193136068Y-139625158D01*
X193248010Y-139895411D01*
X193410525Y-140138632D01*
X193617368Y-140345475D01*
X193791760Y-140462000D01*
X193617368Y-140578525D01*
X193410525Y-140785368D01*
X193248010Y-141028589D01*
X193136068Y-141298842D01*
X193079000Y-141585740D01*
X193079000Y-141878260D01*
X193136068Y-142165158D01*
X193248010Y-142435411D01*
X193410525Y-142678632D01*
X193617368Y-142885475D01*
X193860589Y-143047990D01*
X194130842Y-143159932D01*
X194417740Y-143217000D01*
X194710260Y-143217000D01*
X194997158Y-143159932D01*
X195267411Y-143047990D01*
X195510632Y-142885475D01*
X195717475Y-142678632D01*
X195879990Y-142435411D01*
X195991932Y-142165158D01*
X196049000Y-141878260D01*
X196049000Y-141834890D01*
X197694524Y-141834890D01*
X197739175Y-141982099D01*
X197864359Y-142244920D01*
X198038412Y-142478269D01*
X198254645Y-142673178D01*
X198504748Y-142822157D01*
X198779109Y-142919481D01*
X199009000Y-142798814D01*
X199009000Y-141605000D01*
X199263000Y-141605000D01*
X199263000Y-142798814D01*
X199492891Y-142919481D01*
X199767252Y-142822157D01*
X200017355Y-142673178D01*
X200233588Y-142478269D01*
X200407641Y-142244920D01*
X200532825Y-141982099D01*
X200577476Y-141834890D01*
X200456155Y-141605000D01*
X199263000Y-141605000D01*
X199009000Y-141605000D01*
X197815845Y-141605000D01*
X197694524Y-141834890D01*
X196049000Y-141834890D01*
X196049000Y-141585740D01*
X195991932Y-141298842D01*
X195879990Y-141028589D01*
X195717475Y-140785368D01*
X195510632Y-140578525D01*
X195336240Y-140462000D01*
X195510632Y-140345475D01*
X195717475Y-140138632D01*
X195879990Y-139895411D01*
X195991932Y-139625158D01*
X196049000Y-139338260D01*
X196049000Y-139045740D01*
X195991932Y-138758842D01*
X195879990Y-138488589D01*
X195717475Y-138245368D01*
X195510632Y-138038525D01*
X195328466Y-137916805D01*
X195445355Y-137847178D01*
X195661588Y-137652269D01*
X195835641Y-137418920D01*
X195960825Y-137156099D01*
X196005476Y-137008890D01*
X195884155Y-136779000D01*
X194691000Y-136779000D01*
X194691000Y-136799000D01*
X194437000Y-136799000D01*
X194437000Y-136779000D01*
X193243845Y-136779000D01*
X193122524Y-137008890D01*
X193167175Y-137156099D01*
X193292359Y-137418920D01*
X193466412Y-137652269D01*
X193682645Y-137847178D01*
X193799534Y-137916805D01*
X193617368Y-138038525D01*
X193410525Y-138245368D01*
X193248010Y-138488589D01*
X193136068Y-138758842D01*
X193079000Y-139045740D01*
X187159000Y-139045740D01*
X187101932Y-138758842D01*
X186989990Y-138488589D01*
X186827475Y-138245368D01*
X186620632Y-138038525D01*
X186446240Y-137922000D01*
X186620632Y-137805475D01*
X186827475Y-137598632D01*
X186989990Y-137355411D01*
X187101932Y-137085158D01*
X187159000Y-136798260D01*
X187159000Y-136505740D01*
X187101932Y-136218842D01*
X186989990Y-135948589D01*
X186827475Y-135705368D01*
X186695620Y-135573513D01*
X186768180Y-135551502D01*
X186878494Y-135492537D01*
X186975185Y-135413185D01*
X187054537Y-135316494D01*
X187113502Y-135206180D01*
X187149812Y-135086482D01*
X187162072Y-134962000D01*
X187162072Y-134872000D01*
X193075928Y-134872000D01*
X193075928Y-134962000D01*
X193088188Y-135086482D01*
X193124498Y-135206180D01*
X193183463Y-135316494D01*
X193262815Y-135413185D01*
X193359506Y-135492537D01*
X193469820Y-135551502D01*
X193550466Y-135575966D01*
X193466412Y-135651731D01*
X193292359Y-135885080D01*
X193167175Y-136147901D01*
X193122524Y-136295110D01*
X193243845Y-136525000D01*
X194437000Y-136525000D01*
X194437000Y-136505000D01*
X194691000Y-136505000D01*
X194691000Y-136525000D01*
X195884155Y-136525000D01*
X196005476Y-136295110D01*
X195960825Y-136147901D01*
X195835641Y-135885080D01*
X195661588Y-135651731D01*
X195577534Y-135575966D01*
X195658180Y-135551502D01*
X195768494Y-135492537D01*
X195865185Y-135413185D01*
X195944537Y-135316494D01*
X196003502Y-135206180D01*
X196039812Y-135086482D01*
X196052072Y-134962000D01*
X196052072Y-133262000D01*
X196039812Y-133137518D01*
X196003502Y-133017820D01*
X195944537Y-132907506D01*
X195865185Y-132810815D01*
X195768494Y-132731463D01*
X195658180Y-132672498D01*
X195538482Y-132636188D01*
X195414000Y-132623928D01*
X193714000Y-132623928D01*
X193589518Y-132636188D01*
X193469820Y-132672498D01*
X193359506Y-132731463D01*
X193262815Y-132810815D01*
X193183463Y-132907506D01*
X193124498Y-133017820D01*
X193088188Y-133137518D01*
X193075928Y-133262000D01*
X193075928Y-133352000D01*
X190140475Y-133352000D01*
X190270774Y-133264937D01*
X190414937Y-133120774D01*
X190528205Y-132951256D01*
X190606226Y-132762898D01*
X190646000Y-132562939D01*
X190646000Y-132500801D01*
X191981801Y-131165001D01*
X198044100Y-131165001D01*
X198066069Y-131206102D01*
G37*
X198066069Y-131206102D02*
X198245393Y-131424609D01*
X198463900Y-131603933D01*
X198593346Y-131673123D01*
X198575774Y-131680571D01*
X198342339Y-131839328D01*
X198144362Y-132040576D01*
X197989450Y-132276580D01*
X197883557Y-132538271D01*
X197873097Y-132595962D01*
X197995086Y-132818001D01*
X199338001Y-132818001D01*
X199338001Y-132798001D01*
X199592001Y-132798001D01*
X199592001Y-132818001D01*
X199612001Y-132818001D01*
X199612001Y-133072001D01*
X199592001Y-133072001D01*
X199592001Y-133092001D01*
X199338001Y-133092001D01*
X199338001Y-133072001D01*
X197995086Y-133072001D01*
X197873097Y-133294040D01*
X197883557Y-133351731D01*
X197989450Y-133613422D01*
X198144362Y-133849426D01*
X198342339Y-134050674D01*
X198575774Y-134209431D01*
X198593346Y-134216879D01*
X198463900Y-134286069D01*
X198245393Y-134465393D01*
X198066069Y-134683900D01*
X197932819Y-134933193D01*
X197850765Y-135203692D01*
X197823058Y-135485001D01*
X197850765Y-135766310D01*
X197932819Y-136036809D01*
X198066069Y-136286102D01*
X198245393Y-136504609D01*
X198463900Y-136683933D01*
X198705001Y-136812805D01*
X198705002Y-137449928D01*
X198286000Y-137449928D01*
X198161518Y-137462188D01*
X198041820Y-137498498D01*
X197931506Y-137557463D01*
X197834815Y-137636815D01*
X197755463Y-137733506D01*
X197696498Y-137843820D01*
X197660188Y-137963518D01*
X197647928Y-138088000D01*
X197647928Y-139788000D01*
X197660188Y-139912482D01*
X197696498Y-140032180D01*
X197755463Y-140142494D01*
X197834815Y-140239185D01*
X197931506Y-140318537D01*
X198041820Y-140377502D01*
X198122466Y-140401966D01*
X198038412Y-140477731D01*
X197864359Y-140711080D01*
X197739175Y-140973901D01*
X197694524Y-141121110D01*
X197815845Y-141351000D01*
X199009000Y-141351000D01*
X199009000Y-141331000D01*
X199263000Y-141331000D01*
X199263000Y-141351000D01*
X200456155Y-141351000D01*
X200577476Y-141121110D01*
X200532825Y-140973901D01*
X200407641Y-140711080D01*
X200233588Y-140477731D01*
X200149534Y-140401966D01*
X200230180Y-140377502D01*
X200340494Y-140318537D01*
X200437185Y-140239185D01*
X200516537Y-140142494D01*
X200575502Y-140032180D01*
X200611812Y-139912482D01*
X200624072Y-139788000D01*
X200624072Y-138088000D01*
X200611812Y-137963518D01*
X200575502Y-137843820D01*
X200516537Y-137733506D01*
X200437185Y-137636815D01*
X200340494Y-137557463D01*
X200230180Y-137498498D01*
X200225001Y-137496927D01*
X200225001Y-136812804D01*
X200466102Y-136683933D01*
X200684609Y-136504609D01*
X200863933Y-136286102D01*
X200997183Y-136036809D01*
X201016001Y-135974774D01*
X201016001Y-143866000D01*
X173680896Y-143866000D01*
X173767185Y-143795185D01*
X173846537Y-143698494D01*
X173905502Y-143588180D01*
X173941812Y-143468482D01*
X173954072Y-143344000D01*
X173954072Y-142746000D01*
X178597928Y-142746000D01*
X178597928Y-142836000D01*
X178610188Y-142960482D01*
X178646498Y-143080180D01*
X178705463Y-143190494D01*
X178784815Y-143287185D01*
X178881506Y-143366537D01*
X178991820Y-143425502D01*
X179111518Y-143461812D01*
X179236000Y-143474072D01*
X180936000Y-143474072D01*
X181060482Y-143461812D01*
X181180180Y-143425502D01*
X181290494Y-143366537D01*
X181387185Y-143287185D01*
X181466537Y-143190494D01*
X181525502Y-143080180D01*
X181561812Y-142960482D01*
X181574072Y-142836000D01*
X181574072Y-142746000D01*
X182080667Y-142746000D01*
X182118000Y-142749677D01*
X182155333Y-142746000D01*
X182266986Y-142735003D01*
X182410247Y-142691546D01*
X182542276Y-142620974D01*
X182658001Y-142526001D01*
X182752974Y-142410276D01*
X182823546Y-142278247D01*
X182867003Y-142134986D01*
X182871543Y-142088890D01*
X184232524Y-142088890D01*
X184277175Y-142236099D01*
X184402359Y-142498920D01*
X184576412Y-142732269D01*
X184792645Y-142927178D01*
X185042748Y-143076157D01*
X185317109Y-143173481D01*
X185547000Y-143052814D01*
X185547000Y-141859000D01*
X185801000Y-141859000D01*
X185801000Y-143052814D01*
X186030891Y-143173481D01*
X186305252Y-143076157D01*
X186555355Y-142927178D01*
X186771588Y-142732269D01*
X186945641Y-142498920D01*
X187070825Y-142236099D01*
X187115476Y-142088890D01*
X186994155Y-141859000D01*
X185801000Y-141859000D01*
X185547000Y-141859000D01*
X184353845Y-141859000D01*
X184232524Y-142088890D01*
X182871543Y-142088890D01*
X182881677Y-141986000D01*
X182878000Y-141948667D01*
X182878000Y-137982801D01*
X184189000Y-136671802D01*
X184189000Y-136798260D01*
X184246068Y-137085158D01*
X184358010Y-137355411D01*
X184520525Y-137598632D01*
X184727368Y-137805475D01*
X184901760Y-137922000D01*
X184727368Y-138038525D01*
X184520525Y-138245368D01*
X184358010Y-138488589D01*
X184246068Y-138758842D01*
X184189000Y-139045740D01*
X184189000Y-139338260D01*
X184246068Y-139625158D01*
X184358010Y-139895411D01*
X184520525Y-140138632D01*
X184727368Y-140345475D01*
X184909534Y-140467195D01*
X184792645Y-140536822D01*
X184576412Y-140731731D01*
X184402359Y-140965080D01*
X184277175Y-141227901D01*
X184232524Y-141375110D01*
X184353845Y-141605000D01*
X185547000Y-141605000D01*
X185547000Y-141585000D01*
X185801000Y-141585000D01*
X185801000Y-141605000D01*
X186994155Y-141605000D01*
X187115476Y-141375110D01*
X187070825Y-141227901D01*
X186945641Y-140965080D01*
X186771588Y-140731731D01*
X186555355Y-140536822D01*
X186438466Y-140467195D01*
X186620632Y-140345475D01*
X186827475Y-140138632D01*
X186989990Y-139895411D01*
X187101932Y-139625158D01*
X187159000Y-139338260D01*
X187159000Y-139045740D01*
X193079000Y-139045740D01*
X193079000Y-139338260D01*
X193136068Y-139625158D01*
X193248010Y-139895411D01*
X193410525Y-140138632D01*
X193617368Y-140345475D01*
X193791760Y-140462000D01*
X193617368Y-140578525D01*
X193410525Y-140785368D01*
X193248010Y-141028589D01*
X193136068Y-141298842D01*
X193079000Y-141585740D01*
X193079000Y-141878260D01*
X193136068Y-142165158D01*
X193248010Y-142435411D01*
X193410525Y-142678632D01*
X193617368Y-142885475D01*
X193860589Y-143047990D01*
X194130842Y-143159932D01*
X194417740Y-143217000D01*
X194710260Y-143217000D01*
X194997158Y-143159932D01*
X195267411Y-143047990D01*
X195510632Y-142885475D01*
X195717475Y-142678632D01*
X195879990Y-142435411D01*
X195991932Y-142165158D01*
X196049000Y-141878260D01*
X196049000Y-141834890D01*
X197694524Y-141834890D01*
X197739175Y-141982099D01*
X197864359Y-142244920D01*
X198038412Y-142478269D01*
X198254645Y-142673178D01*
X198504748Y-142822157D01*
X198779109Y-142919481D01*
X199009000Y-142798814D01*
X199009000Y-141605000D01*
X199263000Y-141605000D01*
X199263000Y-142798814D01*
X199492891Y-142919481D01*
X199767252Y-142822157D01*
X200017355Y-142673178D01*
X200233588Y-142478269D01*
X200407641Y-142244920D01*
X200532825Y-141982099D01*
X200577476Y-141834890D01*
X200456155Y-141605000D01*
X199263000Y-141605000D01*
X199009000Y-141605000D01*
X197815845Y-141605000D01*
X197694524Y-141834890D01*
X196049000Y-141834890D01*
X196049000Y-141585740D01*
X195991932Y-141298842D01*
X195879990Y-141028589D01*
X195717475Y-140785368D01*
X195510632Y-140578525D01*
X195336240Y-140462000D01*
X195510632Y-140345475D01*
X195717475Y-140138632D01*
X195879990Y-139895411D01*
X195991932Y-139625158D01*
X196049000Y-139338260D01*
X196049000Y-139045740D01*
X195991932Y-138758842D01*
X195879990Y-138488589D01*
X195717475Y-138245368D01*
X195510632Y-138038525D01*
X195328466Y-137916805D01*
X195445355Y-137847178D01*
X195661588Y-137652269D01*
X195835641Y-137418920D01*
X195960825Y-137156099D01*
X196005476Y-137008890D01*
X195884155Y-136779000D01*
X194691000Y-136779000D01*
X194691000Y-136799000D01*
X194437000Y-136799000D01*
X194437000Y-136779000D01*
X193243845Y-136779000D01*
X193122524Y-137008890D01*
X193167175Y-137156099D01*
X193292359Y-137418920D01*
X193466412Y-137652269D01*
X193682645Y-137847178D01*
X193799534Y-137916805D01*
X193617368Y-138038525D01*
X193410525Y-138245368D01*
X193248010Y-138488589D01*
X193136068Y-138758842D01*
X193079000Y-139045740D01*
X187159000Y-139045740D01*
X187101932Y-138758842D01*
X186989990Y-138488589D01*
X186827475Y-138245368D01*
X186620632Y-138038525D01*
X186446240Y-137922000D01*
X186620632Y-137805475D01*
X186827475Y-137598632D01*
X186989990Y-137355411D01*
X187101932Y-137085158D01*
X187159000Y-136798260D01*
X187159000Y-136505740D01*
X187101932Y-136218842D01*
X186989990Y-135948589D01*
X186827475Y-135705368D01*
X186695620Y-135573513D01*
X186768180Y-135551502D01*
X186878494Y-135492537D01*
X186975185Y-135413185D01*
X187054537Y-135316494D01*
X187113502Y-135206180D01*
X187149812Y-135086482D01*
X187162072Y-134962000D01*
X187162072Y-134872000D01*
X193075928Y-134872000D01*
X193075928Y-134962000D01*
X193088188Y-135086482D01*
X193124498Y-135206180D01*
X193183463Y-135316494D01*
X193262815Y-135413185D01*
X193359506Y-135492537D01*
X193469820Y-135551502D01*
X193550466Y-135575966D01*
X193466412Y-135651731D01*
X193292359Y-135885080D01*
X193167175Y-136147901D01*
X193122524Y-136295110D01*
X193243845Y-136525000D01*
X194437000Y-136525000D01*
X194437000Y-136505000D01*
X194691000Y-136505000D01*
X194691000Y-136525000D01*
X195884155Y-136525000D01*
X196005476Y-136295110D01*
X195960825Y-136147901D01*
X195835641Y-135885080D01*
X195661588Y-135651731D01*
X195577534Y-135575966D01*
X195658180Y-135551502D01*
X195768494Y-135492537D01*
X195865185Y-135413185D01*
X195944537Y-135316494D01*
X196003502Y-135206180D01*
X196039812Y-135086482D01*
X196052072Y-134962000D01*
X196052072Y-133262000D01*
X196039812Y-133137518D01*
X196003502Y-133017820D01*
X195944537Y-132907506D01*
X195865185Y-132810815D01*
X195768494Y-132731463D01*
X195658180Y-132672498D01*
X195538482Y-132636188D01*
X195414000Y-132623928D01*
X193714000Y-132623928D01*
X193589518Y-132636188D01*
X193469820Y-132672498D01*
X193359506Y-132731463D01*
X193262815Y-132810815D01*
X193183463Y-132907506D01*
X193124498Y-133017820D01*
X193088188Y-133137518D01*
X193075928Y-133262000D01*
X193075928Y-133352000D01*
X190140475Y-133352000D01*
X190270774Y-133264937D01*
X190414937Y-133120774D01*
X190528205Y-132951256D01*
X190606226Y-132762898D01*
X190646000Y-132562939D01*
X190646000Y-132500801D01*
X191981801Y-131165001D01*
X198044100Y-131165001D01*
X198066069Y-131206102D01*
G36*
X174990765Y-125606310D02*
G01*
X175072819Y-125876809D01*
X175206069Y-126126102D01*
X175385393Y-126344609D01*
X175603900Y-126523933D01*
X175736859Y-126595001D01*
X175603900Y-126666069D01*
X175385393Y-126845393D01*
X175206069Y-127063900D01*
X175072819Y-127313193D01*
X174990765Y-127583692D01*
X174963058Y-127865001D01*
X174990765Y-128146310D01*
X175072819Y-128416809D01*
X175206069Y-128666102D01*
X175385393Y-128884609D01*
X175603900Y-129063933D01*
X175736859Y-129135001D01*
X175603900Y-129206069D01*
X175385393Y-129385393D01*
X175206069Y-129603900D01*
X175072819Y-129853193D01*
X174990765Y-130123692D01*
X174963058Y-130405001D01*
X174990765Y-130686310D01*
X175072819Y-130956809D01*
X175206069Y-131206102D01*
X175385393Y-131424609D01*
X175603900Y-131603933D01*
X175736859Y-131675001D01*
X175603900Y-131746069D01*
X175385393Y-131925393D01*
X175206069Y-132143900D01*
X175072819Y-132393193D01*
X174990765Y-132663692D01*
X174963058Y-132945001D01*
X174990765Y-133226310D01*
X175072819Y-133496809D01*
X175206069Y-133746102D01*
X175385393Y-133964609D01*
X175603900Y-134143933D01*
X175736859Y-134215001D01*
X175603900Y-134286069D01*
X175385393Y-134465393D01*
X175206069Y-134683900D01*
X175072819Y-134933193D01*
X174990765Y-135203692D01*
X174963058Y-135485001D01*
X174990765Y-135766310D01*
X175072819Y-136036809D01*
X175206069Y-136286102D01*
X175385393Y-136504609D01*
X175603900Y-136683933D01*
X175853193Y-136817183D01*
X176123692Y-136899237D01*
X176334509Y-136920001D01*
X176875493Y-136920001D01*
X177086310Y-136899237D01*
X177356809Y-136817183D01*
X177606102Y-136683933D01*
X177824609Y-136504609D01*
X178003933Y-136286102D01*
X178025902Y-136245001D01*
X178752442Y-136245001D01*
X178658068Y-136472842D01*
X178601000Y-136759740D01*
X178601000Y-137052260D01*
X178658068Y-137339158D01*
X178770010Y-137609411D01*
X178932525Y-137852632D01*
X179139368Y-138059475D01*
X179321534Y-138181195D01*
X179204645Y-138250822D01*
X178988412Y-138445731D01*
X178814359Y-138679080D01*
X178689175Y-138941901D01*
X178644524Y-139089110D01*
X178765845Y-139319000D01*
X179959000Y-139319000D01*
X179959000Y-139299000D01*
X180213000Y-139299000D01*
X180213000Y-139319000D01*
X180233000Y-139319000D01*
X180233000Y-139573000D01*
X180213000Y-139573000D01*
X180213000Y-139593000D01*
X179959000Y-139593000D01*
X179959000Y-139573000D01*
X178765845Y-139573000D01*
X178644524Y-139802890D01*
X178689175Y-139950099D01*
X178814359Y-140212920D01*
X178988412Y-140446269D01*
X179072466Y-140522034D01*
X178991820Y-140546498D01*
X178881506Y-140605463D01*
X178784815Y-140684815D01*
X178705463Y-140781506D01*
X178646498Y-140891820D01*
X178610188Y-141011518D01*
X178597928Y-141136000D01*
X178597928Y-141226000D01*
X173794419Y-141226000D01*
X173767185Y-141192815D01*
X173670494Y-141113463D01*
X173560180Y-141054498D01*
X173479534Y-141030034D01*
X173563588Y-140954269D01*
X173737641Y-140720920D01*
X173862825Y-140458099D01*
X173907476Y-140310890D01*
X173786155Y-140081000D01*
X172593000Y-140081000D01*
X172593000Y-140101000D01*
X172339000Y-140101000D01*
X172339000Y-140081000D01*
X172319000Y-140081000D01*
X172319000Y-139827000D01*
X172339000Y-139827000D01*
X172339000Y-139807000D01*
X172593000Y-139807000D01*
X172593000Y-139827000D01*
X173786155Y-139827000D01*
X173907476Y-139597110D01*
X173862825Y-139449901D01*
X173737641Y-139187080D01*
X173563588Y-138953731D01*
X173347355Y-138758822D01*
X173230466Y-138689195D01*
X173412632Y-138567475D01*
X173619475Y-138360632D01*
X173781990Y-138117411D01*
X173893932Y-137847158D01*
X173951000Y-137560260D01*
X173951000Y-137267740D01*
X173893932Y-136980842D01*
X173781990Y-136710589D01*
X173619475Y-136467368D01*
X173412632Y-136260525D01*
X173226000Y-136135822D01*
X173226000Y-127238803D01*
X174978905Y-125485898D01*
X174990765Y-125606310D01*
G37*
X174990765Y-125606310D02*
X175072819Y-125876809D01*
X175206069Y-126126102D01*
X175385393Y-126344609D01*
X175603900Y-126523933D01*
X175736859Y-126595001D01*
X175603900Y-126666069D01*
X175385393Y-126845393D01*
X175206069Y-127063900D01*
X175072819Y-127313193D01*
X174990765Y-127583692D01*
X174963058Y-127865001D01*
X174990765Y-128146310D01*
X175072819Y-128416809D01*
X175206069Y-128666102D01*
X175385393Y-128884609D01*
X175603900Y-129063933D01*
X175736859Y-129135001D01*
X175603900Y-129206069D01*
X175385393Y-129385393D01*
X175206069Y-129603900D01*
X175072819Y-129853193D01*
X174990765Y-130123692D01*
X174963058Y-130405001D01*
X174990765Y-130686310D01*
X175072819Y-130956809D01*
X175206069Y-131206102D01*
X175385393Y-131424609D01*
X175603900Y-131603933D01*
X175736859Y-131675001D01*
X175603900Y-131746069D01*
X175385393Y-131925393D01*
X175206069Y-132143900D01*
X175072819Y-132393193D01*
X174990765Y-132663692D01*
X174963058Y-132945001D01*
X174990765Y-133226310D01*
X175072819Y-133496809D01*
X175206069Y-133746102D01*
X175385393Y-133964609D01*
X175603900Y-134143933D01*
X175736859Y-134215001D01*
X175603900Y-134286069D01*
X175385393Y-134465393D01*
X175206069Y-134683900D01*
X175072819Y-134933193D01*
X174990765Y-135203692D01*
X174963058Y-135485001D01*
X174990765Y-135766310D01*
X175072819Y-136036809D01*
X175206069Y-136286102D01*
X175385393Y-136504609D01*
X175603900Y-136683933D01*
X175853193Y-136817183D01*
X176123692Y-136899237D01*
X176334509Y-136920001D01*
X176875493Y-136920001D01*
X177086310Y-136899237D01*
X177356809Y-136817183D01*
X177606102Y-136683933D01*
X177824609Y-136504609D01*
X178003933Y-136286102D01*
X178025902Y-136245001D01*
X178752442Y-136245001D01*
X178658068Y-136472842D01*
X178601000Y-136759740D01*
X178601000Y-137052260D01*
X178658068Y-137339158D01*
X178770010Y-137609411D01*
X178932525Y-137852632D01*
X179139368Y-138059475D01*
X179321534Y-138181195D01*
X179204645Y-138250822D01*
X178988412Y-138445731D01*
X178814359Y-138679080D01*
X178689175Y-138941901D01*
X178644524Y-139089110D01*
X178765845Y-139319000D01*
X179959000Y-139319000D01*
X179959000Y-139299000D01*
X180213000Y-139299000D01*
X180213000Y-139319000D01*
X180233000Y-139319000D01*
X180233000Y-139573000D01*
X180213000Y-139573000D01*
X180213000Y-139593000D01*
X179959000Y-139593000D01*
X179959000Y-139573000D01*
X178765845Y-139573000D01*
X178644524Y-139802890D01*
X178689175Y-139950099D01*
X178814359Y-140212920D01*
X178988412Y-140446269D01*
X179072466Y-140522034D01*
X178991820Y-140546498D01*
X178881506Y-140605463D01*
X178784815Y-140684815D01*
X178705463Y-140781506D01*
X178646498Y-140891820D01*
X178610188Y-141011518D01*
X178597928Y-141136000D01*
X178597928Y-141226000D01*
X173794419Y-141226000D01*
X173767185Y-141192815D01*
X173670494Y-141113463D01*
X173560180Y-141054498D01*
X173479534Y-141030034D01*
X173563588Y-140954269D01*
X173737641Y-140720920D01*
X173862825Y-140458099D01*
X173907476Y-140310890D01*
X173786155Y-140081000D01*
X172593000Y-140081000D01*
X172593000Y-140101000D01*
X172339000Y-140101000D01*
X172339000Y-140081000D01*
X172319000Y-140081000D01*
X172319000Y-139827000D01*
X172339000Y-139827000D01*
X172339000Y-139807000D01*
X172593000Y-139807000D01*
X172593000Y-139827000D01*
X173786155Y-139827000D01*
X173907476Y-139597110D01*
X173862825Y-139449901D01*
X173737641Y-139187080D01*
X173563588Y-138953731D01*
X173347355Y-138758822D01*
X173230466Y-138689195D01*
X173412632Y-138567475D01*
X173619475Y-138360632D01*
X173781990Y-138117411D01*
X173893932Y-137847158D01*
X173951000Y-137560260D01*
X173951000Y-137267740D01*
X173893932Y-136980842D01*
X173781990Y-136710589D01*
X173619475Y-136467368D01*
X173412632Y-136260525D01*
X173226000Y-136135822D01*
X173226000Y-127238803D01*
X174978905Y-125485898D01*
X174990765Y-125606310D01*
G36*
X187627612Y-125836004D02*
G01*
X187651410Y-125865002D01*
X187767135Y-125959975D01*
X187899164Y-126030547D01*
X188042425Y-126074004D01*
X188154078Y-126085001D01*
X188154088Y-126085001D01*
X188191411Y-126088677D01*
X188228734Y-126085001D01*
X198044100Y-126085001D01*
X198066069Y-126126102D01*
X198245393Y-126344609D01*
X198463900Y-126523933D01*
X198596859Y-126595001D01*
X198463900Y-126666069D01*
X198245393Y-126845393D01*
X198066069Y-127063900D01*
X198044100Y-127105001D01*
X192663319Y-127105001D01*
X192625997Y-127101325D01*
X192588674Y-127105001D01*
X192588664Y-127105001D01*
X192477011Y-127115998D01*
X192333750Y-127159455D01*
X192201720Y-127230027D01*
X192118080Y-127298669D01*
X192085996Y-127325000D01*
X192062198Y-127353998D01*
X188174199Y-131241998D01*
X188112061Y-131241998D01*
X187912102Y-131281772D01*
X187723744Y-131359793D01*
X187554226Y-131473061D01*
X187410063Y-131617224D01*
X187296795Y-131786742D01*
X187218774Y-131975100D01*
X187179000Y-132175059D01*
X187179000Y-132378937D01*
X187218774Y-132578896D01*
X187296795Y-132767254D01*
X187410063Y-132936772D01*
X187554226Y-133080935D01*
X187723744Y-133194203D01*
X187912102Y-133272224D01*
X188112061Y-133311998D01*
X188315939Y-133311998D01*
X188515898Y-133272224D01*
X188704256Y-133194203D01*
X188809902Y-133123613D01*
X188951226Y-133264937D01*
X189081525Y-133352000D01*
X187162072Y-133352000D01*
X187162072Y-133262000D01*
X187149812Y-133137518D01*
X187113502Y-133017820D01*
X187054537Y-132907506D01*
X186975185Y-132810815D01*
X186878494Y-132731463D01*
X186768180Y-132672498D01*
X186648482Y-132636188D01*
X186524000Y-132623928D01*
X184824000Y-132623928D01*
X184699518Y-132636188D01*
X184579820Y-132672498D01*
X184469506Y-132731463D01*
X184372815Y-132810815D01*
X184293463Y-132907506D01*
X184234498Y-133017820D01*
X184198188Y-133137518D01*
X184185928Y-133262000D01*
X184185928Y-134525270D01*
X182352501Y-136358697D01*
X180967807Y-134974004D01*
X180944004Y-134945000D01*
X180828279Y-134850027D01*
X180696250Y-134779455D01*
X180552989Y-134735998D01*
X180441336Y-134725001D01*
X180441325Y-134725001D01*
X180404003Y-134721325D01*
X180366681Y-134725001D01*
X178025902Y-134725001D01*
X178003933Y-134683900D01*
X177824609Y-134465393D01*
X177606102Y-134286069D01*
X177473143Y-134215001D01*
X177606102Y-134143933D01*
X177824609Y-133964609D01*
X178003933Y-133746102D01*
X178137183Y-133496809D01*
X178219237Y-133226310D01*
X178246944Y-132945001D01*
X178219237Y-132663692D01*
X178137183Y-132393193D01*
X178003933Y-132143900D01*
X177824609Y-131925393D01*
X177606102Y-131746069D01*
X177473143Y-131675001D01*
X177606102Y-131603933D01*
X177824609Y-131424609D01*
X178003933Y-131206102D01*
X178137183Y-130956809D01*
X178219237Y-130686310D01*
X178246944Y-130405001D01*
X178219237Y-130123692D01*
X178137183Y-129853193D01*
X178003933Y-129603900D01*
X177824609Y-129385393D01*
X177606102Y-129206069D01*
X177473143Y-129135001D01*
X177606102Y-129063933D01*
X177824609Y-128884609D01*
X178003933Y-128666102D01*
X178137183Y-128416809D01*
X178219237Y-128146310D01*
X178246944Y-127865001D01*
X178219237Y-127583692D01*
X178137183Y-127313193D01*
X178003933Y-127063900D01*
X177824609Y-126845393D01*
X177606102Y-126666069D01*
X177473143Y-126595001D01*
X177606102Y-126523933D01*
X177824609Y-126344609D01*
X178003933Y-126126102D01*
X178137183Y-125876809D01*
X178219237Y-125606310D01*
X178246944Y-125325001D01*
X178219237Y-125043692D01*
X178137183Y-124773193D01*
X178003933Y-124523900D01*
X177824609Y-124305393D01*
X177606102Y-124126069D01*
X177473143Y-124055001D01*
X177606102Y-123983933D01*
X177824609Y-123804609D01*
X178003933Y-123586102D01*
X178137183Y-123336809D01*
X178219237Y-123066310D01*
X178246944Y-122785001D01*
X178219237Y-122503692D01*
X178137183Y-122233193D01*
X178003933Y-121983900D01*
X177824609Y-121765393D01*
X177606102Y-121586069D01*
X177473143Y-121515001D01*
X177606102Y-121443933D01*
X177824609Y-121264609D01*
X178003933Y-121046102D01*
X178137183Y-120796809D01*
X178219237Y-120526310D01*
X178246944Y-120245001D01*
X178219237Y-119963692D01*
X178137183Y-119693193D01*
X178003933Y-119443900D01*
X177871525Y-119282560D01*
X177959495Y-119235538D01*
X178056186Y-119156186D01*
X178135538Y-119059495D01*
X178194503Y-118949181D01*
X178230813Y-118829483D01*
X178243073Y-118705001D01*
X178243073Y-116705001D01*
X178236867Y-116641991D01*
X178433600Y-116641991D01*
X187627612Y-125836004D01*
G37*
X187627612Y-125836004D02*
X187651410Y-125865002D01*
X187767135Y-125959975D01*
X187899164Y-126030547D01*
X188042425Y-126074004D01*
X188154078Y-126085001D01*
X188154088Y-126085001D01*
X188191411Y-126088677D01*
X188228734Y-126085001D01*
X198044100Y-126085001D01*
X198066069Y-126126102D01*
X198245393Y-126344609D01*
X198463900Y-126523933D01*
X198596859Y-126595001D01*
X198463900Y-126666069D01*
X198245393Y-126845393D01*
X198066069Y-127063900D01*
X198044100Y-127105001D01*
X192663319Y-127105001D01*
X192625997Y-127101325D01*
X192588674Y-127105001D01*
X192588664Y-127105001D01*
X192477011Y-127115998D01*
X192333750Y-127159455D01*
X192201720Y-127230027D01*
X192118080Y-127298669D01*
X192085996Y-127325000D01*
X192062198Y-127353998D01*
X188174199Y-131241998D01*
X188112061Y-131241998D01*
X187912102Y-131281772D01*
X187723744Y-131359793D01*
X187554226Y-131473061D01*
X187410063Y-131617224D01*
X187296795Y-131786742D01*
X187218774Y-131975100D01*
X187179000Y-132175059D01*
X187179000Y-132378937D01*
X187218774Y-132578896D01*
X187296795Y-132767254D01*
X187410063Y-132936772D01*
X187554226Y-133080935D01*
X187723744Y-133194203D01*
X187912102Y-133272224D01*
X188112061Y-133311998D01*
X188315939Y-133311998D01*
X188515898Y-133272224D01*
X188704256Y-133194203D01*
X188809902Y-133123613D01*
X188951226Y-133264937D01*
X189081525Y-133352000D01*
X187162072Y-133352000D01*
X187162072Y-133262000D01*
X187149812Y-133137518D01*
X187113502Y-133017820D01*
X187054537Y-132907506D01*
X186975185Y-132810815D01*
X186878494Y-132731463D01*
X186768180Y-132672498D01*
X186648482Y-132636188D01*
X186524000Y-132623928D01*
X184824000Y-132623928D01*
X184699518Y-132636188D01*
X184579820Y-132672498D01*
X184469506Y-132731463D01*
X184372815Y-132810815D01*
X184293463Y-132907506D01*
X184234498Y-133017820D01*
X184198188Y-133137518D01*
X184185928Y-133262000D01*
X184185928Y-134525270D01*
X182352501Y-136358697D01*
X180967807Y-134974004D01*
X180944004Y-134945000D01*
X180828279Y-134850027D01*
X180696250Y-134779455D01*
X180552989Y-134735998D01*
X180441336Y-134725001D01*
X180441325Y-134725001D01*
X180404003Y-134721325D01*
X180366681Y-134725001D01*
X178025902Y-134725001D01*
X178003933Y-134683900D01*
X177824609Y-134465393D01*
X177606102Y-134286069D01*
X177473143Y-134215001D01*
X177606102Y-134143933D01*
X177824609Y-133964609D01*
X178003933Y-133746102D01*
X178137183Y-133496809D01*
X178219237Y-133226310D01*
X178246944Y-132945001D01*
X178219237Y-132663692D01*
X178137183Y-132393193D01*
X178003933Y-132143900D01*
X177824609Y-131925393D01*
X177606102Y-131746069D01*
X177473143Y-131675001D01*
X177606102Y-131603933D01*
X177824609Y-131424609D01*
X178003933Y-131206102D01*
X178137183Y-130956809D01*
X178219237Y-130686310D01*
X178246944Y-130405001D01*
X178219237Y-130123692D01*
X178137183Y-129853193D01*
X178003933Y-129603900D01*
X177824609Y-129385393D01*
X177606102Y-129206069D01*
X177473143Y-129135001D01*
X177606102Y-129063933D01*
X177824609Y-128884609D01*
X178003933Y-128666102D01*
X178137183Y-128416809D01*
X178219237Y-128146310D01*
X178246944Y-127865001D01*
X178219237Y-127583692D01*
X178137183Y-127313193D01*
X178003933Y-127063900D01*
X177824609Y-126845393D01*
X177606102Y-126666069D01*
X177473143Y-126595001D01*
X177606102Y-126523933D01*
X177824609Y-126344609D01*
X178003933Y-126126102D01*
X178137183Y-125876809D01*
X178219237Y-125606310D01*
X178246944Y-125325001D01*
X178219237Y-125043692D01*
X178137183Y-124773193D01*
X178003933Y-124523900D01*
X177824609Y-124305393D01*
X177606102Y-124126069D01*
X177473143Y-124055001D01*
X177606102Y-123983933D01*
X177824609Y-123804609D01*
X178003933Y-123586102D01*
X178137183Y-123336809D01*
X178219237Y-123066310D01*
X178246944Y-122785001D01*
X178219237Y-122503692D01*
X178137183Y-122233193D01*
X178003933Y-121983900D01*
X177824609Y-121765393D01*
X177606102Y-121586069D01*
X177473143Y-121515001D01*
X177606102Y-121443933D01*
X177824609Y-121264609D01*
X178003933Y-121046102D01*
X178137183Y-120796809D01*
X178219237Y-120526310D01*
X178246944Y-120245001D01*
X178219237Y-119963692D01*
X178137183Y-119693193D01*
X178003933Y-119443900D01*
X177871525Y-119282560D01*
X177959495Y-119235538D01*
X178056186Y-119156186D01*
X178135538Y-119059495D01*
X178194503Y-118949181D01*
X178230813Y-118829483D01*
X178243073Y-118705001D01*
X178243073Y-116705001D01*
X178236867Y-116641991D01*
X178433600Y-116641991D01*
X187627612Y-125836004D01*
G36*
X198066069Y-128666102D02*
G01*
X198245393Y-128884609D01*
X198463900Y-129063933D01*
X198596859Y-129135001D01*
X198463900Y-129206069D01*
X198245393Y-129385393D01*
X198066069Y-129603900D01*
X198044100Y-129645001D01*
X191920799Y-129645001D01*
X192940799Y-128625001D01*
X198044100Y-128625001D01*
X198066069Y-128666102D01*
G37*
X198066069Y-128666102D02*
X198245393Y-128884609D01*
X198463900Y-129063933D01*
X198596859Y-129135001D01*
X198463900Y-129206069D01*
X198245393Y-129385393D01*
X198066069Y-129603900D01*
X198044100Y-129645001D01*
X191920799Y-129645001D01*
X192940799Y-128625001D01*
X198044100Y-128625001D01*
X198066069Y-128666102D01*
G36*
X174966929Y-116705001D02*
G01*
X174966929Y-118705001D01*
X174979189Y-118829483D01*
X175015499Y-118949181D01*
X175074464Y-119059495D01*
X175153816Y-119156186D01*
X175250507Y-119235538D01*
X175338477Y-119282560D01*
X175206069Y-119443900D01*
X175072819Y-119693193D01*
X174990765Y-119963692D01*
X174963058Y-120245001D01*
X174990765Y-120526310D01*
X175072819Y-120796809D01*
X175206069Y-121046102D01*
X175385393Y-121264609D01*
X175603900Y-121443933D01*
X175736859Y-121515001D01*
X175603900Y-121586069D01*
X175385393Y-121765393D01*
X175206069Y-121983900D01*
X175072819Y-122233193D01*
X174990765Y-122503692D01*
X174963058Y-122785001D01*
X174990765Y-123066310D01*
X175050842Y-123264359D01*
X171954998Y-126360203D01*
X171926000Y-126384001D01*
X171902202Y-126412999D01*
X171902201Y-126413000D01*
X171831026Y-126499726D01*
X171796999Y-126563386D01*
X171796999Y-119541544D01*
X172065740Y-119595000D01*
X172358260Y-119595000D01*
X172645158Y-119537932D01*
X172915411Y-119425990D01*
X173158632Y-119263475D01*
X173365475Y-119056632D01*
X173527990Y-118813411D01*
X173639932Y-118543158D01*
X173697000Y-118256260D01*
X173697000Y-117963740D01*
X173653209Y-117743592D01*
X174754811Y-116641991D01*
X174973135Y-116641991D01*
X174966929Y-116705001D01*
G37*
X174966929Y-116705001D02*
X174966929Y-118705001D01*
X174979189Y-118829483D01*
X175015499Y-118949181D01*
X175074464Y-119059495D01*
X175153816Y-119156186D01*
X175250507Y-119235538D01*
X175338477Y-119282560D01*
X175206069Y-119443900D01*
X175072819Y-119693193D01*
X174990765Y-119963692D01*
X174963058Y-120245001D01*
X174990765Y-120526310D01*
X175072819Y-120796809D01*
X175206069Y-121046102D01*
X175385393Y-121264609D01*
X175603900Y-121443933D01*
X175736859Y-121515001D01*
X175603900Y-121586069D01*
X175385393Y-121765393D01*
X175206069Y-121983900D01*
X175072819Y-122233193D01*
X174990765Y-122503692D01*
X174963058Y-122785001D01*
X174990765Y-123066310D01*
X175050842Y-123264359D01*
X171954998Y-126360203D01*
X171926000Y-126384001D01*
X171902202Y-126412999D01*
X171902201Y-126413000D01*
X171831026Y-126499726D01*
X171796999Y-126563386D01*
X171796999Y-119541544D01*
X172065740Y-119595000D01*
X172358260Y-119595000D01*
X172645158Y-119537932D01*
X172915411Y-119425990D01*
X173158632Y-119263475D01*
X173365475Y-119056632D01*
X173527990Y-118813411D01*
X173639932Y-118543158D01*
X173697000Y-118256260D01*
X173697000Y-117963740D01*
X173653209Y-117743592D01*
X174754811Y-116641991D01*
X174973135Y-116641991D01*
X174966929Y-116705001D01*
G36*
X198066069Y-123586102D02*
G01*
X198245393Y-123804609D01*
X198463900Y-123983933D01*
X198596859Y-124055001D01*
X198463900Y-124126069D01*
X198245393Y-124305393D01*
X198066069Y-124523900D01*
X198044100Y-124565001D01*
X188506213Y-124565001D01*
X187486213Y-123545001D01*
X198044100Y-123545001D01*
X198066069Y-123586102D01*
G37*
X198066069Y-123586102D02*
X198245393Y-123804609D01*
X198463900Y-123983933D01*
X198596859Y-124055001D01*
X198463900Y-124126069D01*
X198245393Y-124305393D01*
X198066069Y-124523900D01*
X198044100Y-124565001D01*
X188506213Y-124565001D01*
X187486213Y-123545001D01*
X198044100Y-123545001D01*
X198066069Y-123586102D01*
G36*
X201016000Y-117215226D02*
G01*
X200997183Y-117153193D01*
X200863933Y-116903900D01*
X200684609Y-116685393D01*
X200466102Y-116506069D01*
X200216809Y-116372819D01*
X199946310Y-116290765D01*
X199735493Y-116270001D01*
X199194509Y-116270001D01*
X198983692Y-116290765D01*
X198713193Y-116372819D01*
X198463900Y-116506069D01*
X198245393Y-116685393D01*
X198066069Y-116903900D01*
X197932819Y-117153193D01*
X197850765Y-117423692D01*
X197823058Y-117705001D01*
X197850765Y-117986310D01*
X197932819Y-118256809D01*
X198066069Y-118506102D01*
X198245393Y-118724609D01*
X198463900Y-118903933D01*
X198596859Y-118975001D01*
X198463900Y-119046069D01*
X198245393Y-119225393D01*
X198066069Y-119443900D01*
X197932819Y-119693193D01*
X197850765Y-119963692D01*
X197823058Y-120245001D01*
X197850765Y-120526310D01*
X197932819Y-120796809D01*
X198066069Y-121046102D01*
X198245393Y-121264609D01*
X198463900Y-121443933D01*
X198596859Y-121515001D01*
X198463900Y-121586069D01*
X198245393Y-121765393D01*
X198066069Y-121983900D01*
X198044100Y-122025001D01*
X186853803Y-122025001D01*
X179379804Y-114551003D01*
X179356001Y-114521999D01*
X179240276Y-114427026D01*
X179108247Y-114356454D01*
X178964986Y-114312997D01*
X178853333Y-114302000D01*
X178853322Y-114302000D01*
X178816000Y-114298324D01*
X178778678Y-114302000D01*
X174027325Y-114302000D01*
X173990000Y-114298324D01*
X173952675Y-114302000D01*
X173952667Y-114302000D01*
X173841014Y-114312997D01*
X173697753Y-114356454D01*
X173565724Y-114427026D01*
X173449999Y-114521999D01*
X173426201Y-114550998D01*
X173359653Y-114617546D01*
X173158632Y-114416525D01*
X172984240Y-114300000D01*
X173158632Y-114183475D01*
X173365475Y-113976632D01*
X173527990Y-113733411D01*
X173639932Y-113463158D01*
X173697000Y-113176260D01*
X173697000Y-112883740D01*
X173653210Y-112663592D01*
X173796802Y-112520000D01*
X183931928Y-112520000D01*
X183931928Y-112610000D01*
X183944188Y-112734482D01*
X183980498Y-112854180D01*
X184039463Y-112964494D01*
X184118815Y-113061185D01*
X184215506Y-113140537D01*
X184325820Y-113199502D01*
X184445518Y-113235812D01*
X184570000Y-113248072D01*
X186270000Y-113248072D01*
X186394482Y-113235812D01*
X186514180Y-113199502D01*
X186624494Y-113140537D01*
X186721185Y-113061185D01*
X186800537Y-112964494D01*
X186859502Y-112854180D01*
X186881513Y-112781620D01*
X187013368Y-112913475D01*
X187256589Y-113075990D01*
X187526842Y-113187932D01*
X187813740Y-113245000D01*
X188106260Y-113245000D01*
X188393158Y-113187932D01*
X188663411Y-113075990D01*
X188906632Y-112913475D01*
X189113475Y-112706632D01*
X189230000Y-112532240D01*
X189346525Y-112706632D01*
X189553368Y-112913475D01*
X189796589Y-113075990D01*
X190066842Y-113187932D01*
X190353740Y-113245000D01*
X190646260Y-113245000D01*
X190933158Y-113187932D01*
X191203411Y-113075990D01*
X191446632Y-112913475D01*
X191653475Y-112706632D01*
X191770000Y-112532240D01*
X191886525Y-112706632D01*
X192093368Y-112913475D01*
X192336589Y-113075990D01*
X192606842Y-113187932D01*
X192893740Y-113245000D01*
X193186260Y-113245000D01*
X193473158Y-113187932D01*
X193743411Y-113075990D01*
X193986632Y-112913475D01*
X194193475Y-112706632D01*
X194310000Y-112532240D01*
X194426525Y-112706632D01*
X194633368Y-112913475D01*
X194876589Y-113075990D01*
X195146842Y-113187932D01*
X195433740Y-113245000D01*
X195726260Y-113245000D01*
X196013158Y-113187932D01*
X196283411Y-113075990D01*
X196526632Y-112913475D01*
X196733475Y-112706632D01*
X196855195Y-112524466D01*
X196924822Y-112641355D01*
X197119731Y-112857588D01*
X197353080Y-113031641D01*
X197615901Y-113156825D01*
X197763110Y-113201476D01*
X197993000Y-113080155D01*
X197993000Y-111887000D01*
X198247000Y-111887000D01*
X198247000Y-113080155D01*
X198476890Y-113201476D01*
X198624099Y-113156825D01*
X198886920Y-113031641D01*
X199120269Y-112857588D01*
X199315178Y-112641355D01*
X199464157Y-112391252D01*
X199561481Y-112116891D01*
X199440814Y-111887000D01*
X198247000Y-111887000D01*
X197993000Y-111887000D01*
X197973000Y-111887000D01*
X197973000Y-111633000D01*
X197993000Y-111633000D01*
X197993000Y-110439845D01*
X198247000Y-110439845D01*
X198247000Y-111633000D01*
X199440814Y-111633000D01*
X199561481Y-111403109D01*
X199464157Y-111128748D01*
X199315178Y-110878645D01*
X199120269Y-110662412D01*
X198886920Y-110488359D01*
X198624099Y-110363175D01*
X198476890Y-110318524D01*
X198247000Y-110439845D01*
X197993000Y-110439845D01*
X197763110Y-110318524D01*
X197615901Y-110363175D01*
X197353080Y-110488359D01*
X197119731Y-110662412D01*
X196924822Y-110878645D01*
X196855195Y-110995534D01*
X196733475Y-110813368D01*
X196526632Y-110606525D01*
X196283411Y-110444010D01*
X196013158Y-110332068D01*
X195726260Y-110275000D01*
X195433740Y-110275000D01*
X195146842Y-110332068D01*
X194876589Y-110444010D01*
X194633368Y-110606525D01*
X194426525Y-110813368D01*
X194310000Y-110987760D01*
X194193475Y-110813368D01*
X193986632Y-110606525D01*
X193743411Y-110444010D01*
X193473158Y-110332068D01*
X193186260Y-110275000D01*
X192893740Y-110275000D01*
X192606842Y-110332068D01*
X192336589Y-110444010D01*
X192093368Y-110606525D01*
X191886525Y-110813368D01*
X191770000Y-110987760D01*
X191653475Y-110813368D01*
X191446632Y-110606525D01*
X191203411Y-110444010D01*
X190933158Y-110332068D01*
X190646260Y-110275000D01*
X190353740Y-110275000D01*
X190066842Y-110332068D01*
X189796589Y-110444010D01*
X189553368Y-110606525D01*
X189346525Y-110813368D01*
X189230000Y-110987760D01*
X189113475Y-110813368D01*
X188906632Y-110606525D01*
X188663411Y-110444010D01*
X188393158Y-110332068D01*
X188106260Y-110275000D01*
X187813740Y-110275000D01*
X187526842Y-110332068D01*
X187256589Y-110444010D01*
X187013368Y-110606525D01*
X186881513Y-110738380D01*
X186859502Y-110665820D01*
X186800537Y-110555506D01*
X186721185Y-110458815D01*
X186624494Y-110379463D01*
X186514180Y-110320498D01*
X186394482Y-110284188D01*
X186270000Y-110271928D01*
X184570000Y-110271928D01*
X184445518Y-110284188D01*
X184325820Y-110320498D01*
X184215506Y-110379463D01*
X184118815Y-110458815D01*
X184039463Y-110555506D01*
X183980498Y-110665820D01*
X183944188Y-110785518D01*
X183931928Y-110910000D01*
X183931928Y-111000000D01*
X173698221Y-111000000D01*
X173697000Y-110775750D01*
X173538250Y-110617000D01*
X172339000Y-110617000D01*
X172339000Y-110637000D01*
X172085000Y-110637000D01*
X172085000Y-110617000D01*
X172065000Y-110617000D01*
X172065000Y-110363000D01*
X172085000Y-110363000D01*
X172085000Y-110343000D01*
X172339000Y-110343000D01*
X172339000Y-110363000D01*
X173538250Y-110363000D01*
X173697000Y-110204250D01*
X173700072Y-109640000D01*
X173687812Y-109515518D01*
X173651502Y-109395820D01*
X173592537Y-109285506D01*
X173513185Y-109188815D01*
X173426896Y-109118000D01*
X201016000Y-109118000D01*
X201016000Y-117215226D01*
G37*
X201016000Y-117215226D02*
X200997183Y-117153193D01*
X200863933Y-116903900D01*
X200684609Y-116685393D01*
X200466102Y-116506069D01*
X200216809Y-116372819D01*
X199946310Y-116290765D01*
X199735493Y-116270001D01*
X199194509Y-116270001D01*
X198983692Y-116290765D01*
X198713193Y-116372819D01*
X198463900Y-116506069D01*
X198245393Y-116685393D01*
X198066069Y-116903900D01*
X197932819Y-117153193D01*
X197850765Y-117423692D01*
X197823058Y-117705001D01*
X197850765Y-117986310D01*
X197932819Y-118256809D01*
X198066069Y-118506102D01*
X198245393Y-118724609D01*
X198463900Y-118903933D01*
X198596859Y-118975001D01*
X198463900Y-119046069D01*
X198245393Y-119225393D01*
X198066069Y-119443900D01*
X197932819Y-119693193D01*
X197850765Y-119963692D01*
X197823058Y-120245001D01*
X197850765Y-120526310D01*
X197932819Y-120796809D01*
X198066069Y-121046102D01*
X198245393Y-121264609D01*
X198463900Y-121443933D01*
X198596859Y-121515001D01*
X198463900Y-121586069D01*
X198245393Y-121765393D01*
X198066069Y-121983900D01*
X198044100Y-122025001D01*
X186853803Y-122025001D01*
X179379804Y-114551003D01*
X179356001Y-114521999D01*
X179240276Y-114427026D01*
X179108247Y-114356454D01*
X178964986Y-114312997D01*
X178853333Y-114302000D01*
X178853322Y-114302000D01*
X178816000Y-114298324D01*
X178778678Y-114302000D01*
X174027325Y-114302000D01*
X173990000Y-114298324D01*
X173952675Y-114302000D01*
X173952667Y-114302000D01*
X173841014Y-114312997D01*
X173697753Y-114356454D01*
X173565724Y-114427026D01*
X173449999Y-114521999D01*
X173426201Y-114550998D01*
X173359653Y-114617546D01*
X173158632Y-114416525D01*
X172984240Y-114300000D01*
X173158632Y-114183475D01*
X173365475Y-113976632D01*
X173527990Y-113733411D01*
X173639932Y-113463158D01*
X173697000Y-113176260D01*
X173697000Y-112883740D01*
X173653210Y-112663592D01*
X173796802Y-112520000D01*
X183931928Y-112520000D01*
X183931928Y-112610000D01*
X183944188Y-112734482D01*
X183980498Y-112854180D01*
X184039463Y-112964494D01*
X184118815Y-113061185D01*
X184215506Y-113140537D01*
X184325820Y-113199502D01*
X184445518Y-113235812D01*
X184570000Y-113248072D01*
X186270000Y-113248072D01*
X186394482Y-113235812D01*
X186514180Y-113199502D01*
X186624494Y-113140537D01*
X186721185Y-113061185D01*
X186800537Y-112964494D01*
X186859502Y-112854180D01*
X186881513Y-112781620D01*
X187013368Y-112913475D01*
X187256589Y-113075990D01*
X187526842Y-113187932D01*
X187813740Y-113245000D01*
X188106260Y-113245000D01*
X188393158Y-113187932D01*
X188663411Y-113075990D01*
X188906632Y-112913475D01*
X189113475Y-112706632D01*
X189230000Y-112532240D01*
X189346525Y-112706632D01*
X189553368Y-112913475D01*
X189796589Y-113075990D01*
X190066842Y-113187932D01*
X190353740Y-113245000D01*
X190646260Y-113245000D01*
X190933158Y-113187932D01*
X191203411Y-113075990D01*
X191446632Y-112913475D01*
X191653475Y-112706632D01*
X191770000Y-112532240D01*
X191886525Y-112706632D01*
X192093368Y-112913475D01*
X192336589Y-113075990D01*
X192606842Y-113187932D01*
X192893740Y-113245000D01*
X193186260Y-113245000D01*
X193473158Y-113187932D01*
X193743411Y-113075990D01*
X193986632Y-112913475D01*
X194193475Y-112706632D01*
X194310000Y-112532240D01*
X194426525Y-112706632D01*
X194633368Y-112913475D01*
X194876589Y-113075990D01*
X195146842Y-113187932D01*
X195433740Y-113245000D01*
X195726260Y-113245000D01*
X196013158Y-113187932D01*
X196283411Y-113075990D01*
X196526632Y-112913475D01*
X196733475Y-112706632D01*
X196855195Y-112524466D01*
X196924822Y-112641355D01*
X197119731Y-112857588D01*
X197353080Y-113031641D01*
X197615901Y-113156825D01*
X197763110Y-113201476D01*
X197993000Y-113080155D01*
X197993000Y-111887000D01*
X198247000Y-111887000D01*
X198247000Y-113080155D01*
X198476890Y-113201476D01*
X198624099Y-113156825D01*
X198886920Y-113031641D01*
X199120269Y-112857588D01*
X199315178Y-112641355D01*
X199464157Y-112391252D01*
X199561481Y-112116891D01*
X199440814Y-111887000D01*
X198247000Y-111887000D01*
X197993000Y-111887000D01*
X197973000Y-111887000D01*
X197973000Y-111633000D01*
X197993000Y-111633000D01*
X197993000Y-110439845D01*
X198247000Y-110439845D01*
X198247000Y-111633000D01*
X199440814Y-111633000D01*
X199561481Y-111403109D01*
X199464157Y-111128748D01*
X199315178Y-110878645D01*
X199120269Y-110662412D01*
X198886920Y-110488359D01*
X198624099Y-110363175D01*
X198476890Y-110318524D01*
X198247000Y-110439845D01*
X197993000Y-110439845D01*
X197763110Y-110318524D01*
X197615901Y-110363175D01*
X197353080Y-110488359D01*
X197119731Y-110662412D01*
X196924822Y-110878645D01*
X196855195Y-110995534D01*
X196733475Y-110813368D01*
X196526632Y-110606525D01*
X196283411Y-110444010D01*
X196013158Y-110332068D01*
X195726260Y-110275000D01*
X195433740Y-110275000D01*
X195146842Y-110332068D01*
X194876589Y-110444010D01*
X194633368Y-110606525D01*
X194426525Y-110813368D01*
X194310000Y-110987760D01*
X194193475Y-110813368D01*
X193986632Y-110606525D01*
X193743411Y-110444010D01*
X193473158Y-110332068D01*
X193186260Y-110275000D01*
X192893740Y-110275000D01*
X192606842Y-110332068D01*
X192336589Y-110444010D01*
X192093368Y-110606525D01*
X191886525Y-110813368D01*
X191770000Y-110987760D01*
X191653475Y-110813368D01*
X191446632Y-110606525D01*
X191203411Y-110444010D01*
X190933158Y-110332068D01*
X190646260Y-110275000D01*
X190353740Y-110275000D01*
X190066842Y-110332068D01*
X189796589Y-110444010D01*
X189553368Y-110606525D01*
X189346525Y-110813368D01*
X189230000Y-110987760D01*
X189113475Y-110813368D01*
X188906632Y-110606525D01*
X188663411Y-110444010D01*
X188393158Y-110332068D01*
X188106260Y-110275000D01*
X187813740Y-110275000D01*
X187526842Y-110332068D01*
X187256589Y-110444010D01*
X187013368Y-110606525D01*
X186881513Y-110738380D01*
X186859502Y-110665820D01*
X186800537Y-110555506D01*
X186721185Y-110458815D01*
X186624494Y-110379463D01*
X186514180Y-110320498D01*
X186394482Y-110284188D01*
X186270000Y-110271928D01*
X184570000Y-110271928D01*
X184445518Y-110284188D01*
X184325820Y-110320498D01*
X184215506Y-110379463D01*
X184118815Y-110458815D01*
X184039463Y-110555506D01*
X183980498Y-110665820D01*
X183944188Y-110785518D01*
X183931928Y-110910000D01*
X183931928Y-111000000D01*
X173698221Y-111000000D01*
X173697000Y-110775750D01*
X173538250Y-110617000D01*
X172339000Y-110617000D01*
X172339000Y-110637000D01*
X172085000Y-110637000D01*
X172085000Y-110617000D01*
X172065000Y-110617000D01*
X172065000Y-110363000D01*
X172085000Y-110363000D01*
X172085000Y-110343000D01*
X172339000Y-110343000D01*
X172339000Y-110363000D01*
X173538250Y-110363000D01*
X173697000Y-110204250D01*
X173700072Y-109640000D01*
X173687812Y-109515518D01*
X173651502Y-109395820D01*
X173592537Y-109285506D01*
X173513185Y-109188815D01*
X173426896Y-109118000D01*
X201016000Y-109118000D01*
X201016000Y-117215226D01*
%TD*%
M02*
