%TF.GenerationSoftware,KiCad,Pcbnew,(5.1.6)-1*%
%TF.CreationDate,2020-09-06T13:06:38-04:00*%
%TF.ProjectId,ResQ KiCad Version,52657351-204b-4694-9361-642056657273,rev?*%
%TF.SameCoordinates,Original*%
%TF.FileFunction,Legend,Top*%
%TF.FilePolarity,Positive*%
%FSLAX46Y46*%
G04 Gerber Fmt 4.6, Leading zero omitted, Abs format (unit mm)*
G04 Created by KiCad (PCBNEW (5.1.6)-1) date 2020-09-06 13:06:38*
%MOMM*%
%LPD*%
G01*
G04 APERTURE LIST*
%ADD10C,0.150000*%
%ADD11C,0.010000*%
%ADD12C,0.120000*%
G04 APERTURE END LIST*
D10*
X185483714Y-128071619D02*
X185531333Y-128024000D01*
X185626571Y-127976380D01*
X185864666Y-127976380D01*
X185959904Y-128024000D01*
X186007523Y-128071619D01*
X186055142Y-128166857D01*
X186055142Y-128262095D01*
X186007523Y-128404952D01*
X185436095Y-128976380D01*
X186055142Y-128976380D01*
X186674190Y-127976380D02*
X186769428Y-127976380D01*
X186864666Y-128024000D01*
X186912285Y-128071619D01*
X186959904Y-128166857D01*
X187007523Y-128357333D01*
X187007523Y-128595428D01*
X186959904Y-128785904D01*
X186912285Y-128881142D01*
X186864666Y-128928761D01*
X186769428Y-128976380D01*
X186674190Y-128976380D01*
X186578952Y-128928761D01*
X186531333Y-128881142D01*
X186483714Y-128785904D01*
X186436095Y-128595428D01*
X186436095Y-128357333D01*
X186483714Y-128166857D01*
X186531333Y-128071619D01*
X186578952Y-128024000D01*
X186674190Y-127976380D01*
X187388476Y-128071619D02*
X187436095Y-128024000D01*
X187531333Y-127976380D01*
X187769428Y-127976380D01*
X187864666Y-128024000D01*
X187912285Y-128071619D01*
X187959904Y-128166857D01*
X187959904Y-128262095D01*
X187912285Y-128404952D01*
X187340857Y-128976380D01*
X187959904Y-128976380D01*
X188578952Y-127976380D02*
X188674190Y-127976380D01*
X188769428Y-128024000D01*
X188817047Y-128071619D01*
X188864666Y-128166857D01*
X188912285Y-128357333D01*
X188912285Y-128595428D01*
X188864666Y-128785904D01*
X188817047Y-128881142D01*
X188769428Y-128928761D01*
X188674190Y-128976380D01*
X188578952Y-128976380D01*
X188483714Y-128928761D01*
X188436095Y-128881142D01*
X188388476Y-128785904D01*
X188340857Y-128595428D01*
X188340857Y-128357333D01*
X188388476Y-128166857D01*
X188436095Y-128071619D01*
X188483714Y-128024000D01*
X188578952Y-127976380D01*
X184404380Y-119007380D02*
X184071047Y-118531190D01*
X183832952Y-119007380D02*
X183832952Y-118007380D01*
X184213904Y-118007380D01*
X184309142Y-118055000D01*
X184356761Y-118102619D01*
X184404380Y-118197857D01*
X184404380Y-118340714D01*
X184356761Y-118435952D01*
X184309142Y-118483571D01*
X184213904Y-118531190D01*
X183832952Y-118531190D01*
X185213904Y-118959761D02*
X185118666Y-119007380D01*
X184928190Y-119007380D01*
X184832952Y-118959761D01*
X184785333Y-118864523D01*
X184785333Y-118483571D01*
X184832952Y-118388333D01*
X184928190Y-118340714D01*
X185118666Y-118340714D01*
X185213904Y-118388333D01*
X185261523Y-118483571D01*
X185261523Y-118578809D01*
X184785333Y-118674047D01*
X185642476Y-118959761D02*
X185737714Y-119007380D01*
X185928190Y-119007380D01*
X186023428Y-118959761D01*
X186071047Y-118864523D01*
X186071047Y-118816904D01*
X186023428Y-118721666D01*
X185928190Y-118674047D01*
X185785333Y-118674047D01*
X185690095Y-118626428D01*
X185642476Y-118531190D01*
X185642476Y-118483571D01*
X185690095Y-118388333D01*
X185785333Y-118340714D01*
X185928190Y-118340714D01*
X186023428Y-118388333D01*
X187166285Y-119102619D02*
X187071047Y-119055000D01*
X186975809Y-118959761D01*
X186832952Y-118816904D01*
X186737714Y-118769285D01*
X186642476Y-118769285D01*
X186690095Y-119007380D02*
X186594857Y-118959761D01*
X186499619Y-118864523D01*
X186452000Y-118674047D01*
X186452000Y-118340714D01*
X186499619Y-118150238D01*
X186594857Y-118055000D01*
X186690095Y-118007380D01*
X186880571Y-118007380D01*
X186975809Y-118055000D01*
X187071047Y-118150238D01*
X187118666Y-118340714D01*
X187118666Y-118674047D01*
X187071047Y-118864523D01*
X186975809Y-118959761D01*
X186880571Y-119007380D01*
X186690095Y-119007380D01*
X188166285Y-118007380D02*
X188499619Y-119007380D01*
X188832952Y-118007380D01*
X189118666Y-118102619D02*
X189166285Y-118055000D01*
X189261523Y-118007380D01*
X189499619Y-118007380D01*
X189594857Y-118055000D01*
X189642476Y-118102619D01*
X189690095Y-118197857D01*
X189690095Y-118293095D01*
X189642476Y-118435952D01*
X189071047Y-119007380D01*
X189690095Y-119007380D01*
X190118666Y-118912142D02*
X190166285Y-118959761D01*
X190118666Y-119007380D01*
X190071047Y-118959761D01*
X190118666Y-118912142D01*
X190118666Y-119007380D01*
X191118666Y-119007380D02*
X190547238Y-119007380D01*
X190832952Y-119007380D02*
X190832952Y-118007380D01*
X190737714Y-118150238D01*
X190642476Y-118245476D01*
X190547238Y-118293095D01*
X182166285Y-119990714D02*
X182356761Y-120657380D01*
X182547238Y-120181190D01*
X182737714Y-120657380D01*
X182928190Y-119990714D01*
X183213904Y-119990714D02*
X183404380Y-120657380D01*
X183594857Y-120181190D01*
X183785333Y-120657380D01*
X183975809Y-119990714D01*
X184261523Y-119990714D02*
X184452000Y-120657380D01*
X184642476Y-120181190D01*
X184832952Y-120657380D01*
X185023428Y-119990714D01*
X185404380Y-120562142D02*
X185452000Y-120609761D01*
X185404380Y-120657380D01*
X185356761Y-120609761D01*
X185404380Y-120562142D01*
X185404380Y-120657380D01*
X185880571Y-120657380D02*
X185880571Y-119990714D01*
X185880571Y-120085952D02*
X185928190Y-120038333D01*
X186023428Y-119990714D01*
X186166285Y-119990714D01*
X186261523Y-120038333D01*
X186309142Y-120133571D01*
X186309142Y-120657380D01*
X186309142Y-120133571D02*
X186356761Y-120038333D01*
X186452000Y-119990714D01*
X186594857Y-119990714D01*
X186690095Y-120038333D01*
X186737714Y-120133571D01*
X186737714Y-120657380D01*
X187213904Y-120657380D02*
X187213904Y-119657380D01*
X187309142Y-120276428D02*
X187594857Y-120657380D01*
X187594857Y-119990714D02*
X187213904Y-120371666D01*
X188023428Y-120657380D02*
X188023428Y-119990714D01*
X188023428Y-120085952D02*
X188071047Y-120038333D01*
X188166285Y-119990714D01*
X188309142Y-119990714D01*
X188404380Y-120038333D01*
X188452000Y-120133571D01*
X188452000Y-120657380D01*
X188452000Y-120133571D02*
X188499619Y-120038333D01*
X188594857Y-119990714D01*
X188737714Y-119990714D01*
X188832952Y-120038333D01*
X188880571Y-120133571D01*
X188880571Y-120657380D01*
X189737714Y-120609761D02*
X189642476Y-120657380D01*
X189452000Y-120657380D01*
X189356761Y-120609761D01*
X189309142Y-120514523D01*
X189309142Y-120133571D01*
X189356761Y-120038333D01*
X189452000Y-119990714D01*
X189642476Y-119990714D01*
X189737714Y-120038333D01*
X189785333Y-120133571D01*
X189785333Y-120228809D01*
X189309142Y-120324047D01*
X190213904Y-120562142D02*
X190261523Y-120609761D01*
X190213904Y-120657380D01*
X190166285Y-120609761D01*
X190213904Y-120562142D01*
X190213904Y-120657380D01*
X190832952Y-120657380D02*
X190737714Y-120609761D01*
X190690095Y-120562142D01*
X190642476Y-120466904D01*
X190642476Y-120181190D01*
X190690095Y-120085952D01*
X190737714Y-120038333D01*
X190832952Y-119990714D01*
X190975809Y-119990714D01*
X191071047Y-120038333D01*
X191118666Y-120085952D01*
X191166285Y-120181190D01*
X191166285Y-120466904D01*
X191118666Y-120562142D01*
X191071047Y-120609761D01*
X190975809Y-120657380D01*
X190832952Y-120657380D01*
X191594857Y-120657380D02*
X191594857Y-119990714D01*
X191594857Y-120181190D02*
X191642476Y-120085952D01*
X191690095Y-120038333D01*
X191785333Y-119990714D01*
X191880571Y-119990714D01*
X192642476Y-119990714D02*
X192642476Y-120800238D01*
X192594857Y-120895476D01*
X192547238Y-120943095D01*
X192452000Y-120990714D01*
X192309142Y-120990714D01*
X192213904Y-120943095D01*
X192642476Y-120609761D02*
X192547238Y-120657380D01*
X192356761Y-120657380D01*
X192261523Y-120609761D01*
X192213904Y-120562142D01*
X192166285Y-120466904D01*
X192166285Y-120181190D01*
X192213904Y-120085952D01*
X192261523Y-120038333D01*
X192356761Y-119990714D01*
X192547238Y-119990714D01*
X192642476Y-120038333D01*
D11*
%TO.C,REF\u002A\u002A*%
G36*
X187574964Y-121750018D02*
G01*
X187631812Y-122051570D01*
X188051338Y-122224512D01*
X188302984Y-122053395D01*
X188373458Y-122005750D01*
X188437163Y-121963210D01*
X188491126Y-121927715D01*
X188532373Y-121901210D01*
X188557934Y-121885636D01*
X188564895Y-121882278D01*
X188577435Y-121890914D01*
X188604231Y-121914792D01*
X188642280Y-121950859D01*
X188688579Y-121996067D01*
X188740123Y-122047364D01*
X188793909Y-122101701D01*
X188846935Y-122156028D01*
X188896195Y-122207295D01*
X188938687Y-122252451D01*
X188971407Y-122288446D01*
X188991351Y-122312230D01*
X188996119Y-122320190D01*
X188989257Y-122334865D01*
X188970020Y-122367014D01*
X188940430Y-122413492D01*
X188902510Y-122471156D01*
X188858282Y-122536860D01*
X188832654Y-122574336D01*
X188785941Y-122642768D01*
X188744432Y-122704520D01*
X188710140Y-122756519D01*
X188685080Y-122795692D01*
X188671264Y-122818965D01*
X188669188Y-122823855D01*
X188673895Y-122837755D01*
X188686723Y-122870150D01*
X188705738Y-122916485D01*
X188729003Y-122972206D01*
X188754584Y-123032758D01*
X188780545Y-123093586D01*
X188804950Y-123150136D01*
X188825863Y-123197852D01*
X188841349Y-123232181D01*
X188849472Y-123248568D01*
X188849952Y-123249212D01*
X188862707Y-123252341D01*
X188896677Y-123259321D01*
X188948340Y-123269467D01*
X189014176Y-123282092D01*
X189090664Y-123296509D01*
X189135290Y-123304823D01*
X189217021Y-123320384D01*
X189290843Y-123335192D01*
X189353021Y-123348436D01*
X189399822Y-123359305D01*
X189427509Y-123366989D01*
X189433074Y-123369427D01*
X189438526Y-123385930D01*
X189442924Y-123423200D01*
X189446272Y-123476880D01*
X189448574Y-123542612D01*
X189449832Y-123616037D01*
X189450048Y-123692796D01*
X189449227Y-123768532D01*
X189447371Y-123838886D01*
X189444482Y-123899500D01*
X189440565Y-123946016D01*
X189435622Y-123974075D01*
X189432657Y-123979916D01*
X189414934Y-123986917D01*
X189377381Y-123996927D01*
X189324964Y-124008769D01*
X189262652Y-124021267D01*
X189240900Y-124025310D01*
X189136024Y-124044520D01*
X189053180Y-124059991D01*
X188989630Y-124072337D01*
X188942637Y-124082173D01*
X188909463Y-124090114D01*
X188887371Y-124096776D01*
X188873624Y-124102773D01*
X188865484Y-124108719D01*
X188864345Y-124109894D01*
X188852977Y-124128826D01*
X188835635Y-124165669D01*
X188814050Y-124215913D01*
X188789954Y-124275046D01*
X188765079Y-124338556D01*
X188741157Y-124401932D01*
X188719919Y-124460662D01*
X188703097Y-124510235D01*
X188692422Y-124546139D01*
X188689627Y-124563862D01*
X188689860Y-124564483D01*
X188699331Y-124578970D01*
X188720818Y-124610844D01*
X188752063Y-124656789D01*
X188790807Y-124713485D01*
X188834793Y-124777617D01*
X188847319Y-124795842D01*
X188891984Y-124861914D01*
X188931288Y-124922200D01*
X188963088Y-124973235D01*
X188985245Y-125011560D01*
X188995617Y-125033711D01*
X188996119Y-125036432D01*
X188987405Y-125050736D01*
X188963325Y-125079072D01*
X188926976Y-125118396D01*
X188881453Y-125165661D01*
X188829852Y-125217823D01*
X188775267Y-125271835D01*
X188720794Y-125324653D01*
X188669529Y-125373231D01*
X188624567Y-125414523D01*
X188589004Y-125445485D01*
X188565935Y-125463070D01*
X188559554Y-125465941D01*
X188544699Y-125459178D01*
X188514286Y-125440939D01*
X188473268Y-125414297D01*
X188441709Y-125392852D01*
X188384525Y-125353503D01*
X188316806Y-125307171D01*
X188248880Y-125260913D01*
X188212361Y-125236155D01*
X188088752Y-125152547D01*
X187984991Y-125208650D01*
X187937720Y-125233228D01*
X187897523Y-125252331D01*
X187870326Y-125263227D01*
X187863402Y-125264743D01*
X187855077Y-125253549D01*
X187838654Y-125221917D01*
X187815357Y-125172765D01*
X187786414Y-125109010D01*
X187753050Y-125033571D01*
X187716491Y-124949364D01*
X187677964Y-124859308D01*
X187638694Y-124766321D01*
X187599908Y-124673320D01*
X187562830Y-124583223D01*
X187528689Y-124498948D01*
X187498708Y-124423413D01*
X187474116Y-124359534D01*
X187456136Y-124310231D01*
X187445997Y-124278421D01*
X187444366Y-124267496D01*
X187457291Y-124253561D01*
X187485589Y-124230940D01*
X187523346Y-124204333D01*
X187526515Y-124202228D01*
X187624100Y-124124114D01*
X187702786Y-124032982D01*
X187761891Y-123931745D01*
X187800732Y-123823318D01*
X187818628Y-123710614D01*
X187814897Y-123596548D01*
X187788857Y-123484034D01*
X187739825Y-123375985D01*
X187725400Y-123352345D01*
X187650369Y-123256887D01*
X187561730Y-123180232D01*
X187462549Y-123122780D01*
X187355895Y-123084929D01*
X187244836Y-123067078D01*
X187132439Y-123069625D01*
X187021773Y-123092970D01*
X186915906Y-123137510D01*
X186817905Y-123203645D01*
X186787590Y-123230487D01*
X186710438Y-123314512D01*
X186654218Y-123402966D01*
X186615653Y-123502115D01*
X186594174Y-123600303D01*
X186588872Y-123710697D01*
X186606552Y-123821640D01*
X186645419Y-123929381D01*
X186703677Y-124030169D01*
X186779531Y-124120256D01*
X186871183Y-124195892D01*
X186883228Y-124203864D01*
X186921389Y-124229974D01*
X186950399Y-124252595D01*
X186964268Y-124267039D01*
X186964469Y-124267496D01*
X186961492Y-124283121D01*
X186949689Y-124318582D01*
X186930286Y-124370962D01*
X186904512Y-124437345D01*
X186873591Y-124514814D01*
X186838751Y-124600450D01*
X186801217Y-124691337D01*
X186762217Y-124784559D01*
X186722977Y-124877197D01*
X186684724Y-124966335D01*
X186648683Y-125049055D01*
X186616083Y-125122441D01*
X186588148Y-125183575D01*
X186566105Y-125229541D01*
X186551182Y-125257421D01*
X186545172Y-125264743D01*
X186526809Y-125259041D01*
X186492448Y-125243749D01*
X186448016Y-125221599D01*
X186423583Y-125208650D01*
X186319822Y-125152547D01*
X186196213Y-125236155D01*
X186133114Y-125278987D01*
X186064030Y-125326122D01*
X185999293Y-125370503D01*
X185966866Y-125392852D01*
X185921259Y-125423477D01*
X185882640Y-125447747D01*
X185856048Y-125462587D01*
X185847410Y-125465724D01*
X185834839Y-125457261D01*
X185807016Y-125433636D01*
X185766639Y-125397302D01*
X185716405Y-125350711D01*
X185659012Y-125296317D01*
X185622714Y-125261392D01*
X185559210Y-125198996D01*
X185504327Y-125143188D01*
X185460286Y-125096354D01*
X185429305Y-125060882D01*
X185413602Y-125039161D01*
X185412095Y-125034752D01*
X185419086Y-125017985D01*
X185438406Y-124984082D01*
X185467909Y-124936476D01*
X185505455Y-124878599D01*
X185548900Y-124813884D01*
X185561255Y-124795842D01*
X185606273Y-124730267D01*
X185646660Y-124671228D01*
X185680160Y-124622042D01*
X185704514Y-124586028D01*
X185717464Y-124566502D01*
X185718715Y-124564483D01*
X185716844Y-124548922D01*
X185706913Y-124514709D01*
X185690653Y-124466355D01*
X185669795Y-124408371D01*
X185646073Y-124345270D01*
X185621216Y-124281563D01*
X185596958Y-124221761D01*
X185575029Y-124170376D01*
X185557162Y-124131919D01*
X185545087Y-124110902D01*
X185544229Y-124109894D01*
X185536846Y-124103888D01*
X185524375Y-124097948D01*
X185504080Y-124091460D01*
X185473222Y-124083809D01*
X185429066Y-124074380D01*
X185368874Y-124062559D01*
X185289907Y-124047729D01*
X185189430Y-124029277D01*
X185167675Y-124025310D01*
X185103198Y-124012853D01*
X185046989Y-124000666D01*
X185004013Y-123989926D01*
X184979240Y-123981809D01*
X184975918Y-123979916D01*
X184970444Y-123963138D01*
X184965994Y-123925645D01*
X184962572Y-123871794D01*
X184960181Y-123805944D01*
X184958823Y-123732453D01*
X184958501Y-123655680D01*
X184959219Y-123579983D01*
X184960979Y-123509720D01*
X184963784Y-123449250D01*
X184967638Y-123402930D01*
X184972543Y-123375119D01*
X184975500Y-123369427D01*
X184991963Y-123363686D01*
X185029449Y-123354345D01*
X185084225Y-123342215D01*
X185152555Y-123328107D01*
X185230706Y-123312830D01*
X185273284Y-123304823D01*
X185354071Y-123289721D01*
X185426113Y-123276040D01*
X185485889Y-123264467D01*
X185529879Y-123255687D01*
X185554561Y-123250387D01*
X185558623Y-123249212D01*
X185565489Y-123235965D01*
X185580002Y-123204057D01*
X185600229Y-123158047D01*
X185624234Y-123102492D01*
X185650082Y-123041953D01*
X185675840Y-122980986D01*
X185699573Y-122924151D01*
X185719346Y-122876006D01*
X185733224Y-122841110D01*
X185739274Y-122824021D01*
X185739386Y-122823274D01*
X185732528Y-122809793D01*
X185713302Y-122778770D01*
X185683728Y-122733289D01*
X185645827Y-122676432D01*
X185601620Y-122611283D01*
X185575921Y-122573862D01*
X185529093Y-122505247D01*
X185487501Y-122442952D01*
X185453175Y-122390129D01*
X185428143Y-122349927D01*
X185414435Y-122325500D01*
X185412456Y-122320024D01*
X185420966Y-122307278D01*
X185444493Y-122280063D01*
X185480032Y-122241428D01*
X185524577Y-122194423D01*
X185575123Y-122142095D01*
X185628664Y-122087495D01*
X185682195Y-122033670D01*
X185732711Y-121983670D01*
X185777206Y-121940543D01*
X185812675Y-121907339D01*
X185836113Y-121887106D01*
X185843954Y-121882278D01*
X185856720Y-121889067D01*
X185887256Y-121908142D01*
X185932590Y-121937561D01*
X185989756Y-121975381D01*
X186055784Y-122019661D01*
X186105590Y-122053395D01*
X186357236Y-122224512D01*
X186566999Y-122138041D01*
X186776763Y-122051570D01*
X186833611Y-121750018D01*
X186890460Y-121448466D01*
X187518115Y-121448466D01*
X187574964Y-121750018D01*
G37*
X187574964Y-121750018D02*
X187631812Y-122051570D01*
X188051338Y-122224512D01*
X188302984Y-122053395D01*
X188373458Y-122005750D01*
X188437163Y-121963210D01*
X188491126Y-121927715D01*
X188532373Y-121901210D01*
X188557934Y-121885636D01*
X188564895Y-121882278D01*
X188577435Y-121890914D01*
X188604231Y-121914792D01*
X188642280Y-121950859D01*
X188688579Y-121996067D01*
X188740123Y-122047364D01*
X188793909Y-122101701D01*
X188846935Y-122156028D01*
X188896195Y-122207295D01*
X188938687Y-122252451D01*
X188971407Y-122288446D01*
X188991351Y-122312230D01*
X188996119Y-122320190D01*
X188989257Y-122334865D01*
X188970020Y-122367014D01*
X188940430Y-122413492D01*
X188902510Y-122471156D01*
X188858282Y-122536860D01*
X188832654Y-122574336D01*
X188785941Y-122642768D01*
X188744432Y-122704520D01*
X188710140Y-122756519D01*
X188685080Y-122795692D01*
X188671264Y-122818965D01*
X188669188Y-122823855D01*
X188673895Y-122837755D01*
X188686723Y-122870150D01*
X188705738Y-122916485D01*
X188729003Y-122972206D01*
X188754584Y-123032758D01*
X188780545Y-123093586D01*
X188804950Y-123150136D01*
X188825863Y-123197852D01*
X188841349Y-123232181D01*
X188849472Y-123248568D01*
X188849952Y-123249212D01*
X188862707Y-123252341D01*
X188896677Y-123259321D01*
X188948340Y-123269467D01*
X189014176Y-123282092D01*
X189090664Y-123296509D01*
X189135290Y-123304823D01*
X189217021Y-123320384D01*
X189290843Y-123335192D01*
X189353021Y-123348436D01*
X189399822Y-123359305D01*
X189427509Y-123366989D01*
X189433074Y-123369427D01*
X189438526Y-123385930D01*
X189442924Y-123423200D01*
X189446272Y-123476880D01*
X189448574Y-123542612D01*
X189449832Y-123616037D01*
X189450048Y-123692796D01*
X189449227Y-123768532D01*
X189447371Y-123838886D01*
X189444482Y-123899500D01*
X189440565Y-123946016D01*
X189435622Y-123974075D01*
X189432657Y-123979916D01*
X189414934Y-123986917D01*
X189377381Y-123996927D01*
X189324964Y-124008769D01*
X189262652Y-124021267D01*
X189240900Y-124025310D01*
X189136024Y-124044520D01*
X189053180Y-124059991D01*
X188989630Y-124072337D01*
X188942637Y-124082173D01*
X188909463Y-124090114D01*
X188887371Y-124096776D01*
X188873624Y-124102773D01*
X188865484Y-124108719D01*
X188864345Y-124109894D01*
X188852977Y-124128826D01*
X188835635Y-124165669D01*
X188814050Y-124215913D01*
X188789954Y-124275046D01*
X188765079Y-124338556D01*
X188741157Y-124401932D01*
X188719919Y-124460662D01*
X188703097Y-124510235D01*
X188692422Y-124546139D01*
X188689627Y-124563862D01*
X188689860Y-124564483D01*
X188699331Y-124578970D01*
X188720818Y-124610844D01*
X188752063Y-124656789D01*
X188790807Y-124713485D01*
X188834793Y-124777617D01*
X188847319Y-124795842D01*
X188891984Y-124861914D01*
X188931288Y-124922200D01*
X188963088Y-124973235D01*
X188985245Y-125011560D01*
X188995617Y-125033711D01*
X188996119Y-125036432D01*
X188987405Y-125050736D01*
X188963325Y-125079072D01*
X188926976Y-125118396D01*
X188881453Y-125165661D01*
X188829852Y-125217823D01*
X188775267Y-125271835D01*
X188720794Y-125324653D01*
X188669529Y-125373231D01*
X188624567Y-125414523D01*
X188589004Y-125445485D01*
X188565935Y-125463070D01*
X188559554Y-125465941D01*
X188544699Y-125459178D01*
X188514286Y-125440939D01*
X188473268Y-125414297D01*
X188441709Y-125392852D01*
X188384525Y-125353503D01*
X188316806Y-125307171D01*
X188248880Y-125260913D01*
X188212361Y-125236155D01*
X188088752Y-125152547D01*
X187984991Y-125208650D01*
X187937720Y-125233228D01*
X187897523Y-125252331D01*
X187870326Y-125263227D01*
X187863402Y-125264743D01*
X187855077Y-125253549D01*
X187838654Y-125221917D01*
X187815357Y-125172765D01*
X187786414Y-125109010D01*
X187753050Y-125033571D01*
X187716491Y-124949364D01*
X187677964Y-124859308D01*
X187638694Y-124766321D01*
X187599908Y-124673320D01*
X187562830Y-124583223D01*
X187528689Y-124498948D01*
X187498708Y-124423413D01*
X187474116Y-124359534D01*
X187456136Y-124310231D01*
X187445997Y-124278421D01*
X187444366Y-124267496D01*
X187457291Y-124253561D01*
X187485589Y-124230940D01*
X187523346Y-124204333D01*
X187526515Y-124202228D01*
X187624100Y-124124114D01*
X187702786Y-124032982D01*
X187761891Y-123931745D01*
X187800732Y-123823318D01*
X187818628Y-123710614D01*
X187814897Y-123596548D01*
X187788857Y-123484034D01*
X187739825Y-123375985D01*
X187725400Y-123352345D01*
X187650369Y-123256887D01*
X187561730Y-123180232D01*
X187462549Y-123122780D01*
X187355895Y-123084929D01*
X187244836Y-123067078D01*
X187132439Y-123069625D01*
X187021773Y-123092970D01*
X186915906Y-123137510D01*
X186817905Y-123203645D01*
X186787590Y-123230487D01*
X186710438Y-123314512D01*
X186654218Y-123402966D01*
X186615653Y-123502115D01*
X186594174Y-123600303D01*
X186588872Y-123710697D01*
X186606552Y-123821640D01*
X186645419Y-123929381D01*
X186703677Y-124030169D01*
X186779531Y-124120256D01*
X186871183Y-124195892D01*
X186883228Y-124203864D01*
X186921389Y-124229974D01*
X186950399Y-124252595D01*
X186964268Y-124267039D01*
X186964469Y-124267496D01*
X186961492Y-124283121D01*
X186949689Y-124318582D01*
X186930286Y-124370962D01*
X186904512Y-124437345D01*
X186873591Y-124514814D01*
X186838751Y-124600450D01*
X186801217Y-124691337D01*
X186762217Y-124784559D01*
X186722977Y-124877197D01*
X186684724Y-124966335D01*
X186648683Y-125049055D01*
X186616083Y-125122441D01*
X186588148Y-125183575D01*
X186566105Y-125229541D01*
X186551182Y-125257421D01*
X186545172Y-125264743D01*
X186526809Y-125259041D01*
X186492448Y-125243749D01*
X186448016Y-125221599D01*
X186423583Y-125208650D01*
X186319822Y-125152547D01*
X186196213Y-125236155D01*
X186133114Y-125278987D01*
X186064030Y-125326122D01*
X185999293Y-125370503D01*
X185966866Y-125392852D01*
X185921259Y-125423477D01*
X185882640Y-125447747D01*
X185856048Y-125462587D01*
X185847410Y-125465724D01*
X185834839Y-125457261D01*
X185807016Y-125433636D01*
X185766639Y-125397302D01*
X185716405Y-125350711D01*
X185659012Y-125296317D01*
X185622714Y-125261392D01*
X185559210Y-125198996D01*
X185504327Y-125143188D01*
X185460286Y-125096354D01*
X185429305Y-125060882D01*
X185413602Y-125039161D01*
X185412095Y-125034752D01*
X185419086Y-125017985D01*
X185438406Y-124984082D01*
X185467909Y-124936476D01*
X185505455Y-124878599D01*
X185548900Y-124813884D01*
X185561255Y-124795842D01*
X185606273Y-124730267D01*
X185646660Y-124671228D01*
X185680160Y-124622042D01*
X185704514Y-124586028D01*
X185717464Y-124566502D01*
X185718715Y-124564483D01*
X185716844Y-124548922D01*
X185706913Y-124514709D01*
X185690653Y-124466355D01*
X185669795Y-124408371D01*
X185646073Y-124345270D01*
X185621216Y-124281563D01*
X185596958Y-124221761D01*
X185575029Y-124170376D01*
X185557162Y-124131919D01*
X185545087Y-124110902D01*
X185544229Y-124109894D01*
X185536846Y-124103888D01*
X185524375Y-124097948D01*
X185504080Y-124091460D01*
X185473222Y-124083809D01*
X185429066Y-124074380D01*
X185368874Y-124062559D01*
X185289907Y-124047729D01*
X185189430Y-124029277D01*
X185167675Y-124025310D01*
X185103198Y-124012853D01*
X185046989Y-124000666D01*
X185004013Y-123989926D01*
X184979240Y-123981809D01*
X184975918Y-123979916D01*
X184970444Y-123963138D01*
X184965994Y-123925645D01*
X184962572Y-123871794D01*
X184960181Y-123805944D01*
X184958823Y-123732453D01*
X184958501Y-123655680D01*
X184959219Y-123579983D01*
X184960979Y-123509720D01*
X184963784Y-123449250D01*
X184967638Y-123402930D01*
X184972543Y-123375119D01*
X184975500Y-123369427D01*
X184991963Y-123363686D01*
X185029449Y-123354345D01*
X185084225Y-123342215D01*
X185152555Y-123328107D01*
X185230706Y-123312830D01*
X185273284Y-123304823D01*
X185354071Y-123289721D01*
X185426113Y-123276040D01*
X185485889Y-123264467D01*
X185529879Y-123255687D01*
X185554561Y-123250387D01*
X185558623Y-123249212D01*
X185565489Y-123235965D01*
X185580002Y-123204057D01*
X185600229Y-123158047D01*
X185624234Y-123102492D01*
X185650082Y-123041953D01*
X185675840Y-122980986D01*
X185699573Y-122924151D01*
X185719346Y-122876006D01*
X185733224Y-122841110D01*
X185739274Y-122824021D01*
X185739386Y-122823274D01*
X185732528Y-122809793D01*
X185713302Y-122778770D01*
X185683728Y-122733289D01*
X185645827Y-122676432D01*
X185601620Y-122611283D01*
X185575921Y-122573862D01*
X185529093Y-122505247D01*
X185487501Y-122442952D01*
X185453175Y-122390129D01*
X185428143Y-122349927D01*
X185414435Y-122325500D01*
X185412456Y-122320024D01*
X185420966Y-122307278D01*
X185444493Y-122280063D01*
X185480032Y-122241428D01*
X185524577Y-122194423D01*
X185575123Y-122142095D01*
X185628664Y-122087495D01*
X185682195Y-122033670D01*
X185732711Y-121983670D01*
X185777206Y-121940543D01*
X185812675Y-121907339D01*
X185836113Y-121887106D01*
X185843954Y-121882278D01*
X185856720Y-121889067D01*
X185887256Y-121908142D01*
X185932590Y-121937561D01*
X185989756Y-121975381D01*
X186055784Y-122019661D01*
X186105590Y-122053395D01*
X186357236Y-122224512D01*
X186566999Y-122138041D01*
X186776763Y-122051570D01*
X186833611Y-121750018D01*
X186890460Y-121448466D01*
X187518115Y-121448466D01*
X187574964Y-121750018D01*
G36*
X188997460Y-125918030D02*
G01*
X189040711Y-125931245D01*
X189068558Y-125947941D01*
X189077629Y-125961145D01*
X189075132Y-125976797D01*
X189058931Y-126001385D01*
X189045232Y-126018800D01*
X189016992Y-126050283D01*
X188995775Y-126063529D01*
X188977688Y-126062664D01*
X188924035Y-126049010D01*
X188884630Y-126049630D01*
X188852632Y-126065104D01*
X188841890Y-126074161D01*
X188807505Y-126106027D01*
X188807505Y-126522179D01*
X188669188Y-126522179D01*
X188669188Y-125918614D01*
X188738347Y-125918614D01*
X188779869Y-125920256D01*
X188801291Y-125926087D01*
X188807502Y-125937461D01*
X188807505Y-125937798D01*
X188810439Y-125949713D01*
X188823704Y-125948159D01*
X188842084Y-125939563D01*
X188880046Y-125923568D01*
X188910872Y-125913945D01*
X188950536Y-125911478D01*
X188997460Y-125918030D01*
G37*
X188997460Y-125918030D02*
X189040711Y-125931245D01*
X189068558Y-125947941D01*
X189077629Y-125961145D01*
X189075132Y-125976797D01*
X189058931Y-126001385D01*
X189045232Y-126018800D01*
X189016992Y-126050283D01*
X188995775Y-126063529D01*
X188977688Y-126062664D01*
X188924035Y-126049010D01*
X188884630Y-126049630D01*
X188852632Y-126065104D01*
X188841890Y-126074161D01*
X188807505Y-126106027D01*
X188807505Y-126522179D01*
X188669188Y-126522179D01*
X188669188Y-125918614D01*
X188738347Y-125918614D01*
X188779869Y-125920256D01*
X188801291Y-125926087D01*
X188807502Y-125937461D01*
X188807505Y-125937798D01*
X188810439Y-125949713D01*
X188823704Y-125948159D01*
X188842084Y-125939563D01*
X188880046Y-125923568D01*
X188910872Y-125913945D01*
X188950536Y-125911478D01*
X188997460Y-125918030D01*
G36*
X186443988Y-125929002D02*
G01*
X186475283Y-125943950D01*
X186505591Y-125965541D01*
X186528682Y-125990391D01*
X186545500Y-126022087D01*
X186556994Y-126064214D01*
X186564109Y-126120358D01*
X186567793Y-126194106D01*
X186568992Y-126289044D01*
X186569011Y-126298985D01*
X186569287Y-126522179D01*
X186430970Y-126522179D01*
X186430970Y-126316418D01*
X186430872Y-126240189D01*
X186430191Y-126184939D01*
X186428349Y-126146501D01*
X186424767Y-126120706D01*
X186418868Y-126103384D01*
X186410073Y-126090368D01*
X186397820Y-126077507D01*
X186354953Y-126049873D01*
X186308157Y-126044745D01*
X186263576Y-126062217D01*
X186248072Y-126075221D01*
X186236690Y-126087447D01*
X186228519Y-126100540D01*
X186223026Y-126118615D01*
X186219680Y-126145787D01*
X186217949Y-126186170D01*
X186217303Y-126243879D01*
X186217208Y-126314132D01*
X186217208Y-126522179D01*
X186078891Y-126522179D01*
X186078891Y-125918614D01*
X186148050Y-125918614D01*
X186189572Y-125920256D01*
X186210994Y-125926087D01*
X186217205Y-125937461D01*
X186217208Y-125937798D01*
X186220090Y-125948938D01*
X186232801Y-125947674D01*
X186258074Y-125935434D01*
X186315395Y-125917424D01*
X186380963Y-125915421D01*
X186443988Y-125929002D01*
G37*
X186443988Y-125929002D02*
X186475283Y-125943950D01*
X186505591Y-125965541D01*
X186528682Y-125990391D01*
X186545500Y-126022087D01*
X186556994Y-126064214D01*
X186564109Y-126120358D01*
X186567793Y-126194106D01*
X186568992Y-126289044D01*
X186569011Y-126298985D01*
X186569287Y-126522179D01*
X186430970Y-126522179D01*
X186430970Y-126316418D01*
X186430872Y-126240189D01*
X186430191Y-126184939D01*
X186428349Y-126146501D01*
X186424767Y-126120706D01*
X186418868Y-126103384D01*
X186410073Y-126090368D01*
X186397820Y-126077507D01*
X186354953Y-126049873D01*
X186308157Y-126044745D01*
X186263576Y-126062217D01*
X186248072Y-126075221D01*
X186236690Y-126087447D01*
X186228519Y-126100540D01*
X186223026Y-126118615D01*
X186219680Y-126145787D01*
X186217949Y-126186170D01*
X186217303Y-126243879D01*
X186217208Y-126314132D01*
X186217208Y-126522179D01*
X186078891Y-126522179D01*
X186078891Y-125918614D01*
X186148050Y-125918614D01*
X186189572Y-125920256D01*
X186210994Y-125926087D01*
X186217205Y-125937461D01*
X186217208Y-125937798D01*
X186220090Y-125948938D01*
X186232801Y-125947674D01*
X186258074Y-125935434D01*
X186315395Y-125917424D01*
X186380963Y-125915421D01*
X186443988Y-125929002D01*
G36*
X189875898Y-125916457D02*
G01*
X189908096Y-125924279D01*
X189969825Y-125952921D01*
X190022610Y-125996667D01*
X190059141Y-126049117D01*
X190064160Y-126060893D01*
X190071045Y-126091740D01*
X190075864Y-126137371D01*
X190077505Y-126183492D01*
X190077505Y-126270693D01*
X189895178Y-126270693D01*
X189819979Y-126270978D01*
X189767003Y-126272704D01*
X189733325Y-126277181D01*
X189716020Y-126285720D01*
X189712163Y-126299630D01*
X189718829Y-126320222D01*
X189730770Y-126344315D01*
X189764080Y-126384525D01*
X189810368Y-126404558D01*
X189866944Y-126403905D01*
X189931031Y-126382101D01*
X189986417Y-126355193D01*
X190032375Y-126391532D01*
X190078333Y-126427872D01*
X190035096Y-126467819D01*
X189977374Y-126505563D01*
X189906386Y-126528320D01*
X189830029Y-126534688D01*
X189756199Y-126523268D01*
X189744287Y-126519393D01*
X189679399Y-126485506D01*
X189631130Y-126434986D01*
X189598465Y-126366325D01*
X189580385Y-126278014D01*
X189580175Y-126276121D01*
X189578556Y-126179878D01*
X189585100Y-126145542D01*
X189712852Y-126145542D01*
X189724584Y-126150822D01*
X189756438Y-126154867D01*
X189803397Y-126157176D01*
X189833154Y-126157525D01*
X189888648Y-126157306D01*
X189923346Y-126155916D01*
X189941601Y-126152251D01*
X189947766Y-126145210D01*
X189946195Y-126133690D01*
X189944878Y-126129233D01*
X189922382Y-126087355D01*
X189887003Y-126053604D01*
X189855780Y-126038773D01*
X189814301Y-126039668D01*
X189772269Y-126058164D01*
X189737012Y-126088786D01*
X189715854Y-126126062D01*
X189712852Y-126145542D01*
X189585100Y-126145542D01*
X189594690Y-126095229D01*
X189626698Y-126024191D01*
X189672701Y-125968779D01*
X189730821Y-125931009D01*
X189799180Y-125912896D01*
X189875898Y-125916457D01*
G37*
X189875898Y-125916457D02*
X189908096Y-125924279D01*
X189969825Y-125952921D01*
X190022610Y-125996667D01*
X190059141Y-126049117D01*
X190064160Y-126060893D01*
X190071045Y-126091740D01*
X190075864Y-126137371D01*
X190077505Y-126183492D01*
X190077505Y-126270693D01*
X189895178Y-126270693D01*
X189819979Y-126270978D01*
X189767003Y-126272704D01*
X189733325Y-126277181D01*
X189716020Y-126285720D01*
X189712163Y-126299630D01*
X189718829Y-126320222D01*
X189730770Y-126344315D01*
X189764080Y-126384525D01*
X189810368Y-126404558D01*
X189866944Y-126403905D01*
X189931031Y-126382101D01*
X189986417Y-126355193D01*
X190032375Y-126391532D01*
X190078333Y-126427872D01*
X190035096Y-126467819D01*
X189977374Y-126505563D01*
X189906386Y-126528320D01*
X189830029Y-126534688D01*
X189756199Y-126523268D01*
X189744287Y-126519393D01*
X189679399Y-126485506D01*
X189631130Y-126434986D01*
X189598465Y-126366325D01*
X189580385Y-126278014D01*
X189580175Y-126276121D01*
X189578556Y-126179878D01*
X189585100Y-126145542D01*
X189712852Y-126145542D01*
X189724584Y-126150822D01*
X189756438Y-126154867D01*
X189803397Y-126157176D01*
X189833154Y-126157525D01*
X189888648Y-126157306D01*
X189923346Y-126155916D01*
X189941601Y-126152251D01*
X189947766Y-126145210D01*
X189946195Y-126133690D01*
X189944878Y-126129233D01*
X189922382Y-126087355D01*
X189887003Y-126053604D01*
X189855780Y-126038773D01*
X189814301Y-126039668D01*
X189772269Y-126058164D01*
X189737012Y-126088786D01*
X189715854Y-126126062D01*
X189712852Y-126145542D01*
X189585100Y-126145542D01*
X189594690Y-126095229D01*
X189626698Y-126024191D01*
X189672701Y-125968779D01*
X189730821Y-125931009D01*
X189799180Y-125912896D01*
X189875898Y-125916457D01*
G36*
X189415226Y-125923880D02*
G01*
X189488080Y-125954830D01*
X189511027Y-125969895D01*
X189540354Y-125993048D01*
X189558764Y-126011253D01*
X189561961Y-126017183D01*
X189552935Y-126030340D01*
X189529837Y-126052667D01*
X189511344Y-126068250D01*
X189460728Y-126108926D01*
X189420760Y-126075295D01*
X189389874Y-126053584D01*
X189359759Y-126046090D01*
X189325292Y-126047920D01*
X189270561Y-126061528D01*
X189232886Y-126089772D01*
X189209991Y-126135433D01*
X189199597Y-126201289D01*
X189199595Y-126201331D01*
X189200494Y-126274939D01*
X189214463Y-126328946D01*
X189242328Y-126365716D01*
X189261325Y-126378168D01*
X189311776Y-126393673D01*
X189365663Y-126393683D01*
X189412546Y-126378638D01*
X189423644Y-126371287D01*
X189451476Y-126352511D01*
X189473236Y-126349434D01*
X189496704Y-126363409D01*
X189522649Y-126388510D01*
X189563716Y-126430880D01*
X189518121Y-126468464D01*
X189447674Y-126510882D01*
X189368233Y-126531785D01*
X189285215Y-126530272D01*
X189230694Y-126516411D01*
X189166970Y-126482135D01*
X189116005Y-126428212D01*
X189092851Y-126390149D01*
X189074099Y-126335536D01*
X189064715Y-126266369D01*
X189064643Y-126191407D01*
X189073824Y-126119409D01*
X189092199Y-126059137D01*
X189095093Y-126052958D01*
X189137952Y-125992351D01*
X189195979Y-125948224D01*
X189264591Y-125921493D01*
X189339201Y-125913073D01*
X189415226Y-125923880D01*
G37*
X189415226Y-125923880D02*
X189488080Y-125954830D01*
X189511027Y-125969895D01*
X189540354Y-125993048D01*
X189558764Y-126011253D01*
X189561961Y-126017183D01*
X189552935Y-126030340D01*
X189529837Y-126052667D01*
X189511344Y-126068250D01*
X189460728Y-126108926D01*
X189420760Y-126075295D01*
X189389874Y-126053584D01*
X189359759Y-126046090D01*
X189325292Y-126047920D01*
X189270561Y-126061528D01*
X189232886Y-126089772D01*
X189209991Y-126135433D01*
X189199597Y-126201289D01*
X189199595Y-126201331D01*
X189200494Y-126274939D01*
X189214463Y-126328946D01*
X189242328Y-126365716D01*
X189261325Y-126378168D01*
X189311776Y-126393673D01*
X189365663Y-126393683D01*
X189412546Y-126378638D01*
X189423644Y-126371287D01*
X189451476Y-126352511D01*
X189473236Y-126349434D01*
X189496704Y-126363409D01*
X189522649Y-126388510D01*
X189563716Y-126430880D01*
X189518121Y-126468464D01*
X189447674Y-126510882D01*
X189368233Y-126531785D01*
X189285215Y-126530272D01*
X189230694Y-126516411D01*
X189166970Y-126482135D01*
X189116005Y-126428212D01*
X189092851Y-126390149D01*
X189074099Y-126335536D01*
X189064715Y-126266369D01*
X189064643Y-126191407D01*
X189073824Y-126119409D01*
X189092199Y-126059137D01*
X189095093Y-126052958D01*
X189137952Y-125992351D01*
X189195979Y-125948224D01*
X189264591Y-125921493D01*
X189339201Y-125913073D01*
X189415226Y-125923880D01*
G36*
X188191367Y-126114342D02*
G01*
X188192555Y-126206563D01*
X188196897Y-126276610D01*
X188205558Y-126327381D01*
X188219704Y-126361772D01*
X188240500Y-126382679D01*
X188269110Y-126393000D01*
X188304535Y-126395636D01*
X188341636Y-126392682D01*
X188369818Y-126381889D01*
X188390243Y-126360360D01*
X188404079Y-126325199D01*
X188412491Y-126273510D01*
X188416643Y-126202394D01*
X188417703Y-126114342D01*
X188417703Y-125918614D01*
X188556020Y-125918614D01*
X188556020Y-126522179D01*
X188486862Y-126522179D01*
X188445170Y-126520489D01*
X188423701Y-126514556D01*
X188417703Y-126503293D01*
X188414091Y-126493261D01*
X188399714Y-126495383D01*
X188370736Y-126509580D01*
X188304319Y-126531480D01*
X188233875Y-126529928D01*
X188166377Y-126506147D01*
X188134233Y-126487362D01*
X188109715Y-126467022D01*
X188091804Y-126441573D01*
X188079479Y-126407458D01*
X188071723Y-126361121D01*
X188067516Y-126299007D01*
X188065840Y-126217561D01*
X188065624Y-126154578D01*
X188065624Y-125918614D01*
X188191367Y-125918614D01*
X188191367Y-126114342D01*
G37*
X188191367Y-126114342D02*
X188192555Y-126206563D01*
X188196897Y-126276610D01*
X188205558Y-126327381D01*
X188219704Y-126361772D01*
X188240500Y-126382679D01*
X188269110Y-126393000D01*
X188304535Y-126395636D01*
X188341636Y-126392682D01*
X188369818Y-126381889D01*
X188390243Y-126360360D01*
X188404079Y-126325199D01*
X188412491Y-126273510D01*
X188416643Y-126202394D01*
X188417703Y-126114342D01*
X188417703Y-125918614D01*
X188556020Y-125918614D01*
X188556020Y-126522179D01*
X188486862Y-126522179D01*
X188445170Y-126520489D01*
X188423701Y-126514556D01*
X188417703Y-126503293D01*
X188414091Y-126493261D01*
X188399714Y-126495383D01*
X188370736Y-126509580D01*
X188304319Y-126531480D01*
X188233875Y-126529928D01*
X188166377Y-126506147D01*
X188134233Y-126487362D01*
X188109715Y-126467022D01*
X188091804Y-126441573D01*
X188079479Y-126407458D01*
X188071723Y-126361121D01*
X188067516Y-126299007D01*
X188065840Y-126217561D01*
X188065624Y-126154578D01*
X188065624Y-125918614D01*
X188191367Y-125918614D01*
X188191367Y-126114342D01*
G36*
X187808762Y-125926055D02*
G01*
X187872363Y-125960692D01*
X187922123Y-126015372D01*
X187945568Y-126059842D01*
X187955634Y-126099121D01*
X187962156Y-126155116D01*
X187964951Y-126219621D01*
X187963836Y-126284429D01*
X187958626Y-126341334D01*
X187952541Y-126371727D01*
X187932014Y-126413306D01*
X187896463Y-126457468D01*
X187853619Y-126496087D01*
X187811211Y-126521034D01*
X187810177Y-126521430D01*
X187757553Y-126532331D01*
X187695188Y-126532601D01*
X187635924Y-126522676D01*
X187613040Y-126514722D01*
X187554102Y-126481300D01*
X187511890Y-126437511D01*
X187484156Y-126379538D01*
X187468651Y-126303565D01*
X187465143Y-126263771D01*
X187465590Y-126213766D01*
X187600376Y-126213766D01*
X187604917Y-126286732D01*
X187617986Y-126342334D01*
X187638756Y-126377861D01*
X187653552Y-126388020D01*
X187691464Y-126395104D01*
X187736527Y-126393007D01*
X187775487Y-126382812D01*
X187785704Y-126377204D01*
X187812659Y-126344538D01*
X187830451Y-126294545D01*
X187838024Y-126233705D01*
X187834325Y-126168497D01*
X187826057Y-126129253D01*
X187802320Y-126083805D01*
X187764849Y-126055396D01*
X187719720Y-126045573D01*
X187673011Y-126055887D01*
X187637132Y-126081112D01*
X187618277Y-126101925D01*
X187607272Y-126122439D01*
X187602026Y-126150203D01*
X187600449Y-126192762D01*
X187600376Y-126213766D01*
X187465590Y-126213766D01*
X187466094Y-126157580D01*
X187483388Y-126070501D01*
X187517029Y-126002530D01*
X187567018Y-125953664D01*
X187633356Y-125923899D01*
X187647601Y-125920448D01*
X187733210Y-125912345D01*
X187808762Y-125926055D01*
G37*
X187808762Y-125926055D02*
X187872363Y-125960692D01*
X187922123Y-126015372D01*
X187945568Y-126059842D01*
X187955634Y-126099121D01*
X187962156Y-126155116D01*
X187964951Y-126219621D01*
X187963836Y-126284429D01*
X187958626Y-126341334D01*
X187952541Y-126371727D01*
X187932014Y-126413306D01*
X187896463Y-126457468D01*
X187853619Y-126496087D01*
X187811211Y-126521034D01*
X187810177Y-126521430D01*
X187757553Y-126532331D01*
X187695188Y-126532601D01*
X187635924Y-126522676D01*
X187613040Y-126514722D01*
X187554102Y-126481300D01*
X187511890Y-126437511D01*
X187484156Y-126379538D01*
X187468651Y-126303565D01*
X187465143Y-126263771D01*
X187465590Y-126213766D01*
X187600376Y-126213766D01*
X187604917Y-126286732D01*
X187617986Y-126342334D01*
X187638756Y-126377861D01*
X187653552Y-126388020D01*
X187691464Y-126395104D01*
X187736527Y-126393007D01*
X187775487Y-126382812D01*
X187785704Y-126377204D01*
X187812659Y-126344538D01*
X187830451Y-126294545D01*
X187838024Y-126233705D01*
X187834325Y-126168497D01*
X187826057Y-126129253D01*
X187802320Y-126083805D01*
X187764849Y-126055396D01*
X187719720Y-126045573D01*
X187673011Y-126055887D01*
X187637132Y-126081112D01*
X187618277Y-126101925D01*
X187607272Y-126122439D01*
X187602026Y-126150203D01*
X187600449Y-126192762D01*
X187600376Y-126213766D01*
X187465590Y-126213766D01*
X187466094Y-126157580D01*
X187483388Y-126070501D01*
X187517029Y-126002530D01*
X187567018Y-125953664D01*
X187633356Y-125923899D01*
X187647601Y-125920448D01*
X187733210Y-125912345D01*
X187808762Y-125926055D01*
G36*
X187212017Y-125916452D02*
G01*
X187259634Y-125925482D01*
X187309034Y-125944370D01*
X187314312Y-125946777D01*
X187351774Y-125966476D01*
X187377717Y-125984781D01*
X187386103Y-125996508D01*
X187378117Y-126015632D01*
X187358720Y-126043850D01*
X187350110Y-126054384D01*
X187314628Y-126095847D01*
X187268885Y-126068858D01*
X187225350Y-126050878D01*
X187175050Y-126041267D01*
X187126812Y-126040660D01*
X187089467Y-126049691D01*
X187080505Y-126055327D01*
X187063437Y-126081171D01*
X187061363Y-126110941D01*
X187074134Y-126134197D01*
X187081688Y-126138708D01*
X187104325Y-126144309D01*
X187144115Y-126150892D01*
X187193166Y-126157183D01*
X187202215Y-126158170D01*
X187280996Y-126171798D01*
X187338136Y-126194946D01*
X187376030Y-126229752D01*
X187397079Y-126278354D01*
X187403635Y-126337718D01*
X187394577Y-126405198D01*
X187365164Y-126458188D01*
X187315278Y-126496783D01*
X187244800Y-126521081D01*
X187166565Y-126530667D01*
X187102766Y-126530552D01*
X187051016Y-126521845D01*
X187015673Y-126509825D01*
X186971017Y-126488880D01*
X186929747Y-126464574D01*
X186915079Y-126453876D01*
X186877357Y-126423084D01*
X186922852Y-126377049D01*
X186968347Y-126331013D01*
X187020072Y-126365243D01*
X187071952Y-126390952D01*
X187127351Y-126404399D01*
X187180605Y-126405818D01*
X187226049Y-126395443D01*
X187258016Y-126373507D01*
X187268338Y-126354998D01*
X187266789Y-126325314D01*
X187241140Y-126302615D01*
X187191460Y-126286940D01*
X187137031Y-126279695D01*
X187053264Y-126265873D01*
X186991033Y-126239796D01*
X186949507Y-126200699D01*
X186927853Y-126147820D01*
X186924853Y-126085126D01*
X186939671Y-126019642D01*
X186973454Y-125970144D01*
X187026505Y-125936408D01*
X187099126Y-125918207D01*
X187152928Y-125914639D01*
X187212017Y-125916452D01*
G37*
X187212017Y-125916452D02*
X187259634Y-125925482D01*
X187309034Y-125944370D01*
X187314312Y-125946777D01*
X187351774Y-125966476D01*
X187377717Y-125984781D01*
X187386103Y-125996508D01*
X187378117Y-126015632D01*
X187358720Y-126043850D01*
X187350110Y-126054384D01*
X187314628Y-126095847D01*
X187268885Y-126068858D01*
X187225350Y-126050878D01*
X187175050Y-126041267D01*
X187126812Y-126040660D01*
X187089467Y-126049691D01*
X187080505Y-126055327D01*
X187063437Y-126081171D01*
X187061363Y-126110941D01*
X187074134Y-126134197D01*
X187081688Y-126138708D01*
X187104325Y-126144309D01*
X187144115Y-126150892D01*
X187193166Y-126157183D01*
X187202215Y-126158170D01*
X187280996Y-126171798D01*
X187338136Y-126194946D01*
X187376030Y-126229752D01*
X187397079Y-126278354D01*
X187403635Y-126337718D01*
X187394577Y-126405198D01*
X187365164Y-126458188D01*
X187315278Y-126496783D01*
X187244800Y-126521081D01*
X187166565Y-126530667D01*
X187102766Y-126530552D01*
X187051016Y-126521845D01*
X187015673Y-126509825D01*
X186971017Y-126488880D01*
X186929747Y-126464574D01*
X186915079Y-126453876D01*
X186877357Y-126423084D01*
X186922852Y-126377049D01*
X186968347Y-126331013D01*
X187020072Y-126365243D01*
X187071952Y-126390952D01*
X187127351Y-126404399D01*
X187180605Y-126405818D01*
X187226049Y-126395443D01*
X187258016Y-126373507D01*
X187268338Y-126354998D01*
X187266789Y-126325314D01*
X187241140Y-126302615D01*
X187191460Y-126286940D01*
X187137031Y-126279695D01*
X187053264Y-126265873D01*
X186991033Y-126239796D01*
X186949507Y-126200699D01*
X186927853Y-126147820D01*
X186924853Y-126085126D01*
X186939671Y-126019642D01*
X186973454Y-125970144D01*
X187026505Y-125936408D01*
X187099126Y-125918207D01*
X187152928Y-125914639D01*
X187212017Y-125916452D01*
G36*
X185841301Y-125932614D02*
G01*
X185853832Y-125938514D01*
X185897201Y-125970283D01*
X185938210Y-126016646D01*
X185968832Y-126067696D01*
X185977541Y-126091166D01*
X185985488Y-126133091D01*
X185990226Y-126183757D01*
X185990801Y-126204679D01*
X185990871Y-126270693D01*
X185610917Y-126270693D01*
X185619017Y-126305273D01*
X185638896Y-126346170D01*
X185673653Y-126381514D01*
X185715002Y-126404282D01*
X185741351Y-126409010D01*
X185777084Y-126403273D01*
X185819718Y-126388882D01*
X185834201Y-126382262D01*
X185887760Y-126355513D01*
X185933467Y-126390376D01*
X185959842Y-126413955D01*
X185973876Y-126433417D01*
X185974586Y-126439129D01*
X185962049Y-126452973D01*
X185934572Y-126474012D01*
X185909634Y-126490425D01*
X185842336Y-126519930D01*
X185766890Y-126533284D01*
X185692112Y-126529812D01*
X185632505Y-126511663D01*
X185571059Y-126472784D01*
X185527392Y-126421595D01*
X185500074Y-126355367D01*
X185487678Y-126271371D01*
X185486579Y-126232936D01*
X185490978Y-126144861D01*
X185491518Y-126142299D01*
X185617418Y-126142299D01*
X185620885Y-126150558D01*
X185635137Y-126155113D01*
X185664530Y-126157065D01*
X185713425Y-126157517D01*
X185732252Y-126157525D01*
X185789533Y-126156843D01*
X185825859Y-126154364D01*
X185845396Y-126149443D01*
X185852310Y-126141434D01*
X185852555Y-126138862D01*
X185844664Y-126118423D01*
X185824915Y-126089789D01*
X185816425Y-126079763D01*
X185784906Y-126051408D01*
X185752051Y-126040259D01*
X185734349Y-126039327D01*
X185686461Y-126050981D01*
X185646301Y-126082285D01*
X185620827Y-126127752D01*
X185620375Y-126129233D01*
X185617418Y-126142299D01*
X185491518Y-126142299D01*
X185505608Y-126075510D01*
X185531962Y-126020025D01*
X185564193Y-125980639D01*
X185623783Y-125937931D01*
X185693832Y-125915109D01*
X185768339Y-125913046D01*
X185841301Y-125932614D01*
G37*
X185841301Y-125932614D02*
X185853832Y-125938514D01*
X185897201Y-125970283D01*
X185938210Y-126016646D01*
X185968832Y-126067696D01*
X185977541Y-126091166D01*
X185985488Y-126133091D01*
X185990226Y-126183757D01*
X185990801Y-126204679D01*
X185990871Y-126270693D01*
X185610917Y-126270693D01*
X185619017Y-126305273D01*
X185638896Y-126346170D01*
X185673653Y-126381514D01*
X185715002Y-126404282D01*
X185741351Y-126409010D01*
X185777084Y-126403273D01*
X185819718Y-126388882D01*
X185834201Y-126382262D01*
X185887760Y-126355513D01*
X185933467Y-126390376D01*
X185959842Y-126413955D01*
X185973876Y-126433417D01*
X185974586Y-126439129D01*
X185962049Y-126452973D01*
X185934572Y-126474012D01*
X185909634Y-126490425D01*
X185842336Y-126519930D01*
X185766890Y-126533284D01*
X185692112Y-126529812D01*
X185632505Y-126511663D01*
X185571059Y-126472784D01*
X185527392Y-126421595D01*
X185500074Y-126355367D01*
X185487678Y-126271371D01*
X185486579Y-126232936D01*
X185490978Y-126144861D01*
X185491518Y-126142299D01*
X185617418Y-126142299D01*
X185620885Y-126150558D01*
X185635137Y-126155113D01*
X185664530Y-126157065D01*
X185713425Y-126157517D01*
X185732252Y-126157525D01*
X185789533Y-126156843D01*
X185825859Y-126154364D01*
X185845396Y-126149443D01*
X185852310Y-126141434D01*
X185852555Y-126138862D01*
X185844664Y-126118423D01*
X185824915Y-126089789D01*
X185816425Y-126079763D01*
X185784906Y-126051408D01*
X185752051Y-126040259D01*
X185734349Y-126039327D01*
X185686461Y-126050981D01*
X185646301Y-126082285D01*
X185620827Y-126127752D01*
X185620375Y-126129233D01*
X185617418Y-126142299D01*
X185491518Y-126142299D01*
X185505608Y-126075510D01*
X185531962Y-126020025D01*
X185564193Y-125980639D01*
X185623783Y-125937931D01*
X185693832Y-125915109D01*
X185768339Y-125913046D01*
X185841301Y-125932614D01*
G36*
X184659739Y-125925148D02*
G01*
X184725521Y-125954231D01*
X184775460Y-126002793D01*
X184809626Y-126070908D01*
X184828093Y-126158651D01*
X184829417Y-126172351D01*
X184830454Y-126268939D01*
X184817007Y-126353602D01*
X184789892Y-126422221D01*
X184775373Y-126444294D01*
X184724799Y-126491011D01*
X184660391Y-126521268D01*
X184588334Y-126533824D01*
X184514815Y-126527439D01*
X184458928Y-126507772D01*
X184410868Y-126474629D01*
X184371588Y-126431175D01*
X184370908Y-126430158D01*
X184354956Y-126403338D01*
X184344590Y-126376368D01*
X184338312Y-126342332D01*
X184334627Y-126294310D01*
X184333003Y-126254931D01*
X184332328Y-126219219D01*
X184458045Y-126219219D01*
X184459274Y-126254770D01*
X184463734Y-126302094D01*
X184471603Y-126332465D01*
X184485793Y-126354072D01*
X184499083Y-126366694D01*
X184546198Y-126393122D01*
X184595495Y-126396653D01*
X184641407Y-126377639D01*
X184664362Y-126356331D01*
X184680904Y-126334859D01*
X184690579Y-126314313D01*
X184694826Y-126287574D01*
X184695080Y-126247523D01*
X184693772Y-126210638D01*
X184690957Y-126157947D01*
X184686495Y-126123772D01*
X184678452Y-126101480D01*
X184664897Y-126084442D01*
X184654155Y-126074703D01*
X184609223Y-126049123D01*
X184560751Y-126047847D01*
X184520106Y-126062999D01*
X184485433Y-126094642D01*
X184464776Y-126146620D01*
X184458045Y-126219219D01*
X184332328Y-126219219D01*
X184331521Y-126176621D01*
X184334052Y-126118056D01*
X184341638Y-126074007D01*
X184355319Y-126039248D01*
X184376135Y-126008551D01*
X184383853Y-125999436D01*
X184432111Y-125954021D01*
X184483872Y-125927493D01*
X184547172Y-125916379D01*
X184578039Y-125915471D01*
X184659739Y-125925148D01*
G37*
X184659739Y-125925148D02*
X184725521Y-125954231D01*
X184775460Y-126002793D01*
X184809626Y-126070908D01*
X184828093Y-126158651D01*
X184829417Y-126172351D01*
X184830454Y-126268939D01*
X184817007Y-126353602D01*
X184789892Y-126422221D01*
X184775373Y-126444294D01*
X184724799Y-126491011D01*
X184660391Y-126521268D01*
X184588334Y-126533824D01*
X184514815Y-126527439D01*
X184458928Y-126507772D01*
X184410868Y-126474629D01*
X184371588Y-126431175D01*
X184370908Y-126430158D01*
X184354956Y-126403338D01*
X184344590Y-126376368D01*
X184338312Y-126342332D01*
X184334627Y-126294310D01*
X184333003Y-126254931D01*
X184332328Y-126219219D01*
X184458045Y-126219219D01*
X184459274Y-126254770D01*
X184463734Y-126302094D01*
X184471603Y-126332465D01*
X184485793Y-126354072D01*
X184499083Y-126366694D01*
X184546198Y-126393122D01*
X184595495Y-126396653D01*
X184641407Y-126377639D01*
X184664362Y-126356331D01*
X184680904Y-126334859D01*
X184690579Y-126314313D01*
X184694826Y-126287574D01*
X184695080Y-126247523D01*
X184693772Y-126210638D01*
X184690957Y-126157947D01*
X184686495Y-126123772D01*
X184678452Y-126101480D01*
X184664897Y-126084442D01*
X184654155Y-126074703D01*
X184609223Y-126049123D01*
X184560751Y-126047847D01*
X184520106Y-126062999D01*
X184485433Y-126094642D01*
X184464776Y-126146620D01*
X184458045Y-126219219D01*
X184332328Y-126219219D01*
X184331521Y-126176621D01*
X184334052Y-126118056D01*
X184341638Y-126074007D01*
X184355319Y-126039248D01*
X184376135Y-126008551D01*
X184383853Y-125999436D01*
X184432111Y-125954021D01*
X184483872Y-125927493D01*
X184547172Y-125916379D01*
X184578039Y-125915471D01*
X184659739Y-125925148D01*
G36*
X189230581Y-126864970D02*
G01*
X189290685Y-126880597D01*
X189341021Y-126912848D01*
X189365393Y-126936940D01*
X189405345Y-126993895D01*
X189428242Y-127059965D01*
X189436108Y-127141182D01*
X189436148Y-127147748D01*
X189436218Y-127213763D01*
X189056264Y-127213763D01*
X189064363Y-127248342D01*
X189078987Y-127279659D01*
X189104581Y-127312291D01*
X189109935Y-127317500D01*
X189155943Y-127345694D01*
X189208410Y-127350475D01*
X189268803Y-127331926D01*
X189279040Y-127326931D01*
X189310439Y-127311745D01*
X189331470Y-127303094D01*
X189335139Y-127302293D01*
X189347948Y-127310063D01*
X189372378Y-127329072D01*
X189384779Y-127339460D01*
X189410476Y-127363321D01*
X189418915Y-127379077D01*
X189413058Y-127393571D01*
X189409928Y-127397534D01*
X189388725Y-127414879D01*
X189353738Y-127435959D01*
X189329337Y-127448265D01*
X189260072Y-127469946D01*
X189183388Y-127476971D01*
X189110765Y-127468647D01*
X189090426Y-127462686D01*
X189027476Y-127428952D01*
X188980815Y-127377045D01*
X188950173Y-127306459D01*
X188935282Y-127216692D01*
X188933647Y-127169753D01*
X188938421Y-127101413D01*
X189058990Y-127101413D01*
X189070652Y-127106465D01*
X189101998Y-127110429D01*
X189147571Y-127112768D01*
X189178446Y-127113169D01*
X189233981Y-127112783D01*
X189269033Y-127110975D01*
X189288262Y-127106773D01*
X189296330Y-127099203D01*
X189297901Y-127088218D01*
X189287121Y-127054381D01*
X189259980Y-127020940D01*
X189224277Y-126995272D01*
X189188560Y-126984772D01*
X189140048Y-126994086D01*
X189098053Y-127021013D01*
X189068936Y-127059827D01*
X189058990Y-127101413D01*
X188938421Y-127101413D01*
X188940599Y-127070236D01*
X188962055Y-126990949D01*
X188998470Y-126931263D01*
X189050297Y-126890549D01*
X189117990Y-126868179D01*
X189154662Y-126863871D01*
X189230581Y-126864970D01*
G37*
X189230581Y-126864970D02*
X189290685Y-126880597D01*
X189341021Y-126912848D01*
X189365393Y-126936940D01*
X189405345Y-126993895D01*
X189428242Y-127059965D01*
X189436108Y-127141182D01*
X189436148Y-127147748D01*
X189436218Y-127213763D01*
X189056264Y-127213763D01*
X189064363Y-127248342D01*
X189078987Y-127279659D01*
X189104581Y-127312291D01*
X189109935Y-127317500D01*
X189155943Y-127345694D01*
X189208410Y-127350475D01*
X189268803Y-127331926D01*
X189279040Y-127326931D01*
X189310439Y-127311745D01*
X189331470Y-127303094D01*
X189335139Y-127302293D01*
X189347948Y-127310063D01*
X189372378Y-127329072D01*
X189384779Y-127339460D01*
X189410476Y-127363321D01*
X189418915Y-127379077D01*
X189413058Y-127393571D01*
X189409928Y-127397534D01*
X189388725Y-127414879D01*
X189353738Y-127435959D01*
X189329337Y-127448265D01*
X189260072Y-127469946D01*
X189183388Y-127476971D01*
X189110765Y-127468647D01*
X189090426Y-127462686D01*
X189027476Y-127428952D01*
X188980815Y-127377045D01*
X188950173Y-127306459D01*
X188935282Y-127216692D01*
X188933647Y-127169753D01*
X188938421Y-127101413D01*
X189058990Y-127101413D01*
X189070652Y-127106465D01*
X189101998Y-127110429D01*
X189147571Y-127112768D01*
X189178446Y-127113169D01*
X189233981Y-127112783D01*
X189269033Y-127110975D01*
X189288262Y-127106773D01*
X189296330Y-127099203D01*
X189297901Y-127088218D01*
X189287121Y-127054381D01*
X189259980Y-127020940D01*
X189224277Y-126995272D01*
X189188560Y-126984772D01*
X189140048Y-126994086D01*
X189098053Y-127021013D01*
X189068936Y-127059827D01*
X189058990Y-127101413D01*
X188938421Y-127101413D01*
X188940599Y-127070236D01*
X188962055Y-126990949D01*
X188998470Y-126931263D01*
X189050297Y-126890549D01*
X189117990Y-126868179D01*
X189154662Y-126863871D01*
X189230581Y-126864970D01*
G36*
X188833255Y-126861486D02*
G01*
X188881595Y-126871015D01*
X188909114Y-126885125D01*
X188938064Y-126908568D01*
X188896876Y-126960571D01*
X188871482Y-126992064D01*
X188854238Y-127007428D01*
X188837102Y-127009776D01*
X188812027Y-127002217D01*
X188800257Y-126997941D01*
X188752270Y-126991631D01*
X188708324Y-127005156D01*
X188676060Y-127035710D01*
X188670819Y-127045452D01*
X188665112Y-127071258D01*
X188660706Y-127118817D01*
X188657811Y-127184758D01*
X188656631Y-127265710D01*
X188656614Y-127277226D01*
X188656614Y-127477822D01*
X188518297Y-127477822D01*
X188518297Y-126861683D01*
X188587456Y-126861683D01*
X188627333Y-126862725D01*
X188648107Y-126867358D01*
X188655789Y-126877849D01*
X188656614Y-126887745D01*
X188656614Y-126913806D01*
X188689745Y-126887745D01*
X188727735Y-126869965D01*
X188778770Y-126861174D01*
X188833255Y-126861486D01*
G37*
X188833255Y-126861486D02*
X188881595Y-126871015D01*
X188909114Y-126885125D01*
X188938064Y-126908568D01*
X188896876Y-126960571D01*
X188871482Y-126992064D01*
X188854238Y-127007428D01*
X188837102Y-127009776D01*
X188812027Y-127002217D01*
X188800257Y-126997941D01*
X188752270Y-126991631D01*
X188708324Y-127005156D01*
X188676060Y-127035710D01*
X188670819Y-127045452D01*
X188665112Y-127071258D01*
X188660706Y-127118817D01*
X188657811Y-127184758D01*
X188656631Y-127265710D01*
X188656614Y-127277226D01*
X188656614Y-127477822D01*
X188518297Y-127477822D01*
X188518297Y-126861683D01*
X188587456Y-126861683D01*
X188627333Y-126862725D01*
X188648107Y-126867358D01*
X188655789Y-126877849D01*
X188656614Y-126887745D01*
X188656614Y-126913806D01*
X188689745Y-126887745D01*
X188727735Y-126869965D01*
X188778770Y-126861174D01*
X188833255Y-126861486D01*
G36*
X188236411Y-126865417D02*
G01*
X188289411Y-126878290D01*
X188304731Y-126885110D01*
X188334428Y-126902974D01*
X188357220Y-126923093D01*
X188374083Y-126948962D01*
X188385998Y-126984073D01*
X188393942Y-127031920D01*
X188398894Y-127095996D01*
X188401831Y-127179794D01*
X188402947Y-127235768D01*
X188407052Y-127477822D01*
X188336932Y-127477822D01*
X188294393Y-127476038D01*
X188272476Y-127469942D01*
X188266812Y-127459706D01*
X188263821Y-127448637D01*
X188250451Y-127450754D01*
X188232233Y-127459629D01*
X188186624Y-127473233D01*
X188128007Y-127476899D01*
X188066354Y-127470903D01*
X188011638Y-127455521D01*
X188006730Y-127453386D01*
X187956723Y-127418255D01*
X187923756Y-127369419D01*
X187908587Y-127312333D01*
X187909746Y-127291824D01*
X188033508Y-127291824D01*
X188044413Y-127319425D01*
X188076745Y-127339204D01*
X188128910Y-127349819D01*
X188156787Y-127351228D01*
X188203247Y-127347620D01*
X188234129Y-127333597D01*
X188241664Y-127326931D01*
X188262076Y-127290666D01*
X188266812Y-127257773D01*
X188266812Y-127213763D01*
X188205513Y-127213763D01*
X188134256Y-127217395D01*
X188084276Y-127228818D01*
X188052696Y-127248824D01*
X188045626Y-127257743D01*
X188033508Y-127291824D01*
X187909746Y-127291824D01*
X187911971Y-127252456D01*
X187934663Y-127195244D01*
X187965624Y-127156580D01*
X187984376Y-127139864D01*
X188002733Y-127128878D01*
X188026619Y-127122180D01*
X188061957Y-127118326D01*
X188114669Y-127115873D01*
X188135577Y-127115168D01*
X188266812Y-127110879D01*
X188266620Y-127071158D01*
X188261537Y-127029405D01*
X188243162Y-127004158D01*
X188206039Y-126988030D01*
X188205043Y-126987742D01*
X188152410Y-126981400D01*
X188100906Y-126989684D01*
X188062630Y-127009827D01*
X188047272Y-127019773D01*
X188030730Y-127018397D01*
X188005275Y-127003987D01*
X187990328Y-126993817D01*
X187961091Y-126972088D01*
X187942980Y-126955800D01*
X187940074Y-126951137D01*
X187952040Y-126927005D01*
X187987396Y-126898185D01*
X188002753Y-126888461D01*
X188046901Y-126871714D01*
X188106398Y-126862227D01*
X188172487Y-126860095D01*
X188236411Y-126865417D01*
G37*
X188236411Y-126865417D02*
X188289411Y-126878290D01*
X188304731Y-126885110D01*
X188334428Y-126902974D01*
X188357220Y-126923093D01*
X188374083Y-126948962D01*
X188385998Y-126984073D01*
X188393942Y-127031920D01*
X188398894Y-127095996D01*
X188401831Y-127179794D01*
X188402947Y-127235768D01*
X188407052Y-127477822D01*
X188336932Y-127477822D01*
X188294393Y-127476038D01*
X188272476Y-127469942D01*
X188266812Y-127459706D01*
X188263821Y-127448637D01*
X188250451Y-127450754D01*
X188232233Y-127459629D01*
X188186624Y-127473233D01*
X188128007Y-127476899D01*
X188066354Y-127470903D01*
X188011638Y-127455521D01*
X188006730Y-127453386D01*
X187956723Y-127418255D01*
X187923756Y-127369419D01*
X187908587Y-127312333D01*
X187909746Y-127291824D01*
X188033508Y-127291824D01*
X188044413Y-127319425D01*
X188076745Y-127339204D01*
X188128910Y-127349819D01*
X188156787Y-127351228D01*
X188203247Y-127347620D01*
X188234129Y-127333597D01*
X188241664Y-127326931D01*
X188262076Y-127290666D01*
X188266812Y-127257773D01*
X188266812Y-127213763D01*
X188205513Y-127213763D01*
X188134256Y-127217395D01*
X188084276Y-127228818D01*
X188052696Y-127248824D01*
X188045626Y-127257743D01*
X188033508Y-127291824D01*
X187909746Y-127291824D01*
X187911971Y-127252456D01*
X187934663Y-127195244D01*
X187965624Y-127156580D01*
X187984376Y-127139864D01*
X188002733Y-127128878D01*
X188026619Y-127122180D01*
X188061957Y-127118326D01*
X188114669Y-127115873D01*
X188135577Y-127115168D01*
X188266812Y-127110879D01*
X188266620Y-127071158D01*
X188261537Y-127029405D01*
X188243162Y-127004158D01*
X188206039Y-126988030D01*
X188205043Y-126987742D01*
X188152410Y-126981400D01*
X188100906Y-126989684D01*
X188062630Y-127009827D01*
X188047272Y-127019773D01*
X188030730Y-127018397D01*
X188005275Y-127003987D01*
X187990328Y-126993817D01*
X187961091Y-126972088D01*
X187942980Y-126955800D01*
X187940074Y-126951137D01*
X187952040Y-126927005D01*
X187987396Y-126898185D01*
X188002753Y-126888461D01*
X188046901Y-126871714D01*
X188106398Y-126862227D01*
X188172487Y-126860095D01*
X188236411Y-126865417D01*
G36*
X187479524Y-126864237D02*
G01*
X187529255Y-126867971D01*
X187659291Y-127257773D01*
X187679678Y-127188614D01*
X187691946Y-127145874D01*
X187708085Y-127088115D01*
X187725512Y-127024625D01*
X187734726Y-126990570D01*
X187769388Y-126861683D01*
X187912391Y-126861683D01*
X187869646Y-126996857D01*
X187848596Y-127063342D01*
X187823167Y-127143539D01*
X187796610Y-127227193D01*
X187772902Y-127301782D01*
X187718902Y-127471535D01*
X187660598Y-127475328D01*
X187602295Y-127479122D01*
X187570679Y-127374734D01*
X187551182Y-127309889D01*
X187529904Y-127238400D01*
X187511308Y-127175263D01*
X187510574Y-127172750D01*
X187496684Y-127129969D01*
X187484429Y-127100779D01*
X187475846Y-127089741D01*
X187474082Y-127091018D01*
X187467891Y-127108130D01*
X187456128Y-127144787D01*
X187440225Y-127196378D01*
X187421614Y-127258294D01*
X187411543Y-127292352D01*
X187357007Y-127477822D01*
X187241264Y-127477822D01*
X187148737Y-127185471D01*
X187122744Y-127103462D01*
X187099066Y-127028987D01*
X187078820Y-126965544D01*
X187063126Y-126916632D01*
X187053102Y-126885749D01*
X187050055Y-126876726D01*
X187052467Y-126867487D01*
X187071408Y-126863441D01*
X187110823Y-126863846D01*
X187116993Y-126864152D01*
X187190086Y-126867971D01*
X187237957Y-127044010D01*
X187255553Y-127108211D01*
X187271277Y-127164649D01*
X187283746Y-127208422D01*
X187291574Y-127234630D01*
X187293020Y-127238903D01*
X187299014Y-127233990D01*
X187311101Y-127208532D01*
X187327893Y-127165997D01*
X187348003Y-127109850D01*
X187365003Y-127059130D01*
X187429794Y-126860504D01*
X187479524Y-126864237D01*
G37*
X187479524Y-126864237D02*
X187529255Y-126867971D01*
X187659291Y-127257773D01*
X187679678Y-127188614D01*
X187691946Y-127145874D01*
X187708085Y-127088115D01*
X187725512Y-127024625D01*
X187734726Y-126990570D01*
X187769388Y-126861683D01*
X187912391Y-126861683D01*
X187869646Y-126996857D01*
X187848596Y-127063342D01*
X187823167Y-127143539D01*
X187796610Y-127227193D01*
X187772902Y-127301782D01*
X187718902Y-127471535D01*
X187660598Y-127475328D01*
X187602295Y-127479122D01*
X187570679Y-127374734D01*
X187551182Y-127309889D01*
X187529904Y-127238400D01*
X187511308Y-127175263D01*
X187510574Y-127172750D01*
X187496684Y-127129969D01*
X187484429Y-127100779D01*
X187475846Y-127089741D01*
X187474082Y-127091018D01*
X187467891Y-127108130D01*
X187456128Y-127144787D01*
X187440225Y-127196378D01*
X187421614Y-127258294D01*
X187411543Y-127292352D01*
X187357007Y-127477822D01*
X187241264Y-127477822D01*
X187148737Y-127185471D01*
X187122744Y-127103462D01*
X187099066Y-127028987D01*
X187078820Y-126965544D01*
X187063126Y-126916632D01*
X187053102Y-126885749D01*
X187050055Y-126876726D01*
X187052467Y-126867487D01*
X187071408Y-126863441D01*
X187110823Y-126863846D01*
X187116993Y-126864152D01*
X187190086Y-126867971D01*
X187237957Y-127044010D01*
X187255553Y-127108211D01*
X187271277Y-127164649D01*
X187283746Y-127208422D01*
X187291574Y-127234630D01*
X187293020Y-127238903D01*
X187299014Y-127233990D01*
X187311101Y-127208532D01*
X187327893Y-127165997D01*
X187348003Y-127109850D01*
X187365003Y-127059130D01*
X187429794Y-126860504D01*
X187479524Y-126864237D01*
G36*
X186996812Y-127477822D02*
G01*
X186927654Y-127477822D01*
X186887512Y-127476645D01*
X186866606Y-127471772D01*
X186859078Y-127461186D01*
X186858495Y-127454029D01*
X186857226Y-127439676D01*
X186849221Y-127436923D01*
X186828185Y-127445771D01*
X186811827Y-127454029D01*
X186749023Y-127473597D01*
X186680752Y-127474729D01*
X186625248Y-127460135D01*
X186573562Y-127424877D01*
X186534162Y-127372835D01*
X186512587Y-127311450D01*
X186512038Y-127308018D01*
X186508833Y-127270571D01*
X186507239Y-127216813D01*
X186507367Y-127176155D01*
X186644721Y-127176155D01*
X186647903Y-127230194D01*
X186655141Y-127274735D01*
X186664940Y-127299888D01*
X186702011Y-127334260D01*
X186746026Y-127346582D01*
X186791416Y-127336618D01*
X186830203Y-127306895D01*
X186844892Y-127286905D01*
X186853481Y-127263050D01*
X186857504Y-127228230D01*
X186858495Y-127175930D01*
X186856722Y-127124139D01*
X186852037Y-127078634D01*
X186845397Y-127048181D01*
X186844290Y-127045452D01*
X186817509Y-127013000D01*
X186778421Y-126995183D01*
X186734685Y-126992306D01*
X186693962Y-127004674D01*
X186663913Y-127032593D01*
X186660796Y-127038148D01*
X186651039Y-127072022D01*
X186645723Y-127120728D01*
X186644721Y-127176155D01*
X186507367Y-127176155D01*
X186507432Y-127155540D01*
X186508336Y-127122563D01*
X186514486Y-127040981D01*
X186527267Y-126979730D01*
X186548529Y-126934449D01*
X186580122Y-126900779D01*
X186610793Y-126881014D01*
X186653646Y-126867120D01*
X186706944Y-126862354D01*
X186761520Y-126866236D01*
X186808208Y-126878282D01*
X186832876Y-126892693D01*
X186858495Y-126915878D01*
X186858495Y-126622773D01*
X186996812Y-126622773D01*
X186996812Y-127477822D01*
G37*
X186996812Y-127477822D02*
X186927654Y-127477822D01*
X186887512Y-127476645D01*
X186866606Y-127471772D01*
X186859078Y-127461186D01*
X186858495Y-127454029D01*
X186857226Y-127439676D01*
X186849221Y-127436923D01*
X186828185Y-127445771D01*
X186811827Y-127454029D01*
X186749023Y-127473597D01*
X186680752Y-127474729D01*
X186625248Y-127460135D01*
X186573562Y-127424877D01*
X186534162Y-127372835D01*
X186512587Y-127311450D01*
X186512038Y-127308018D01*
X186508833Y-127270571D01*
X186507239Y-127216813D01*
X186507367Y-127176155D01*
X186644721Y-127176155D01*
X186647903Y-127230194D01*
X186655141Y-127274735D01*
X186664940Y-127299888D01*
X186702011Y-127334260D01*
X186746026Y-127346582D01*
X186791416Y-127336618D01*
X186830203Y-127306895D01*
X186844892Y-127286905D01*
X186853481Y-127263050D01*
X186857504Y-127228230D01*
X186858495Y-127175930D01*
X186856722Y-127124139D01*
X186852037Y-127078634D01*
X186845397Y-127048181D01*
X186844290Y-127045452D01*
X186817509Y-127013000D01*
X186778421Y-126995183D01*
X186734685Y-126992306D01*
X186693962Y-127004674D01*
X186663913Y-127032593D01*
X186660796Y-127038148D01*
X186651039Y-127072022D01*
X186645723Y-127120728D01*
X186644721Y-127176155D01*
X186507367Y-127176155D01*
X186507432Y-127155540D01*
X186508336Y-127122563D01*
X186514486Y-127040981D01*
X186527267Y-126979730D01*
X186548529Y-126934449D01*
X186580122Y-126900779D01*
X186610793Y-126881014D01*
X186653646Y-126867120D01*
X186706944Y-126862354D01*
X186761520Y-126866236D01*
X186808208Y-126878282D01*
X186832876Y-126892693D01*
X186858495Y-126915878D01*
X186858495Y-126622773D01*
X186996812Y-126622773D01*
X186996812Y-127477822D01*
G36*
X186204644Y-126863020D02*
G01*
X186223461Y-126868660D01*
X186229527Y-126881053D01*
X186229782Y-126886647D01*
X186230871Y-126902230D01*
X186238368Y-126904676D01*
X186258619Y-126893993D01*
X186270649Y-126886694D01*
X186308600Y-126871063D01*
X186353928Y-126863334D01*
X186401456Y-126862740D01*
X186446005Y-126868513D01*
X186482398Y-126879884D01*
X186505457Y-126896088D01*
X186510004Y-126916355D01*
X186507709Y-126921843D01*
X186490980Y-126944626D01*
X186465037Y-126972647D01*
X186460345Y-126977177D01*
X186435617Y-126998005D01*
X186414282Y-127004735D01*
X186384445Y-127000038D01*
X186372492Y-126996917D01*
X186335295Y-126989421D01*
X186309141Y-126992792D01*
X186287054Y-127004681D01*
X186266822Y-127020635D01*
X186251921Y-127040700D01*
X186241566Y-127068702D01*
X186234971Y-127108467D01*
X186231351Y-127163823D01*
X186229922Y-127238594D01*
X186229782Y-127283740D01*
X186229782Y-127477822D01*
X186104040Y-127477822D01*
X186104040Y-126861683D01*
X186166911Y-126861683D01*
X186204644Y-126863020D01*
G37*
X186204644Y-126863020D02*
X186223461Y-126868660D01*
X186229527Y-126881053D01*
X186229782Y-126886647D01*
X186230871Y-126902230D01*
X186238368Y-126904676D01*
X186258619Y-126893993D01*
X186270649Y-126886694D01*
X186308600Y-126871063D01*
X186353928Y-126863334D01*
X186401456Y-126862740D01*
X186446005Y-126868513D01*
X186482398Y-126879884D01*
X186505457Y-126896088D01*
X186510004Y-126916355D01*
X186507709Y-126921843D01*
X186490980Y-126944626D01*
X186465037Y-126972647D01*
X186460345Y-126977177D01*
X186435617Y-126998005D01*
X186414282Y-127004735D01*
X186384445Y-127000038D01*
X186372492Y-126996917D01*
X186335295Y-126989421D01*
X186309141Y-126992792D01*
X186287054Y-127004681D01*
X186266822Y-127020635D01*
X186251921Y-127040700D01*
X186241566Y-127068702D01*
X186234971Y-127108467D01*
X186231351Y-127163823D01*
X186229922Y-127238594D01*
X186229782Y-127283740D01*
X186229782Y-127477822D01*
X186104040Y-127477822D01*
X186104040Y-126861683D01*
X186166911Y-126861683D01*
X186204644Y-126863020D01*
G36*
X185813790Y-126866555D02*
G01*
X185872945Y-126882339D01*
X185917977Y-126910948D01*
X185949754Y-126948419D01*
X185959634Y-126964411D01*
X185966927Y-126981163D01*
X185972026Y-127002592D01*
X185975321Y-127032616D01*
X185977203Y-127075154D01*
X185978063Y-127134122D01*
X185978293Y-127213440D01*
X185978297Y-127234484D01*
X185978297Y-127477822D01*
X185917941Y-127477822D01*
X185879443Y-127475126D01*
X185850977Y-127468295D01*
X185843845Y-127464083D01*
X185824348Y-127456813D01*
X185804434Y-127464083D01*
X185771647Y-127473160D01*
X185724022Y-127476813D01*
X185671236Y-127475228D01*
X185622964Y-127468589D01*
X185594782Y-127460072D01*
X185540247Y-127425063D01*
X185506165Y-127376479D01*
X185490843Y-127311882D01*
X185490701Y-127310223D01*
X185492045Y-127281566D01*
X185613644Y-127281566D01*
X185624274Y-127314161D01*
X185641590Y-127332505D01*
X185676348Y-127346379D01*
X185722227Y-127351917D01*
X185769012Y-127349191D01*
X185806486Y-127338274D01*
X185816985Y-127331269D01*
X185835332Y-127298904D01*
X185839980Y-127262111D01*
X185839980Y-127213763D01*
X185770418Y-127213763D01*
X185704333Y-127218850D01*
X185654236Y-127233263D01*
X185623071Y-127255729D01*
X185613644Y-127281566D01*
X185492045Y-127281566D01*
X185494013Y-127239647D01*
X185517290Y-127183845D01*
X185561052Y-127141647D01*
X185567101Y-127137808D01*
X185593093Y-127125309D01*
X185625265Y-127117740D01*
X185670240Y-127114061D01*
X185723669Y-127113216D01*
X185839980Y-127113169D01*
X185839980Y-127064411D01*
X185835047Y-127026581D01*
X185822457Y-127001236D01*
X185820983Y-126999887D01*
X185792966Y-126988800D01*
X185750674Y-126984503D01*
X185703936Y-126986615D01*
X185662582Y-126994756D01*
X185638043Y-127006965D01*
X185624747Y-127016746D01*
X185610706Y-127018613D01*
X185591329Y-127010600D01*
X185562024Y-126990739D01*
X185518197Y-126957063D01*
X185514175Y-126953909D01*
X185516236Y-126942236D01*
X185533432Y-126922822D01*
X185559567Y-126901248D01*
X185588448Y-126883096D01*
X185597522Y-126878809D01*
X185630620Y-126870256D01*
X185679120Y-126864155D01*
X185733305Y-126861708D01*
X185735839Y-126861703D01*
X185813790Y-126866555D01*
G37*
X185813790Y-126866555D02*
X185872945Y-126882339D01*
X185917977Y-126910948D01*
X185949754Y-126948419D01*
X185959634Y-126964411D01*
X185966927Y-126981163D01*
X185972026Y-127002592D01*
X185975321Y-127032616D01*
X185977203Y-127075154D01*
X185978063Y-127134122D01*
X185978293Y-127213440D01*
X185978297Y-127234484D01*
X185978297Y-127477822D01*
X185917941Y-127477822D01*
X185879443Y-127475126D01*
X185850977Y-127468295D01*
X185843845Y-127464083D01*
X185824348Y-127456813D01*
X185804434Y-127464083D01*
X185771647Y-127473160D01*
X185724022Y-127476813D01*
X185671236Y-127475228D01*
X185622964Y-127468589D01*
X185594782Y-127460072D01*
X185540247Y-127425063D01*
X185506165Y-127376479D01*
X185490843Y-127311882D01*
X185490701Y-127310223D01*
X185492045Y-127281566D01*
X185613644Y-127281566D01*
X185624274Y-127314161D01*
X185641590Y-127332505D01*
X185676348Y-127346379D01*
X185722227Y-127351917D01*
X185769012Y-127349191D01*
X185806486Y-127338274D01*
X185816985Y-127331269D01*
X185835332Y-127298904D01*
X185839980Y-127262111D01*
X185839980Y-127213763D01*
X185770418Y-127213763D01*
X185704333Y-127218850D01*
X185654236Y-127233263D01*
X185623071Y-127255729D01*
X185613644Y-127281566D01*
X185492045Y-127281566D01*
X185494013Y-127239647D01*
X185517290Y-127183845D01*
X185561052Y-127141647D01*
X185567101Y-127137808D01*
X185593093Y-127125309D01*
X185625265Y-127117740D01*
X185670240Y-127114061D01*
X185723669Y-127113216D01*
X185839980Y-127113169D01*
X185839980Y-127064411D01*
X185835047Y-127026581D01*
X185822457Y-127001236D01*
X185820983Y-126999887D01*
X185792966Y-126988800D01*
X185750674Y-126984503D01*
X185703936Y-126986615D01*
X185662582Y-126994756D01*
X185638043Y-127006965D01*
X185624747Y-127016746D01*
X185610706Y-127018613D01*
X185591329Y-127010600D01*
X185562024Y-126990739D01*
X185518197Y-126957063D01*
X185514175Y-126953909D01*
X185516236Y-126942236D01*
X185533432Y-126922822D01*
X185559567Y-126901248D01*
X185588448Y-126883096D01*
X185597522Y-126878809D01*
X185630620Y-126870256D01*
X185679120Y-126864155D01*
X185733305Y-126861708D01*
X185735839Y-126861703D01*
X185813790Y-126866555D01*
G36*
X185289241Y-125929184D02*
G01*
X185315753Y-125942282D01*
X185348447Y-125965106D01*
X185372275Y-125989996D01*
X185388594Y-126021249D01*
X185398760Y-126063166D01*
X185404128Y-126120044D01*
X185406056Y-126196184D01*
X185406169Y-126228917D01*
X185405839Y-126300656D01*
X185404473Y-126351927D01*
X185401500Y-126387404D01*
X185396351Y-126411763D01*
X185388457Y-126429680D01*
X185380243Y-126441902D01*
X185327813Y-126493905D01*
X185266070Y-126525184D01*
X185199464Y-126534592D01*
X185132442Y-126520980D01*
X185111208Y-126511354D01*
X185060376Y-126484859D01*
X185060376Y-126900052D01*
X185097475Y-126880868D01*
X185146357Y-126866025D01*
X185206439Y-126862222D01*
X185266436Y-126869243D01*
X185311744Y-126885013D01*
X185349325Y-126915047D01*
X185381436Y-126958024D01*
X185383850Y-126962436D01*
X185394033Y-126983221D01*
X185401470Y-127004170D01*
X185406589Y-127029548D01*
X185409819Y-127063618D01*
X185411587Y-127110641D01*
X185412323Y-127174882D01*
X185412456Y-127247176D01*
X185412456Y-127477822D01*
X185274139Y-127477822D01*
X185274139Y-127052533D01*
X185235451Y-127019979D01*
X185195262Y-126993940D01*
X185157203Y-126989205D01*
X185118934Y-127001389D01*
X185098538Y-127013320D01*
X185083358Y-127030313D01*
X185072562Y-127055995D01*
X185065317Y-127093991D01*
X185060792Y-127147926D01*
X185058156Y-127221425D01*
X185057228Y-127270347D01*
X185054089Y-127471535D01*
X184988074Y-127475336D01*
X184922060Y-127479136D01*
X184922060Y-126230650D01*
X185060376Y-126230650D01*
X185063903Y-126300254D01*
X185075785Y-126348569D01*
X185097980Y-126378631D01*
X185132441Y-126393471D01*
X185167258Y-126396436D01*
X185206671Y-126393028D01*
X185232829Y-126379617D01*
X185249186Y-126361896D01*
X185262063Y-126342835D01*
X185269728Y-126321601D01*
X185273139Y-126291849D01*
X185273251Y-126247236D01*
X185272103Y-126209880D01*
X185269468Y-126153604D01*
X185265544Y-126116658D01*
X185258937Y-126093223D01*
X185248251Y-126077480D01*
X185238167Y-126068380D01*
X185196030Y-126048537D01*
X185146160Y-126045332D01*
X185117524Y-126052168D01*
X185089172Y-126076464D01*
X185070391Y-126123728D01*
X185061288Y-126193624D01*
X185060376Y-126230650D01*
X184922060Y-126230650D01*
X184922060Y-125918614D01*
X184991218Y-125918614D01*
X185032740Y-125920256D01*
X185054162Y-125926087D01*
X185060374Y-125937461D01*
X185060376Y-125937798D01*
X185063258Y-125948938D01*
X185075970Y-125947673D01*
X185101243Y-125935433D01*
X185160131Y-125916707D01*
X185226385Y-125914739D01*
X185289241Y-125929184D01*
G37*
X185289241Y-125929184D02*
X185315753Y-125942282D01*
X185348447Y-125965106D01*
X185372275Y-125989996D01*
X185388594Y-126021249D01*
X185398760Y-126063166D01*
X185404128Y-126120044D01*
X185406056Y-126196184D01*
X185406169Y-126228917D01*
X185405839Y-126300656D01*
X185404473Y-126351927D01*
X185401500Y-126387404D01*
X185396351Y-126411763D01*
X185388457Y-126429680D01*
X185380243Y-126441902D01*
X185327813Y-126493905D01*
X185266070Y-126525184D01*
X185199464Y-126534592D01*
X185132442Y-126520980D01*
X185111208Y-126511354D01*
X185060376Y-126484859D01*
X185060376Y-126900052D01*
X185097475Y-126880868D01*
X185146357Y-126866025D01*
X185206439Y-126862222D01*
X185266436Y-126869243D01*
X185311744Y-126885013D01*
X185349325Y-126915047D01*
X185381436Y-126958024D01*
X185383850Y-126962436D01*
X185394033Y-126983221D01*
X185401470Y-127004170D01*
X185406589Y-127029548D01*
X185409819Y-127063618D01*
X185411587Y-127110641D01*
X185412323Y-127174882D01*
X185412456Y-127247176D01*
X185412456Y-127477822D01*
X185274139Y-127477822D01*
X185274139Y-127052533D01*
X185235451Y-127019979D01*
X185195262Y-126993940D01*
X185157203Y-126989205D01*
X185118934Y-127001389D01*
X185098538Y-127013320D01*
X185083358Y-127030313D01*
X185072562Y-127055995D01*
X185065317Y-127093991D01*
X185060792Y-127147926D01*
X185058156Y-127221425D01*
X185057228Y-127270347D01*
X185054089Y-127471535D01*
X184988074Y-127475336D01*
X184922060Y-127479136D01*
X184922060Y-126230650D01*
X185060376Y-126230650D01*
X185063903Y-126300254D01*
X185075785Y-126348569D01*
X185097980Y-126378631D01*
X185132441Y-126393471D01*
X185167258Y-126396436D01*
X185206671Y-126393028D01*
X185232829Y-126379617D01*
X185249186Y-126361896D01*
X185262063Y-126342835D01*
X185269728Y-126321601D01*
X185273139Y-126291849D01*
X185273251Y-126247236D01*
X185272103Y-126209880D01*
X185269468Y-126153604D01*
X185265544Y-126116658D01*
X185258937Y-126093223D01*
X185248251Y-126077480D01*
X185238167Y-126068380D01*
X185196030Y-126048537D01*
X185146160Y-126045332D01*
X185117524Y-126052168D01*
X185089172Y-126076464D01*
X185070391Y-126123728D01*
X185061288Y-126193624D01*
X185060376Y-126230650D01*
X184922060Y-126230650D01*
X184922060Y-125918614D01*
X184991218Y-125918614D01*
X185032740Y-125920256D01*
X185054162Y-125926087D01*
X185060374Y-125937461D01*
X185060376Y-125937798D01*
X185063258Y-125948938D01*
X185075970Y-125947673D01*
X185101243Y-125935433D01*
X185160131Y-125916707D01*
X185226385Y-125914739D01*
X185289241Y-125929184D01*
D12*
%TO.C,U1*%
X177645001Y-136925001D02*
X177645001Y-143825001D01*
X175105001Y-136925001D02*
X177645001Y-136925001D01*
D10*
G36*
X174065001Y-117070001D02*
G01*
X174065001Y-118340001D01*
X174700001Y-117705001D01*
X174065001Y-117070001D01*
G37*
X174065001Y-117070001D02*
X174065001Y-118340001D01*
X174700001Y-117705001D01*
X174065001Y-117070001D01*
D12*
X198845001Y-109365001D02*
X177235001Y-109365001D01*
X200965001Y-143825001D02*
X200965001Y-111495001D01*
X175105001Y-136925001D02*
X175105001Y-111495001D01*
X177645001Y-143825001D02*
X200965001Y-143825001D01*
X198835001Y-109365001D02*
G75*
G02*
X200965001Y-111495001I0J-2130000D01*
G01*
X175105001Y-111495001D02*
G75*
G02*
X177235001Y-109365001I2130000J0D01*
G01*
%TO.C,R1*%
X196290000Y-115840252D02*
X196290000Y-115317748D01*
X194870000Y-115840252D02*
X194870000Y-115317748D01*
%TO.C,J6*%
X194564000Y-132782000D02*
X195894000Y-132782000D01*
X195894000Y-132782000D02*
X195894000Y-134112000D01*
X195894000Y-135382000D02*
X195894000Y-143062000D01*
X193234000Y-143062000D02*
X195894000Y-143062000D01*
X193234000Y-135382000D02*
X193234000Y-143062000D01*
X193234000Y-135382000D02*
X195894000Y-135382000D01*
%TO.C,B1*%
X199136000Y-137608000D02*
X200466000Y-137608000D01*
X200466000Y-137608000D02*
X200466000Y-138938000D01*
X200466000Y-140208000D02*
X200466000Y-142808000D01*
X197806000Y-142808000D02*
X200466000Y-142808000D01*
X197806000Y-140208000D02*
X197806000Y-142808000D01*
X197806000Y-140208000D02*
X200466000Y-140208000D01*
%TO.C,J1*%
X181416000Y-140716000D02*
X178756000Y-140716000D01*
X181416000Y-140716000D02*
X181416000Y-135576000D01*
X181416000Y-135576000D02*
X178756000Y-135576000D01*
X178756000Y-140716000D02*
X178756000Y-135576000D01*
X178756000Y-143316000D02*
X178756000Y-141986000D01*
X180086000Y-143316000D02*
X178756000Y-143316000D01*
%TO.C,J2*%
X172466000Y-143824000D02*
X171136000Y-143824000D01*
X171136000Y-143824000D02*
X171136000Y-142494000D01*
X171136000Y-141224000D02*
X171136000Y-136084000D01*
X173796000Y-136084000D02*
X171136000Y-136084000D01*
X173796000Y-141224000D02*
X173796000Y-136084000D01*
X173796000Y-141224000D02*
X171136000Y-141224000D01*
%TO.C,J3*%
X172212000Y-109160000D02*
X173542000Y-109160000D01*
X173542000Y-109160000D02*
X173542000Y-110490000D01*
X173542000Y-111760000D02*
X173542000Y-119440000D01*
X170882000Y-119440000D02*
X173542000Y-119440000D01*
X170882000Y-111760000D02*
X170882000Y-119440000D01*
X170882000Y-111760000D02*
X173542000Y-111760000D01*
%TO.C,J4*%
X186690000Y-113090000D02*
X186690000Y-110430000D01*
X186690000Y-113090000D02*
X199450000Y-113090000D01*
X199450000Y-113090000D02*
X199450000Y-110430000D01*
X186690000Y-110430000D02*
X199450000Y-110430000D01*
X184090000Y-110430000D02*
X185420000Y-110430000D01*
X184090000Y-111760000D02*
X184090000Y-110430000D01*
%TO.C,J5*%
X185674000Y-132782000D02*
X187004000Y-132782000D01*
X187004000Y-132782000D02*
X187004000Y-134112000D01*
X187004000Y-135382000D02*
X187004000Y-143062000D01*
X184344000Y-143062000D02*
X187004000Y-143062000D01*
X184344000Y-135382000D02*
X184344000Y-143062000D01*
X184344000Y-135382000D02*
X187004000Y-135382000D01*
%TO.C,U1*%
D10*
X178308095Y-118832380D02*
X178308095Y-119641904D01*
X178355714Y-119737142D01*
X178403333Y-119784761D01*
X178498571Y-119832380D01*
X178689047Y-119832380D01*
X178784285Y-119784761D01*
X178831904Y-119737142D01*
X178879523Y-119641904D01*
X178879523Y-118832380D01*
X179879523Y-119832380D02*
X179308095Y-119832380D01*
X179593809Y-119832380D02*
X179593809Y-118832380D01*
X179498571Y-118975238D01*
X179403333Y-119070476D01*
X179308095Y-119118095D01*
%TO.C,R1*%
X194382380Y-115745666D02*
X193906190Y-116079000D01*
X194382380Y-116317095D02*
X193382380Y-116317095D01*
X193382380Y-115936142D01*
X193430000Y-115840904D01*
X193477619Y-115793285D01*
X193572857Y-115745666D01*
X193715714Y-115745666D01*
X193810952Y-115793285D01*
X193858571Y-115840904D01*
X193906190Y-115936142D01*
X193906190Y-116317095D01*
X194382380Y-114793285D02*
X194382380Y-115364714D01*
X194382380Y-115079000D02*
X193382380Y-115079000D01*
X193525238Y-115174238D01*
X193620476Y-115269476D01*
X193668095Y-115364714D01*
%TO.C,J6*%
X194230666Y-130794380D02*
X194230666Y-131508666D01*
X194183047Y-131651523D01*
X194087809Y-131746761D01*
X193944952Y-131794380D01*
X193849714Y-131794380D01*
X195135428Y-130794380D02*
X194944952Y-130794380D01*
X194849714Y-130842000D01*
X194802095Y-130889619D01*
X194706857Y-131032476D01*
X194659238Y-131222952D01*
X194659238Y-131603904D01*
X194706857Y-131699142D01*
X194754476Y-131746761D01*
X194849714Y-131794380D01*
X195040190Y-131794380D01*
X195135428Y-131746761D01*
X195183047Y-131699142D01*
X195230666Y-131603904D01*
X195230666Y-131365809D01*
X195183047Y-131270571D01*
X195135428Y-131222952D01*
X195040190Y-131175333D01*
X194849714Y-131175333D01*
X194754476Y-131222952D01*
X194706857Y-131270571D01*
X194659238Y-131365809D01*
%TO.C,B1*%
X198731238Y-136096571D02*
X198874095Y-136144190D01*
X198921714Y-136191809D01*
X198969333Y-136287047D01*
X198969333Y-136429904D01*
X198921714Y-136525142D01*
X198874095Y-136572761D01*
X198778857Y-136620380D01*
X198397904Y-136620380D01*
X198397904Y-135620380D01*
X198731238Y-135620380D01*
X198826476Y-135668000D01*
X198874095Y-135715619D01*
X198921714Y-135810857D01*
X198921714Y-135906095D01*
X198874095Y-136001333D01*
X198826476Y-136048952D01*
X198731238Y-136096571D01*
X198397904Y-136096571D01*
X199921714Y-136620380D02*
X199350285Y-136620380D01*
X199636000Y-136620380D02*
X199636000Y-135620380D01*
X199540761Y-135763238D01*
X199445523Y-135858476D01*
X199350285Y-135906095D01*
%TO.C,J1*%
X182292666Y-142200380D02*
X182292666Y-142914666D01*
X182245047Y-143057523D01*
X182149809Y-143152761D01*
X182006952Y-143200380D01*
X181911714Y-143200380D01*
X183292666Y-143200380D02*
X182721238Y-143200380D01*
X183006952Y-143200380D02*
X183006952Y-142200380D01*
X182911714Y-142343238D01*
X182816476Y-142438476D01*
X182721238Y-142486095D01*
%TO.C,J2*%
X174418666Y-142708380D02*
X174418666Y-143422666D01*
X174371047Y-143565523D01*
X174275809Y-143660761D01*
X174132952Y-143708380D01*
X174037714Y-143708380D01*
X174847238Y-142803619D02*
X174894857Y-142756000D01*
X174990095Y-142708380D01*
X175228190Y-142708380D01*
X175323428Y-142756000D01*
X175371047Y-142803619D01*
X175418666Y-142898857D01*
X175418666Y-142994095D01*
X175371047Y-143136952D01*
X174799619Y-143708380D01*
X175418666Y-143708380D01*
%TO.C,J3*%
X174164666Y-109434380D02*
X174164666Y-110148666D01*
X174117047Y-110291523D01*
X174021809Y-110386761D01*
X173878952Y-110434380D01*
X173783714Y-110434380D01*
X174545619Y-109434380D02*
X175164666Y-109434380D01*
X174831333Y-109815333D01*
X174974190Y-109815333D01*
X175069428Y-109862952D01*
X175117047Y-109910571D01*
X175164666Y-110005809D01*
X175164666Y-110243904D01*
X175117047Y-110339142D01*
X175069428Y-110386761D01*
X174974190Y-110434380D01*
X174688476Y-110434380D01*
X174593238Y-110386761D01*
X174545619Y-110339142D01*
%TO.C,J4*%
X182102380Y-112093333D02*
X182816666Y-112093333D01*
X182959523Y-112140952D01*
X183054761Y-112236190D01*
X183102380Y-112379047D01*
X183102380Y-112474285D01*
X182435714Y-111188571D02*
X183102380Y-111188571D01*
X182054761Y-111426666D02*
X182769047Y-111664761D01*
X182769047Y-111045714D01*
%TO.C,J5*%
X185340666Y-131278380D02*
X185340666Y-131992666D01*
X185293047Y-132135523D01*
X185197809Y-132230761D01*
X185054952Y-132278380D01*
X184959714Y-132278380D01*
X186293047Y-131278380D02*
X185816857Y-131278380D01*
X185769238Y-131754571D01*
X185816857Y-131706952D01*
X185912095Y-131659333D01*
X186150190Y-131659333D01*
X186245428Y-131706952D01*
X186293047Y-131754571D01*
X186340666Y-131849809D01*
X186340666Y-132087904D01*
X186293047Y-132183142D01*
X186245428Y-132230761D01*
X186150190Y-132278380D01*
X185912095Y-132278380D01*
X185816857Y-132230761D01*
X185769238Y-132183142D01*
%TD*%
M02*
