%TF.GenerationSoftware,KiCad,Pcbnew,(5.1.6)-1*%
%TF.CreationDate,2020-09-06T13:06:38-04:00*%
%TF.ProjectId,ResQ KiCad Version,52657351-204b-4694-9361-642056657273,rev?*%
%TF.SameCoordinates,Original*%
%TF.FileFunction,Copper,L1,Top*%
%TF.FilePolarity,Positive*%
%FSLAX46Y46*%
G04 Gerber Fmt 4.6, Leading zero omitted, Abs format (unit mm)*
G04 Created by KiCad (PCBNEW (5.1.6)-1) date 2020-09-06 13:06:38*
%MOMM*%
%LPD*%
G01*
G04 APERTURE LIST*
%TA.AperFunction,ComponentPad*%
%ADD10O,2.000000X1.600000*%
%TD*%
%TA.AperFunction,ComponentPad*%
%ADD11R,2.000000X2.000000*%
%TD*%
%TA.AperFunction,ComponentPad*%
%ADD12O,1.700000X1.700000*%
%TD*%
%TA.AperFunction,ComponentPad*%
%ADD13R,1.700000X1.700000*%
%TD*%
%TA.AperFunction,ViaPad*%
%ADD14C,0.800000*%
%TD*%
%TA.AperFunction,Conductor*%
%ADD15C,0.250000*%
%TD*%
%TA.AperFunction,Conductor*%
%ADD16C,0.254000*%
%TD*%
G04 APERTURE END LIST*
D10*
%TO.P,U1,16*%
%TO.N,TX*%
X199465001Y-117705001D03*
%TO.P,U1,15*%
%TO.N,RX*%
X199465001Y-120245001D03*
%TO.P,U1,14*%
%TO.N,SCL*%
X199465001Y-122785001D03*
%TO.P,U1,13*%
%TO.N,SDA*%
X199465001Y-125325001D03*
%TO.P,U1,12*%
%TO.N,D3*%
X199465001Y-127865001D03*
%TO.P,U1,11*%
%TO.N,D4*%
X199465001Y-130405001D03*
%TO.P,U1,10*%
%TO.N,GND*%
X199465001Y-132945001D03*
%TO.P,U1,9*%
%TO.N,5V*%
X199465001Y-135485001D03*
%TO.P,U1,8*%
%TO.N,3V3*%
X176605001Y-135485001D03*
%TO.P,U1,7*%
%TO.N,CS*%
X176605001Y-132945001D03*
%TO.P,U1,6*%
%TO.N,MOSI*%
X176605001Y-130405001D03*
%TO.P,U1,5*%
%TO.N,MISO*%
X176605001Y-127865001D03*
%TO.P,U1,4*%
%TO.N,CLK*%
X176605001Y-125325001D03*
%TO.P,U1,3*%
%TO.N,D0*%
X176605001Y-122785001D03*
D11*
%TO.P,U1,1*%
%TO.N,N/C*%
X176605001Y-117705001D03*
D10*
%TO.P,U1,2*%
%TO.N,A0*%
X176605001Y-120245001D03*
%TD*%
%TO.P,R1,2*%
%TO.N,MISO*%
%TA.AperFunction,SMDPad,CuDef*%
G36*
G01*
X196030001Y-115129000D02*
X195129999Y-115129000D01*
G75*
G02*
X194880000Y-114879001I0J249999D01*
G01*
X194880000Y-114228999D01*
G75*
G02*
X195129999Y-113979000I249999J0D01*
G01*
X196030001Y-113979000D01*
G75*
G02*
X196280000Y-114228999I0J-249999D01*
G01*
X196280000Y-114879001D01*
G75*
G02*
X196030001Y-115129000I-249999J0D01*
G01*
G37*
%TD.AperFunction*%
%TO.P,R1,1*%
%TO.N,3V3*%
%TA.AperFunction,SMDPad,CuDef*%
G36*
G01*
X196030001Y-117179000D02*
X195129999Y-117179000D01*
G75*
G02*
X194880000Y-116929001I0J249999D01*
G01*
X194880000Y-116278999D01*
G75*
G02*
X195129999Y-116029000I249999J0D01*
G01*
X196030001Y-116029000D01*
G75*
G02*
X196280000Y-116278999I0J-249999D01*
G01*
X196280000Y-116929001D01*
G75*
G02*
X196030001Y-117179000I-249999J0D01*
G01*
G37*
%TD.AperFunction*%
%TD*%
D12*
%TO.P,J6,4*%
%TO.N,RX*%
X194564000Y-141732000D03*
%TO.P,J6,3*%
%TO.N,TX*%
X194564000Y-139192000D03*
%TO.P,J6,2*%
%TO.N,GND*%
X194564000Y-136652000D03*
D13*
%TO.P,J6,1*%
%TO.N,3V3*%
X194564000Y-134112000D03*
%TD*%
D12*
%TO.P,B1,2*%
%TO.N,GND*%
X199136000Y-141478000D03*
D13*
%TO.P,B1,1*%
%TO.N,5V*%
X199136000Y-138938000D03*
%TD*%
%TO.P,J1,1*%
%TO.N,3V3*%
X180086000Y-141986000D03*
D12*
%TO.P,J1,2*%
%TO.N,GND*%
X180086000Y-139446000D03*
%TO.P,J1,3*%
%TO.N,A0*%
X180086000Y-136906000D03*
%TD*%
%TO.P,J2,3*%
%TO.N,D0*%
X172466000Y-137414000D03*
%TO.P,J2,2*%
%TO.N,GND*%
X172466000Y-139954000D03*
D13*
%TO.P,J2,1*%
%TO.N,3V3*%
X172466000Y-142494000D03*
%TD*%
D12*
%TO.P,J3,4*%
%TO.N,SDA*%
X172212000Y-118110000D03*
%TO.P,J3,3*%
%TO.N,SCL*%
X172212000Y-115570000D03*
%TO.P,J3,2*%
%TO.N,3V3*%
X172212000Y-113030000D03*
D13*
%TO.P,J3,1*%
%TO.N,GND*%
X172212000Y-110490000D03*
%TD*%
%TO.P,J4,1*%
%TO.N,3V3*%
X185420000Y-111760000D03*
D12*
%TO.P,J4,2*%
%TO.N,CS*%
X187960000Y-111760000D03*
%TO.P,J4,3*%
%TO.N,MOSI*%
X190500000Y-111760000D03*
%TO.P,J4,4*%
%TO.N,CLK*%
X193040000Y-111760000D03*
%TO.P,J4,5*%
%TO.N,MISO*%
X195580000Y-111760000D03*
%TO.P,J4,6*%
%TO.N,GND*%
X198120000Y-111760000D03*
%TD*%
%TO.P,J5,4*%
%TO.N,GND*%
X185674000Y-141732000D03*
%TO.P,J5,3*%
%TO.N,D4*%
X185674000Y-139192000D03*
%TO.P,J5,2*%
%TO.N,D3*%
X185674000Y-136652000D03*
D13*
%TO.P,J5,1*%
%TO.N,3V3*%
X185674000Y-134112000D03*
%TD*%
D14*
%TO.N,GND*%
X183896000Y-130048000D03*
X172466000Y-122936000D03*
X192024000Y-124206000D03*
X193040000Y-129286000D03*
%TO.N,D3*%
X188214000Y-132276998D03*
%TO.N,D4*%
X189611000Y-132461000D03*
%TD*%
D15*
%TO.N,GND*%
X182372000Y-141732000D02*
X180086000Y-139446000D01*
X185674000Y-141732000D02*
X182372000Y-141732000D01*
X183896000Y-130048000D02*
X184150000Y-130048000D01*
X184150000Y-130048000D02*
X184658000Y-129540000D01*
%TO.N,3V3*%
X196088000Y-116595000D02*
X196079000Y-116595000D01*
X194564000Y-134112000D02*
X194564000Y-118110000D01*
X195580000Y-117094000D02*
X194564000Y-118110000D01*
X195580000Y-116604000D02*
X195580000Y-117094000D01*
%TO.N,A0*%
X180086000Y-136906000D02*
X177292000Y-136906000D01*
X177292000Y-136906000D02*
X176234996Y-136906000D01*
X175260000Y-136906000D02*
X177292000Y-136906000D01*
X173990000Y-135636000D02*
X175260000Y-136906000D01*
X173990000Y-122428000D02*
X173990000Y-135636000D01*
X176605001Y-120245001D02*
X176172999Y-120245001D01*
X176172999Y-120245001D02*
X173990000Y-122428000D01*
%TO.N,SCL*%
X198215001Y-122785001D02*
X199465001Y-122785001D01*
%TO.N,CS*%
X187960000Y-121590002D02*
X176605001Y-132945001D01*
X187960000Y-111760000D02*
X187960000Y-121590002D01*
%TO.N,MOSI*%
X188976000Y-110236000D02*
X190500000Y-111760000D01*
X177696999Y-130405001D02*
X182880000Y-125222000D01*
X184658998Y-110236000D02*
X188976000Y-110236000D01*
X176605001Y-130405001D02*
X177696999Y-130405001D01*
X182880000Y-125222000D02*
X182880000Y-112014998D01*
X182880000Y-112014998D02*
X184658998Y-110236000D01*
%TO.N,CLK*%
X184404000Y-109728000D02*
X191008000Y-109728000D01*
X181610000Y-112522000D02*
X184404000Y-109728000D01*
X181610000Y-121158000D02*
X181610000Y-112522000D01*
X191008000Y-109728000D02*
X193040000Y-111760000D01*
X177442999Y-125325001D02*
X181610000Y-121158000D01*
X176605001Y-125325001D02*
X177442999Y-125325001D01*
%TO.N,MISO*%
X176605001Y-127865001D02*
X176605001Y-128613997D01*
X194818000Y-112522000D02*
X195580000Y-111760000D01*
X189103000Y-122809000D02*
X189103000Y-118237000D01*
X176605001Y-128194999D02*
X175006000Y-129794000D01*
X189103000Y-118237000D02*
X194818000Y-112522000D01*
X176605001Y-127865001D02*
X176605001Y-128194999D01*
X175006000Y-129794000D02*
X175006000Y-134112000D01*
X175006000Y-134112000D02*
X177800000Y-134112000D01*
X177800000Y-134112000D02*
X189103000Y-122809000D01*
X195580000Y-114554000D02*
X195580000Y-111760000D01*
%TO.N,D3*%
X188214000Y-134112000D02*
X185674000Y-136652000D01*
X188214000Y-132276998D02*
X188214000Y-134112000D01*
%TO.N,D4*%
X189611000Y-135255000D02*
X185674000Y-139192000D01*
X189611000Y-132461000D02*
X189611000Y-135255000D01*
%TO.N,RX*%
X194564000Y-141732000D02*
X196189012Y-140106988D01*
X196189012Y-123520990D02*
X199465001Y-120245001D01*
X196189012Y-140106988D02*
X196189012Y-123520990D01*
%TO.N,TX*%
X195739001Y-121431001D02*
X199465001Y-117705001D01*
X195739001Y-138016999D02*
X195739001Y-121431001D01*
X194564000Y-139192000D02*
X195739001Y-138016999D01*
%TD*%
D16*
%TO.N,GND*%
G36*
X183863999Y-109187999D02*
G01*
X183840201Y-109216997D01*
X181098998Y-111958201D01*
X181070000Y-111981999D01*
X181046202Y-112010997D01*
X181046201Y-112010998D01*
X180975026Y-112097724D01*
X180904454Y-112229754D01*
X180860998Y-112373015D01*
X180846324Y-112522000D01*
X180850001Y-112559332D01*
X180850000Y-120843198D01*
X177580705Y-124112494D01*
X177473143Y-124055001D01*
X177606102Y-123983933D01*
X177824609Y-123804609D01*
X178003933Y-123586102D01*
X178137183Y-123336809D01*
X178219237Y-123066310D01*
X178246944Y-122785001D01*
X178219237Y-122503692D01*
X178137183Y-122233193D01*
X178003933Y-121983900D01*
X177824609Y-121765393D01*
X177606102Y-121586069D01*
X177473143Y-121515001D01*
X177606102Y-121443933D01*
X177824609Y-121264609D01*
X178003933Y-121046102D01*
X178137183Y-120796809D01*
X178219237Y-120526310D01*
X178246944Y-120245001D01*
X178219237Y-119963692D01*
X178137183Y-119693193D01*
X178003933Y-119443900D01*
X177871525Y-119282560D01*
X177959495Y-119235538D01*
X178056186Y-119156186D01*
X178135538Y-119059495D01*
X178194503Y-118949181D01*
X178230813Y-118829483D01*
X178243073Y-118705001D01*
X178243073Y-116705001D01*
X178230813Y-116580519D01*
X178194503Y-116460821D01*
X178135538Y-116350507D01*
X178056186Y-116253816D01*
X177959495Y-116174464D01*
X177849181Y-116115499D01*
X177729483Y-116079189D01*
X177605001Y-116066929D01*
X175605001Y-116066929D01*
X175480519Y-116079189D01*
X175360821Y-116115499D01*
X175250507Y-116174464D01*
X175153816Y-116253816D01*
X175074464Y-116350507D01*
X175015499Y-116460821D01*
X174979189Y-116580519D01*
X174966929Y-116705001D01*
X174966929Y-118705001D01*
X174979189Y-118829483D01*
X175015499Y-118949181D01*
X175074464Y-119059495D01*
X175153816Y-119156186D01*
X175250507Y-119235538D01*
X175338477Y-119282560D01*
X175206069Y-119443900D01*
X175072819Y-119693193D01*
X174990765Y-119963692D01*
X174963058Y-120245001D01*
X174975175Y-120368023D01*
X173479003Y-121864196D01*
X173449999Y-121887999D01*
X173394871Y-121955174D01*
X173355026Y-122003724D01*
X173324947Y-122059998D01*
X173284454Y-122135754D01*
X173240997Y-122279015D01*
X173230000Y-122390668D01*
X173230000Y-122390678D01*
X173226324Y-122428000D01*
X173230000Y-122465322D01*
X173230001Y-135598668D01*
X173226324Y-135636000D01*
X173240998Y-135784985D01*
X173284454Y-135928246D01*
X173355026Y-136060276D01*
X173385994Y-136098010D01*
X173450000Y-136176001D01*
X173478998Y-136199799D01*
X174696201Y-137417003D01*
X174719999Y-137446001D01*
X174835724Y-137540974D01*
X174967753Y-137611546D01*
X175111014Y-137655003D01*
X175222667Y-137666000D01*
X175222676Y-137666000D01*
X175259999Y-137669676D01*
X175297322Y-137666000D01*
X178807822Y-137666000D01*
X178932525Y-137852632D01*
X179139368Y-138059475D01*
X179321534Y-138181195D01*
X179204645Y-138250822D01*
X178988412Y-138445731D01*
X178814359Y-138679080D01*
X178689175Y-138941901D01*
X178644524Y-139089110D01*
X178765845Y-139319000D01*
X179959000Y-139319000D01*
X179959000Y-139299000D01*
X180213000Y-139299000D01*
X180213000Y-139319000D01*
X181406155Y-139319000D01*
X181527476Y-139089110D01*
X181482825Y-138941901D01*
X181357641Y-138679080D01*
X181183588Y-138445731D01*
X180967355Y-138250822D01*
X180850466Y-138181195D01*
X181032632Y-138059475D01*
X181239475Y-137852632D01*
X181401990Y-137609411D01*
X181513932Y-137339158D01*
X181571000Y-137052260D01*
X181571000Y-136759740D01*
X181513932Y-136472842D01*
X181401990Y-136202589D01*
X181239475Y-135959368D01*
X181032632Y-135752525D01*
X180789411Y-135590010D01*
X180519158Y-135478068D01*
X180232260Y-135421000D01*
X179939740Y-135421000D01*
X179652842Y-135478068D01*
X179382589Y-135590010D01*
X179139368Y-135752525D01*
X178932525Y-135959368D01*
X178807822Y-136146000D01*
X178078819Y-136146000D01*
X178137183Y-136036809D01*
X178219237Y-135766310D01*
X178246944Y-135485001D01*
X178219237Y-135203692D01*
X178137183Y-134933193D01*
X178077723Y-134821952D01*
X178092247Y-134817546D01*
X178224276Y-134746974D01*
X178340001Y-134652001D01*
X178363804Y-134622997D01*
X179724801Y-133262000D01*
X184185928Y-133262000D01*
X184185928Y-134962000D01*
X184198188Y-135086482D01*
X184234498Y-135206180D01*
X184293463Y-135316494D01*
X184372815Y-135413185D01*
X184469506Y-135492537D01*
X184579820Y-135551502D01*
X184652380Y-135573513D01*
X184520525Y-135705368D01*
X184358010Y-135948589D01*
X184246068Y-136218842D01*
X184189000Y-136505740D01*
X184189000Y-136798260D01*
X184246068Y-137085158D01*
X184358010Y-137355411D01*
X184520525Y-137598632D01*
X184727368Y-137805475D01*
X184901760Y-137922000D01*
X184727368Y-138038525D01*
X184520525Y-138245368D01*
X184358010Y-138488589D01*
X184246068Y-138758842D01*
X184189000Y-139045740D01*
X184189000Y-139338260D01*
X184246068Y-139625158D01*
X184358010Y-139895411D01*
X184520525Y-140138632D01*
X184727368Y-140345475D01*
X184909534Y-140467195D01*
X184792645Y-140536822D01*
X184576412Y-140731731D01*
X184402359Y-140965080D01*
X184277175Y-141227901D01*
X184232524Y-141375110D01*
X184353845Y-141605000D01*
X185547000Y-141605000D01*
X185547000Y-141585000D01*
X185801000Y-141585000D01*
X185801000Y-141605000D01*
X186994155Y-141605000D01*
X187115476Y-141375110D01*
X187070825Y-141227901D01*
X186945641Y-140965080D01*
X186771588Y-140731731D01*
X186555355Y-140536822D01*
X186438466Y-140467195D01*
X186620632Y-140345475D01*
X186827475Y-140138632D01*
X186989990Y-139895411D01*
X187101932Y-139625158D01*
X187159000Y-139338260D01*
X187159000Y-139045740D01*
X187115209Y-138825592D01*
X190122003Y-135818799D01*
X190151001Y-135795001D01*
X190245974Y-135679276D01*
X190316546Y-135547247D01*
X190360003Y-135403986D01*
X190371000Y-135292333D01*
X190371000Y-135292325D01*
X190374676Y-135255000D01*
X190371000Y-135217675D01*
X190371000Y-133164711D01*
X190414937Y-133120774D01*
X190528205Y-132951256D01*
X190606226Y-132762898D01*
X190646000Y-132562939D01*
X190646000Y-132359061D01*
X190606226Y-132159102D01*
X190528205Y-131970744D01*
X190414937Y-131801226D01*
X190270774Y-131657063D01*
X190101256Y-131543795D01*
X189912898Y-131465774D01*
X189712939Y-131426000D01*
X189509061Y-131426000D01*
X189309102Y-131465774D01*
X189120744Y-131543795D01*
X189015098Y-131614385D01*
X188873774Y-131473061D01*
X188704256Y-131359793D01*
X188515898Y-131281772D01*
X188315939Y-131241998D01*
X188112061Y-131241998D01*
X187912102Y-131281772D01*
X187723744Y-131359793D01*
X187554226Y-131473061D01*
X187410063Y-131617224D01*
X187296795Y-131786742D01*
X187218774Y-131975100D01*
X187179000Y-132175059D01*
X187179000Y-132378937D01*
X187218774Y-132578896D01*
X187296795Y-132767254D01*
X187410063Y-132936772D01*
X187454000Y-132980709D01*
X187454001Y-133797196D01*
X187162072Y-134089125D01*
X187162072Y-133262000D01*
X187149812Y-133137518D01*
X187113502Y-133017820D01*
X187054537Y-132907506D01*
X186975185Y-132810815D01*
X186878494Y-132731463D01*
X186768180Y-132672498D01*
X186648482Y-132636188D01*
X186524000Y-132623928D01*
X184824000Y-132623928D01*
X184699518Y-132636188D01*
X184579820Y-132672498D01*
X184469506Y-132731463D01*
X184372815Y-132810815D01*
X184293463Y-132907506D01*
X184234498Y-133017820D01*
X184198188Y-133137518D01*
X184185928Y-133262000D01*
X179724801Y-133262000D01*
X189614004Y-123372798D01*
X189643001Y-123349001D01*
X189669332Y-123316917D01*
X189737974Y-123233277D01*
X189808546Y-123101247D01*
X189820156Y-123062974D01*
X189852003Y-122957986D01*
X189863000Y-122846333D01*
X189863000Y-122846323D01*
X189866676Y-122809000D01*
X189863000Y-122771677D01*
X189863000Y-118551801D01*
X194248060Y-114166742D01*
X194241928Y-114228999D01*
X194241928Y-114879001D01*
X194258992Y-115052255D01*
X194309528Y-115218851D01*
X194391595Y-115372387D01*
X194502038Y-115506962D01*
X194589816Y-115579000D01*
X194502038Y-115651038D01*
X194391595Y-115785613D01*
X194309528Y-115939149D01*
X194258992Y-116105745D01*
X194241928Y-116278999D01*
X194241928Y-116929001D01*
X194258992Y-117102255D01*
X194309528Y-117268851D01*
X194316780Y-117282419D01*
X194052998Y-117546201D01*
X194024000Y-117569999D01*
X194000202Y-117598997D01*
X194000201Y-117598998D01*
X193929026Y-117685724D01*
X193858454Y-117817754D01*
X193846344Y-117857677D01*
X193819931Y-117944754D01*
X193814998Y-117961015D01*
X193800324Y-118110000D01*
X193804001Y-118147333D01*
X193804000Y-132623928D01*
X193714000Y-132623928D01*
X193589518Y-132636188D01*
X193469820Y-132672498D01*
X193359506Y-132731463D01*
X193262815Y-132810815D01*
X193183463Y-132907506D01*
X193124498Y-133017820D01*
X193088188Y-133137518D01*
X193075928Y-133262000D01*
X193075928Y-134962000D01*
X193088188Y-135086482D01*
X193124498Y-135206180D01*
X193183463Y-135316494D01*
X193262815Y-135413185D01*
X193359506Y-135492537D01*
X193469820Y-135551502D01*
X193550466Y-135575966D01*
X193466412Y-135651731D01*
X193292359Y-135885080D01*
X193167175Y-136147901D01*
X193122524Y-136295110D01*
X193243845Y-136525000D01*
X194437000Y-136525000D01*
X194437000Y-136505000D01*
X194691000Y-136505000D01*
X194691000Y-136525000D01*
X194711000Y-136525000D01*
X194711000Y-136779000D01*
X194691000Y-136779000D01*
X194691000Y-136799000D01*
X194437000Y-136799000D01*
X194437000Y-136779000D01*
X193243845Y-136779000D01*
X193122524Y-137008890D01*
X193167175Y-137156099D01*
X193292359Y-137418920D01*
X193466412Y-137652269D01*
X193682645Y-137847178D01*
X193799534Y-137916805D01*
X193617368Y-138038525D01*
X193410525Y-138245368D01*
X193248010Y-138488589D01*
X193136068Y-138758842D01*
X193079000Y-139045740D01*
X193079000Y-139338260D01*
X193136068Y-139625158D01*
X193248010Y-139895411D01*
X193410525Y-140138632D01*
X193617368Y-140345475D01*
X193791760Y-140462000D01*
X193617368Y-140578525D01*
X193410525Y-140785368D01*
X193248010Y-141028589D01*
X193136068Y-141298842D01*
X193079000Y-141585740D01*
X193079000Y-141878260D01*
X193136068Y-142165158D01*
X193248010Y-142435411D01*
X193410525Y-142678632D01*
X193617368Y-142885475D01*
X193860589Y-143047990D01*
X194130842Y-143159932D01*
X194417740Y-143217000D01*
X194710260Y-143217000D01*
X194997158Y-143159932D01*
X195267411Y-143047990D01*
X195510632Y-142885475D01*
X195717475Y-142678632D01*
X195879990Y-142435411D01*
X195991932Y-142165158D01*
X196049000Y-141878260D01*
X196049000Y-141834890D01*
X197694524Y-141834890D01*
X197739175Y-141982099D01*
X197864359Y-142244920D01*
X198038412Y-142478269D01*
X198254645Y-142673178D01*
X198504748Y-142822157D01*
X198779109Y-142919481D01*
X199009000Y-142798814D01*
X199009000Y-141605000D01*
X199263000Y-141605000D01*
X199263000Y-142798814D01*
X199492891Y-142919481D01*
X199767252Y-142822157D01*
X200017355Y-142673178D01*
X200233588Y-142478269D01*
X200407641Y-142244920D01*
X200532825Y-141982099D01*
X200577476Y-141834890D01*
X200456155Y-141605000D01*
X199263000Y-141605000D01*
X199009000Y-141605000D01*
X197815845Y-141605000D01*
X197694524Y-141834890D01*
X196049000Y-141834890D01*
X196049000Y-141585740D01*
X196005210Y-141365592D01*
X196700016Y-140670786D01*
X196729013Y-140646989D01*
X196755344Y-140614905D01*
X196823986Y-140531265D01*
X196894558Y-140399235D01*
X196898014Y-140387843D01*
X196938015Y-140255974D01*
X196949012Y-140144321D01*
X196949012Y-140144311D01*
X196952688Y-140106989D01*
X196949012Y-140069666D01*
X196949012Y-138088000D01*
X197647928Y-138088000D01*
X197647928Y-139788000D01*
X197660188Y-139912482D01*
X197696498Y-140032180D01*
X197755463Y-140142494D01*
X197834815Y-140239185D01*
X197931506Y-140318537D01*
X198041820Y-140377502D01*
X198122466Y-140401966D01*
X198038412Y-140477731D01*
X197864359Y-140711080D01*
X197739175Y-140973901D01*
X197694524Y-141121110D01*
X197815845Y-141351000D01*
X199009000Y-141351000D01*
X199009000Y-141331000D01*
X199263000Y-141331000D01*
X199263000Y-141351000D01*
X200456155Y-141351000D01*
X200577476Y-141121110D01*
X200532825Y-140973901D01*
X200407641Y-140711080D01*
X200233588Y-140477731D01*
X200149534Y-140401966D01*
X200230180Y-140377502D01*
X200340494Y-140318537D01*
X200437185Y-140239185D01*
X200516537Y-140142494D01*
X200575502Y-140032180D01*
X200611812Y-139912482D01*
X200624072Y-139788000D01*
X200624072Y-138088000D01*
X200611812Y-137963518D01*
X200575502Y-137843820D01*
X200516537Y-137733506D01*
X200437185Y-137636815D01*
X200340494Y-137557463D01*
X200230180Y-137498498D01*
X200110482Y-137462188D01*
X199986000Y-137449928D01*
X198286000Y-137449928D01*
X198161518Y-137462188D01*
X198041820Y-137498498D01*
X197931506Y-137557463D01*
X197834815Y-137636815D01*
X197755463Y-137733506D01*
X197696498Y-137843820D01*
X197660188Y-137963518D01*
X197647928Y-138088000D01*
X196949012Y-138088000D01*
X196949012Y-123835791D01*
X197578459Y-123206344D01*
X197580027Y-123209277D01*
X197675000Y-123325002D01*
X197790725Y-123419975D01*
X197922754Y-123490547D01*
X198032844Y-123523942D01*
X198066069Y-123586102D01*
X198245393Y-123804609D01*
X198463900Y-123983933D01*
X198596859Y-124055001D01*
X198463900Y-124126069D01*
X198245393Y-124305393D01*
X198066069Y-124523900D01*
X197932819Y-124773193D01*
X197850765Y-125043692D01*
X197823058Y-125325001D01*
X197850765Y-125606310D01*
X197932819Y-125876809D01*
X198066069Y-126126102D01*
X198245393Y-126344609D01*
X198463900Y-126523933D01*
X198596859Y-126595001D01*
X198463900Y-126666069D01*
X198245393Y-126845393D01*
X198066069Y-127063900D01*
X197932819Y-127313193D01*
X197850765Y-127583692D01*
X197823058Y-127865001D01*
X197850765Y-128146310D01*
X197932819Y-128416809D01*
X198066069Y-128666102D01*
X198245393Y-128884609D01*
X198463900Y-129063933D01*
X198596859Y-129135001D01*
X198463900Y-129206069D01*
X198245393Y-129385393D01*
X198066069Y-129603900D01*
X197932819Y-129853193D01*
X197850765Y-130123692D01*
X197823058Y-130405001D01*
X197850765Y-130686310D01*
X197932819Y-130956809D01*
X198066069Y-131206102D01*
X198245393Y-131424609D01*
X198463900Y-131603933D01*
X198593346Y-131673123D01*
X198575774Y-131680571D01*
X198342339Y-131839328D01*
X198144362Y-132040576D01*
X197989450Y-132276580D01*
X197883557Y-132538271D01*
X197873097Y-132595962D01*
X197995086Y-132818001D01*
X199338001Y-132818001D01*
X199338001Y-132798001D01*
X199592001Y-132798001D01*
X199592001Y-132818001D01*
X199612001Y-132818001D01*
X199612001Y-133072001D01*
X199592001Y-133072001D01*
X199592001Y-133092001D01*
X199338001Y-133092001D01*
X199338001Y-133072001D01*
X197995086Y-133072001D01*
X197873097Y-133294040D01*
X197883557Y-133351731D01*
X197989450Y-133613422D01*
X198144362Y-133849426D01*
X198342339Y-134050674D01*
X198575774Y-134209431D01*
X198593346Y-134216879D01*
X198463900Y-134286069D01*
X198245393Y-134465393D01*
X198066069Y-134683900D01*
X197932819Y-134933193D01*
X197850765Y-135203692D01*
X197823058Y-135485001D01*
X197850765Y-135766310D01*
X197932819Y-136036809D01*
X198066069Y-136286102D01*
X198245393Y-136504609D01*
X198463900Y-136683933D01*
X198713193Y-136817183D01*
X198983692Y-136899237D01*
X199194509Y-136920001D01*
X199735493Y-136920001D01*
X199946310Y-136899237D01*
X200216809Y-136817183D01*
X200466102Y-136683933D01*
X200684609Y-136504609D01*
X200863933Y-136286102D01*
X200997183Y-136036809D01*
X201016001Y-135974774D01*
X201016001Y-143866000D01*
X173680896Y-143866000D01*
X173767185Y-143795185D01*
X173846537Y-143698494D01*
X173905502Y-143588180D01*
X173941812Y-143468482D01*
X173954072Y-143344000D01*
X173954072Y-141644000D01*
X173941812Y-141519518D01*
X173905502Y-141399820D01*
X173846537Y-141289506D01*
X173767185Y-141192815D01*
X173697956Y-141136000D01*
X178597928Y-141136000D01*
X178597928Y-142836000D01*
X178610188Y-142960482D01*
X178646498Y-143080180D01*
X178705463Y-143190494D01*
X178784815Y-143287185D01*
X178881506Y-143366537D01*
X178991820Y-143425502D01*
X179111518Y-143461812D01*
X179236000Y-143474072D01*
X180936000Y-143474072D01*
X181060482Y-143461812D01*
X181180180Y-143425502D01*
X181290494Y-143366537D01*
X181387185Y-143287185D01*
X181466537Y-143190494D01*
X181525502Y-143080180D01*
X181561812Y-142960482D01*
X181574072Y-142836000D01*
X181574072Y-142088890D01*
X184232524Y-142088890D01*
X184277175Y-142236099D01*
X184402359Y-142498920D01*
X184576412Y-142732269D01*
X184792645Y-142927178D01*
X185042748Y-143076157D01*
X185317109Y-143173481D01*
X185547000Y-143052814D01*
X185547000Y-141859000D01*
X185801000Y-141859000D01*
X185801000Y-143052814D01*
X186030891Y-143173481D01*
X186305252Y-143076157D01*
X186555355Y-142927178D01*
X186771588Y-142732269D01*
X186945641Y-142498920D01*
X187070825Y-142236099D01*
X187115476Y-142088890D01*
X186994155Y-141859000D01*
X185801000Y-141859000D01*
X185547000Y-141859000D01*
X184353845Y-141859000D01*
X184232524Y-142088890D01*
X181574072Y-142088890D01*
X181574072Y-141136000D01*
X181561812Y-141011518D01*
X181525502Y-140891820D01*
X181466537Y-140781506D01*
X181387185Y-140684815D01*
X181290494Y-140605463D01*
X181180180Y-140546498D01*
X181099534Y-140522034D01*
X181183588Y-140446269D01*
X181357641Y-140212920D01*
X181482825Y-139950099D01*
X181527476Y-139802890D01*
X181406155Y-139573000D01*
X180213000Y-139573000D01*
X180213000Y-139593000D01*
X179959000Y-139593000D01*
X179959000Y-139573000D01*
X178765845Y-139573000D01*
X178644524Y-139802890D01*
X178689175Y-139950099D01*
X178814359Y-140212920D01*
X178988412Y-140446269D01*
X179072466Y-140522034D01*
X178991820Y-140546498D01*
X178881506Y-140605463D01*
X178784815Y-140684815D01*
X178705463Y-140781506D01*
X178646498Y-140891820D01*
X178610188Y-141011518D01*
X178597928Y-141136000D01*
X173697956Y-141136000D01*
X173670494Y-141113463D01*
X173560180Y-141054498D01*
X173479534Y-141030034D01*
X173563588Y-140954269D01*
X173737641Y-140720920D01*
X173862825Y-140458099D01*
X173907476Y-140310890D01*
X173786155Y-140081000D01*
X172593000Y-140081000D01*
X172593000Y-140101000D01*
X172339000Y-140101000D01*
X172339000Y-140081000D01*
X171145845Y-140081000D01*
X171024524Y-140310890D01*
X171069175Y-140458099D01*
X171194359Y-140720920D01*
X171368412Y-140954269D01*
X171452466Y-141030034D01*
X171371820Y-141054498D01*
X171261506Y-141113463D01*
X171164815Y-141192815D01*
X171085463Y-141289506D01*
X171026498Y-141399820D01*
X170990188Y-141519518D01*
X170977928Y-141644000D01*
X170977928Y-143344000D01*
X170990188Y-143468482D01*
X171026498Y-143588180D01*
X171085463Y-143698494D01*
X171164815Y-143795185D01*
X171251104Y-143866000D01*
X170840000Y-143866000D01*
X170840000Y-137267740D01*
X170981000Y-137267740D01*
X170981000Y-137560260D01*
X171038068Y-137847158D01*
X171150010Y-138117411D01*
X171312525Y-138360632D01*
X171519368Y-138567475D01*
X171701534Y-138689195D01*
X171584645Y-138758822D01*
X171368412Y-138953731D01*
X171194359Y-139187080D01*
X171069175Y-139449901D01*
X171024524Y-139597110D01*
X171145845Y-139827000D01*
X172339000Y-139827000D01*
X172339000Y-139807000D01*
X172593000Y-139807000D01*
X172593000Y-139827000D01*
X173786155Y-139827000D01*
X173907476Y-139597110D01*
X173862825Y-139449901D01*
X173737641Y-139187080D01*
X173563588Y-138953731D01*
X173347355Y-138758822D01*
X173230466Y-138689195D01*
X173412632Y-138567475D01*
X173619475Y-138360632D01*
X173781990Y-138117411D01*
X173893932Y-137847158D01*
X173951000Y-137560260D01*
X173951000Y-137267740D01*
X173893932Y-136980842D01*
X173781990Y-136710589D01*
X173619475Y-136467368D01*
X173412632Y-136260525D01*
X173169411Y-136098010D01*
X172899158Y-135986068D01*
X172612260Y-135929000D01*
X172319740Y-135929000D01*
X172032842Y-135986068D01*
X171762589Y-136098010D01*
X171519368Y-136260525D01*
X171312525Y-136467368D01*
X171150010Y-136710589D01*
X171038068Y-136980842D01*
X170981000Y-137267740D01*
X170840000Y-137267740D01*
X170840000Y-118678190D01*
X170896010Y-118813411D01*
X171058525Y-119056632D01*
X171265368Y-119263475D01*
X171508589Y-119425990D01*
X171778842Y-119537932D01*
X172065740Y-119595000D01*
X172358260Y-119595000D01*
X172645158Y-119537932D01*
X172915411Y-119425990D01*
X173158632Y-119263475D01*
X173365475Y-119056632D01*
X173527990Y-118813411D01*
X173639932Y-118543158D01*
X173697000Y-118256260D01*
X173697000Y-117963740D01*
X173639932Y-117676842D01*
X173527990Y-117406589D01*
X173365475Y-117163368D01*
X173158632Y-116956525D01*
X172984240Y-116840000D01*
X173158632Y-116723475D01*
X173365475Y-116516632D01*
X173527990Y-116273411D01*
X173639932Y-116003158D01*
X173697000Y-115716260D01*
X173697000Y-115423740D01*
X173639932Y-115136842D01*
X173527990Y-114866589D01*
X173365475Y-114623368D01*
X173158632Y-114416525D01*
X172984240Y-114300000D01*
X173158632Y-114183475D01*
X173365475Y-113976632D01*
X173527990Y-113733411D01*
X173639932Y-113463158D01*
X173697000Y-113176260D01*
X173697000Y-112883740D01*
X173639932Y-112596842D01*
X173527990Y-112326589D01*
X173365475Y-112083368D01*
X173233620Y-111951513D01*
X173306180Y-111929502D01*
X173416494Y-111870537D01*
X173513185Y-111791185D01*
X173592537Y-111694494D01*
X173651502Y-111584180D01*
X173687812Y-111464482D01*
X173700072Y-111340000D01*
X173697000Y-110775750D01*
X173538250Y-110617000D01*
X172339000Y-110617000D01*
X172339000Y-110637000D01*
X172085000Y-110637000D01*
X172085000Y-110617000D01*
X172065000Y-110617000D01*
X172065000Y-110363000D01*
X172085000Y-110363000D01*
X172085000Y-110343000D01*
X172339000Y-110343000D01*
X172339000Y-110363000D01*
X173538250Y-110363000D01*
X173697000Y-110204250D01*
X173700072Y-109640000D01*
X173687812Y-109515518D01*
X173651502Y-109395820D01*
X173592537Y-109285506D01*
X173513185Y-109188815D01*
X173426896Y-109118000D01*
X183949293Y-109118000D01*
X183863999Y-109187999D01*
G37*
X183863999Y-109187999D02*
X183840201Y-109216997D01*
X181098998Y-111958201D01*
X181070000Y-111981999D01*
X181046202Y-112010997D01*
X181046201Y-112010998D01*
X180975026Y-112097724D01*
X180904454Y-112229754D01*
X180860998Y-112373015D01*
X180846324Y-112522000D01*
X180850001Y-112559332D01*
X180850000Y-120843198D01*
X177580705Y-124112494D01*
X177473143Y-124055001D01*
X177606102Y-123983933D01*
X177824609Y-123804609D01*
X178003933Y-123586102D01*
X178137183Y-123336809D01*
X178219237Y-123066310D01*
X178246944Y-122785001D01*
X178219237Y-122503692D01*
X178137183Y-122233193D01*
X178003933Y-121983900D01*
X177824609Y-121765393D01*
X177606102Y-121586069D01*
X177473143Y-121515001D01*
X177606102Y-121443933D01*
X177824609Y-121264609D01*
X178003933Y-121046102D01*
X178137183Y-120796809D01*
X178219237Y-120526310D01*
X178246944Y-120245001D01*
X178219237Y-119963692D01*
X178137183Y-119693193D01*
X178003933Y-119443900D01*
X177871525Y-119282560D01*
X177959495Y-119235538D01*
X178056186Y-119156186D01*
X178135538Y-119059495D01*
X178194503Y-118949181D01*
X178230813Y-118829483D01*
X178243073Y-118705001D01*
X178243073Y-116705001D01*
X178230813Y-116580519D01*
X178194503Y-116460821D01*
X178135538Y-116350507D01*
X178056186Y-116253816D01*
X177959495Y-116174464D01*
X177849181Y-116115499D01*
X177729483Y-116079189D01*
X177605001Y-116066929D01*
X175605001Y-116066929D01*
X175480519Y-116079189D01*
X175360821Y-116115499D01*
X175250507Y-116174464D01*
X175153816Y-116253816D01*
X175074464Y-116350507D01*
X175015499Y-116460821D01*
X174979189Y-116580519D01*
X174966929Y-116705001D01*
X174966929Y-118705001D01*
X174979189Y-118829483D01*
X175015499Y-118949181D01*
X175074464Y-119059495D01*
X175153816Y-119156186D01*
X175250507Y-119235538D01*
X175338477Y-119282560D01*
X175206069Y-119443900D01*
X175072819Y-119693193D01*
X174990765Y-119963692D01*
X174963058Y-120245001D01*
X174975175Y-120368023D01*
X173479003Y-121864196D01*
X173449999Y-121887999D01*
X173394871Y-121955174D01*
X173355026Y-122003724D01*
X173324947Y-122059998D01*
X173284454Y-122135754D01*
X173240997Y-122279015D01*
X173230000Y-122390668D01*
X173230000Y-122390678D01*
X173226324Y-122428000D01*
X173230000Y-122465322D01*
X173230001Y-135598668D01*
X173226324Y-135636000D01*
X173240998Y-135784985D01*
X173284454Y-135928246D01*
X173355026Y-136060276D01*
X173385994Y-136098010D01*
X173450000Y-136176001D01*
X173478998Y-136199799D01*
X174696201Y-137417003D01*
X174719999Y-137446001D01*
X174835724Y-137540974D01*
X174967753Y-137611546D01*
X175111014Y-137655003D01*
X175222667Y-137666000D01*
X175222676Y-137666000D01*
X175259999Y-137669676D01*
X175297322Y-137666000D01*
X178807822Y-137666000D01*
X178932525Y-137852632D01*
X179139368Y-138059475D01*
X179321534Y-138181195D01*
X179204645Y-138250822D01*
X178988412Y-138445731D01*
X178814359Y-138679080D01*
X178689175Y-138941901D01*
X178644524Y-139089110D01*
X178765845Y-139319000D01*
X179959000Y-139319000D01*
X179959000Y-139299000D01*
X180213000Y-139299000D01*
X180213000Y-139319000D01*
X181406155Y-139319000D01*
X181527476Y-139089110D01*
X181482825Y-138941901D01*
X181357641Y-138679080D01*
X181183588Y-138445731D01*
X180967355Y-138250822D01*
X180850466Y-138181195D01*
X181032632Y-138059475D01*
X181239475Y-137852632D01*
X181401990Y-137609411D01*
X181513932Y-137339158D01*
X181571000Y-137052260D01*
X181571000Y-136759740D01*
X181513932Y-136472842D01*
X181401990Y-136202589D01*
X181239475Y-135959368D01*
X181032632Y-135752525D01*
X180789411Y-135590010D01*
X180519158Y-135478068D01*
X180232260Y-135421000D01*
X179939740Y-135421000D01*
X179652842Y-135478068D01*
X179382589Y-135590010D01*
X179139368Y-135752525D01*
X178932525Y-135959368D01*
X178807822Y-136146000D01*
X178078819Y-136146000D01*
X178137183Y-136036809D01*
X178219237Y-135766310D01*
X178246944Y-135485001D01*
X178219237Y-135203692D01*
X178137183Y-134933193D01*
X178077723Y-134821952D01*
X178092247Y-134817546D01*
X178224276Y-134746974D01*
X178340001Y-134652001D01*
X178363804Y-134622997D01*
X179724801Y-133262000D01*
X184185928Y-133262000D01*
X184185928Y-134962000D01*
X184198188Y-135086482D01*
X184234498Y-135206180D01*
X184293463Y-135316494D01*
X184372815Y-135413185D01*
X184469506Y-135492537D01*
X184579820Y-135551502D01*
X184652380Y-135573513D01*
X184520525Y-135705368D01*
X184358010Y-135948589D01*
X184246068Y-136218842D01*
X184189000Y-136505740D01*
X184189000Y-136798260D01*
X184246068Y-137085158D01*
X184358010Y-137355411D01*
X184520525Y-137598632D01*
X184727368Y-137805475D01*
X184901760Y-137922000D01*
X184727368Y-138038525D01*
X184520525Y-138245368D01*
X184358010Y-138488589D01*
X184246068Y-138758842D01*
X184189000Y-139045740D01*
X184189000Y-139338260D01*
X184246068Y-139625158D01*
X184358010Y-139895411D01*
X184520525Y-140138632D01*
X184727368Y-140345475D01*
X184909534Y-140467195D01*
X184792645Y-140536822D01*
X184576412Y-140731731D01*
X184402359Y-140965080D01*
X184277175Y-141227901D01*
X184232524Y-141375110D01*
X184353845Y-141605000D01*
X185547000Y-141605000D01*
X185547000Y-141585000D01*
X185801000Y-141585000D01*
X185801000Y-141605000D01*
X186994155Y-141605000D01*
X187115476Y-141375110D01*
X187070825Y-141227901D01*
X186945641Y-140965080D01*
X186771588Y-140731731D01*
X186555355Y-140536822D01*
X186438466Y-140467195D01*
X186620632Y-140345475D01*
X186827475Y-140138632D01*
X186989990Y-139895411D01*
X187101932Y-139625158D01*
X187159000Y-139338260D01*
X187159000Y-139045740D01*
X187115209Y-138825592D01*
X190122003Y-135818799D01*
X190151001Y-135795001D01*
X190245974Y-135679276D01*
X190316546Y-135547247D01*
X190360003Y-135403986D01*
X190371000Y-135292333D01*
X190371000Y-135292325D01*
X190374676Y-135255000D01*
X190371000Y-135217675D01*
X190371000Y-133164711D01*
X190414937Y-133120774D01*
X190528205Y-132951256D01*
X190606226Y-132762898D01*
X190646000Y-132562939D01*
X190646000Y-132359061D01*
X190606226Y-132159102D01*
X190528205Y-131970744D01*
X190414937Y-131801226D01*
X190270774Y-131657063D01*
X190101256Y-131543795D01*
X189912898Y-131465774D01*
X189712939Y-131426000D01*
X189509061Y-131426000D01*
X189309102Y-131465774D01*
X189120744Y-131543795D01*
X189015098Y-131614385D01*
X188873774Y-131473061D01*
X188704256Y-131359793D01*
X188515898Y-131281772D01*
X188315939Y-131241998D01*
X188112061Y-131241998D01*
X187912102Y-131281772D01*
X187723744Y-131359793D01*
X187554226Y-131473061D01*
X187410063Y-131617224D01*
X187296795Y-131786742D01*
X187218774Y-131975100D01*
X187179000Y-132175059D01*
X187179000Y-132378937D01*
X187218774Y-132578896D01*
X187296795Y-132767254D01*
X187410063Y-132936772D01*
X187454000Y-132980709D01*
X187454001Y-133797196D01*
X187162072Y-134089125D01*
X187162072Y-133262000D01*
X187149812Y-133137518D01*
X187113502Y-133017820D01*
X187054537Y-132907506D01*
X186975185Y-132810815D01*
X186878494Y-132731463D01*
X186768180Y-132672498D01*
X186648482Y-132636188D01*
X186524000Y-132623928D01*
X184824000Y-132623928D01*
X184699518Y-132636188D01*
X184579820Y-132672498D01*
X184469506Y-132731463D01*
X184372815Y-132810815D01*
X184293463Y-132907506D01*
X184234498Y-133017820D01*
X184198188Y-133137518D01*
X184185928Y-133262000D01*
X179724801Y-133262000D01*
X189614004Y-123372798D01*
X189643001Y-123349001D01*
X189669332Y-123316917D01*
X189737974Y-123233277D01*
X189808546Y-123101247D01*
X189820156Y-123062974D01*
X189852003Y-122957986D01*
X189863000Y-122846333D01*
X189863000Y-122846323D01*
X189866676Y-122809000D01*
X189863000Y-122771677D01*
X189863000Y-118551801D01*
X194248060Y-114166742D01*
X194241928Y-114228999D01*
X194241928Y-114879001D01*
X194258992Y-115052255D01*
X194309528Y-115218851D01*
X194391595Y-115372387D01*
X194502038Y-115506962D01*
X194589816Y-115579000D01*
X194502038Y-115651038D01*
X194391595Y-115785613D01*
X194309528Y-115939149D01*
X194258992Y-116105745D01*
X194241928Y-116278999D01*
X194241928Y-116929001D01*
X194258992Y-117102255D01*
X194309528Y-117268851D01*
X194316780Y-117282419D01*
X194052998Y-117546201D01*
X194024000Y-117569999D01*
X194000202Y-117598997D01*
X194000201Y-117598998D01*
X193929026Y-117685724D01*
X193858454Y-117817754D01*
X193846344Y-117857677D01*
X193819931Y-117944754D01*
X193814998Y-117961015D01*
X193800324Y-118110000D01*
X193804001Y-118147333D01*
X193804000Y-132623928D01*
X193714000Y-132623928D01*
X193589518Y-132636188D01*
X193469820Y-132672498D01*
X193359506Y-132731463D01*
X193262815Y-132810815D01*
X193183463Y-132907506D01*
X193124498Y-133017820D01*
X193088188Y-133137518D01*
X193075928Y-133262000D01*
X193075928Y-134962000D01*
X193088188Y-135086482D01*
X193124498Y-135206180D01*
X193183463Y-135316494D01*
X193262815Y-135413185D01*
X193359506Y-135492537D01*
X193469820Y-135551502D01*
X193550466Y-135575966D01*
X193466412Y-135651731D01*
X193292359Y-135885080D01*
X193167175Y-136147901D01*
X193122524Y-136295110D01*
X193243845Y-136525000D01*
X194437000Y-136525000D01*
X194437000Y-136505000D01*
X194691000Y-136505000D01*
X194691000Y-136525000D01*
X194711000Y-136525000D01*
X194711000Y-136779000D01*
X194691000Y-136779000D01*
X194691000Y-136799000D01*
X194437000Y-136799000D01*
X194437000Y-136779000D01*
X193243845Y-136779000D01*
X193122524Y-137008890D01*
X193167175Y-137156099D01*
X193292359Y-137418920D01*
X193466412Y-137652269D01*
X193682645Y-137847178D01*
X193799534Y-137916805D01*
X193617368Y-138038525D01*
X193410525Y-138245368D01*
X193248010Y-138488589D01*
X193136068Y-138758842D01*
X193079000Y-139045740D01*
X193079000Y-139338260D01*
X193136068Y-139625158D01*
X193248010Y-139895411D01*
X193410525Y-140138632D01*
X193617368Y-140345475D01*
X193791760Y-140462000D01*
X193617368Y-140578525D01*
X193410525Y-140785368D01*
X193248010Y-141028589D01*
X193136068Y-141298842D01*
X193079000Y-141585740D01*
X193079000Y-141878260D01*
X193136068Y-142165158D01*
X193248010Y-142435411D01*
X193410525Y-142678632D01*
X193617368Y-142885475D01*
X193860589Y-143047990D01*
X194130842Y-143159932D01*
X194417740Y-143217000D01*
X194710260Y-143217000D01*
X194997158Y-143159932D01*
X195267411Y-143047990D01*
X195510632Y-142885475D01*
X195717475Y-142678632D01*
X195879990Y-142435411D01*
X195991932Y-142165158D01*
X196049000Y-141878260D01*
X196049000Y-141834890D01*
X197694524Y-141834890D01*
X197739175Y-141982099D01*
X197864359Y-142244920D01*
X198038412Y-142478269D01*
X198254645Y-142673178D01*
X198504748Y-142822157D01*
X198779109Y-142919481D01*
X199009000Y-142798814D01*
X199009000Y-141605000D01*
X199263000Y-141605000D01*
X199263000Y-142798814D01*
X199492891Y-142919481D01*
X199767252Y-142822157D01*
X200017355Y-142673178D01*
X200233588Y-142478269D01*
X200407641Y-142244920D01*
X200532825Y-141982099D01*
X200577476Y-141834890D01*
X200456155Y-141605000D01*
X199263000Y-141605000D01*
X199009000Y-141605000D01*
X197815845Y-141605000D01*
X197694524Y-141834890D01*
X196049000Y-141834890D01*
X196049000Y-141585740D01*
X196005210Y-141365592D01*
X196700016Y-140670786D01*
X196729013Y-140646989D01*
X196755344Y-140614905D01*
X196823986Y-140531265D01*
X196894558Y-140399235D01*
X196898014Y-140387843D01*
X196938015Y-140255974D01*
X196949012Y-140144321D01*
X196949012Y-140144311D01*
X196952688Y-140106989D01*
X196949012Y-140069666D01*
X196949012Y-138088000D01*
X197647928Y-138088000D01*
X197647928Y-139788000D01*
X197660188Y-139912482D01*
X197696498Y-140032180D01*
X197755463Y-140142494D01*
X197834815Y-140239185D01*
X197931506Y-140318537D01*
X198041820Y-140377502D01*
X198122466Y-140401966D01*
X198038412Y-140477731D01*
X197864359Y-140711080D01*
X197739175Y-140973901D01*
X197694524Y-141121110D01*
X197815845Y-141351000D01*
X199009000Y-141351000D01*
X199009000Y-141331000D01*
X199263000Y-141331000D01*
X199263000Y-141351000D01*
X200456155Y-141351000D01*
X200577476Y-141121110D01*
X200532825Y-140973901D01*
X200407641Y-140711080D01*
X200233588Y-140477731D01*
X200149534Y-140401966D01*
X200230180Y-140377502D01*
X200340494Y-140318537D01*
X200437185Y-140239185D01*
X200516537Y-140142494D01*
X200575502Y-140032180D01*
X200611812Y-139912482D01*
X200624072Y-139788000D01*
X200624072Y-138088000D01*
X200611812Y-137963518D01*
X200575502Y-137843820D01*
X200516537Y-137733506D01*
X200437185Y-137636815D01*
X200340494Y-137557463D01*
X200230180Y-137498498D01*
X200110482Y-137462188D01*
X199986000Y-137449928D01*
X198286000Y-137449928D01*
X198161518Y-137462188D01*
X198041820Y-137498498D01*
X197931506Y-137557463D01*
X197834815Y-137636815D01*
X197755463Y-137733506D01*
X197696498Y-137843820D01*
X197660188Y-137963518D01*
X197647928Y-138088000D01*
X196949012Y-138088000D01*
X196949012Y-123835791D01*
X197578459Y-123206344D01*
X197580027Y-123209277D01*
X197675000Y-123325002D01*
X197790725Y-123419975D01*
X197922754Y-123490547D01*
X198032844Y-123523942D01*
X198066069Y-123586102D01*
X198245393Y-123804609D01*
X198463900Y-123983933D01*
X198596859Y-124055001D01*
X198463900Y-124126069D01*
X198245393Y-124305393D01*
X198066069Y-124523900D01*
X197932819Y-124773193D01*
X197850765Y-125043692D01*
X197823058Y-125325001D01*
X197850765Y-125606310D01*
X197932819Y-125876809D01*
X198066069Y-126126102D01*
X198245393Y-126344609D01*
X198463900Y-126523933D01*
X198596859Y-126595001D01*
X198463900Y-126666069D01*
X198245393Y-126845393D01*
X198066069Y-127063900D01*
X197932819Y-127313193D01*
X197850765Y-127583692D01*
X197823058Y-127865001D01*
X197850765Y-128146310D01*
X197932819Y-128416809D01*
X198066069Y-128666102D01*
X198245393Y-128884609D01*
X198463900Y-129063933D01*
X198596859Y-129135001D01*
X198463900Y-129206069D01*
X198245393Y-129385393D01*
X198066069Y-129603900D01*
X197932819Y-129853193D01*
X197850765Y-130123692D01*
X197823058Y-130405001D01*
X197850765Y-130686310D01*
X197932819Y-130956809D01*
X198066069Y-131206102D01*
X198245393Y-131424609D01*
X198463900Y-131603933D01*
X198593346Y-131673123D01*
X198575774Y-131680571D01*
X198342339Y-131839328D01*
X198144362Y-132040576D01*
X197989450Y-132276580D01*
X197883557Y-132538271D01*
X197873097Y-132595962D01*
X197995086Y-132818001D01*
X199338001Y-132818001D01*
X199338001Y-132798001D01*
X199592001Y-132798001D01*
X199592001Y-132818001D01*
X199612001Y-132818001D01*
X199612001Y-133072001D01*
X199592001Y-133072001D01*
X199592001Y-133092001D01*
X199338001Y-133092001D01*
X199338001Y-133072001D01*
X197995086Y-133072001D01*
X197873097Y-133294040D01*
X197883557Y-133351731D01*
X197989450Y-133613422D01*
X198144362Y-133849426D01*
X198342339Y-134050674D01*
X198575774Y-134209431D01*
X198593346Y-134216879D01*
X198463900Y-134286069D01*
X198245393Y-134465393D01*
X198066069Y-134683900D01*
X197932819Y-134933193D01*
X197850765Y-135203692D01*
X197823058Y-135485001D01*
X197850765Y-135766310D01*
X197932819Y-136036809D01*
X198066069Y-136286102D01*
X198245393Y-136504609D01*
X198463900Y-136683933D01*
X198713193Y-136817183D01*
X198983692Y-136899237D01*
X199194509Y-136920001D01*
X199735493Y-136920001D01*
X199946310Y-136899237D01*
X200216809Y-136817183D01*
X200466102Y-136683933D01*
X200684609Y-136504609D01*
X200863933Y-136286102D01*
X200997183Y-136036809D01*
X201016001Y-135974774D01*
X201016001Y-143866000D01*
X173680896Y-143866000D01*
X173767185Y-143795185D01*
X173846537Y-143698494D01*
X173905502Y-143588180D01*
X173941812Y-143468482D01*
X173954072Y-143344000D01*
X173954072Y-141644000D01*
X173941812Y-141519518D01*
X173905502Y-141399820D01*
X173846537Y-141289506D01*
X173767185Y-141192815D01*
X173697956Y-141136000D01*
X178597928Y-141136000D01*
X178597928Y-142836000D01*
X178610188Y-142960482D01*
X178646498Y-143080180D01*
X178705463Y-143190494D01*
X178784815Y-143287185D01*
X178881506Y-143366537D01*
X178991820Y-143425502D01*
X179111518Y-143461812D01*
X179236000Y-143474072D01*
X180936000Y-143474072D01*
X181060482Y-143461812D01*
X181180180Y-143425502D01*
X181290494Y-143366537D01*
X181387185Y-143287185D01*
X181466537Y-143190494D01*
X181525502Y-143080180D01*
X181561812Y-142960482D01*
X181574072Y-142836000D01*
X181574072Y-142088890D01*
X184232524Y-142088890D01*
X184277175Y-142236099D01*
X184402359Y-142498920D01*
X184576412Y-142732269D01*
X184792645Y-142927178D01*
X185042748Y-143076157D01*
X185317109Y-143173481D01*
X185547000Y-143052814D01*
X185547000Y-141859000D01*
X185801000Y-141859000D01*
X185801000Y-143052814D01*
X186030891Y-143173481D01*
X186305252Y-143076157D01*
X186555355Y-142927178D01*
X186771588Y-142732269D01*
X186945641Y-142498920D01*
X187070825Y-142236099D01*
X187115476Y-142088890D01*
X186994155Y-141859000D01*
X185801000Y-141859000D01*
X185547000Y-141859000D01*
X184353845Y-141859000D01*
X184232524Y-142088890D01*
X181574072Y-142088890D01*
X181574072Y-141136000D01*
X181561812Y-141011518D01*
X181525502Y-140891820D01*
X181466537Y-140781506D01*
X181387185Y-140684815D01*
X181290494Y-140605463D01*
X181180180Y-140546498D01*
X181099534Y-140522034D01*
X181183588Y-140446269D01*
X181357641Y-140212920D01*
X181482825Y-139950099D01*
X181527476Y-139802890D01*
X181406155Y-139573000D01*
X180213000Y-139573000D01*
X180213000Y-139593000D01*
X179959000Y-139593000D01*
X179959000Y-139573000D01*
X178765845Y-139573000D01*
X178644524Y-139802890D01*
X178689175Y-139950099D01*
X178814359Y-140212920D01*
X178988412Y-140446269D01*
X179072466Y-140522034D01*
X178991820Y-140546498D01*
X178881506Y-140605463D01*
X178784815Y-140684815D01*
X178705463Y-140781506D01*
X178646498Y-140891820D01*
X178610188Y-141011518D01*
X178597928Y-141136000D01*
X173697956Y-141136000D01*
X173670494Y-141113463D01*
X173560180Y-141054498D01*
X173479534Y-141030034D01*
X173563588Y-140954269D01*
X173737641Y-140720920D01*
X173862825Y-140458099D01*
X173907476Y-140310890D01*
X173786155Y-140081000D01*
X172593000Y-140081000D01*
X172593000Y-140101000D01*
X172339000Y-140101000D01*
X172339000Y-140081000D01*
X171145845Y-140081000D01*
X171024524Y-140310890D01*
X171069175Y-140458099D01*
X171194359Y-140720920D01*
X171368412Y-140954269D01*
X171452466Y-141030034D01*
X171371820Y-141054498D01*
X171261506Y-141113463D01*
X171164815Y-141192815D01*
X171085463Y-141289506D01*
X171026498Y-141399820D01*
X170990188Y-141519518D01*
X170977928Y-141644000D01*
X170977928Y-143344000D01*
X170990188Y-143468482D01*
X171026498Y-143588180D01*
X171085463Y-143698494D01*
X171164815Y-143795185D01*
X171251104Y-143866000D01*
X170840000Y-143866000D01*
X170840000Y-137267740D01*
X170981000Y-137267740D01*
X170981000Y-137560260D01*
X171038068Y-137847158D01*
X171150010Y-138117411D01*
X171312525Y-138360632D01*
X171519368Y-138567475D01*
X171701534Y-138689195D01*
X171584645Y-138758822D01*
X171368412Y-138953731D01*
X171194359Y-139187080D01*
X171069175Y-139449901D01*
X171024524Y-139597110D01*
X171145845Y-139827000D01*
X172339000Y-139827000D01*
X172339000Y-139807000D01*
X172593000Y-139807000D01*
X172593000Y-139827000D01*
X173786155Y-139827000D01*
X173907476Y-139597110D01*
X173862825Y-139449901D01*
X173737641Y-139187080D01*
X173563588Y-138953731D01*
X173347355Y-138758822D01*
X173230466Y-138689195D01*
X173412632Y-138567475D01*
X173619475Y-138360632D01*
X173781990Y-138117411D01*
X173893932Y-137847158D01*
X173951000Y-137560260D01*
X173951000Y-137267740D01*
X173893932Y-136980842D01*
X173781990Y-136710589D01*
X173619475Y-136467368D01*
X173412632Y-136260525D01*
X173169411Y-136098010D01*
X172899158Y-135986068D01*
X172612260Y-135929000D01*
X172319740Y-135929000D01*
X172032842Y-135986068D01*
X171762589Y-136098010D01*
X171519368Y-136260525D01*
X171312525Y-136467368D01*
X171150010Y-136710589D01*
X171038068Y-136980842D01*
X170981000Y-137267740D01*
X170840000Y-137267740D01*
X170840000Y-118678190D01*
X170896010Y-118813411D01*
X171058525Y-119056632D01*
X171265368Y-119263475D01*
X171508589Y-119425990D01*
X171778842Y-119537932D01*
X172065740Y-119595000D01*
X172358260Y-119595000D01*
X172645158Y-119537932D01*
X172915411Y-119425990D01*
X173158632Y-119263475D01*
X173365475Y-119056632D01*
X173527990Y-118813411D01*
X173639932Y-118543158D01*
X173697000Y-118256260D01*
X173697000Y-117963740D01*
X173639932Y-117676842D01*
X173527990Y-117406589D01*
X173365475Y-117163368D01*
X173158632Y-116956525D01*
X172984240Y-116840000D01*
X173158632Y-116723475D01*
X173365475Y-116516632D01*
X173527990Y-116273411D01*
X173639932Y-116003158D01*
X173697000Y-115716260D01*
X173697000Y-115423740D01*
X173639932Y-115136842D01*
X173527990Y-114866589D01*
X173365475Y-114623368D01*
X173158632Y-114416525D01*
X172984240Y-114300000D01*
X173158632Y-114183475D01*
X173365475Y-113976632D01*
X173527990Y-113733411D01*
X173639932Y-113463158D01*
X173697000Y-113176260D01*
X173697000Y-112883740D01*
X173639932Y-112596842D01*
X173527990Y-112326589D01*
X173365475Y-112083368D01*
X173233620Y-111951513D01*
X173306180Y-111929502D01*
X173416494Y-111870537D01*
X173513185Y-111791185D01*
X173592537Y-111694494D01*
X173651502Y-111584180D01*
X173687812Y-111464482D01*
X173700072Y-111340000D01*
X173697000Y-110775750D01*
X173538250Y-110617000D01*
X172339000Y-110617000D01*
X172339000Y-110637000D01*
X172085000Y-110637000D01*
X172085000Y-110617000D01*
X172065000Y-110617000D01*
X172065000Y-110363000D01*
X172085000Y-110363000D01*
X172085000Y-110343000D01*
X172339000Y-110343000D01*
X172339000Y-110363000D01*
X173538250Y-110363000D01*
X173697000Y-110204250D01*
X173700072Y-109640000D01*
X173687812Y-109515518D01*
X173651502Y-109395820D01*
X173592537Y-109285506D01*
X173513185Y-109188815D01*
X173426896Y-109118000D01*
X183949293Y-109118000D01*
X183863999Y-109187999D01*
G36*
X201016000Y-117215226D02*
G01*
X200997183Y-117153193D01*
X200863933Y-116903900D01*
X200684609Y-116685393D01*
X200466102Y-116506069D01*
X200216809Y-116372819D01*
X199946310Y-116290765D01*
X199735493Y-116270001D01*
X199194509Y-116270001D01*
X198983692Y-116290765D01*
X198713193Y-116372819D01*
X198463900Y-116506069D01*
X198245393Y-116685393D01*
X198066069Y-116903900D01*
X197932819Y-117153193D01*
X197850765Y-117423692D01*
X197823058Y-117705001D01*
X197850765Y-117986310D01*
X197910842Y-118184359D01*
X195324000Y-120771201D01*
X195324000Y-118424801D01*
X195931730Y-117817072D01*
X196030001Y-117817072D01*
X196203255Y-117800008D01*
X196369851Y-117749472D01*
X196523387Y-117667405D01*
X196657962Y-117556962D01*
X196768405Y-117422387D01*
X196850472Y-117268851D01*
X196901008Y-117102255D01*
X196918072Y-116929001D01*
X196918072Y-116278999D01*
X196901008Y-116105745D01*
X196850472Y-115939149D01*
X196768405Y-115785613D01*
X196657962Y-115651038D01*
X196570184Y-115579000D01*
X196657962Y-115506962D01*
X196768405Y-115372387D01*
X196850472Y-115218851D01*
X196901008Y-115052255D01*
X196918072Y-114879001D01*
X196918072Y-114228999D01*
X196901008Y-114055745D01*
X196850472Y-113889149D01*
X196768405Y-113735613D01*
X196657962Y-113601038D01*
X196523387Y-113490595D01*
X196369851Y-113408528D01*
X196340000Y-113399473D01*
X196340000Y-113038178D01*
X196526632Y-112913475D01*
X196733475Y-112706632D01*
X196855195Y-112524466D01*
X196924822Y-112641355D01*
X197119731Y-112857588D01*
X197353080Y-113031641D01*
X197615901Y-113156825D01*
X197763110Y-113201476D01*
X197993000Y-113080155D01*
X197993000Y-111887000D01*
X198247000Y-111887000D01*
X198247000Y-113080155D01*
X198476890Y-113201476D01*
X198624099Y-113156825D01*
X198886920Y-113031641D01*
X199120269Y-112857588D01*
X199315178Y-112641355D01*
X199464157Y-112391252D01*
X199561481Y-112116891D01*
X199440814Y-111887000D01*
X198247000Y-111887000D01*
X197993000Y-111887000D01*
X197973000Y-111887000D01*
X197973000Y-111633000D01*
X197993000Y-111633000D01*
X197993000Y-110439845D01*
X198247000Y-110439845D01*
X198247000Y-111633000D01*
X199440814Y-111633000D01*
X199561481Y-111403109D01*
X199464157Y-111128748D01*
X199315178Y-110878645D01*
X199120269Y-110662412D01*
X198886920Y-110488359D01*
X198624099Y-110363175D01*
X198476890Y-110318524D01*
X198247000Y-110439845D01*
X197993000Y-110439845D01*
X197763110Y-110318524D01*
X197615901Y-110363175D01*
X197353080Y-110488359D01*
X197119731Y-110662412D01*
X196924822Y-110878645D01*
X196855195Y-110995534D01*
X196733475Y-110813368D01*
X196526632Y-110606525D01*
X196283411Y-110444010D01*
X196013158Y-110332068D01*
X195726260Y-110275000D01*
X195433740Y-110275000D01*
X195146842Y-110332068D01*
X194876589Y-110444010D01*
X194633368Y-110606525D01*
X194426525Y-110813368D01*
X194310000Y-110987760D01*
X194193475Y-110813368D01*
X193986632Y-110606525D01*
X193743411Y-110444010D01*
X193473158Y-110332068D01*
X193186260Y-110275000D01*
X192893740Y-110275000D01*
X192673592Y-110318790D01*
X191571804Y-109217003D01*
X191548001Y-109187999D01*
X191462707Y-109118000D01*
X201016000Y-109118000D01*
X201016000Y-117215226D01*
G37*
X201016000Y-117215226D02*
X200997183Y-117153193D01*
X200863933Y-116903900D01*
X200684609Y-116685393D01*
X200466102Y-116506069D01*
X200216809Y-116372819D01*
X199946310Y-116290765D01*
X199735493Y-116270001D01*
X199194509Y-116270001D01*
X198983692Y-116290765D01*
X198713193Y-116372819D01*
X198463900Y-116506069D01*
X198245393Y-116685393D01*
X198066069Y-116903900D01*
X197932819Y-117153193D01*
X197850765Y-117423692D01*
X197823058Y-117705001D01*
X197850765Y-117986310D01*
X197910842Y-118184359D01*
X195324000Y-120771201D01*
X195324000Y-118424801D01*
X195931730Y-117817072D01*
X196030001Y-117817072D01*
X196203255Y-117800008D01*
X196369851Y-117749472D01*
X196523387Y-117667405D01*
X196657962Y-117556962D01*
X196768405Y-117422387D01*
X196850472Y-117268851D01*
X196901008Y-117102255D01*
X196918072Y-116929001D01*
X196918072Y-116278999D01*
X196901008Y-116105745D01*
X196850472Y-115939149D01*
X196768405Y-115785613D01*
X196657962Y-115651038D01*
X196570184Y-115579000D01*
X196657962Y-115506962D01*
X196768405Y-115372387D01*
X196850472Y-115218851D01*
X196901008Y-115052255D01*
X196918072Y-114879001D01*
X196918072Y-114228999D01*
X196901008Y-114055745D01*
X196850472Y-113889149D01*
X196768405Y-113735613D01*
X196657962Y-113601038D01*
X196523387Y-113490595D01*
X196369851Y-113408528D01*
X196340000Y-113399473D01*
X196340000Y-113038178D01*
X196526632Y-112913475D01*
X196733475Y-112706632D01*
X196855195Y-112524466D01*
X196924822Y-112641355D01*
X197119731Y-112857588D01*
X197353080Y-113031641D01*
X197615901Y-113156825D01*
X197763110Y-113201476D01*
X197993000Y-113080155D01*
X197993000Y-111887000D01*
X198247000Y-111887000D01*
X198247000Y-113080155D01*
X198476890Y-113201476D01*
X198624099Y-113156825D01*
X198886920Y-113031641D01*
X199120269Y-112857588D01*
X199315178Y-112641355D01*
X199464157Y-112391252D01*
X199561481Y-112116891D01*
X199440814Y-111887000D01*
X198247000Y-111887000D01*
X197993000Y-111887000D01*
X197973000Y-111887000D01*
X197973000Y-111633000D01*
X197993000Y-111633000D01*
X197993000Y-110439845D01*
X198247000Y-110439845D01*
X198247000Y-111633000D01*
X199440814Y-111633000D01*
X199561481Y-111403109D01*
X199464157Y-111128748D01*
X199315178Y-110878645D01*
X199120269Y-110662412D01*
X198886920Y-110488359D01*
X198624099Y-110363175D01*
X198476890Y-110318524D01*
X198247000Y-110439845D01*
X197993000Y-110439845D01*
X197763110Y-110318524D01*
X197615901Y-110363175D01*
X197353080Y-110488359D01*
X197119731Y-110662412D01*
X196924822Y-110878645D01*
X196855195Y-110995534D01*
X196733475Y-110813368D01*
X196526632Y-110606525D01*
X196283411Y-110444010D01*
X196013158Y-110332068D01*
X195726260Y-110275000D01*
X195433740Y-110275000D01*
X195146842Y-110332068D01*
X194876589Y-110444010D01*
X194633368Y-110606525D01*
X194426525Y-110813368D01*
X194310000Y-110987760D01*
X194193475Y-110813368D01*
X193986632Y-110606525D01*
X193743411Y-110444010D01*
X193473158Y-110332068D01*
X193186260Y-110275000D01*
X192893740Y-110275000D01*
X192673592Y-110318790D01*
X191571804Y-109217003D01*
X191548001Y-109187999D01*
X191462707Y-109118000D01*
X201016000Y-109118000D01*
X201016000Y-117215226D01*
%TD*%
M02*
