M48
INCH,TZ
T1C0.0157
T2C0.0394
%
G90
G05
T1
X67900Y-48400
X72400Y-51200
X74100Y-52078
X74650Y-52150
X75600Y-48900
X76000Y-50900
T2
X73000Y-44000
X74000Y-44000
X75000Y-44000
X76000Y-44000
X77000Y-44000
X78000Y-44000
X76600Y-52800
X76600Y-53800
X76600Y-54800
X76600Y-55800
X70900Y-53900
X70900Y-54900
X70900Y-55900
X69530Y-46341
X69530Y-47341
X69530Y-48341
X69530Y-49341
X69530Y-50341
X69530Y-51341
X69530Y-52341
X69530Y-53341
X78530Y-46341
X78530Y-47341
X78530Y-48341
X78530Y-49341
X78530Y-50341
X78530Y-51341
X78530Y-52341
X78530Y-53341
X67900Y-54100
X67900Y-55100
X67900Y-56100
X78400Y-54700
X78400Y-55700
X73100Y-52800
X73100Y-53800
X73100Y-54800
X73100Y-55800
X67800Y-43500
X67800Y-44500
X67800Y-45500
X67800Y-46500
T0
M30
