0
SECTION
2
HEADER
9
$INSUNITS
70
1
0
ENDSEC
0
SECTION
2
TABLES
0
TABLE
2
LAYER
0
ENDTAB
0
ENDSEC
0
SECTION
2
ENTITIES
0
LINE
8
front_outsideCutPath
10
0
20
31
11
0
21
22.0625
0
LINE
8
front_outsideCutPath
10
0
20
22.0625
11
3
21
22.0625
0
LINE
8
front_outsideCutPath
10
3
20
22.0625
11
3
21
11.9375
0
LINE
8
front_outsideCutPath
10
3
20
11.9375
11
0
21
11.9375
0
LINE
8
front_outsideCutPath
10
0
20
11.9375
11
0
21
3
0
LINE
8
front_outsideCutPath
10
0
20
3
11
16.3125
21
3
0
LINE
8
front_outsideCutPath
10
16.3125
20
3
11
16.3125
21
6
0
LINE
8
front_outsideCutPath
10
16.3125
20
6
11
26.4375
21
6
0
LINE
8
front_outsideCutPath
10
26.4375
20
6
11
26.4375
21
3
0
LINE
8
front_outsideCutPath
10
26.4375
20
3
11
36.5625
21
3
0
LINE
8
front_outsideCutPath
10
36.5625
20
3
11
36.5625
21
6
0
LINE
8
front_outsideCutPath
10
36.5625
20
6
11
46.6875
21
6
0
LINE
8
front_outsideCutPath
10
46.6875
20
6
11
46.6875
21
3
0
LINE
8
front_outsideCutPath
10
46.6875
20
3
11
56.8125
21
3
0
LINE
8
front_outsideCutPath
10
56.8125
20
3
11
63
21
3
0
LINE
8
front_outsideCutPath
10
63
20
3
11
63
21
11.9375
0
LINE
8
front_outsideCutPath
10
63
20
11.9375
11
60
21
11.9375
0
LINE
8
front_outsideCutPath
10
60
20
11.9375
11
60
21
22.0625
0
LINE
8
front_outsideCutPath
10
60
20
22.0625
11
63
21
22.0625
0
LINE
8
front_outsideCutPath
10
63
20
22.0625
11
63
21
31
0
LINE
8
front_outsideCutPath
10
63
20
31
11
46.6875
21
31
0
LINE
8
front_outsideCutPath
10
46.6875
20
31
11
46.6875
21
28
0
LINE
8
front_outsideCutPath
10
46.6875
20
28
11
36.5625
21
28
0
LINE
8
front_outsideCutPath
10
36.5625
20
28
11
36.5625
21
31
0
LINE
8
front_outsideCutPath
10
36.5625
20
31
11
26.4375
21
31
0
LINE
8
front_outsideCutPath
10
26.4375
20
31
11
26.4375
21
28
0
LINE
8
front_outsideCutPath
10
26.4375
20
28
11
16.3125
21
28
0
LINE
8
front_outsideCutPath
10
16.3125
20
28
11
16.3125
21
31
0
LINE
8
front_outsideCutPath
10
16.3125
20
31
11
6.1875
21
31
0
LINE
8
front_outsideCutPath
10
6.1875
20
31
11
0
21
31
0
LINE
8
left_outsideCutPath
10
69
20
31
11
69
21
22.0625
0
LINE
8
left_outsideCutPath
10
69
20
22.0625
11
66
21
22.0625
0
LINE
8
left_outsideCutPath
10
66
20
22.0625
11
66
21
11.9375
0
LINE
8
left_outsideCutPath
10
66
20
11.9375
11
69
21
11.9375
0
LINE
8
left_outsideCutPath
10
69
20
11.9375
11
69
21
3
0
LINE
8
left_outsideCutPath
10
69
20
3
11
73.3125
21
3
0
LINE
8
left_outsideCutPath
10
73.3125
20
3
11
73.3125
21
6
0
LINE
8
left_outsideCutPath
10
73.3125
20
6
11
83.4375
21
6
0
LINE
8
left_outsideCutPath
10
83.4375
20
6
11
83.4375
21
3
0
LINE
8
left_outsideCutPath
10
83.4375
20
3
11
93.5625
21
3
0
LINE
8
left_outsideCutPath
10
93.5625
20
3
11
93.5625
21
6
0
LINE
8
left_outsideCutPath
10
93.5625
20
6
11
103.6875
21
6
0
LINE
8
left_outsideCutPath
10
103.6875
20
6
11
103.6875
21
3
0
LINE
8
left_outsideCutPath
10
103.6875
20
3
11
108
21
3
0
LINE
8
left_outsideCutPath
10
108
20
3
11
108
21
11.9375
0
LINE
8
left_outsideCutPath
10
108
20
11.9375
11
111
21
11.9375
0
LINE
8
left_outsideCutPath
10
111
20
11.9375
11
111
21
22.0625
0
LINE
8
left_outsideCutPath
10
111
20
22.0625
11
108
21
22.0625
0
LINE
8
left_outsideCutPath
10
108
20
22.0625
11
108
21
31
0
LINE
8
left_outsideCutPath
10
108
20
31
11
103.6875
21
31
0
LINE
8
left_outsideCutPath
10
103.6875
20
31
11
103.6875
21
28
0
LINE
8
left_outsideCutPath
10
103.6875
20
28
11
93.5625
21
28
0
LINE
8
left_outsideCutPath
10
93.5625
20
28
11
93.5625
21
31
0
LINE
8
left_outsideCutPath
10
93.5625
20
31
11
83.4375
21
31
0
LINE
8
left_outsideCutPath
10
83.4375
20
31
11
83.4375
21
28
0
LINE
8
left_outsideCutPath
10
83.4375
20
28
11
73.3125
21
28
0
LINE
8
left_outsideCutPath
10
73.3125
20
28
11
73.3125
21
31
0
LINE
8
left_outsideCutPath
10
73.3125
20
31
11
69
21
31
0
LINE
8
top_outsideCutPath
10
117
20
45
11
117
21
40.6875
0
LINE
8
top_outsideCutPath
10
117
20
40.6875
11
114
21
40.6875
0
LINE
8
top_outsideCutPath
10
114
20
40.6875
11
114
21
30.5625
0
LINE
8
top_outsideCutPath
10
114
20
30.5625
11
117
21
30.5625
0
LINE
8
top_outsideCutPath
10
117
20
30.5625
11
117
21
20.4375
0
LINE
8
top_outsideCutPath
10
117
20
20.4375
11
114
21
20.4375
0
LINE
8
top_outsideCutPath
10
114
20
20.4375
11
114
21
10.3125
0
LINE
8
top_outsideCutPath
10
114
20
10.3125
11
117
21
10.3125
0
LINE
8
top_outsideCutPath
10
117
20
10.3125
11
117
21
6
0
LINE
8
top_outsideCutPath
10
117
20
6
11
130.3125
21
6
0
LINE
8
top_outsideCutPath
10
130.3125
20
6
11
130.3125
21
3
0
LINE
8
top_outsideCutPath
10
130.3125
20
3
11
140.4375
21
3
0
LINE
8
top_outsideCutPath
10
140.4375
20
3
11
140.4375
21
6
0
LINE
8
top_outsideCutPath
10
140.4375
20
6
11
150.5625
21
6
0
LINE
8
top_outsideCutPath
10
150.5625
20
6
11
150.5625
21
3
0
LINE
8
top_outsideCutPath
10
150.5625
20
3
11
160.6875
21
3
0
LINE
8
top_outsideCutPath
10
160.6875
20
3
11
160.6875
21
6
0
LINE
8
top_outsideCutPath
10
160.6875
20
6
11
170.8125
21
6
0
LINE
8
top_outsideCutPath
10
170.8125
20
6
11
174
21
6
0
LINE
8
top_outsideCutPath
10
174
20
6
11
174
21
10.3125
0
LINE
8
top_outsideCutPath
10
174
20
10.3125
11
177
21
10.3125
0
LINE
8
top_outsideCutPath
10
177
20
10.3125
11
177
21
20.4375
0
LINE
8
top_outsideCutPath
10
177
20
20.4375
11
174
21
20.4375
0
LINE
8
top_outsideCutPath
10
174
20
20.4375
11
174
21
30.5625
0
LINE
8
top_outsideCutPath
10
174
20
30.5625
11
177
21
30.5625
0
LINE
8
top_outsideCutPath
10
177
20
30.5625
11
177
21
40.6875
0
LINE
8
top_outsideCutPath
10
177
20
40.6875
11
174
21
40.6875
0
LINE
8
top_outsideCutPath
10
174
20
40.6875
11
174
21
45
0
LINE
8
top_outsideCutPath
10
174
20
45
11
160.6875
21
45
0
LINE
8
top_outsideCutPath
10
160.6875
20
45
11
160.6875
21
48
0
LINE
8
top_outsideCutPath
10
160.6875
20
48
11
150.5625
21
48
0
LINE
8
top_outsideCutPath
10
150.5625
20
48
11
150.5625
21
45
0
LINE
8
top_outsideCutPath
10
150.5625
20
45
11
140.4375
21
45
0
LINE
8
top_outsideCutPath
10
140.4375
20
45
11
140.4375
21
48
0
LINE
8
top_outsideCutPath
10
140.4375
20
48
11
130.3125
21
48
0
LINE
8
top_outsideCutPath
10
130.3125
20
48
11
130.3125
21
45
0
LINE
8
top_outsideCutPath
10
130.3125
20
45
11
120.1875
21
45
0
LINE
8
top_outsideCutPath
10
120.1875
20
45
11
117
21
45
0
LINE
8
back_outsideCutPath
10
0
20
62
11
0
21
53.0625
0
LINE
8
back_outsideCutPath
10
0
20
53.0625
11
3
21
53.0625
0
LINE
8
back_outsideCutPath
10
3
20
53.0625
11
3
21
42.9375
0
LINE
8
back_outsideCutPath
10
3
20
42.9375
11
0
21
42.9375
0
LINE
8
back_outsideCutPath
10
0
20
42.9375
11
0
21
34
0
LINE
8
back_outsideCutPath
10
0
20
34
11
16.3125
21
34
0
LINE
8
back_outsideCutPath
10
16.3125
20
34
11
16.3125
21
37
0
LINE
8
back_outsideCutPath
10
16.3125
20
37
11
26.4375
21
37
0
LINE
8
back_outsideCutPath
10
26.4375
20
37
11
26.4375
21
34
0
LINE
8
back_outsideCutPath
10
26.4375
20
34
11
36.5625
21
34
0
LINE
8
back_outsideCutPath
10
36.5625
20
34
11
36.5625
21
37
0
LINE
8
back_outsideCutPath
10
36.5625
20
37
11
46.6875
21
37
0
LINE
8
back_outsideCutPath
10
46.6875
20
37
11
46.6875
21
34
0
LINE
8
back_outsideCutPath
10
46.6875
20
34
11
56.8125
21
34
0
LINE
8
back_outsideCutPath
10
56.8125
20
34
11
63
21
34
0
LINE
8
back_outsideCutPath
10
63
20
34
11
63
21
42.9375
0
LINE
8
back_outsideCutPath
10
63
20
42.9375
11
60
21
42.9375
0
LINE
8
back_outsideCutPath
10
60
20
42.9375
11
60
21
53.0625
0
LINE
8
back_outsideCutPath
10
60
20
53.0625
11
63
21
53.0625
0
LINE
8
back_outsideCutPath
10
63
20
53.0625
11
63
21
62
0
LINE
8
back_outsideCutPath
10
63
20
62
11
46.6875
21
62
0
LINE
8
back_outsideCutPath
10
46.6875
20
62
11
46.6875
21
59
0
LINE
8
back_outsideCutPath
10
46.6875
20
59
11
36.5625
21
59
0
LINE
8
back_outsideCutPath
10
36.5625
20
59
11
36.5625
21
62
0
LINE
8
back_outsideCutPath
10
36.5625
20
62
11
26.4375
21
62
0
LINE
8
back_outsideCutPath
10
26.4375
20
62
11
26.4375
21
59
0
LINE
8
back_outsideCutPath
10
26.4375
20
59
11
16.3125
21
59
0
LINE
8
back_outsideCutPath
10
16.3125
20
59
11
16.3125
21
62
0
LINE
8
back_outsideCutPath
10
16.3125
20
62
11
6.1875
21
62
0
LINE
8
back_outsideCutPath
10
6.1875
20
62
11
0
21
62
0
LINE
8
right_outsideCutPath
10
69
20
62
11
69
21
53.0625
0
LINE
8
right_outsideCutPath
10
69
20
53.0625
11
66
21
53.0625
0
LINE
8
right_outsideCutPath
10
66
20
53.0625
11
66
21
42.9375
0
LINE
8
right_outsideCutPath
10
66
20
42.9375
11
69
21
42.9375
0
LINE
8
right_outsideCutPath
10
69
20
42.9375
11
69
21
34
0
LINE
8
right_outsideCutPath
10
69
20
34
11
73.3125
21
34
0
LINE
8
right_outsideCutPath
10
73.3125
20
34
11
73.3125
21
37
0
LINE
8
right_outsideCutPath
10
73.3125
20
37
11
83.4375
21
37
0
LINE
8
right_outsideCutPath
10
83.4375
20
37
11
83.4375
21
34
0
LINE
8
right_outsideCutPath
10
83.4375
20
34
11
93.5625
21
34
0
LINE
8
right_outsideCutPath
10
93.5625
20
34
11
93.5625
21
37
0
LINE
8
right_outsideCutPath
10
93.5625
20
37
11
103.6875
21
37
0
LINE
8
right_outsideCutPath
10
103.6875
20
37
11
103.6875
21
34
0
LINE
8
right_outsideCutPath
10
103.6875
20
34
11
108
21
34
0
LINE
8
right_outsideCutPath
10
108
20
34
11
108
21
42.9375
0
LINE
8
right_outsideCutPath
10
108
20
42.9375
11
111
21
42.9375
0
LINE
8
right_outsideCutPath
10
111
20
42.9375
11
111
21
53.0625
0
LINE
8
right_outsideCutPath
10
111
20
53.0625
11
108
21
53.0625
0
LINE
8
right_outsideCutPath
10
108
20
53.0625
11
108
21
62
0
LINE
8
right_outsideCutPath
10
108
20
62
11
103.6875
21
62
0
LINE
8
right_outsideCutPath
10
103.6875
20
62
11
103.6875
21
59
0
LINE
8
right_outsideCutPath
10
103.6875
20
59
11
93.5625
21
59
0
LINE
8
right_outsideCutPath
10
93.5625
20
59
11
93.5625
21
62
0
LINE
8
right_outsideCutPath
10
93.5625
20
62
11
83.4375
21
62
0
LINE
8
right_outsideCutPath
10
83.4375
20
62
11
83.4375
21
59
0
LINE
8
right_outsideCutPath
10
83.4375
20
59
11
73.3125
21
59
0
LINE
8
right_outsideCutPath
10
73.3125
20
59
11
73.3125
21
62
0
LINE
8
right_outsideCutPath
10
73.3125
20
62
11
69
21
62
0
LINE
8
bottom_outsideCutPath
10
117
20
93
11
117
21
88.6875
0
LINE
8
bottom_outsideCutPath
10
117
20
88.6875
11
114
21
88.6875
0
LINE
8
bottom_outsideCutPath
10
114
20
88.6875
11
114
21
78.5625
0
LINE
8
bottom_outsideCutPath
10
114
20
78.5625
11
117
21
78.5625
0
LINE
8
bottom_outsideCutPath
10
117
20
78.5625
11
117
21
68.4375
0
LINE
8
bottom_outsideCutPath
10
117
20
68.4375
11
114
21
68.4375
0
LINE
8
bottom_outsideCutPath
10
114
20
68.4375
11
114
21
58.3125
0
LINE
8
bottom_outsideCutPath
10
114
20
58.3125
11
117
21
58.3125
0
LINE
8
bottom_outsideCutPath
10
117
20
58.3125
11
117
21
54
0
LINE
8
bottom_outsideCutPath
10
117
20
54
11
130.3125
21
54
0
LINE
8
bottom_outsideCutPath
10
130.3125
20
54
11
130.3125
21
51
0
LINE
8
bottom_outsideCutPath
10
130.3125
20
51
11
140.4375
21
51
0
LINE
8
bottom_outsideCutPath
10
140.4375
20
51
11
140.4375
21
54
0
LINE
8
bottom_outsideCutPath
10
140.4375
20
54
11
150.5625
21
54
0
LINE
8
bottom_outsideCutPath
10
150.5625
20
54
11
150.5625
21
51
0
LINE
8
bottom_outsideCutPath
10
150.5625
20
51
11
160.6875
21
51
0
LINE
8
bottom_outsideCutPath
10
160.6875
20
51
11
160.6875
21
54
0
LINE
8
bottom_outsideCutPath
10
160.6875
20
54
11
170.8125
21
54
0
LINE
8
bottom_outsideCutPath
10
170.8125
20
54
11
174
21
54
0
LINE
8
bottom_outsideCutPath
10
174
20
54
11
174
21
58.3125
0
LINE
8
bottom_outsideCutPath
10
174
20
58.3125
11
177
21
58.3125
0
LINE
8
bottom_outsideCutPath
10
177
20
58.3125
11
177
21
68.4375
0
LINE
8
bottom_outsideCutPath
10
177
20
68.4375
11
174
21
68.4375
0
LINE
8
bottom_outsideCutPath
10
174
20
68.4375
11
174
21
78.5625
0
LINE
8
bottom_outsideCutPath
10
174
20
78.5625
11
177
21
78.5625
0
LINE
8
bottom_outsideCutPath
10
177
20
78.5625
11
177
21
88.6875
0
LINE
8
bottom_outsideCutPath
10
177
20
88.6875
11
174
21
88.6875
0
LINE
8
bottom_outsideCutPath
10
174
20
88.6875
11
174
21
93
0
LINE
8
bottom_outsideCutPath
10
174
20
93
11
160.6875
21
93
0
LINE
8
bottom_outsideCutPath
10
160.6875
20
93
11
160.6875
21
96
0
LINE
8
bottom_outsideCutPath
10
160.6875
20
96
11
150.5625
21
96
0
LINE
8
bottom_outsideCutPath
10
150.5625
20
96
11
150.5625
21
93
0
LINE
8
bottom_outsideCutPath
10
150.5625
20
93
11
140.4375
21
93
0
LINE
8
bottom_outsideCutPath
10
140.4375
20
93
11
140.4375
21
96
0
LINE
8
bottom_outsideCutPath
10
140.4375
20
96
11
130.3125
21
96
0
LINE
8
bottom_outsideCutPath
10
130.3125
20
96
11
130.3125
21
93
0
LINE
8
bottom_outsideCutPath
10
130.3125
20
93
11
120.1875
21
93
0
LINE
8
bottom_outsideCutPath
10
120.1875
20
93
11
117
21
93
0
ENDSEC
0
EOF