<svg width="123mm" height="101mm" viewBox="0 0 123 101" xmlns="http://www.w3.org/2000/svg" version="1.1" preserveAspectRatio="xMidYMid meet"><g id="svgGroup" stroke-linecap="round" fill-rule="evenodd" font-size="9pt" stroke="#000" stroke-width="0.25mm" fill="none" style="stroke:#000;stroke-width:0.25mm;fill:none"><path d="M 0 76 L 0 83.866 L 3 83.866 L 3 93.134 L 0 93.134 L 0 101 L 12.366 101 L 12.366 98 L 21.634 98 L 21.634 101 L 30.902 101 L 34 101 L 34 93.134 L 31 93.134 L 31 83.866 L 34 83.866 L 34 76 L 21.634 76 L 21.634 79 L 12.366 79 L 12.366 76 L 3.098 76 L 0 76 Z" id="front_outsideCutPath" stroke="#FF0000" stroke-width="0.1" style="stroke:#FF0000;stroke-width:0.1" vector-effect="non-scaling-stroke"/><path d="M 40 76 L 40 83.866 L 37 83.866 L 37 93.134 L 40 93.134 L 40 101 L 47.598 101 L 47.598 98 L 56.866 98 L 56.866 101 L 66.134 101 L 66.134 98 L 75.402 98 L 75.402 101 L 83 101 L 83 93.134 L 86 93.134 L 86 83.866 L 83 83.866 L 83 76 L 75.402 76 L 75.402 79 L 66.134 79 L 66.134 76 L 56.866 76 L 56.866 79 L 47.598 79 L 47.598 76 L 40 76 Z" id="left_outsideCutPath" stroke="#FF0000" stroke-width="0.1" style="stroke:#FF0000;stroke-width:0.1" vector-effect="non-scaling-stroke"/><path d="M 92 55 L 92 62.598 L 89 62.598 L 89 71.866 L 92 71.866 L 92 81.134 L 89 81.134 L 89 90.402 L 92 90.402 L 92 98 L 101.366 98 L 101.366 101 L 110.634 101 L 110.634 98 L 119.902 98 L 120 98 L 120 90.402 L 123 90.402 L 123 81.134 L 120 81.134 L 120 71.866 L 123 71.866 L 123 62.598 L 120 62.598 L 120 55 L 110.634 55 L 110.634 52 L 101.366 52 L 101.366 55 L 92.098 55 L 92 55 Z" id="top_outsideCutPath" stroke="#FF0000" stroke-width="0.1" style="stroke:#FF0000;stroke-width:0.1" vector-effect="non-scaling-stroke"/><path d="M 0 48 L 0 55.866 L 3 55.866 L 3 65.134 L 0 65.134 L 0 73 L 12.366 73 L 12.366 70 L 21.634 70 L 21.634 73 L 30.902 73 L 34 73 L 34 65.134 L 31 65.134 L 31 55.866 L 34 55.866 L 34 48 L 21.634 48 L 21.634 51 L 12.366 51 L 12.366 48 L 3.098 48 L 0 48 Z" id="back_outsideCutPath" stroke="#FF0000" stroke-width="0.1" style="stroke:#FF0000;stroke-width:0.1" vector-effect="non-scaling-stroke"/><path d="M 40 48 L 40 55.866 L 37 55.866 L 37 65.134 L 40 65.134 L 40 73 L 47.598 73 L 47.598 70 L 56.866 70 L 56.866 73 L 66.134 73 L 66.134 70 L 75.402 70 L 75.402 73 L 83 73 L 83 65.134 L 86 65.134 L 86 55.866 L 83 55.866 L 83 48 L 75.402 48 L 75.402 51 L 66.134 51 L 66.134 48 L 56.866 48 L 56.866 51 L 47.598 51 L 47.598 48 L 40 48 Z" id="right_outsideCutPath" stroke="#FF0000" stroke-width="0.1" style="stroke:#FF0000;stroke-width:0.1" vector-effect="non-scaling-stroke"/><path d="M 92 3 L 92 10.598 L 89 10.598 L 89 19.866 L 92 19.866 L 92 29.134 L 89 29.134 L 89 38.402 L 92 38.402 L 92 46 L 101.366 46 L 101.366 49 L 110.634 49 L 110.634 46 L 119.902 46 L 120 46 L 120 38.402 L 123 38.402 L 123 29.134 L 120 29.134 L 120 19.866 L 123 19.866 L 123 10.598 L 120 10.598 L 120 3 L 110.634 3 L 110.634 0 L 101.366 0 L 101.366 3 L 92.098 3 L 92 3 Z" id="bottom_outsideCutPath" stroke="#FF0000" stroke-width="0.1" style="stroke:#FF0000;stroke-width:0.1" vector-effect="non-scaling-stroke"/></g></svg>