<?xml version="1.0" encoding="UTF-8" standalone="no"?>
<svg
   xmlns:dc="http://purl.org/dc/elements/1.1/"
   xmlns:cc="http://creativecommons.org/ns#"
   xmlns:rdf="http://www.w3.org/1999/02/22-rdf-syntax-ns#"
   xmlns:svg="http://www.w3.org/2000/svg"
   xmlns="http://www.w3.org/2000/svg"
   xmlns:sodipodi="http://sodipodi.sourceforge.net/DTD/sodipodi-0.dtd"
   xmlns:inkscape="http://www.inkscape.org/namespaces/inkscape"
   width="123.1mm"
   height="88.266289mm"
   viewBox="0 0 123.1 88.266289"
   version="1.1"
   preserveAspectRatio="xMidYMid meet"
   id="svg837"
   sodipodi:docname="ResQ Cam V1.1 .svg"
   inkscape:version="0.92.4 (5da689c313, 2019-01-14)">
  <metadata
     id="metadata843">
    <rdf:RDF>
      <cc:Work
         rdf:about="">
        <dc:format>image/svg+xml</dc:format>
        <dc:type
           rdf:resource="http://purl.org/dc/dcmitype/StillImage" />
        <dc:title></dc:title>
      </cc:Work>
    </rdf:RDF>
  </metadata>
  <defs
     id="defs841" />
  <sodipodi:namedview
     pagecolor="#ffffff"
     bordercolor="#666666"
     borderopacity="1"
     objecttolerance="10"
     gridtolerance="10"
     guidetolerance="10"
     inkscape:pageopacity="0"
     inkscape:pageshadow="2"
     inkscape:window-width="2560"
     inkscape:window-height="1057"
     id="namedview839"
     showgrid="false"
     inkscape:zoom="2.6678267"
     inkscape:cx="232.62992"
     inkscape:cy="166.80243"
     inkscape:window-x="-8"
     inkscape:window-y="-8"
     inkscape:window-maximized="1"
     inkscape:current-layer="svgGroup"
     inkscape:document-units="mm"
     fit-margin-top="0"
     fit-margin-left="0"
     fit-margin-right="0"
     fit-margin-bottom="0" />
  <g
     id="svgGroup"
     font-size="9pt"
     style="font-size:12px;fill:none;fill-rule:evenodd;stroke:#000000;stroke-width:0.25000001mm;stroke-linecap:round"
     transform="rotate(180,61.525,50.525)">
    <path
       d="m 0,76 v 7.866 h 3 v 9.268 H 0 V 101 h 12.366 v -3 h 9.268 v 3 H 30.902 34 v -7.866 h -3 v -9.268 h 3 V 76 H 21.634 v 3 H 12.366 V 76 H 3.098 Z"
       id="front_outsideCutPath"
       style="vector-effect:non-scaling-stroke;stroke:#ff0000;stroke-width:0.1"
       inkscape:connector-curvature="0" />
    <path
       d="m 40,76 v 7.866 h -3 v 9.268 h 3 V 101 h 7.598 v -3 h 9.268 v 3 h 9.268 v -3 h 9.268 v 3 H 83 v -7.866 h 3 V 83.866 H 83 V 76 h -7.598 v 3 h -9.268 v -3 h -9.268 v 3 h -9.268 v -3 z"
       id="left_outsideCutPath"
       style="vector-effect:non-scaling-stroke;stroke:#ff0000;stroke-width:0.1"
       inkscape:connector-curvature="0" />
    <path
       d="m 92,55 v 7.598 h -3 v 9.268 h 3 v 9.268 h -3 v 9.268 h 3 V 98 h 9.366 v 3 h 9.268 v -3 h 9.268 0.098 v -7.598 h 3 v -9.268 h -3 v -9.268 h 3 v -9.268 h -3 V 55 h -9.366 v -3 h -9.268 v 3 h -9.268 z"
       id="top_outsideCutPath"
       style="vector-effect:non-scaling-stroke;stroke:#ff0000;stroke-width:0.1"
       inkscape:connector-curvature="0" />
    <path
       d="m 0,48 v 7.866 h 3 v 9.268 H 0 V 73 h 12.366 v -3 h 9.268 v 3 H 30.902 34 v -7.866 h -3 v -9.268 h 3 V 48 H 21.634 v 3 H 12.366 V 48 H 3.098 Z"
       id="back_outsideCutPath"
       style="vector-effect:non-scaling-stroke;stroke:#ff0000;stroke-width:0.1"
       inkscape:connector-curvature="0" />
    <path
       d="m 40,48 v 7.866 h -3 v 9.268 h 3 V 73 h 7.598 v -3 h 9.268 v 3 h 9.268 v -3 h 9.268 v 3 H 83 v -7.866 h 3 V 55.866 H 83 V 48 h -7.598 v 3 h -9.268 v -3 h -9.268 v 3 h -9.268 v -3 z"
       id="right_outsideCutPath"
       style="vector-effect:non-scaling-stroke;stroke:#ff0000;stroke-width:0.1"
       inkscape:connector-curvature="0" />
    <path
       d="m 119.21573,15.833708 h -7.598 v -3 h -9.268 v 3 h -9.268 v -3 h -9.268 v 3 h -7.598 v 9.366 h -3 v 9.268 h 3 v 9.268 0.098 h 7.598 v 3 h 9.268 v -3 h 9.268 v 3 h 9.268 v -3 h 7.598 v -9.366 h 3 v -9.268 h -3 v -9.268 z"
       id="bottom_outsideCutPath"
       style="vector-effect:non-scaling-stroke;stroke:#ff0000;stroke-width:0.1"
       inkscape:connector-curvature="0" />
    <circle
       style="fill:none;fill-opacity:1;fill-rule:nonzero;stroke:#ff0000;stroke-width:0.1;stroke-linecap:round;stroke-linejoin:round;stroke-miterlimit:4;stroke-dasharray:none;stroke-opacity:1;paint-order:stroke fill markers"
       id="path845"
       cx="-105.51685"
       cy="-85.810127"
       transform="scale(-1)"
       r="4" />
    <flowRoot
       xml:space="preserve"
       id="flowRoot847"
       style="font-style:normal;font-variant:normal;font-weight:bold;font-stretch:normal;font-size:8px;line-height:1.25;font-family:'Agency FB';-inkscape-font-specification:'Agency FB Bold';letter-spacing:0px;word-spacing:0px;fill:#000000;fill-opacity:1;stroke:none"
       transform="matrix(-0.48746234,0,0,-0.44718953,132.11492,119.30737)"><flowRegion
         id="flowRegion849"
         style="font-style:normal;font-variant:normal;font-weight:bold;font-stretch:normal;font-family:'Agency FB';-inkscape-font-specification:'Agency FB Bold'"><rect
           id="rect851"
           width="69.054939"
           height="47.180393"
           x="30.452801"
           y="91.698105"
           style="font-style:normal;font-variant:normal;font-weight:bold;font-stretch:normal;font-family:'Agency FB';-inkscape-font-specification:'Agency FB Bold'" /></flowRegion><flowPara
         id="flowPara853"
         style="font-style:normal;font-variant:normal;font-weight:bold;font-stretch:normal;font-size:18.66666603px;font-family:'Franklin Gothic Heavy';-inkscape-font-specification:'Franklin Gothic Heavy,  Bold'">ResQ CAM</flowPara></flowRoot>    <circle
       style="font-size:12px;fill:none;fill-opacity:1;fill-rule:nonzero;stroke:#ff0000;stroke-width:0.04938271;stroke-linecap:round;stroke-linejoin:round;stroke-miterlimit:4;stroke-dasharray:none;stroke-opacity:1;paint-order:stroke fill markers"
       id="path845-0"
       cx="-17.489363"
       cy="-84.212585"
       transform="scale(-1)"
       r="1.9753087" />
  </g>
</svg>
