G04 MADE WITH FRITZING*
G04 WWW.FRITZING.ORG*
G04 DOUBLE SIDED*
G04 HOLES PLATED*
G04 CONTOUR ON CENTER OF CONTOUR VECTOR*
%ASAXBY*%
%FSLAX23Y23*%
%MOIN*%
%OFA0B0*%
%SFA1.0B1.0*%
%ADD10C,0.075000*%
%ADD11C,0.078000*%
%ADD12C,0.077778*%
%ADD13C,0.039370*%
%ADD14C,0.024000*%
%LNCOPPER1*%
G90*
G70*
G54D10*
X371Y1300D03*
X1071Y1193D03*
X560Y1167D03*
G54D11*
X1094Y1298D03*
X994Y1298D03*
X894Y1298D03*
X794Y1298D03*
X694Y1298D03*
X594Y1298D03*
X86Y982D03*
X86Y1082D03*
X86Y1182D03*
X86Y1282D03*
X110Y75D03*
X110Y175D03*
G54D12*
X1129Y1089D03*
X1129Y989D03*
X1129Y889D03*
X1129Y789D03*
X1129Y689D03*
X1129Y589D03*
X1129Y489D03*
X1129Y389D03*
X229Y389D03*
X229Y489D03*
X229Y589D03*
X229Y689D03*
X229Y789D03*
X229Y889D03*
X229Y989D03*
X229Y1089D03*
X1129Y1089D03*
X1129Y989D03*
X1129Y889D03*
X1129Y789D03*
X1129Y689D03*
X1129Y589D03*
X1129Y489D03*
X1129Y389D03*
X229Y389D03*
X229Y489D03*
X229Y589D03*
X229Y689D03*
X229Y789D03*
X229Y889D03*
X229Y989D03*
X229Y1089D03*
G54D11*
X541Y73D03*
X541Y173D03*
X541Y273D03*
X718Y74D03*
X718Y174D03*
X718Y274D03*
X364Y488D03*
X364Y588D03*
X364Y688D03*
X364Y788D03*
G54D13*
X888Y591D03*
G54D14*
X296Y1276D02*
X234Y1282D01*
D02*
X234Y1282D02*
X116Y1282D01*
D02*
X380Y1170D02*
X296Y1276D01*
D02*
X382Y878D02*
X380Y1170D01*
D02*
X254Y804D02*
X382Y878D01*
D02*
X254Y903D02*
X321Y942D01*
D02*
X321Y942D02*
X318Y1145D01*
D02*
X318Y1145D02*
X256Y1182D01*
D02*
X175Y1188D02*
X116Y1184D01*
D02*
X256Y1182D02*
X175Y1188D01*
D02*
X258Y689D02*
X334Y688D01*
D02*
X258Y589D02*
X334Y588D01*
D02*
X466Y1352D02*
X464Y897D01*
D02*
X1030Y1383D02*
X504Y1385D01*
D02*
X504Y1385D02*
X466Y1352D01*
D02*
X464Y897D02*
X384Y810D01*
D02*
X1076Y1322D02*
X1030Y1383D01*
D02*
X511Y173D02*
X140Y175D01*
D02*
X688Y174D02*
X572Y173D01*
D02*
X511Y73D02*
X140Y75D01*
D02*
X688Y74D02*
X572Y73D01*
D02*
X42Y75D02*
X80Y75D01*
D02*
X42Y306D02*
X42Y75D01*
D02*
X82Y401D02*
X42Y306D01*
D02*
X200Y388D02*
X132Y387D01*
D02*
X132Y387D02*
X82Y401D01*
D02*
X82Y401D02*
X86Y952D01*
D02*
X147Y553D02*
X165Y515D01*
D02*
X165Y515D02*
X202Y500D01*
D02*
X151Y894D02*
X147Y553D01*
D02*
X89Y1087D02*
X156Y1039D01*
D02*
X159Y951D02*
X151Y894D01*
D02*
X156Y1039D02*
X159Y951D01*
D02*
X101Y1108D02*
X89Y1087D01*
D02*
X1030Y523D02*
X1101Y499D01*
D02*
X985Y601D02*
X1030Y523D01*
D02*
X987Y1288D02*
X985Y601D01*
D02*
X975Y1274D02*
X987Y1288D01*
D02*
X894Y1267D02*
X889Y610D01*
D02*
X258Y489D02*
X334Y488D01*
G36*
X45Y1377D02*
X45Y1331D01*
X91Y1331D01*
X91Y1329D01*
X99Y1329D01*
X99Y1327D01*
X105Y1327D01*
X105Y1325D01*
X109Y1325D01*
X109Y1323D01*
X113Y1323D01*
X113Y1321D01*
X115Y1321D01*
X115Y1319D01*
X117Y1319D01*
X117Y1317D01*
X121Y1317D01*
X121Y1313D01*
X123Y1313D01*
X123Y1311D01*
X125Y1311D01*
X125Y1309D01*
X127Y1309D01*
X127Y1305D01*
X129Y1305D01*
X129Y1303D01*
X249Y1303D01*
X249Y1301D01*
X273Y1301D01*
X273Y1299D01*
X297Y1299D01*
X297Y1297D01*
X305Y1297D01*
X305Y1295D01*
X307Y1295D01*
X307Y1293D01*
X311Y1293D01*
X311Y1291D01*
X313Y1291D01*
X313Y1287D01*
X315Y1287D01*
X315Y1285D01*
X317Y1285D01*
X317Y1283D01*
X319Y1283D01*
X319Y1281D01*
X321Y1281D01*
X321Y1277D01*
X323Y1277D01*
X323Y1275D01*
X325Y1275D01*
X325Y1273D01*
X327Y1273D01*
X327Y1271D01*
X329Y1271D01*
X329Y1267D01*
X331Y1267D01*
X331Y1265D01*
X333Y1265D01*
X333Y1263D01*
X335Y1263D01*
X335Y1261D01*
X337Y1261D01*
X337Y1257D01*
X339Y1257D01*
X339Y1255D01*
X341Y1255D01*
X341Y1253D01*
X343Y1253D01*
X343Y1249D01*
X345Y1249D01*
X345Y1247D01*
X347Y1247D01*
X347Y1245D01*
X349Y1245D01*
X349Y1243D01*
X351Y1243D01*
X351Y1239D01*
X353Y1239D01*
X353Y1237D01*
X355Y1237D01*
X355Y1235D01*
X357Y1235D01*
X357Y1233D01*
X359Y1233D01*
X359Y1229D01*
X361Y1229D01*
X361Y1227D01*
X363Y1227D01*
X363Y1225D01*
X365Y1225D01*
X365Y1223D01*
X367Y1223D01*
X367Y1219D01*
X369Y1219D01*
X369Y1217D01*
X371Y1217D01*
X371Y1215D01*
X373Y1215D01*
X373Y1211D01*
X375Y1211D01*
X375Y1209D01*
X377Y1209D01*
X377Y1207D01*
X379Y1207D01*
X379Y1205D01*
X381Y1205D01*
X381Y1201D01*
X383Y1201D01*
X383Y1199D01*
X385Y1199D01*
X385Y1197D01*
X387Y1197D01*
X387Y1195D01*
X389Y1195D01*
X389Y1191D01*
X391Y1191D01*
X391Y1189D01*
X393Y1189D01*
X393Y1187D01*
X395Y1187D01*
X395Y1185D01*
X397Y1185D01*
X397Y1181D01*
X399Y1181D01*
X399Y1177D01*
X401Y1177D01*
X401Y1129D01*
X403Y1129D01*
X403Y883D01*
X423Y883D01*
X423Y885D01*
X425Y885D01*
X425Y887D01*
X427Y887D01*
X427Y891D01*
X429Y891D01*
X429Y893D01*
X431Y893D01*
X431Y895D01*
X433Y895D01*
X433Y897D01*
X435Y897D01*
X435Y899D01*
X437Y899D01*
X437Y901D01*
X439Y901D01*
X439Y903D01*
X441Y903D01*
X441Y905D01*
X443Y905D01*
X443Y1353D01*
X445Y1353D01*
X445Y1377D01*
X45Y1377D01*
G37*
D02*
G36*
X45Y1331D02*
X45Y1325D01*
X65Y1325D01*
X65Y1327D01*
X71Y1327D01*
X71Y1329D01*
X81Y1329D01*
X81Y1331D01*
X45Y1331D01*
G37*
D02*
G36*
X607Y1363D02*
X607Y1343D01*
X613Y1343D01*
X613Y1341D01*
X617Y1341D01*
X617Y1339D01*
X621Y1339D01*
X621Y1337D01*
X623Y1337D01*
X623Y1335D01*
X625Y1335D01*
X625Y1333D01*
X629Y1333D01*
X629Y1329D01*
X631Y1329D01*
X631Y1327D01*
X633Y1327D01*
X633Y1325D01*
X655Y1325D01*
X655Y1329D01*
X657Y1329D01*
X657Y1331D01*
X659Y1331D01*
X659Y1333D01*
X661Y1333D01*
X661Y1335D01*
X665Y1335D01*
X665Y1337D01*
X667Y1337D01*
X667Y1339D01*
X671Y1339D01*
X671Y1341D01*
X673Y1341D01*
X673Y1343D01*
X681Y1343D01*
X681Y1363D01*
X607Y1363D01*
G37*
D02*
G36*
X713Y1361D02*
X713Y1341D01*
X717Y1341D01*
X717Y1339D01*
X721Y1339D01*
X721Y1337D01*
X723Y1337D01*
X723Y1335D01*
X725Y1335D01*
X725Y1333D01*
X729Y1333D01*
X729Y1329D01*
X731Y1329D01*
X731Y1327D01*
X733Y1327D01*
X733Y1325D01*
X755Y1325D01*
X755Y1329D01*
X757Y1329D01*
X757Y1331D01*
X759Y1331D01*
X759Y1333D01*
X761Y1333D01*
X761Y1335D01*
X765Y1335D01*
X765Y1337D01*
X767Y1337D01*
X767Y1339D01*
X771Y1339D01*
X771Y1341D01*
X773Y1341D01*
X773Y1361D01*
X713Y1361D01*
G37*
D02*
G36*
X813Y1361D02*
X813Y1341D01*
X817Y1341D01*
X817Y1339D01*
X821Y1339D01*
X821Y1337D01*
X823Y1337D01*
X823Y1335D01*
X825Y1335D01*
X825Y1333D01*
X829Y1333D01*
X829Y1329D01*
X831Y1329D01*
X831Y1327D01*
X833Y1327D01*
X833Y1325D01*
X855Y1325D01*
X855Y1329D01*
X857Y1329D01*
X857Y1331D01*
X859Y1331D01*
X859Y1333D01*
X861Y1333D01*
X861Y1335D01*
X865Y1335D01*
X865Y1337D01*
X867Y1337D01*
X867Y1339D01*
X871Y1339D01*
X871Y1341D01*
X873Y1341D01*
X873Y1361D01*
X813Y1361D01*
G37*
D02*
G36*
X913Y1361D02*
X913Y1341D01*
X917Y1341D01*
X917Y1339D01*
X921Y1339D01*
X921Y1337D01*
X923Y1337D01*
X923Y1335D01*
X925Y1335D01*
X925Y1333D01*
X929Y1333D01*
X929Y1329D01*
X931Y1329D01*
X931Y1327D01*
X933Y1327D01*
X933Y1325D01*
X955Y1325D01*
X955Y1329D01*
X957Y1329D01*
X957Y1331D01*
X959Y1331D01*
X959Y1333D01*
X961Y1333D01*
X961Y1335D01*
X965Y1335D01*
X965Y1337D01*
X967Y1337D01*
X967Y1339D01*
X971Y1339D01*
X971Y1341D01*
X973Y1341D01*
X973Y1361D01*
X913Y1361D01*
G37*
D02*
G36*
X1075Y1377D02*
X1075Y1357D01*
X1077Y1357D01*
X1077Y1355D01*
X1079Y1355D01*
X1079Y1353D01*
X1081Y1353D01*
X1081Y1349D01*
X1083Y1349D01*
X1083Y1347D01*
X1097Y1347D01*
X1097Y1345D01*
X1107Y1345D01*
X1107Y1343D01*
X1113Y1343D01*
X1113Y1341D01*
X1117Y1341D01*
X1117Y1339D01*
X1121Y1339D01*
X1121Y1337D01*
X1123Y1337D01*
X1123Y1335D01*
X1125Y1335D01*
X1125Y1333D01*
X1129Y1333D01*
X1129Y1329D01*
X1131Y1329D01*
X1131Y1327D01*
X1133Y1327D01*
X1133Y1325D01*
X1135Y1325D01*
X1135Y1321D01*
X1137Y1321D01*
X1137Y1317D01*
X1139Y1317D01*
X1139Y1313D01*
X1141Y1313D01*
X1141Y1305D01*
X1143Y1305D01*
X1143Y1291D01*
X1141Y1291D01*
X1141Y1283D01*
X1139Y1283D01*
X1139Y1277D01*
X1137Y1277D01*
X1137Y1273D01*
X1135Y1273D01*
X1135Y1269D01*
X1133Y1269D01*
X1133Y1267D01*
X1131Y1267D01*
X1131Y1265D01*
X1129Y1265D01*
X1129Y1263D01*
X1127Y1263D01*
X1127Y1261D01*
X1125Y1261D01*
X1125Y1259D01*
X1123Y1259D01*
X1123Y1257D01*
X1119Y1257D01*
X1119Y1255D01*
X1117Y1255D01*
X1117Y1253D01*
X1113Y1253D01*
X1113Y1251D01*
X1105Y1251D01*
X1105Y1249D01*
X1169Y1249D01*
X1169Y1377D01*
X1075Y1377D01*
G37*
D02*
G36*
X1033Y1269D02*
X1033Y1267D01*
X1031Y1267D01*
X1031Y1265D01*
X1029Y1265D01*
X1029Y1263D01*
X1027Y1263D01*
X1027Y1261D01*
X1025Y1261D01*
X1025Y1259D01*
X1023Y1259D01*
X1023Y1257D01*
X1019Y1257D01*
X1019Y1255D01*
X1017Y1255D01*
X1017Y1253D01*
X1013Y1253D01*
X1013Y1251D01*
X1009Y1251D01*
X1009Y1249D01*
X1081Y1249D01*
X1081Y1251D01*
X1075Y1251D01*
X1075Y1253D01*
X1071Y1253D01*
X1071Y1255D01*
X1067Y1255D01*
X1067Y1257D01*
X1065Y1257D01*
X1065Y1259D01*
X1063Y1259D01*
X1063Y1261D01*
X1059Y1261D01*
X1059Y1263D01*
X1057Y1263D01*
X1057Y1267D01*
X1055Y1267D01*
X1055Y1269D01*
X1033Y1269D01*
G37*
D02*
G36*
X1009Y1249D02*
X1009Y1247D01*
X1169Y1247D01*
X1169Y1249D01*
X1009Y1249D01*
G37*
D02*
G36*
X1009Y1249D02*
X1009Y1247D01*
X1169Y1247D01*
X1169Y1249D01*
X1009Y1249D01*
G37*
D02*
G36*
X1009Y1247D02*
X1009Y1163D01*
X1007Y1163D01*
X1007Y1137D01*
X1139Y1137D01*
X1139Y1135D01*
X1147Y1135D01*
X1147Y1133D01*
X1169Y1133D01*
X1169Y1247D01*
X1009Y1247D01*
G37*
D02*
G36*
X1007Y1137D02*
X1007Y603D01*
X1009Y603D01*
X1009Y601D01*
X1011Y601D01*
X1011Y597D01*
X1013Y597D01*
X1013Y593D01*
X1015Y593D01*
X1015Y591D01*
X1017Y591D01*
X1017Y587D01*
X1019Y587D01*
X1019Y583D01*
X1021Y583D01*
X1021Y579D01*
X1023Y579D01*
X1023Y577D01*
X1025Y577D01*
X1025Y573D01*
X1027Y573D01*
X1027Y569D01*
X1029Y569D01*
X1029Y565D01*
X1031Y565D01*
X1031Y563D01*
X1033Y563D01*
X1033Y559D01*
X1035Y559D01*
X1035Y555D01*
X1037Y555D01*
X1037Y553D01*
X1039Y553D01*
X1039Y549D01*
X1041Y549D01*
X1041Y545D01*
X1043Y545D01*
X1043Y541D01*
X1047Y541D01*
X1047Y539D01*
X1053Y539D01*
X1053Y537D01*
X1059Y537D01*
X1059Y535D01*
X1065Y535D01*
X1065Y533D01*
X1071Y533D01*
X1071Y531D01*
X1077Y531D01*
X1077Y529D01*
X1101Y529D01*
X1101Y549D01*
X1099Y549D01*
X1099Y551D01*
X1097Y551D01*
X1097Y553D01*
X1095Y553D01*
X1095Y555D01*
X1093Y555D01*
X1093Y557D01*
X1091Y557D01*
X1091Y559D01*
X1089Y559D01*
X1089Y561D01*
X1087Y561D01*
X1087Y565D01*
X1085Y565D01*
X1085Y569D01*
X1083Y569D01*
X1083Y575D01*
X1081Y575D01*
X1081Y585D01*
X1079Y585D01*
X1079Y593D01*
X1081Y593D01*
X1081Y603D01*
X1083Y603D01*
X1083Y609D01*
X1085Y609D01*
X1085Y613D01*
X1087Y613D01*
X1087Y615D01*
X1089Y615D01*
X1089Y619D01*
X1091Y619D01*
X1091Y621D01*
X1093Y621D01*
X1093Y623D01*
X1095Y623D01*
X1095Y625D01*
X1097Y625D01*
X1097Y627D01*
X1099Y627D01*
X1099Y629D01*
X1101Y629D01*
X1101Y649D01*
X1099Y649D01*
X1099Y651D01*
X1097Y651D01*
X1097Y653D01*
X1095Y653D01*
X1095Y655D01*
X1093Y655D01*
X1093Y657D01*
X1091Y657D01*
X1091Y659D01*
X1089Y659D01*
X1089Y661D01*
X1087Y661D01*
X1087Y665D01*
X1085Y665D01*
X1085Y669D01*
X1083Y669D01*
X1083Y675D01*
X1081Y675D01*
X1081Y685D01*
X1079Y685D01*
X1079Y693D01*
X1081Y693D01*
X1081Y703D01*
X1083Y703D01*
X1083Y709D01*
X1085Y709D01*
X1085Y713D01*
X1087Y713D01*
X1087Y715D01*
X1089Y715D01*
X1089Y719D01*
X1091Y719D01*
X1091Y721D01*
X1093Y721D01*
X1093Y723D01*
X1095Y723D01*
X1095Y725D01*
X1097Y725D01*
X1097Y727D01*
X1099Y727D01*
X1099Y729D01*
X1101Y729D01*
X1101Y749D01*
X1099Y749D01*
X1099Y751D01*
X1097Y751D01*
X1097Y753D01*
X1095Y753D01*
X1095Y755D01*
X1093Y755D01*
X1093Y757D01*
X1091Y757D01*
X1091Y759D01*
X1089Y759D01*
X1089Y761D01*
X1087Y761D01*
X1087Y765D01*
X1085Y765D01*
X1085Y769D01*
X1083Y769D01*
X1083Y775D01*
X1081Y775D01*
X1081Y785D01*
X1079Y785D01*
X1079Y793D01*
X1081Y793D01*
X1081Y803D01*
X1083Y803D01*
X1083Y809D01*
X1085Y809D01*
X1085Y813D01*
X1087Y813D01*
X1087Y815D01*
X1089Y815D01*
X1089Y819D01*
X1091Y819D01*
X1091Y821D01*
X1093Y821D01*
X1093Y823D01*
X1095Y823D01*
X1095Y825D01*
X1097Y825D01*
X1097Y827D01*
X1099Y827D01*
X1099Y829D01*
X1101Y829D01*
X1101Y849D01*
X1099Y849D01*
X1099Y851D01*
X1097Y851D01*
X1097Y853D01*
X1095Y853D01*
X1095Y855D01*
X1093Y855D01*
X1093Y857D01*
X1091Y857D01*
X1091Y859D01*
X1089Y859D01*
X1089Y861D01*
X1087Y861D01*
X1087Y865D01*
X1085Y865D01*
X1085Y869D01*
X1083Y869D01*
X1083Y875D01*
X1081Y875D01*
X1081Y885D01*
X1079Y885D01*
X1079Y893D01*
X1081Y893D01*
X1081Y903D01*
X1083Y903D01*
X1083Y909D01*
X1085Y909D01*
X1085Y913D01*
X1087Y913D01*
X1087Y915D01*
X1089Y915D01*
X1089Y919D01*
X1091Y919D01*
X1091Y921D01*
X1093Y921D01*
X1093Y923D01*
X1095Y923D01*
X1095Y925D01*
X1097Y925D01*
X1097Y927D01*
X1099Y927D01*
X1099Y929D01*
X1101Y929D01*
X1101Y949D01*
X1099Y949D01*
X1099Y951D01*
X1097Y951D01*
X1097Y953D01*
X1095Y953D01*
X1095Y955D01*
X1093Y955D01*
X1093Y957D01*
X1091Y957D01*
X1091Y959D01*
X1089Y959D01*
X1089Y961D01*
X1087Y961D01*
X1087Y965D01*
X1085Y965D01*
X1085Y969D01*
X1083Y969D01*
X1083Y975D01*
X1081Y975D01*
X1081Y985D01*
X1079Y985D01*
X1079Y993D01*
X1081Y993D01*
X1081Y1003D01*
X1083Y1003D01*
X1083Y1009D01*
X1085Y1009D01*
X1085Y1013D01*
X1087Y1013D01*
X1087Y1015D01*
X1089Y1015D01*
X1089Y1019D01*
X1091Y1019D01*
X1091Y1021D01*
X1093Y1021D01*
X1093Y1023D01*
X1095Y1023D01*
X1095Y1025D01*
X1097Y1025D01*
X1097Y1027D01*
X1099Y1027D01*
X1099Y1029D01*
X1101Y1029D01*
X1101Y1049D01*
X1099Y1049D01*
X1099Y1051D01*
X1097Y1051D01*
X1097Y1053D01*
X1095Y1053D01*
X1095Y1055D01*
X1093Y1055D01*
X1093Y1057D01*
X1091Y1057D01*
X1091Y1059D01*
X1089Y1059D01*
X1089Y1061D01*
X1087Y1061D01*
X1087Y1065D01*
X1085Y1065D01*
X1085Y1069D01*
X1083Y1069D01*
X1083Y1075D01*
X1081Y1075D01*
X1081Y1085D01*
X1079Y1085D01*
X1079Y1093D01*
X1081Y1093D01*
X1081Y1103D01*
X1083Y1103D01*
X1083Y1109D01*
X1085Y1109D01*
X1085Y1113D01*
X1087Y1113D01*
X1087Y1115D01*
X1089Y1115D01*
X1089Y1119D01*
X1091Y1119D01*
X1091Y1121D01*
X1093Y1121D01*
X1093Y1123D01*
X1095Y1123D01*
X1095Y1125D01*
X1097Y1125D01*
X1097Y1127D01*
X1099Y1127D01*
X1099Y1129D01*
X1103Y1129D01*
X1103Y1131D01*
X1107Y1131D01*
X1107Y1133D01*
X1111Y1133D01*
X1111Y1135D01*
X1117Y1135D01*
X1117Y1137D01*
X1007Y1137D01*
G37*
D02*
G36*
X129Y1259D02*
X129Y1257D01*
X127Y1257D01*
X127Y1253D01*
X125Y1253D01*
X125Y1251D01*
X123Y1251D01*
X123Y1249D01*
X121Y1249D01*
X121Y1247D01*
X119Y1247D01*
X119Y1245D01*
X117Y1245D01*
X117Y1243D01*
X115Y1243D01*
X115Y1241D01*
X113Y1241D01*
X113Y1221D01*
X115Y1221D01*
X115Y1219D01*
X117Y1219D01*
X117Y1217D01*
X121Y1217D01*
X121Y1213D01*
X123Y1213D01*
X123Y1211D01*
X177Y1211D01*
X177Y1209D01*
X201Y1209D01*
X201Y1207D01*
X225Y1207D01*
X225Y1205D01*
X249Y1205D01*
X249Y1203D01*
X263Y1203D01*
X263Y1201D01*
X267Y1201D01*
X267Y1199D01*
X271Y1199D01*
X271Y1197D01*
X275Y1197D01*
X275Y1195D01*
X277Y1195D01*
X277Y1193D01*
X281Y1193D01*
X281Y1191D01*
X285Y1191D01*
X285Y1189D01*
X287Y1189D01*
X287Y1187D01*
X291Y1187D01*
X291Y1185D01*
X295Y1185D01*
X295Y1183D01*
X299Y1183D01*
X299Y1181D01*
X301Y1181D01*
X301Y1179D01*
X305Y1179D01*
X305Y1177D01*
X309Y1177D01*
X309Y1175D01*
X311Y1175D01*
X311Y1173D01*
X315Y1173D01*
X315Y1171D01*
X319Y1171D01*
X319Y1169D01*
X323Y1169D01*
X323Y1167D01*
X325Y1167D01*
X325Y1165D01*
X329Y1165D01*
X329Y1163D01*
X331Y1163D01*
X331Y1161D01*
X333Y1161D01*
X333Y1159D01*
X335Y1159D01*
X335Y1157D01*
X337Y1157D01*
X337Y1153D01*
X357Y1153D01*
X357Y1163D01*
X355Y1163D01*
X355Y1167D01*
X353Y1167D01*
X353Y1169D01*
X351Y1169D01*
X351Y1171D01*
X349Y1171D01*
X349Y1173D01*
X347Y1173D01*
X347Y1177D01*
X345Y1177D01*
X345Y1179D01*
X343Y1179D01*
X343Y1181D01*
X341Y1181D01*
X341Y1185D01*
X339Y1185D01*
X339Y1187D01*
X337Y1187D01*
X337Y1189D01*
X335Y1189D01*
X335Y1191D01*
X333Y1191D01*
X333Y1195D01*
X331Y1195D01*
X331Y1197D01*
X329Y1197D01*
X329Y1199D01*
X327Y1199D01*
X327Y1201D01*
X325Y1201D01*
X325Y1205D01*
X323Y1205D01*
X323Y1207D01*
X321Y1207D01*
X321Y1209D01*
X319Y1209D01*
X319Y1211D01*
X317Y1211D01*
X317Y1215D01*
X315Y1215D01*
X315Y1217D01*
X313Y1217D01*
X313Y1219D01*
X311Y1219D01*
X311Y1221D01*
X309Y1221D01*
X309Y1225D01*
X307Y1225D01*
X307Y1227D01*
X305Y1227D01*
X305Y1229D01*
X303Y1229D01*
X303Y1233D01*
X301Y1233D01*
X301Y1235D01*
X299Y1235D01*
X299Y1237D01*
X297Y1237D01*
X297Y1239D01*
X295Y1239D01*
X295Y1243D01*
X293Y1243D01*
X293Y1245D01*
X291Y1245D01*
X291Y1247D01*
X289Y1247D01*
X289Y1249D01*
X287Y1249D01*
X287Y1253D01*
X285Y1253D01*
X285Y1255D01*
X271Y1255D01*
X271Y1257D01*
X247Y1257D01*
X247Y1259D01*
X129Y1259D01*
G37*
D02*
G36*
X125Y1211D02*
X125Y1209D01*
X171Y1209D01*
X171Y1211D01*
X125Y1211D01*
G37*
D02*
G36*
X147Y1165D02*
X147Y1163D01*
X131Y1163D01*
X131Y1161D01*
X129Y1161D01*
X129Y1157D01*
X127Y1157D01*
X127Y1153D01*
X125Y1153D01*
X125Y1151D01*
X123Y1151D01*
X123Y1149D01*
X121Y1149D01*
X121Y1147D01*
X119Y1147D01*
X119Y1145D01*
X117Y1145D01*
X117Y1143D01*
X115Y1143D01*
X115Y1137D01*
X239Y1137D01*
X239Y1135D01*
X247Y1135D01*
X247Y1133D01*
X251Y1133D01*
X251Y1131D01*
X255Y1131D01*
X255Y1129D01*
X257Y1129D01*
X257Y1127D01*
X259Y1127D01*
X259Y1125D01*
X263Y1125D01*
X263Y1123D01*
X265Y1123D01*
X265Y1119D01*
X267Y1119D01*
X267Y1117D01*
X269Y1117D01*
X269Y1115D01*
X271Y1115D01*
X271Y1111D01*
X273Y1111D01*
X273Y1107D01*
X275Y1107D01*
X275Y1099D01*
X277Y1099D01*
X277Y1077D01*
X275Y1077D01*
X275Y1071D01*
X273Y1071D01*
X273Y1067D01*
X271Y1067D01*
X271Y1063D01*
X269Y1063D01*
X269Y1061D01*
X267Y1061D01*
X267Y1057D01*
X265Y1057D01*
X265Y1055D01*
X263Y1055D01*
X263Y1053D01*
X261Y1053D01*
X261Y1051D01*
X259Y1051D01*
X259Y1049D01*
X255Y1049D01*
X255Y1029D01*
X257Y1029D01*
X257Y1027D01*
X259Y1027D01*
X259Y1025D01*
X263Y1025D01*
X263Y1023D01*
X265Y1023D01*
X265Y1019D01*
X267Y1019D01*
X267Y1017D01*
X269Y1017D01*
X269Y1015D01*
X271Y1015D01*
X271Y1011D01*
X273Y1011D01*
X273Y1007D01*
X275Y1007D01*
X275Y999D01*
X277Y999D01*
X277Y977D01*
X275Y977D01*
X275Y971D01*
X273Y971D01*
X273Y967D01*
X271Y967D01*
X271Y963D01*
X269Y963D01*
X269Y961D01*
X267Y961D01*
X267Y957D01*
X265Y957D01*
X265Y955D01*
X263Y955D01*
X263Y953D01*
X261Y953D01*
X261Y943D01*
X281Y943D01*
X281Y945D01*
X285Y945D01*
X285Y947D01*
X287Y947D01*
X287Y949D01*
X291Y949D01*
X291Y951D01*
X295Y951D01*
X295Y953D01*
X299Y953D01*
X299Y1011D01*
X297Y1011D01*
X297Y1129D01*
X295Y1129D01*
X295Y1133D01*
X293Y1133D01*
X293Y1135D01*
X289Y1135D01*
X289Y1137D01*
X287Y1137D01*
X287Y1139D01*
X283Y1139D01*
X283Y1141D01*
X279Y1141D01*
X279Y1143D01*
X275Y1143D01*
X275Y1145D01*
X273Y1145D01*
X273Y1147D01*
X269Y1147D01*
X269Y1149D01*
X265Y1149D01*
X265Y1151D01*
X263Y1151D01*
X263Y1153D01*
X259Y1153D01*
X259Y1155D01*
X255Y1155D01*
X255Y1157D01*
X251Y1157D01*
X251Y1159D01*
X247Y1159D01*
X247Y1161D01*
X223Y1161D01*
X223Y1163D01*
X199Y1163D01*
X199Y1165D01*
X147Y1165D01*
G37*
D02*
G36*
X115Y1137D02*
X115Y1123D01*
X117Y1123D01*
X117Y1121D01*
X119Y1121D01*
X119Y1117D01*
X121Y1117D01*
X121Y1113D01*
X123Y1113D01*
X123Y1111D01*
X125Y1111D01*
X125Y1109D01*
X127Y1109D01*
X127Y1105D01*
X129Y1105D01*
X129Y1101D01*
X131Y1101D01*
X131Y1097D01*
X133Y1097D01*
X133Y1089D01*
X135Y1089D01*
X135Y1079D01*
X139Y1079D01*
X139Y1077D01*
X141Y1077D01*
X141Y1075D01*
X143Y1075D01*
X143Y1073D01*
X147Y1073D01*
X147Y1071D01*
X149Y1071D01*
X149Y1069D01*
X153Y1069D01*
X153Y1067D01*
X155Y1067D01*
X155Y1065D01*
X157Y1065D01*
X157Y1063D01*
X161Y1063D01*
X161Y1061D01*
X163Y1061D01*
X163Y1059D01*
X165Y1059D01*
X165Y1057D01*
X169Y1057D01*
X169Y1055D01*
X171Y1055D01*
X171Y1053D01*
X173Y1053D01*
X173Y1051D01*
X175Y1051D01*
X175Y1047D01*
X177Y1047D01*
X177Y1033D01*
X179Y1033D01*
X179Y1027D01*
X199Y1027D01*
X199Y1029D01*
X201Y1029D01*
X201Y1049D01*
X199Y1049D01*
X199Y1051D01*
X197Y1051D01*
X197Y1053D01*
X195Y1053D01*
X195Y1055D01*
X193Y1055D01*
X193Y1057D01*
X191Y1057D01*
X191Y1059D01*
X189Y1059D01*
X189Y1061D01*
X187Y1061D01*
X187Y1065D01*
X185Y1065D01*
X185Y1069D01*
X183Y1069D01*
X183Y1075D01*
X181Y1075D01*
X181Y1085D01*
X179Y1085D01*
X179Y1093D01*
X181Y1093D01*
X181Y1103D01*
X183Y1103D01*
X183Y1109D01*
X185Y1109D01*
X185Y1113D01*
X187Y1113D01*
X187Y1115D01*
X189Y1115D01*
X189Y1119D01*
X191Y1119D01*
X191Y1121D01*
X193Y1121D01*
X193Y1123D01*
X195Y1123D01*
X195Y1125D01*
X197Y1125D01*
X197Y1127D01*
X199Y1127D01*
X199Y1129D01*
X203Y1129D01*
X203Y1131D01*
X207Y1131D01*
X207Y1133D01*
X211Y1133D01*
X211Y1135D01*
X217Y1135D01*
X217Y1137D01*
X115Y1137D01*
G37*
D02*
G36*
X115Y943D02*
X115Y941D01*
X111Y941D01*
X111Y939D01*
X107Y939D01*
X107Y737D01*
X105Y737D01*
X105Y449D01*
X103Y449D01*
X103Y417D01*
X109Y417D01*
X109Y415D01*
X117Y415D01*
X117Y413D01*
X123Y413D01*
X123Y411D01*
X131Y411D01*
X131Y409D01*
X185Y409D01*
X185Y413D01*
X187Y413D01*
X187Y415D01*
X189Y415D01*
X189Y419D01*
X191Y419D01*
X191Y421D01*
X193Y421D01*
X193Y423D01*
X195Y423D01*
X195Y425D01*
X197Y425D01*
X197Y427D01*
X199Y427D01*
X199Y429D01*
X201Y429D01*
X201Y449D01*
X199Y449D01*
X199Y451D01*
X197Y451D01*
X197Y453D01*
X195Y453D01*
X195Y455D01*
X193Y455D01*
X193Y457D01*
X191Y457D01*
X191Y459D01*
X189Y459D01*
X189Y461D01*
X187Y461D01*
X187Y465D01*
X185Y465D01*
X185Y469D01*
X183Y469D01*
X183Y475D01*
X181Y475D01*
X181Y485D01*
X177Y485D01*
X177Y487D01*
X171Y487D01*
X171Y489D01*
X167Y489D01*
X167Y491D01*
X161Y491D01*
X161Y493D01*
X157Y493D01*
X157Y495D01*
X153Y495D01*
X153Y497D01*
X149Y497D01*
X149Y499D01*
X147Y499D01*
X147Y503D01*
X145Y503D01*
X145Y507D01*
X143Y507D01*
X143Y511D01*
X141Y511D01*
X141Y515D01*
X139Y515D01*
X139Y519D01*
X137Y519D01*
X137Y523D01*
X135Y523D01*
X135Y529D01*
X133Y529D01*
X133Y533D01*
X131Y533D01*
X131Y537D01*
X129Y537D01*
X129Y541D01*
X127Y541D01*
X127Y547D01*
X125Y547D01*
X125Y637D01*
X127Y637D01*
X127Y835D01*
X129Y835D01*
X129Y905D01*
X131Y905D01*
X131Y917D01*
X133Y917D01*
X133Y931D01*
X135Y931D01*
X135Y943D01*
X115Y943D01*
G37*
D02*
G36*
X339Y931D02*
X339Y927D01*
X337Y927D01*
X337Y925D01*
X335Y925D01*
X335Y923D01*
X331Y923D01*
X331Y921D01*
X327Y921D01*
X327Y919D01*
X325Y919D01*
X325Y917D01*
X321Y917D01*
X321Y915D01*
X317Y915D01*
X317Y913D01*
X313Y913D01*
X313Y911D01*
X311Y911D01*
X311Y909D01*
X307Y909D01*
X307Y907D01*
X303Y907D01*
X303Y905D01*
X299Y905D01*
X299Y903D01*
X297Y903D01*
X297Y901D01*
X293Y901D01*
X293Y899D01*
X289Y899D01*
X289Y897D01*
X285Y897D01*
X285Y895D01*
X283Y895D01*
X283Y893D01*
X279Y893D01*
X279Y891D01*
X277Y891D01*
X277Y877D01*
X275Y877D01*
X275Y871D01*
X273Y871D01*
X273Y867D01*
X271Y867D01*
X271Y863D01*
X269Y863D01*
X269Y861D01*
X267Y861D01*
X267Y857D01*
X265Y857D01*
X265Y855D01*
X263Y855D01*
X263Y853D01*
X261Y853D01*
X261Y845D01*
X283Y845D01*
X283Y847D01*
X287Y847D01*
X287Y849D01*
X291Y849D01*
X291Y851D01*
X293Y851D01*
X293Y853D01*
X297Y853D01*
X297Y855D01*
X301Y855D01*
X301Y857D01*
X303Y857D01*
X303Y859D01*
X307Y859D01*
X307Y861D01*
X311Y861D01*
X311Y863D01*
X313Y863D01*
X313Y865D01*
X317Y865D01*
X317Y867D01*
X321Y867D01*
X321Y869D01*
X325Y869D01*
X325Y871D01*
X327Y871D01*
X327Y873D01*
X331Y873D01*
X331Y875D01*
X335Y875D01*
X335Y877D01*
X337Y877D01*
X337Y879D01*
X341Y879D01*
X341Y881D01*
X345Y881D01*
X345Y883D01*
X349Y883D01*
X349Y885D01*
X351Y885D01*
X351Y887D01*
X355Y887D01*
X355Y889D01*
X359Y889D01*
X359Y931D01*
X339Y931D01*
G37*
D02*
G36*
X295Y803D02*
X295Y801D01*
X291Y801D01*
X291Y799D01*
X289Y799D01*
X289Y797D01*
X285Y797D01*
X285Y795D01*
X281Y795D01*
X281Y793D01*
X277Y793D01*
X277Y777D01*
X275Y777D01*
X275Y771D01*
X273Y771D01*
X273Y767D01*
X271Y767D01*
X271Y763D01*
X269Y763D01*
X269Y761D01*
X267Y761D01*
X267Y757D01*
X265Y757D01*
X265Y755D01*
X263Y755D01*
X263Y753D01*
X261Y753D01*
X261Y751D01*
X259Y751D01*
X259Y749D01*
X255Y749D01*
X255Y729D01*
X257Y729D01*
X257Y727D01*
X259Y727D01*
X259Y725D01*
X263Y725D01*
X263Y723D01*
X265Y723D01*
X265Y719D01*
X267Y719D01*
X267Y717D01*
X269Y717D01*
X269Y715D01*
X271Y715D01*
X271Y711D01*
X301Y711D01*
X301Y709D01*
X321Y709D01*
X321Y713D01*
X323Y713D01*
X323Y715D01*
X325Y715D01*
X325Y719D01*
X327Y719D01*
X327Y721D01*
X329Y721D01*
X329Y723D01*
X331Y723D01*
X331Y725D01*
X333Y725D01*
X333Y727D01*
X337Y727D01*
X337Y747D01*
X335Y747D01*
X335Y749D01*
X333Y749D01*
X333Y751D01*
X331Y751D01*
X331Y753D01*
X329Y753D01*
X329Y755D01*
X327Y755D01*
X327Y757D01*
X325Y757D01*
X325Y759D01*
X323Y759D01*
X323Y763D01*
X321Y763D01*
X321Y765D01*
X319Y765D01*
X319Y771D01*
X317Y771D01*
X317Y777D01*
X315Y777D01*
X315Y803D01*
X295Y803D01*
G37*
D02*
G36*
X271Y667D02*
X271Y663D01*
X269Y663D01*
X269Y661D01*
X267Y661D01*
X267Y657D01*
X265Y657D01*
X265Y655D01*
X263Y655D01*
X263Y653D01*
X261Y653D01*
X261Y651D01*
X259Y651D01*
X259Y649D01*
X255Y649D01*
X255Y629D01*
X257Y629D01*
X257Y627D01*
X259Y627D01*
X259Y625D01*
X263Y625D01*
X263Y623D01*
X265Y623D01*
X265Y619D01*
X267Y619D01*
X267Y617D01*
X269Y617D01*
X269Y615D01*
X271Y615D01*
X271Y611D01*
X301Y611D01*
X301Y609D01*
X321Y609D01*
X321Y613D01*
X323Y613D01*
X323Y615D01*
X325Y615D01*
X325Y619D01*
X327Y619D01*
X327Y621D01*
X329Y621D01*
X329Y623D01*
X331Y623D01*
X331Y625D01*
X333Y625D01*
X333Y627D01*
X337Y627D01*
X337Y647D01*
X335Y647D01*
X335Y649D01*
X333Y649D01*
X333Y651D01*
X331Y651D01*
X331Y653D01*
X329Y653D01*
X329Y655D01*
X327Y655D01*
X327Y657D01*
X325Y657D01*
X325Y659D01*
X323Y659D01*
X323Y663D01*
X321Y663D01*
X321Y665D01*
X299Y665D01*
X299Y667D01*
X271Y667D01*
G37*
D02*
G36*
X271Y567D02*
X271Y563D01*
X269Y563D01*
X269Y561D01*
X267Y561D01*
X267Y557D01*
X265Y557D01*
X265Y555D01*
X263Y555D01*
X263Y553D01*
X261Y553D01*
X261Y551D01*
X259Y551D01*
X259Y549D01*
X255Y549D01*
X255Y529D01*
X257Y529D01*
X257Y527D01*
X259Y527D01*
X259Y525D01*
X263Y525D01*
X263Y523D01*
X265Y523D01*
X265Y519D01*
X267Y519D01*
X267Y517D01*
X269Y517D01*
X269Y515D01*
X271Y515D01*
X271Y511D01*
X301Y511D01*
X301Y509D01*
X321Y509D01*
X321Y513D01*
X323Y513D01*
X323Y515D01*
X325Y515D01*
X325Y519D01*
X327Y519D01*
X327Y521D01*
X329Y521D01*
X329Y523D01*
X331Y523D01*
X331Y525D01*
X333Y525D01*
X333Y527D01*
X337Y527D01*
X337Y547D01*
X335Y547D01*
X335Y549D01*
X333Y549D01*
X333Y551D01*
X331Y551D01*
X331Y553D01*
X329Y553D01*
X329Y555D01*
X327Y555D01*
X327Y557D01*
X325Y557D01*
X325Y559D01*
X323Y559D01*
X323Y563D01*
X321Y563D01*
X321Y565D01*
X299Y565D01*
X299Y567D01*
X271Y567D01*
G37*
D02*
G36*
X511Y1363D02*
X511Y1361D01*
X509Y1361D01*
X509Y1359D01*
X507Y1359D01*
X507Y1357D01*
X505Y1357D01*
X505Y1355D01*
X503Y1355D01*
X503Y1353D01*
X499Y1353D01*
X499Y1351D01*
X497Y1351D01*
X497Y1349D01*
X495Y1349D01*
X495Y1347D01*
X493Y1347D01*
X493Y1345D01*
X491Y1345D01*
X491Y1343D01*
X489Y1343D01*
X489Y1341D01*
X487Y1341D01*
X487Y1249D01*
X581Y1249D01*
X581Y1251D01*
X575Y1251D01*
X575Y1253D01*
X571Y1253D01*
X571Y1255D01*
X567Y1255D01*
X567Y1257D01*
X565Y1257D01*
X565Y1259D01*
X563Y1259D01*
X563Y1261D01*
X559Y1261D01*
X559Y1263D01*
X557Y1263D01*
X557Y1267D01*
X555Y1267D01*
X555Y1269D01*
X553Y1269D01*
X553Y1271D01*
X551Y1271D01*
X551Y1275D01*
X549Y1275D01*
X549Y1279D01*
X547Y1279D01*
X547Y1287D01*
X545Y1287D01*
X545Y1307D01*
X547Y1307D01*
X547Y1315D01*
X549Y1315D01*
X549Y1319D01*
X551Y1319D01*
X551Y1323D01*
X553Y1323D01*
X553Y1325D01*
X555Y1325D01*
X555Y1329D01*
X557Y1329D01*
X557Y1331D01*
X559Y1331D01*
X559Y1333D01*
X561Y1333D01*
X561Y1335D01*
X565Y1335D01*
X565Y1337D01*
X567Y1337D01*
X567Y1339D01*
X571Y1339D01*
X571Y1341D01*
X573Y1341D01*
X573Y1343D01*
X581Y1343D01*
X581Y1363D01*
X511Y1363D01*
G37*
D02*
G36*
X633Y1269D02*
X633Y1267D01*
X631Y1267D01*
X631Y1265D01*
X629Y1265D01*
X629Y1263D01*
X627Y1263D01*
X627Y1261D01*
X625Y1261D01*
X625Y1259D01*
X623Y1259D01*
X623Y1257D01*
X619Y1257D01*
X619Y1255D01*
X617Y1255D01*
X617Y1253D01*
X613Y1253D01*
X613Y1251D01*
X605Y1251D01*
X605Y1249D01*
X681Y1249D01*
X681Y1251D01*
X675Y1251D01*
X675Y1253D01*
X671Y1253D01*
X671Y1255D01*
X667Y1255D01*
X667Y1257D01*
X665Y1257D01*
X665Y1259D01*
X663Y1259D01*
X663Y1261D01*
X659Y1261D01*
X659Y1263D01*
X657Y1263D01*
X657Y1267D01*
X655Y1267D01*
X655Y1269D01*
X633Y1269D01*
G37*
D02*
G36*
X733Y1269D02*
X733Y1267D01*
X731Y1267D01*
X731Y1265D01*
X729Y1265D01*
X729Y1263D01*
X727Y1263D01*
X727Y1261D01*
X725Y1261D01*
X725Y1259D01*
X723Y1259D01*
X723Y1257D01*
X719Y1257D01*
X719Y1255D01*
X717Y1255D01*
X717Y1253D01*
X713Y1253D01*
X713Y1251D01*
X705Y1251D01*
X705Y1249D01*
X781Y1249D01*
X781Y1251D01*
X775Y1251D01*
X775Y1253D01*
X771Y1253D01*
X771Y1255D01*
X767Y1255D01*
X767Y1257D01*
X765Y1257D01*
X765Y1259D01*
X763Y1259D01*
X763Y1261D01*
X759Y1261D01*
X759Y1263D01*
X757Y1263D01*
X757Y1267D01*
X755Y1267D01*
X755Y1269D01*
X733Y1269D01*
G37*
D02*
G36*
X833Y1269D02*
X833Y1267D01*
X831Y1267D01*
X831Y1265D01*
X829Y1265D01*
X829Y1263D01*
X827Y1263D01*
X827Y1261D01*
X825Y1261D01*
X825Y1259D01*
X823Y1259D01*
X823Y1257D01*
X819Y1257D01*
X819Y1255D01*
X817Y1255D01*
X817Y1253D01*
X813Y1253D01*
X813Y1251D01*
X805Y1251D01*
X805Y1249D01*
X871Y1249D01*
X871Y1255D01*
X867Y1255D01*
X867Y1257D01*
X865Y1257D01*
X865Y1259D01*
X863Y1259D01*
X863Y1261D01*
X859Y1261D01*
X859Y1263D01*
X857Y1263D01*
X857Y1267D01*
X855Y1267D01*
X855Y1269D01*
X833Y1269D01*
G37*
D02*
G36*
X933Y1269D02*
X933Y1267D01*
X931Y1267D01*
X931Y1265D01*
X929Y1265D01*
X929Y1263D01*
X927Y1263D01*
X927Y1261D01*
X925Y1261D01*
X925Y1259D01*
X923Y1259D01*
X923Y1257D01*
X919Y1257D01*
X919Y1255D01*
X917Y1255D01*
X917Y1253D01*
X915Y1253D01*
X915Y1087D01*
X913Y1087D01*
X913Y833D01*
X911Y833D01*
X911Y607D01*
X913Y607D01*
X913Y605D01*
X915Y605D01*
X915Y599D01*
X917Y599D01*
X917Y581D01*
X915Y581D01*
X915Y577D01*
X913Y577D01*
X913Y573D01*
X911Y573D01*
X911Y571D01*
X909Y571D01*
X909Y569D01*
X907Y569D01*
X907Y567D01*
X905Y567D01*
X905Y565D01*
X901Y565D01*
X901Y563D01*
X897Y563D01*
X897Y561D01*
X981Y561D01*
X981Y565D01*
X979Y565D01*
X979Y567D01*
X977Y567D01*
X977Y571D01*
X975Y571D01*
X975Y575D01*
X973Y575D01*
X973Y579D01*
X971Y579D01*
X971Y581D01*
X969Y581D01*
X969Y585D01*
X967Y585D01*
X967Y589D01*
X965Y589D01*
X965Y593D01*
X963Y593D01*
X963Y1167D01*
X965Y1167D01*
X965Y1255D01*
X961Y1255D01*
X961Y1257D01*
X959Y1257D01*
X959Y1259D01*
X957Y1259D01*
X957Y1263D01*
X955Y1263D01*
X955Y1267D01*
X953Y1267D01*
X953Y1269D01*
X933Y1269D01*
G37*
D02*
G36*
X487Y1249D02*
X487Y1247D01*
X871Y1247D01*
X871Y1249D01*
X487Y1249D01*
G37*
D02*
G36*
X487Y1249D02*
X487Y1247D01*
X871Y1247D01*
X871Y1249D01*
X487Y1249D01*
G37*
D02*
G36*
X487Y1249D02*
X487Y1247D01*
X871Y1247D01*
X871Y1249D01*
X487Y1249D01*
G37*
D02*
G36*
X487Y1249D02*
X487Y1247D01*
X871Y1247D01*
X871Y1249D01*
X487Y1249D01*
G37*
D02*
G36*
X487Y1247D02*
X487Y895D01*
X485Y895D01*
X485Y887D01*
X483Y887D01*
X483Y885D01*
X481Y885D01*
X481Y881D01*
X479Y881D01*
X479Y879D01*
X477Y879D01*
X477Y877D01*
X475Y877D01*
X475Y875D01*
X473Y875D01*
X473Y873D01*
X471Y873D01*
X471Y871D01*
X469Y871D01*
X469Y869D01*
X467Y869D01*
X467Y867D01*
X465Y867D01*
X465Y865D01*
X463Y865D01*
X463Y863D01*
X461Y863D01*
X461Y859D01*
X459Y859D01*
X459Y857D01*
X457Y857D01*
X457Y855D01*
X455Y855D01*
X455Y853D01*
X453Y853D01*
X453Y851D01*
X451Y851D01*
X451Y849D01*
X449Y849D01*
X449Y847D01*
X447Y847D01*
X447Y845D01*
X445Y845D01*
X445Y843D01*
X443Y843D01*
X443Y841D01*
X441Y841D01*
X441Y837D01*
X439Y837D01*
X439Y835D01*
X437Y835D01*
X437Y833D01*
X435Y833D01*
X435Y831D01*
X433Y831D01*
X433Y829D01*
X431Y829D01*
X431Y827D01*
X429Y827D01*
X429Y825D01*
X427Y825D01*
X427Y823D01*
X425Y823D01*
X425Y821D01*
X423Y821D01*
X423Y819D01*
X421Y819D01*
X421Y817D01*
X419Y817D01*
X419Y813D01*
X417Y813D01*
X417Y811D01*
X415Y811D01*
X415Y809D01*
X413Y809D01*
X413Y779D01*
X411Y779D01*
X411Y771D01*
X409Y771D01*
X409Y767D01*
X407Y767D01*
X407Y763D01*
X405Y763D01*
X405Y759D01*
X403Y759D01*
X403Y757D01*
X401Y757D01*
X401Y755D01*
X399Y755D01*
X399Y753D01*
X397Y753D01*
X397Y751D01*
X395Y751D01*
X395Y749D01*
X393Y749D01*
X393Y747D01*
X391Y747D01*
X391Y727D01*
X393Y727D01*
X393Y725D01*
X397Y725D01*
X397Y723D01*
X399Y723D01*
X399Y721D01*
X401Y721D01*
X401Y717D01*
X403Y717D01*
X403Y715D01*
X405Y715D01*
X405Y711D01*
X407Y711D01*
X407Y709D01*
X409Y709D01*
X409Y703D01*
X411Y703D01*
X411Y695D01*
X413Y695D01*
X413Y679D01*
X411Y679D01*
X411Y671D01*
X409Y671D01*
X409Y667D01*
X407Y667D01*
X407Y663D01*
X405Y663D01*
X405Y659D01*
X403Y659D01*
X403Y657D01*
X401Y657D01*
X401Y655D01*
X399Y655D01*
X399Y653D01*
X397Y653D01*
X397Y651D01*
X395Y651D01*
X395Y649D01*
X393Y649D01*
X393Y647D01*
X391Y647D01*
X391Y627D01*
X393Y627D01*
X393Y625D01*
X397Y625D01*
X397Y623D01*
X399Y623D01*
X399Y621D01*
X401Y621D01*
X401Y617D01*
X403Y617D01*
X403Y615D01*
X405Y615D01*
X405Y611D01*
X407Y611D01*
X407Y609D01*
X409Y609D01*
X409Y603D01*
X411Y603D01*
X411Y595D01*
X413Y595D01*
X413Y579D01*
X411Y579D01*
X411Y571D01*
X409Y571D01*
X409Y567D01*
X407Y567D01*
X407Y563D01*
X405Y563D01*
X405Y561D01*
X879Y561D01*
X879Y563D01*
X875Y563D01*
X875Y565D01*
X871Y565D01*
X871Y567D01*
X869Y567D01*
X869Y569D01*
X867Y569D01*
X867Y571D01*
X865Y571D01*
X865Y573D01*
X863Y573D01*
X863Y577D01*
X861Y577D01*
X861Y581D01*
X859Y581D01*
X859Y599D01*
X861Y599D01*
X861Y605D01*
X863Y605D01*
X863Y607D01*
X865Y607D01*
X865Y609D01*
X867Y609D01*
X867Y833D01*
X869Y833D01*
X869Y1089D01*
X871Y1089D01*
X871Y1247D01*
X487Y1247D01*
G37*
D02*
G36*
X405Y561D02*
X405Y559D01*
X983Y559D01*
X983Y561D01*
X405Y561D01*
G37*
D02*
G36*
X405Y561D02*
X405Y559D01*
X983Y559D01*
X983Y561D01*
X405Y561D01*
G37*
D02*
G36*
X403Y559D02*
X403Y557D01*
X401Y557D01*
X401Y555D01*
X399Y555D01*
X399Y553D01*
X397Y553D01*
X397Y551D01*
X395Y551D01*
X395Y549D01*
X393Y549D01*
X393Y547D01*
X391Y547D01*
X391Y527D01*
X393Y527D01*
X393Y525D01*
X397Y525D01*
X397Y523D01*
X399Y523D01*
X399Y521D01*
X401Y521D01*
X401Y517D01*
X403Y517D01*
X403Y515D01*
X405Y515D01*
X405Y511D01*
X407Y511D01*
X407Y509D01*
X409Y509D01*
X409Y503D01*
X411Y503D01*
X411Y495D01*
X413Y495D01*
X413Y479D01*
X411Y479D01*
X411Y471D01*
X409Y471D01*
X409Y467D01*
X407Y467D01*
X407Y463D01*
X405Y463D01*
X405Y459D01*
X403Y459D01*
X403Y457D01*
X401Y457D01*
X401Y455D01*
X399Y455D01*
X399Y453D01*
X397Y453D01*
X397Y451D01*
X395Y451D01*
X395Y449D01*
X393Y449D01*
X393Y447D01*
X389Y447D01*
X389Y445D01*
X385Y445D01*
X385Y443D01*
X381Y443D01*
X381Y441D01*
X375Y441D01*
X375Y439D01*
X1101Y439D01*
X1101Y449D01*
X1099Y449D01*
X1099Y451D01*
X1097Y451D01*
X1097Y453D01*
X1095Y453D01*
X1095Y455D01*
X1093Y455D01*
X1093Y457D01*
X1091Y457D01*
X1091Y459D01*
X1089Y459D01*
X1089Y461D01*
X1087Y461D01*
X1087Y465D01*
X1085Y465D01*
X1085Y469D01*
X1083Y469D01*
X1083Y475D01*
X1081Y475D01*
X1081Y483D01*
X1075Y483D01*
X1075Y485D01*
X1069Y485D01*
X1069Y487D01*
X1063Y487D01*
X1063Y489D01*
X1057Y489D01*
X1057Y491D01*
X1051Y491D01*
X1051Y493D01*
X1045Y493D01*
X1045Y495D01*
X1041Y495D01*
X1041Y497D01*
X1035Y497D01*
X1035Y499D01*
X1029Y499D01*
X1029Y501D01*
X1023Y501D01*
X1023Y503D01*
X1019Y503D01*
X1019Y505D01*
X1015Y505D01*
X1015Y507D01*
X1013Y507D01*
X1013Y509D01*
X1011Y509D01*
X1011Y513D01*
X1009Y513D01*
X1009Y517D01*
X1007Y517D01*
X1007Y519D01*
X1005Y519D01*
X1005Y523D01*
X1003Y523D01*
X1003Y527D01*
X1001Y527D01*
X1001Y529D01*
X999Y529D01*
X999Y533D01*
X997Y533D01*
X997Y537D01*
X995Y537D01*
X995Y541D01*
X993Y541D01*
X993Y543D01*
X991Y543D01*
X991Y547D01*
X989Y547D01*
X989Y551D01*
X987Y551D01*
X987Y555D01*
X985Y555D01*
X985Y557D01*
X983Y557D01*
X983Y559D01*
X403Y559D01*
G37*
D02*
G36*
X271Y467D02*
X271Y463D01*
X269Y463D01*
X269Y461D01*
X267Y461D01*
X267Y457D01*
X265Y457D01*
X265Y455D01*
X263Y455D01*
X263Y453D01*
X261Y453D01*
X261Y451D01*
X259Y451D01*
X259Y449D01*
X255Y449D01*
X255Y439D01*
X353Y439D01*
X353Y441D01*
X345Y441D01*
X345Y443D01*
X341Y443D01*
X341Y445D01*
X339Y445D01*
X339Y447D01*
X335Y447D01*
X335Y449D01*
X333Y449D01*
X333Y451D01*
X331Y451D01*
X331Y453D01*
X329Y453D01*
X329Y455D01*
X327Y455D01*
X327Y457D01*
X325Y457D01*
X325Y459D01*
X323Y459D01*
X323Y463D01*
X321Y463D01*
X321Y465D01*
X299Y465D01*
X299Y467D01*
X271Y467D01*
G37*
D02*
G36*
X255Y439D02*
X255Y437D01*
X1101Y437D01*
X1101Y439D01*
X255Y439D01*
G37*
D02*
G36*
X255Y439D02*
X255Y437D01*
X1101Y437D01*
X1101Y439D01*
X255Y439D01*
G37*
D02*
G36*
X255Y437D02*
X255Y429D01*
X257Y429D01*
X257Y427D01*
X259Y427D01*
X259Y425D01*
X263Y425D01*
X263Y423D01*
X265Y423D01*
X265Y419D01*
X267Y419D01*
X267Y417D01*
X269Y417D01*
X269Y415D01*
X271Y415D01*
X271Y411D01*
X273Y411D01*
X273Y407D01*
X275Y407D01*
X275Y399D01*
X277Y399D01*
X277Y377D01*
X275Y377D01*
X275Y371D01*
X273Y371D01*
X273Y367D01*
X271Y367D01*
X271Y363D01*
X269Y363D01*
X269Y361D01*
X267Y361D01*
X267Y357D01*
X265Y357D01*
X265Y355D01*
X263Y355D01*
X263Y353D01*
X261Y353D01*
X261Y351D01*
X259Y351D01*
X259Y349D01*
X255Y349D01*
X255Y347D01*
X251Y347D01*
X251Y345D01*
X249Y345D01*
X249Y343D01*
X243Y343D01*
X243Y341D01*
X233Y341D01*
X233Y339D01*
X1125Y339D01*
X1125Y341D01*
X1115Y341D01*
X1115Y343D01*
X1109Y343D01*
X1109Y345D01*
X1105Y345D01*
X1105Y347D01*
X1101Y347D01*
X1101Y349D01*
X1099Y349D01*
X1099Y351D01*
X1097Y351D01*
X1097Y353D01*
X1095Y353D01*
X1095Y355D01*
X1093Y355D01*
X1093Y357D01*
X1091Y357D01*
X1091Y359D01*
X1089Y359D01*
X1089Y361D01*
X1087Y361D01*
X1087Y365D01*
X1085Y365D01*
X1085Y369D01*
X1083Y369D01*
X1083Y375D01*
X1081Y375D01*
X1081Y385D01*
X1079Y385D01*
X1079Y393D01*
X1081Y393D01*
X1081Y403D01*
X1083Y403D01*
X1083Y409D01*
X1085Y409D01*
X1085Y413D01*
X1087Y413D01*
X1087Y415D01*
X1089Y415D01*
X1089Y419D01*
X1091Y419D01*
X1091Y421D01*
X1093Y421D01*
X1093Y423D01*
X1095Y423D01*
X1095Y425D01*
X1097Y425D01*
X1097Y427D01*
X1099Y427D01*
X1099Y429D01*
X1101Y429D01*
X1101Y437D01*
X255Y437D01*
G37*
D02*
G36*
X91Y369D02*
X91Y363D01*
X89Y363D01*
X89Y359D01*
X87Y359D01*
X87Y355D01*
X85Y355D01*
X85Y349D01*
X83Y349D01*
X83Y345D01*
X81Y345D01*
X81Y339D01*
X225Y339D01*
X225Y341D01*
X215Y341D01*
X215Y343D01*
X209Y343D01*
X209Y345D01*
X205Y345D01*
X205Y347D01*
X201Y347D01*
X201Y349D01*
X199Y349D01*
X199Y351D01*
X197Y351D01*
X197Y353D01*
X195Y353D01*
X195Y355D01*
X193Y355D01*
X193Y357D01*
X191Y357D01*
X191Y359D01*
X189Y359D01*
X189Y361D01*
X187Y361D01*
X187Y365D01*
X125Y365D01*
X125Y367D01*
X117Y367D01*
X117Y369D01*
X91Y369D01*
G37*
D02*
G36*
X1149Y345D02*
X1149Y343D01*
X1143Y343D01*
X1143Y341D01*
X1133Y341D01*
X1133Y339D01*
X1169Y339D01*
X1169Y345D01*
X1149Y345D01*
G37*
D02*
G36*
X79Y339D02*
X79Y337D01*
X1169Y337D01*
X1169Y339D01*
X79Y339D01*
G37*
D02*
G36*
X79Y339D02*
X79Y337D01*
X1169Y337D01*
X1169Y339D01*
X79Y339D01*
G37*
D02*
G36*
X79Y339D02*
X79Y337D01*
X1169Y337D01*
X1169Y339D01*
X79Y339D01*
G37*
D02*
G36*
X79Y337D02*
X79Y335D01*
X77Y335D01*
X77Y331D01*
X75Y331D01*
X75Y325D01*
X73Y325D01*
X73Y323D01*
X725Y323D01*
X725Y321D01*
X733Y321D01*
X733Y319D01*
X739Y319D01*
X739Y317D01*
X743Y317D01*
X743Y315D01*
X745Y315D01*
X745Y313D01*
X747Y313D01*
X747Y311D01*
X751Y311D01*
X751Y309D01*
X753Y309D01*
X753Y307D01*
X755Y307D01*
X755Y303D01*
X757Y303D01*
X757Y301D01*
X759Y301D01*
X759Y299D01*
X761Y299D01*
X761Y295D01*
X763Y295D01*
X763Y289D01*
X765Y289D01*
X765Y281D01*
X767Y281D01*
X767Y273D01*
X1095Y273D01*
X1095Y271D01*
X1105Y271D01*
X1105Y269D01*
X1113Y269D01*
X1113Y267D01*
X1117Y267D01*
X1117Y265D01*
X1123Y265D01*
X1123Y263D01*
X1127Y263D01*
X1127Y261D01*
X1131Y261D01*
X1131Y259D01*
X1135Y259D01*
X1135Y257D01*
X1139Y257D01*
X1139Y255D01*
X1141Y255D01*
X1141Y253D01*
X1145Y253D01*
X1145Y251D01*
X1147Y251D01*
X1147Y249D01*
X1149Y249D01*
X1149Y247D01*
X1169Y247D01*
X1169Y337D01*
X79Y337D01*
G37*
D02*
G36*
X73Y323D02*
X73Y321D01*
X553Y321D01*
X553Y319D01*
X559Y319D01*
X559Y317D01*
X563Y317D01*
X563Y315D01*
X567Y315D01*
X567Y313D01*
X569Y313D01*
X569Y311D01*
X573Y311D01*
X573Y309D01*
X575Y309D01*
X575Y307D01*
X577Y307D01*
X577Y305D01*
X579Y305D01*
X579Y301D01*
X581Y301D01*
X581Y299D01*
X583Y299D01*
X583Y295D01*
X585Y295D01*
X585Y293D01*
X587Y293D01*
X587Y285D01*
X589Y285D01*
X589Y275D01*
X591Y275D01*
X591Y271D01*
X589Y271D01*
X589Y259D01*
X587Y259D01*
X587Y253D01*
X585Y253D01*
X585Y249D01*
X583Y249D01*
X583Y245D01*
X581Y245D01*
X581Y243D01*
X579Y243D01*
X579Y241D01*
X577Y241D01*
X577Y239D01*
X575Y239D01*
X575Y237D01*
X573Y237D01*
X573Y235D01*
X571Y235D01*
X571Y233D01*
X569Y233D01*
X569Y211D01*
X573Y211D01*
X573Y209D01*
X575Y209D01*
X575Y207D01*
X577Y207D01*
X577Y205D01*
X579Y205D01*
X579Y201D01*
X581Y201D01*
X581Y199D01*
X583Y199D01*
X583Y195D01*
X675Y195D01*
X675Y199D01*
X677Y199D01*
X677Y203D01*
X679Y203D01*
X679Y205D01*
X681Y205D01*
X681Y207D01*
X683Y207D01*
X683Y209D01*
X685Y209D01*
X685Y211D01*
X687Y211D01*
X687Y213D01*
X689Y213D01*
X689Y235D01*
X687Y235D01*
X687Y237D01*
X685Y237D01*
X685Y239D01*
X683Y239D01*
X683Y241D01*
X681Y241D01*
X681Y243D01*
X679Y243D01*
X679Y245D01*
X677Y245D01*
X677Y249D01*
X675Y249D01*
X675Y253D01*
X673Y253D01*
X673Y257D01*
X671Y257D01*
X671Y263D01*
X669Y263D01*
X669Y285D01*
X671Y285D01*
X671Y291D01*
X673Y291D01*
X673Y295D01*
X675Y295D01*
X675Y299D01*
X677Y299D01*
X677Y303D01*
X679Y303D01*
X679Y305D01*
X681Y305D01*
X681Y307D01*
X683Y307D01*
X683Y309D01*
X685Y309D01*
X685Y311D01*
X687Y311D01*
X687Y313D01*
X689Y313D01*
X689Y315D01*
X693Y315D01*
X693Y317D01*
X697Y317D01*
X697Y319D01*
X703Y319D01*
X703Y321D01*
X709Y321D01*
X709Y323D01*
X73Y323D01*
G37*
D02*
G36*
X71Y321D02*
X71Y315D01*
X69Y315D01*
X69Y311D01*
X67Y311D01*
X67Y307D01*
X65Y307D01*
X65Y225D01*
X111Y225D01*
X111Y223D01*
X123Y223D01*
X123Y221D01*
X129Y221D01*
X129Y219D01*
X133Y219D01*
X133Y217D01*
X137Y217D01*
X137Y215D01*
X139Y215D01*
X139Y213D01*
X141Y213D01*
X141Y211D01*
X143Y211D01*
X143Y209D01*
X145Y209D01*
X145Y207D01*
X147Y207D01*
X147Y205D01*
X149Y205D01*
X149Y203D01*
X151Y203D01*
X151Y199D01*
X153Y199D01*
X153Y197D01*
X293Y197D01*
X293Y195D01*
X499Y195D01*
X499Y199D01*
X501Y199D01*
X501Y201D01*
X503Y201D01*
X503Y205D01*
X505Y205D01*
X505Y207D01*
X507Y207D01*
X507Y209D01*
X511Y209D01*
X511Y211D01*
X513Y211D01*
X513Y233D01*
X511Y233D01*
X511Y235D01*
X509Y235D01*
X509Y237D01*
X507Y237D01*
X507Y239D01*
X505Y239D01*
X505Y241D01*
X503Y241D01*
X503Y243D01*
X501Y243D01*
X501Y247D01*
X499Y247D01*
X499Y249D01*
X497Y249D01*
X497Y253D01*
X495Y253D01*
X495Y261D01*
X493Y261D01*
X493Y285D01*
X495Y285D01*
X495Y291D01*
X497Y291D01*
X497Y295D01*
X499Y295D01*
X499Y299D01*
X501Y299D01*
X501Y301D01*
X503Y301D01*
X503Y305D01*
X505Y305D01*
X505Y307D01*
X507Y307D01*
X507Y309D01*
X511Y309D01*
X511Y311D01*
X513Y311D01*
X513Y313D01*
X515Y313D01*
X515Y315D01*
X519Y315D01*
X519Y317D01*
X523Y317D01*
X523Y319D01*
X529Y319D01*
X529Y321D01*
X71Y321D01*
G37*
D02*
G36*
X767Y273D02*
X767Y267D01*
X765Y267D01*
X765Y259D01*
X763Y259D01*
X763Y253D01*
X761Y253D01*
X761Y249D01*
X759Y249D01*
X759Y247D01*
X757Y247D01*
X757Y243D01*
X755Y243D01*
X755Y241D01*
X753Y241D01*
X753Y239D01*
X751Y239D01*
X751Y237D01*
X749Y237D01*
X749Y235D01*
X747Y235D01*
X747Y233D01*
X745Y233D01*
X745Y213D01*
X747Y213D01*
X747Y211D01*
X751Y211D01*
X751Y209D01*
X753Y209D01*
X753Y207D01*
X755Y207D01*
X755Y203D01*
X757Y203D01*
X757Y201D01*
X759Y201D01*
X759Y199D01*
X761Y199D01*
X761Y195D01*
X763Y195D01*
X763Y189D01*
X765Y189D01*
X765Y181D01*
X767Y181D01*
X767Y167D01*
X765Y167D01*
X765Y159D01*
X763Y159D01*
X763Y153D01*
X761Y153D01*
X761Y149D01*
X759Y149D01*
X759Y147D01*
X757Y147D01*
X757Y143D01*
X755Y143D01*
X755Y141D01*
X753Y141D01*
X753Y139D01*
X751Y139D01*
X751Y137D01*
X749Y137D01*
X749Y135D01*
X747Y135D01*
X747Y133D01*
X745Y133D01*
X745Y113D01*
X747Y113D01*
X747Y111D01*
X751Y111D01*
X751Y109D01*
X753Y109D01*
X753Y107D01*
X755Y107D01*
X755Y103D01*
X757Y103D01*
X757Y101D01*
X759Y101D01*
X759Y99D01*
X761Y99D01*
X761Y95D01*
X763Y95D01*
X763Y89D01*
X765Y89D01*
X765Y81D01*
X767Y81D01*
X767Y67D01*
X765Y67D01*
X765Y41D01*
X1053Y41D01*
X1053Y61D01*
X1045Y61D01*
X1045Y63D01*
X1041Y63D01*
X1041Y65D01*
X1035Y65D01*
X1035Y67D01*
X1031Y67D01*
X1031Y69D01*
X1027Y69D01*
X1027Y71D01*
X1025Y71D01*
X1025Y73D01*
X1021Y73D01*
X1021Y75D01*
X1019Y75D01*
X1019Y77D01*
X1015Y77D01*
X1015Y79D01*
X1013Y79D01*
X1013Y81D01*
X1011Y81D01*
X1011Y83D01*
X1007Y83D01*
X1007Y85D01*
X1005Y85D01*
X1005Y87D01*
X1003Y87D01*
X1003Y89D01*
X1001Y89D01*
X1001Y91D01*
X999Y91D01*
X999Y95D01*
X997Y95D01*
X997Y97D01*
X995Y97D01*
X995Y99D01*
X993Y99D01*
X993Y101D01*
X991Y101D01*
X991Y105D01*
X989Y105D01*
X989Y109D01*
X987Y109D01*
X987Y111D01*
X985Y111D01*
X985Y115D01*
X983Y115D01*
X983Y119D01*
X981Y119D01*
X981Y123D01*
X979Y123D01*
X979Y129D01*
X977Y129D01*
X977Y135D01*
X975Y135D01*
X975Y143D01*
X973Y143D01*
X973Y161D01*
X971Y161D01*
X971Y167D01*
X973Y167D01*
X973Y185D01*
X975Y185D01*
X975Y193D01*
X977Y193D01*
X977Y199D01*
X979Y199D01*
X979Y205D01*
X981Y205D01*
X981Y209D01*
X983Y209D01*
X983Y213D01*
X985Y213D01*
X985Y217D01*
X987Y217D01*
X987Y221D01*
X989Y221D01*
X989Y225D01*
X991Y225D01*
X991Y227D01*
X993Y227D01*
X993Y229D01*
X995Y229D01*
X995Y233D01*
X997Y233D01*
X997Y235D01*
X999Y235D01*
X999Y237D01*
X1001Y237D01*
X1001Y239D01*
X1003Y239D01*
X1003Y241D01*
X1005Y241D01*
X1005Y243D01*
X1007Y243D01*
X1007Y245D01*
X1009Y245D01*
X1009Y247D01*
X1011Y247D01*
X1011Y249D01*
X1013Y249D01*
X1013Y251D01*
X1017Y251D01*
X1017Y253D01*
X1019Y253D01*
X1019Y255D01*
X1023Y255D01*
X1023Y257D01*
X1025Y257D01*
X1025Y259D01*
X1029Y259D01*
X1029Y261D01*
X1033Y261D01*
X1033Y263D01*
X1037Y263D01*
X1037Y265D01*
X1043Y265D01*
X1043Y267D01*
X1049Y267D01*
X1049Y269D01*
X1055Y269D01*
X1055Y271D01*
X1067Y271D01*
X1067Y273D01*
X767Y273D01*
G37*
D02*
G36*
X65Y225D02*
X65Y217D01*
X87Y217D01*
X87Y219D01*
X89Y219D01*
X89Y221D01*
X97Y221D01*
X97Y223D01*
X107Y223D01*
X107Y225D01*
X65Y225D01*
G37*
D02*
G36*
X153Y153D02*
X153Y151D01*
X151Y151D01*
X151Y147D01*
X149Y147D01*
X149Y145D01*
X147Y145D01*
X147Y143D01*
X145Y143D01*
X145Y141D01*
X143Y141D01*
X143Y139D01*
X141Y139D01*
X141Y137D01*
X139Y137D01*
X139Y135D01*
X137Y135D01*
X137Y115D01*
X139Y115D01*
X139Y113D01*
X141Y113D01*
X141Y111D01*
X143Y111D01*
X143Y109D01*
X145Y109D01*
X145Y107D01*
X147Y107D01*
X147Y105D01*
X149Y105D01*
X149Y103D01*
X151Y103D01*
X151Y99D01*
X153Y99D01*
X153Y97D01*
X293Y97D01*
X293Y95D01*
X499Y95D01*
X499Y99D01*
X501Y99D01*
X501Y101D01*
X503Y101D01*
X503Y105D01*
X505Y105D01*
X505Y107D01*
X507Y107D01*
X507Y109D01*
X511Y109D01*
X511Y111D01*
X513Y111D01*
X513Y133D01*
X511Y133D01*
X511Y135D01*
X509Y135D01*
X509Y137D01*
X507Y137D01*
X507Y139D01*
X505Y139D01*
X505Y141D01*
X503Y141D01*
X503Y143D01*
X501Y143D01*
X501Y147D01*
X499Y147D01*
X499Y149D01*
X497Y149D01*
X497Y151D01*
X291Y151D01*
X291Y153D01*
X153Y153D01*
G37*
D02*
G36*
X585Y151D02*
X585Y149D01*
X583Y149D01*
X583Y145D01*
X581Y145D01*
X581Y143D01*
X579Y143D01*
X579Y141D01*
X577Y141D01*
X577Y139D01*
X575Y139D01*
X575Y137D01*
X573Y137D01*
X573Y135D01*
X571Y135D01*
X571Y133D01*
X569Y133D01*
X569Y111D01*
X573Y111D01*
X573Y109D01*
X575Y109D01*
X575Y107D01*
X577Y107D01*
X577Y105D01*
X579Y105D01*
X579Y101D01*
X581Y101D01*
X581Y99D01*
X583Y99D01*
X583Y95D01*
X675Y95D01*
X675Y99D01*
X677Y99D01*
X677Y103D01*
X679Y103D01*
X679Y105D01*
X681Y105D01*
X681Y107D01*
X683Y107D01*
X683Y109D01*
X685Y109D01*
X685Y111D01*
X687Y111D01*
X687Y113D01*
X689Y113D01*
X689Y135D01*
X687Y135D01*
X687Y137D01*
X685Y137D01*
X685Y139D01*
X683Y139D01*
X683Y141D01*
X681Y141D01*
X681Y143D01*
X679Y143D01*
X679Y145D01*
X677Y145D01*
X677Y149D01*
X675Y149D01*
X675Y151D01*
X585Y151D01*
G37*
D02*
G36*
X1147Y81D02*
X1147Y79D01*
X1145Y79D01*
X1145Y77D01*
X1143Y77D01*
X1143Y75D01*
X1139Y75D01*
X1139Y73D01*
X1137Y73D01*
X1137Y71D01*
X1133Y71D01*
X1133Y69D01*
X1129Y69D01*
X1129Y67D01*
X1125Y67D01*
X1125Y65D01*
X1121Y65D01*
X1121Y63D01*
X1115Y63D01*
X1115Y61D01*
X1107Y61D01*
X1107Y41D01*
X1169Y41D01*
X1169Y81D01*
X1147Y81D01*
G37*
D02*
G04 End of Copper1*
M02*