; NON-PLATED HOLES START AT T1
; THROUGH (PLATED) HOLES START AT T100
M48
INCH
T1C0.196850
T100C0.038000
T101C0.015748
T102C0.036111
%
T1
X010805Y001649
T100
X003640Y005877
X007179Y001741
X003640Y004877
X007179Y002741
X000859Y012816
X005414Y001727
X003640Y007877
X001097Y000754
X005939Y012975
X009939Y012975
X005414Y000727
X001097Y001754
X000859Y009816
X006939Y012975
X008939Y012975
X000859Y010816
X005414Y002727
X003640Y006877
X010939Y012975
X000859Y011816
X007179Y000741
X007939Y012975
T101
X008883Y005905
T102
X002288Y009889
X011288Y010889
X011288Y005889
X011288Y006889
X002288Y006889
X002288Y008889
X011288Y007889
X002288Y005889
X011288Y004889
X011288Y008889
X011288Y003889
X002288Y004889
X002288Y010889
X011288Y009889
X002288Y007889
X002288Y003889
T00
M30
