<?xml version="1.0" encoding="UTF-8" standalone="no"?>
<svg
   xmlns:dc="http://purl.org/dc/elements/1.1/"
   xmlns:cc="http://creativecommons.org/ns#"
   xmlns:rdf="http://www.w3.org/1999/02/22-rdf-syntax-ns#"
   xmlns:svg="http://www.w3.org/2000/svg"
   xmlns="http://www.w3.org/2000/svg"
   xmlns:sodipodi="http://sodipodi.sourceforge.net/DTD/sodipodi-0.dtd"
   xmlns:inkscape="http://www.inkscape.org/namespaces/inkscape"
   width="203.09999mm"
   height="190.8447mm"
   viewBox="0 0 203.09999 190.8447"
   version="1.1"
   preserveAspectRatio="xMidYMid meet"
   id="svg877"
   sodipodi:docname="V1.1 Ground unit box.svg"
   inkscape:version="0.92.4 (5da689c313, 2019-01-14)">
  <metadata
     id="metadata883">
    <rdf:RDF>
      <cc:Work
         rdf:about="">
        <dc:format>image/svg+xml</dc:format>
        <dc:type
           rdf:resource="http://purl.org/dc/dcmitype/StillImage" />
        <dc:title />
      </cc:Work>
    </rdf:RDF>
  </metadata>
  <defs
     id="defs881" />
  <sodipodi:namedview
     pagecolor="#ffffff"
     bordercolor="#666666"
     borderopacity="1"
     objecttolerance="10"
     gridtolerance="10"
     guidetolerance="10"
     inkscape:pageopacity="0"
     inkscape:pageshadow="2"
     inkscape:window-width="2560"
     inkscape:window-height="1057"
     id="namedview879"
     showgrid="false"
     inkscape:zoom="1.0278464"
     inkscape:cx="540.66142"
     inkscape:cy="362.5305"
     inkscape:window-x="-8"
     inkscape:window-y="-8"
     inkscape:window-maximized="1"
     inkscape:current-layer="svgGroup"
     inkscape:document-units="mm"
     fit-margin-top="0"
     fit-margin-left="0"
     fit-margin-right="0"
     fit-margin-bottom="0" />
  <g
     id="svgGroup"
     font-size="9pt"
     style="font-size:12px;fill:none;fill-rule:evenodd;stroke:#000000;stroke-width:0.25000001mm;stroke-linecap:round"
     transform="rotate(-180,143.025,121.525)">
    <path
       d="m 84.507418,167.1377 h 8.451 v -3 h 16.098002 v 3 h 8.451 v -15.854 h -3 v -16.097 h 3 v -16.098 h -3 v -16.097 h 3 V 87.137704 h -8.451 v 3 H 92.958418 v -3 h -8.451 V 102.9917 h 3 v 16.097 h -3 v 16.098 h 3 v 16.097 h -3 z"
       id="front_outsideCutPath"
       style="vector-effect:non-scaling-stroke;stroke:#ff0000;stroke-width:0.1"
       inkscape:connector-curvature="0" />
    <path
       d="m 86,210 v 8.451 h -3 v 16.098 h 3 V 243 h 16.756 v -3 h 16.098 v 3 h 16.097 v -3 h 16.098 v 3 h 16.097 v -3 h 16.098 v 3 H 199.341 200 v -8.451 h 3 v -16.098 h -3 V 210 h -16.756 v 3 h -16.098 v -3 h -16.097 v 3 h -16.098 v -3 h -16.097 v 3 h -16.098 v -3 H 86.659 Z"
       id="left_outsideCutPath"
       style="vector-effect:non-scaling-stroke;stroke:#ff0000;stroke-width:0.1"
       inkscape:connector-curvature="0" />
    <path
       d="m 209,126 v 16.756 h -3 v 16.098 h 3 v 16.097 h -3 v 16.098 h 3 v 16.097 h -3 v 16.098 h 3 V 239.341 240 h 12.854 v 3 h 16.097 v -3 h 16.098 v 3 h 16.097 v -3 H 283 v -16.756 h 3 v -16.098 h -3 v -16.097 h 3 v -16.098 h -3 v -16.097 h 3 v -16.098 h -3 V 126.659 126 h -12.854 v -3 h -16.097 v 3 h -16.098 v -3 h -16.097 v 3 z"
       id="top_outsideCutPath"
       style="vector-effect:non-scaling-stroke;stroke:#ff0000;stroke-width:0.1"
       inkscape:connector-curvature="0" />
    <path
       d="m 204.64514,86.221395 v 8.451 h 3 v 16.097995 h -3 v 8.451 h 15.854 v -3 h 16.097 v 3 h 16.098 v -3 h 16.097 v 3 h 15.854 v -8.451 h -3 V 94.672395 h 3 v -8.451 h -15.854 v 3 h -16.097 v -3 h -16.098 v 3 h -16.097 v -3 z"
       id="back_outsideCutPath"
       style="vector-effect:non-scaling-stroke;stroke:#ff0000;stroke-width:0.1"
       inkscape:connector-curvature="0" />
    <path
       d="m 86,174 v 8.451 h -3 v 16.098 h 3 V 207 h 16.756 v -3 h 16.098 v 3 h 16.097 v -3 h 16.098 v 3 h 16.097 v -3 h 16.098 v 3 H 199.341 200 v -8.451 h 3 v -16.098 h -3 V 174 h -16.756 v 3 h -16.098 v -3 h -16.097 v 3 h -16.098 v -3 h -16.097 v 3 h -16.098 v -3 H 86.659 Z"
       id="right_outsideCutPath"
       style="vector-effect:non-scaling-stroke;stroke:#ff0000;stroke-width:0.1"
       inkscape:connector-curvature="0" />
    <path
       d="m 199.08261,169.2553 v -16.75601 h 3 v -16.098 h -3 v -16.097 h 3 v -16.098 h -3 V 88.109292 h 3 V 72.011296 h -3 v -16.097 -0.659 h -12.854 v -3 h -16.097 v 3 h -16.098 v -3 h -16.097 v 3 h -12.85399 v 16.756 h -3 v 16.097996 h 3 v 16.096998 h -3 v 16.098 h 3 v 16.097 h -3 v 16.098 h 3 v 16.09701 0.659 h 12.85399 v 3 h 16.097 v -3 h 16.098 v 3 h 16.097 v -3 z"
       id="bottom_outsideCutPath"
       style="vector-effect:non-scaling-stroke;stroke:#ff0000;stroke-width:0.1"
       inkscape:connector-curvature="0" />
    <text
       xml:space="preserve"
       style="font-style:normal;font-variant:normal;font-weight:normal;font-stretch:normal;font-size:30.40655136px;line-height:38.00818253px;font-family:'Franklin Gothic Heavy';-inkscape-font-specification:'Franklin Gothic Heavy, ';letter-spacing:0px;word-spacing:0px;fill:#000000;fill-opacity:0.98604647;stroke:none;stroke-width:0.76136076;stroke-miterlimit:4;stroke-dasharray:none;stroke-opacity:1"
       x="-198.83086"
       y="-143.21288"
       id="text4590"
       transform="scale(-0.9738828,-1.0268176)"><tspan
         sodipodi:role="line"
         id="tspan4588"
         x="-198.83086"
         y="-143.21288"
         style="font-style:normal;font-variant:normal;font-weight:normal;font-stretch:normal;font-size:24.32523918px;line-height:38.00818253px;font-family:'Franklin Gothic Heavy';-inkscape-font-specification:'Franklin Gothic Heavy, ';fill:#000000;fill-opacity:0.98604647;stroke:none;stroke-width:0.76136076;stroke-miterlimit:4;stroke-dasharray:none;stroke-opacity:1">ResQ</tspan></text>
    <text
       xml:space="preserve"
       style="font-style:normal;font-variant:normal;font-weight:bold;font-stretch:normal;font-size:7.82641745px;line-height:41.0886879px;font-family:Bahnschrift;-inkscape-font-specification:'Bahnschrift Bold';letter-spacing:0px;word-spacing:0px;fill:#000000;fill-opacity:1;stroke:none;stroke-width:0.97830218"
       x="-193.01773"
       y="-61.236961"
       id="text5267"
       transform="scale(-1)"><tspan
         sodipodi:role="line"
         id="tspan5265"
         x="-193.01773"
         y="-61.236961"
         style="font-style:normal;font-variant:normal;font-weight:bold;font-stretch:normal;font-size:7.82641745px;line-height:41.0886879px;font-family:'Franklin Gothic Heavy';-inkscape-font-specification:'Franklin Gothic Heavy,  Bold';stroke-width:0.97830218">WWW.MKME.ORG</tspan></text>
    <ellipse
       style="fill:none;fill-opacity:1;fill-rule:nonzero;stroke:#ff0808;stroke-width:0.17088602;stroke-linecap:round;stroke-linejoin:round;stroke-miterlimit:4;stroke-dasharray:none;stroke-opacity:1;paint-order:stroke fill markers"
       id="path4586"
       cx="-103.18876"
       cy="245.04248"
       rx="3.1645575"
       ry="3.164557"
       transform="rotate(-90)" />
    <text
       xml:space="preserve"
       style="font-style:normal;font-variant:normal;font-weight:normal;font-stretch:normal;font-size:20.3717308px;line-height:25.46466064px;font-family:'Franklin Gothic Heavy';-inkscape-font-specification:'Franklin Gothic Heavy, ';letter-spacing:0px;word-spacing:0px;fill:#000000;fill-opacity:0.98604647;fill-rule:evenodd;stroke:none;stroke-width:0.51009524;stroke-linecap:round;stroke-miterlimit:4;stroke-dasharray:none;stroke-opacity:1"
       x="-196.11658"
       y="-118.32822"
       id="text4590-9"
       transform="scale(-0.9738828,-1.0268176)"><tspan
         sodipodi:role="line"
         id="tspan4588-1"
         x="-196.11658"
         y="-118.32822"
         style="font-style:normal;font-variant:normal;font-weight:normal;font-stretch:normal;font-size:16.29738426px;line-height:25.46466064px;font-family:'Franklin Gothic Heavy';-inkscape-font-specification:'Franklin Gothic Heavy, ';fill:#000000;fill-opacity:0.98604647;stroke:none;stroke-width:0.51009524;stroke-miterlimit:4;stroke-dasharray:none;stroke-opacity:1">SENTRY</tspan></text>
    <ellipse
       transform="rotate(-90)"
       ry="3.164557"
       rx="3.1645575"
       cy="218.78613"
       cx="-98.297867"
       id="ellipse868"
       style="fill:none;fill-opacity:1;fill-rule:nonzero;stroke:#ff0808;stroke-width:0.17088602;stroke-linecap:round;stroke-linejoin:round;stroke-miterlimit:4;stroke-dasharray:none;stroke-opacity:1;paint-order:stroke fill markers" />
    <circle
       style="fill:none;fill-opacity:1;fill-rule:nonzero;stroke:#ff0808;stroke-width:0.19717617;stroke-linecap:round;stroke-linejoin:round;stroke-miterlimit:4;stroke-dasharray:none;stroke-opacity:1;paint-order:stroke fill markers"
       id="ellipse888"
       cx="-139.46947"
       cy="163.97151"
       transform="rotate(-90)"
       r="3.651412" />
  </g>
</svg>
