<?xml version="1.0" encoding="UTF-8" standalone="no"?>
<svg
   xmlns:dc="http://purl.org/dc/elements/1.1/"
   xmlns:cc="http://creativecommons.org/ns#"
   xmlns:rdf="http://www.w3.org/1999/02/22-rdf-syntax-ns#"
   xmlns:svg="http://www.w3.org/2000/svg"
   xmlns="http://www.w3.org/2000/svg"
   xmlns:sodipodi="http://sodipodi.sourceforge.net/DTD/sodipodi-0.dtd"
   xmlns:inkscape="http://www.inkscape.org/namespaces/inkscape"
   width="177.10001mm"
   height="93.099998mm"
   viewBox="0 0 177.10001 93.099998"
   version="1.1"
   preserveAspectRatio="xMidYMid meet"
   id="svg877"
   sodipodi:docname="box.svg"
   inkscape:version="0.92.4 (5da689c313, 2019-01-14)">
  <metadata
     id="metadata883">
    <rdf:RDF>
      <cc:Work
         rdf:about="">
        <dc:format>image/svg+xml</dc:format>
        <dc:type
           rdf:resource="http://purl.org/dc/dcmitype/StillImage" />
        <dc:title></dc:title>
      </cc:Work>
    </rdf:RDF>
  </metadata>
  <defs
     id="defs881" />
  <sodipodi:namedview
     pagecolor="#ffffff"
     bordercolor="#666666"
     borderopacity="1"
     objecttolerance="10"
     gridtolerance="10"
     guidetolerance="10"
     inkscape:pageopacity="0"
     inkscape:pageshadow="2"
     inkscape:window-width="2560"
     inkscape:window-height="1057"
     id="namedview879"
     showgrid="false"
     inkscape:zoom="2.4014998"
     inkscape:cx="334.67717"
     inkscape:cy="175.93701"
     inkscape:window-x="-8"
     inkscape:window-y="-8"
     inkscape:window-maximized="1"
     inkscape:current-layer="svg877"
     inkscape:document-units="mm"
     fit-margin-top="0"
     fit-margin-left="0"
     fit-margin-right="0"
     fit-margin-bottom="0" />
  <g
     id="svgGroup"
     font-size="9pt"
     style="font-size:12px;fill:none;fill-rule:evenodd;stroke:#000000;stroke-width:0.25000001mm;stroke-linecap:round"
     transform="rotate(-180,88.525,46.525)">
    <path
       d="m 0,65 v 8.938 H 3 V 84.063 H 0 V 93 h 16.313 v -3 h 10.125 v 3 h 10.125 v -3 h 10.125 v 3 H 56.813 63 V 84.063 H 60 V 73.938 h 3 V 65 H 46.688 v 3 H 36.563 V 65 H 26.438 v 3 H 16.313 V 65 H 6.188 Z"
       id="front_outsideCutPath"
       style="vector-effect:non-scaling-stroke;stroke:#ff0000;stroke-width:0.1"
       inkscape:connector-curvature="0" />
    <path
       d="m 69,65 v 8.938 h -3 v 10.125 h 3 V 93 h 4.313 v -3 h 10.125 v 3 h 10.125 v -3 h 10.125 v 3 H 108 v -8.937 h 3 V 73.938 h -3 V 65 h -4.312 v 3 H 93.563 V 65 H 83.438 v 3 H 73.313 v -3 z"
       id="left_outsideCutPath"
       style="vector-effect:non-scaling-stroke;stroke:#ff0000;stroke-width:0.1"
       inkscape:connector-curvature="0" />
    <path
       d="m 117,51 v 4.313 h -3 v 10.125 h 3 v 10.125 h -3 v 10.125 h 3 V 90 h 13.313 v 3 h 10.125 v -3 h 10.125 v 3 h 10.125 V 90 H 170.813 174 v -4.312 h 3 V 75.563 h -3 V 65.438 h 3 V 55.313 h -3 V 51 h -13.312 v -3 h -10.125 v 3 h -10.125 v -3 h -10.125 v 3 h -10.125 z"
       id="top_outsideCutPath"
       style="vector-effect:non-scaling-stroke;stroke:#ff0000;stroke-width:0.1"
       inkscape:connector-curvature="0" />
    <path
       d="m 0,34 v 8.938 H 3 V 53.063 H 0 V 62 h 16.313 v -3 h 10.125 v 3 h 10.125 v -3 h 10.125 v 3 H 56.813 63 V 53.063 H 60 V 42.938 h 3 V 34 H 46.688 v 3 H 36.563 V 34 H 26.438 v 3 H 16.313 V 34 H 6.188 Z"
       id="back_outsideCutPath"
       style="vector-effect:non-scaling-stroke;stroke:#ff0000;stroke-width:0.1"
       inkscape:connector-curvature="0" />
    <path
       d="m 69,34 v 8.938 h -3 v 10.125 h 3 V 62 h 4.313 v -3 h 10.125 v 3 h 10.125 v -3 h 10.125 v 3 H 108 v -8.937 h 3 V 42.938 h -3 V 34 h -4.312 v 3 H 93.563 V 34 H 83.438 v 3 H 73.313 v -3 z"
       id="right_outsideCutPath"
       style="vector-effect:non-scaling-stroke;stroke:#ff0000;stroke-width:0.1"
       inkscape:connector-curvature="0" />
    <path
       d="m 117,3 v 4.313 h -3 v 10.125 h 3 v 10.125 h -3 v 10.125 h 3 V 42 h 13.313 v 3 h 10.125 v -3 h 10.125 v 3 h 10.125 V 42 H 170.813 174 v -4.312 h 3 V 27.563 h -3 V 17.438 h 3 V 7.313 h -3 V 3 H 160.688 V 0 H 150.563 V 3 H 140.438 V 0 h -10.125 v 3 h -10.125 z"
       id="bottom_outsideCutPath"
       style="vector-effect:non-scaling-stroke;stroke:#ff0000;stroke-width:0.1"
       inkscape:connector-curvature="0" />
  </g>
  <text
     xml:space="preserve"
     style="font-style:normal;font-weight:normal;font-size:15.76576042px;line-height:1.25;font-family:sans-serif;letter-spacing:0px;word-spacing:0px;fill:#000000;fill-opacity:0.98604647;stroke:none;stroke-width:0.39476466;stroke-miterlimit:4;stroke-dasharray:none;stroke-opacity:1"
     x="-57.510876"
     y="34.794731"
     id="text4590"
     transform="scale(-1,1)"><tspan
       sodipodi:role="line"
       id="tspan4588"
       x="-57.510876"
       y="34.794731"
       style="font-style:normal;font-variant:normal;font-weight:bold;font-stretch:normal;font-size:12.61260796px;font-family:Bahnschrift;-inkscape-font-specification:'Bahnschrift Bold';fill:#000000;fill-opacity:0.98604647;stroke:none;stroke-width:0.39476466;stroke-miterlimit:4;stroke-dasharray:none;stroke-opacity:1">ResQ</tspan></text>
  <text
     xml:space="preserve"
     style="font-style:normal;font-variant:normal;font-weight:normal;font-stretch:normal;font-size:2.97445107px;line-height:1.25;font-family:Bahnschrift;-inkscape-font-specification:Bahnschrift;letter-spacing:0px;word-spacing:0px;fill:#000000;fill-opacity:1;stroke:none;stroke-width:0.37180638"
     x="-57.135117"
     y="38.813652"
     id="text5237"
     transform="scale(-1,1)"><tspan
       sodipodi:role="line"
       id="tspan5235"
       x="-57.135117"
       y="38.813652"
       style="font-style:normal;font-variant:normal;font-weight:bold;font-stretch:normal;font-family:Bahnschrift;-inkscape-font-specification:'Bahnschrift Bold';stroke-width:0.37180638">OPEN SOURCE SEARCH AND RESCUE</tspan></text>
  <text
     xml:space="preserve"
     style="font-style:normal;font-variant:normal;font-weight:bold;font-stretch:normal;font-size:2.57621241px;line-height:5.25;font-family:Bahnschrift;-inkscape-font-specification:'Bahnschrift Bold';letter-spacing:0px;word-spacing:0px;fill:#000000;fill-opacity:1;stroke:none;stroke-width:0.32202655"
     x="-26.060471"
     y="32.58247"
     id="text5267"
     transform="scale(-1,1)"><tspan
       sodipodi:role="line"
       id="tspan5265"
       x="-26.060471"
       y="32.58247"
       style="font-style:normal;font-variant:normal;font-weight:bold;font-stretch:normal;font-size:2.57621241px;line-height:5.25;font-family:Bahnschrift;-inkscape-font-specification:'Bahnschrift Bold';stroke-width:0.32202655">WWW.MKME.ORG</tspan></text>
  <rect
     style="fill:none;fill-opacity:1;fill-rule:nonzero;stroke:#fd0000;stroke-width:0.1;stroke-linecap:round;stroke-linejoin:round;stroke-miterlimit:4;stroke-dasharray:none;stroke-opacity:1;paint-order:stroke fill markers"
     id="rect4560"
     width="26"
     height="18"
     x="5.4490924"
     y="6.3771834" />
  <ellipse
     style="fill:none;fill-opacity:1;fill-rule:nonzero;stroke:#ff0808;stroke-width:0.170886;stroke-linecap:round;stroke-linejoin:round;stroke-miterlimit:4;stroke-dasharray:none;stroke-opacity:1;paint-order:stroke fill markers"
     id="path4586"
     cx="88.51989"
     cy="45.124218"
     rx="3.1645572"
     ry="3.164557" />
  <rect
     style="fill:none;fill-opacity:1;fill-rule:nonzero;stroke:#ff0000;stroke-width:0.11386964;stroke-linecap:round;stroke-linejoin:round;stroke-miterlimit:4;stroke-dasharray:none;stroke-opacity:1;paint-order:stroke fill markers"
     id="rect5269"
     width="11.720024"
     height="3.3956461"
     x="73.956116"
     y="19.017132" />
</svg>
