0
SECTION
2
HEADER
9
$INSUNITS
70
1
0
ENDSEC
0
SECTION
2
TABLES
0
TABLE
2
LAYER
0
ENDTAB
0
ENDSEC
0
SECTION
2
ENTITIES
0
LINE
8
front_outsideCutPath
10
0
20
36
11
0
21
27.5487805
0
LINE
8
front_outsideCutPath
10
0
20
27.5487805
11
3
21
27.5487805
0
LINE
8
front_outsideCutPath
10
3
20
27.5487805
11
3
21
11.4512195
0
LINE
8
front_outsideCutPath
10
3
20
11.4512195
11
0
21
11.4512195
0
LINE
8
front_outsideCutPath
10
0
20
11.4512195
11
0
21
3
0
LINE
8
front_outsideCutPath
10
0
20
3
11
15.8536585
21
3
0
LINE
8
front_outsideCutPath
10
15.8536585
20
3
11
15.8536585
21
6
0
LINE
8
front_outsideCutPath
10
15.8536585
20
6
11
31.9512195
21
6
0
LINE
8
front_outsideCutPath
10
31.9512195
20
6
11
31.9512195
21
3
0
LINE
8
front_outsideCutPath
10
31.9512195
20
3
11
48.0487805
21
3
0
LINE
8
front_outsideCutPath
10
48.0487805
20
3
11
48.0487805
21
6
0
LINE
8
front_outsideCutPath
10
48.0487805
20
6
11
64.1463415
21
6
0
LINE
8
front_outsideCutPath
10
64.1463415
20
6
11
64.1463415
21
3
0
LINE
8
front_outsideCutPath
10
64.1463415
20
3
11
80
21
3
0
LINE
8
front_outsideCutPath
10
80
20
3
11
80
21
11.4512195
0
LINE
8
front_outsideCutPath
10
80
20
11.4512195
11
77
21
11.4512195
0
LINE
8
front_outsideCutPath
10
77
20
11.4512195
11
77
21
27.5487805
0
LINE
8
front_outsideCutPath
10
77
20
27.5487805
11
80
21
27.5487805
0
LINE
8
front_outsideCutPath
10
80
20
27.5487805
11
80
21
36
0
LINE
8
front_outsideCutPath
10
80
20
36
11
64.1463415
21
36
0
LINE
8
front_outsideCutPath
10
64.1463415
20
36
11
64.1463415
21
33
0
LINE
8
front_outsideCutPath
10
64.1463415
20
33
11
48.0487805
21
33
0
LINE
8
front_outsideCutPath
10
48.0487805
20
33
11
48.0487805
21
36
0
LINE
8
front_outsideCutPath
10
48.0487805
20
36
11
31.9512195
21
36
0
LINE
8
front_outsideCutPath
10
31.9512195
20
36
11
31.9512195
21
33
0
LINE
8
front_outsideCutPath
10
31.9512195
20
33
11
15.8536585
21
33
0
LINE
8
front_outsideCutPath
10
15.8536585
20
33
11
15.8536585
21
36
0
LINE
8
front_outsideCutPath
10
15.8536585
20
36
11
0
21
36
0
LINE
8
left_outsideCutPath
10
86
20
36
11
86
21
27.5487805
0
LINE
8
left_outsideCutPath
10
86
20
27.5487805
11
83
21
27.5487805
0
LINE
8
left_outsideCutPath
10
83
20
27.5487805
11
83
21
11.4512195
0
LINE
8
left_outsideCutPath
10
83
20
11.4512195
11
86
21
11.4512195
0
LINE
8
left_outsideCutPath
10
86
20
11.4512195
11
86
21
3
0
LINE
8
left_outsideCutPath
10
86
20
3
11
102.7560976
21
3
0
LINE
8
left_outsideCutPath
10
102.7560976
20
3
11
102.7560976
21
6
0
LINE
8
left_outsideCutPath
10
102.7560976
20
6
11
118.8536585
21
6
0
LINE
8
left_outsideCutPath
10
118.8536585
20
6
11
118.8536585
21
3
0
LINE
8
left_outsideCutPath
10
118.8536585
20
3
11
134.9512195
21
3
0
LINE
8
left_outsideCutPath
10
134.9512195
20
3
11
134.9512195
21
6
0
LINE
8
left_outsideCutPath
10
134.9512195
20
6
11
151.0487805
21
6
0
LINE
8
left_outsideCutPath
10
151.0487805
20
6
11
151.0487805
21
3
0
LINE
8
left_outsideCutPath
10
151.0487805
20
3
11
167.1463415
21
3
0
LINE
8
left_outsideCutPath
10
167.1463415
20
3
11
167.1463415
21
6
0
LINE
8
left_outsideCutPath
10
167.1463415
20
6
11
183.2439024
21
6
0
LINE
8
left_outsideCutPath
10
183.2439024
20
6
11
183.2439024
21
3
0
LINE
8
left_outsideCutPath
10
183.2439024
20
3
11
199.3414634
21
3
0
LINE
8
left_outsideCutPath
10
199.3414634
20
3
11
200
21
3
0
LINE
8
left_outsideCutPath
10
200
20
3
11
200
21
11.4512195
0
LINE
8
left_outsideCutPath
10
200
20
11.4512195
11
203
21
11.4512195
0
LINE
8
left_outsideCutPath
10
203
20
11.4512195
11
203
21
27.5487805
0
LINE
8
left_outsideCutPath
10
203
20
27.5487805
11
200
21
27.5487805
0
LINE
8
left_outsideCutPath
10
200
20
27.5487805
11
200
21
36
0
LINE
8
left_outsideCutPath
10
200
20
36
11
183.2439024
21
36
0
LINE
8
left_outsideCutPath
10
183.2439024
20
36
11
183.2439024
21
33
0
LINE
8
left_outsideCutPath
10
183.2439024
20
33
11
167.1463415
21
33
0
LINE
8
left_outsideCutPath
10
167.1463415
20
33
11
167.1463415
21
36
0
LINE
8
left_outsideCutPath
10
167.1463415
20
36
11
151.0487805
21
36
0
LINE
8
left_outsideCutPath
10
151.0487805
20
36
11
151.0487805
21
33
0
LINE
8
left_outsideCutPath
10
151.0487805
20
33
11
134.9512195
21
33
0
LINE
8
left_outsideCutPath
10
134.9512195
20
33
11
134.9512195
21
36
0
LINE
8
left_outsideCutPath
10
134.9512195
20
36
11
118.8536585
21
36
0
LINE
8
left_outsideCutPath
10
118.8536585
20
36
11
118.8536585
21
33
0
LINE
8
left_outsideCutPath
10
118.8536585
20
33
11
102.7560976
21
33
0
LINE
8
left_outsideCutPath
10
102.7560976
20
33
11
102.7560976
21
36
0
LINE
8
left_outsideCutPath
10
102.7560976
20
36
11
86.6585366
21
36
0
LINE
8
left_outsideCutPath
10
86.6585366
20
36
11
86
21
36
0
LINE
8
top_outsideCutPath
10
209
20
120
11
209
21
103.2439024
0
LINE
8
top_outsideCutPath
10
209
20
103.2439024
11
206
21
103.2439024
0
LINE
8
top_outsideCutPath
10
206
20
103.2439024
11
206
21
87.1463415
0
LINE
8
top_outsideCutPath
10
206
20
87.1463415
11
209
21
87.1463415
0
LINE
8
top_outsideCutPath
10
209
20
87.1463415
11
209
21
71.0487805
0
LINE
8
top_outsideCutPath
10
209
20
71.0487805
11
206
21
71.0487805
0
LINE
8
top_outsideCutPath
10
206
20
71.0487805
11
206
21
54.9512195
0
LINE
8
top_outsideCutPath
10
206
20
54.9512195
11
209
21
54.9512195
0
LINE
8
top_outsideCutPath
10
209
20
54.9512195
11
209
21
38.8536585
0
LINE
8
top_outsideCutPath
10
209
20
38.8536585
11
206
21
38.8536585
0
LINE
8
top_outsideCutPath
10
206
20
38.8536585
11
206
21
22.7560976
0
LINE
8
top_outsideCutPath
10
206
20
22.7560976
11
209
21
22.7560976
0
LINE
8
top_outsideCutPath
10
209
20
22.7560976
11
209
21
6.6585366
0
LINE
8
top_outsideCutPath
10
209
20
6.6585366
11
209
21
6
0
LINE
8
top_outsideCutPath
10
209
20
6
11
221.8536585
21
6
0
LINE
8
top_outsideCutPath
10
221.8536585
20
6
11
221.8536585
21
3
0
LINE
8
top_outsideCutPath
10
221.8536585
20
3
11
237.9512195
21
3
0
LINE
8
top_outsideCutPath
10
237.9512195
20
3
11
237.9512195
21
6
0
LINE
8
top_outsideCutPath
10
237.9512195
20
6
11
254.0487805
21
6
0
LINE
8
top_outsideCutPath
10
254.0487805
20
6
11
254.0487805
21
3
0
LINE
8
top_outsideCutPath
10
254.0487805
20
3
11
270.1463415
21
3
0
LINE
8
top_outsideCutPath
10
270.1463415
20
3
11
270.1463415
21
6
0
LINE
8
top_outsideCutPath
10
270.1463415
20
6
11
283
21
6
0
LINE
8
top_outsideCutPath
10
283
20
6
11
283
21
22.7560976
0
LINE
8
top_outsideCutPath
10
283
20
22.7560976
11
286
21
22.7560976
0
LINE
8
top_outsideCutPath
10
286
20
22.7560976
11
286
21
38.8536585
0
LINE
8
top_outsideCutPath
10
286
20
38.8536585
11
283
21
38.8536585
0
LINE
8
top_outsideCutPath
10
283
20
38.8536585
11
283
21
54.9512195
0
LINE
8
top_outsideCutPath
10
283
20
54.9512195
11
286
21
54.9512195
0
LINE
8
top_outsideCutPath
10
286
20
54.9512195
11
286
21
71.0487805
0
LINE
8
top_outsideCutPath
10
286
20
71.0487805
11
283
21
71.0487805
0
LINE
8
top_outsideCutPath
10
283
20
71.0487805
11
283
21
87.1463415
0
LINE
8
top_outsideCutPath
10
283
20
87.1463415
11
286
21
87.1463415
0
LINE
8
top_outsideCutPath
10
286
20
87.1463415
11
286
21
103.2439024
0
LINE
8
top_outsideCutPath
10
286
20
103.2439024
11
283
21
103.2439024
0
LINE
8
top_outsideCutPath
10
283
20
103.2439024
11
283
21
119.3414634
0
LINE
8
top_outsideCutPath
10
283
20
119.3414634
11
283
21
120
0
LINE
8
top_outsideCutPath
10
283
20
120
11
270.1463415
21
120
0
LINE
8
top_outsideCutPath
10
270.1463415
20
120
11
270.1463415
21
123
0
LINE
8
top_outsideCutPath
10
270.1463415
20
123
11
254.0487805
21
123
0
LINE
8
top_outsideCutPath
10
254.0487805
20
123
11
254.0487805
21
120
0
LINE
8
top_outsideCutPath
10
254.0487805
20
120
11
237.9512195
21
120
0
LINE
8
top_outsideCutPath
10
237.9512195
20
120
11
237.9512195
21
123
0
LINE
8
top_outsideCutPath
10
237.9512195
20
123
11
221.8536585
21
123
0
LINE
8
top_outsideCutPath
10
221.8536585
20
123
11
221.8536585
21
120
0
LINE
8
top_outsideCutPath
10
221.8536585
20
120
11
209
21
120
0
LINE
8
back_outsideCutPath
10
0
20
72
11
0
21
63.5487805
0
LINE
8
back_outsideCutPath
10
0
20
63.5487805
11
3
21
63.5487805
0
LINE
8
back_outsideCutPath
10
3
20
63.5487805
11
3
21
47.4512195
0
LINE
8
back_outsideCutPath
10
3
20
47.4512195
11
0
21
47.4512195
0
LINE
8
back_outsideCutPath
10
0
20
47.4512195
11
0
21
39
0
LINE
8
back_outsideCutPath
10
0
20
39
11
15.8536585
21
39
0
LINE
8
back_outsideCutPath
10
15.8536585
20
39
11
15.8536585
21
42
0
LINE
8
back_outsideCutPath
10
15.8536585
20
42
11
31.9512195
21
42
0
LINE
8
back_outsideCutPath
10
31.9512195
20
42
11
31.9512195
21
39
0
LINE
8
back_outsideCutPath
10
31.9512195
20
39
11
48.0487805
21
39
0
LINE
8
back_outsideCutPath
10
48.0487805
20
39
11
48.0487805
21
42
0
LINE
8
back_outsideCutPath
10
48.0487805
20
42
11
64.1463415
21
42
0
LINE
8
back_outsideCutPath
10
64.1463415
20
42
11
64.1463415
21
39
0
LINE
8
back_outsideCutPath
10
64.1463415
20
39
11
80
21
39
0
LINE
8
back_outsideCutPath
10
80
20
39
11
80
21
47.4512195
0
LINE
8
back_outsideCutPath
10
80
20
47.4512195
11
77
21
47.4512195
0
LINE
8
back_outsideCutPath
10
77
20
47.4512195
11
77
21
63.5487805
0
LINE
8
back_outsideCutPath
10
77
20
63.5487805
11
80
21
63.5487805
0
LINE
8
back_outsideCutPath
10
80
20
63.5487805
11
80
21
72
0
LINE
8
back_outsideCutPath
10
80
20
72
11
64.1463415
21
72
0
LINE
8
back_outsideCutPath
10
64.1463415
20
72
11
64.1463415
21
69
0
LINE
8
back_outsideCutPath
10
64.1463415
20
69
11
48.0487805
21
69
0
LINE
8
back_outsideCutPath
10
48.0487805
20
69
11
48.0487805
21
72
0
LINE
8
back_outsideCutPath
10
48.0487805
20
72
11
31.9512195
21
72
0
LINE
8
back_outsideCutPath
10
31.9512195
20
72
11
31.9512195
21
69
0
LINE
8
back_outsideCutPath
10
31.9512195
20
69
11
15.8536585
21
69
0
LINE
8
back_outsideCutPath
10
15.8536585
20
69
11
15.8536585
21
72
0
LINE
8
back_outsideCutPath
10
15.8536585
20
72
11
0
21
72
0
LINE
8
right_outsideCutPath
10
86
20
72
11
86
21
63.5487805
0
LINE
8
right_outsideCutPath
10
86
20
63.5487805
11
83
21
63.5487805
0
LINE
8
right_outsideCutPath
10
83
20
63.5487805
11
83
21
47.4512195
0
LINE
8
right_outsideCutPath
10
83
20
47.4512195
11
86
21
47.4512195
0
LINE
8
right_outsideCutPath
10
86
20
47.4512195
11
86
21
39
0
LINE
8
right_outsideCutPath
10
86
20
39
11
102.7560976
21
39
0
LINE
8
right_outsideCutPath
10
102.7560976
20
39
11
102.7560976
21
42
0
LINE
8
right_outsideCutPath
10
102.7560976
20
42
11
118.8536585
21
42
0
LINE
8
right_outsideCutPath
10
118.8536585
20
42
11
118.8536585
21
39
0
LINE
8
right_outsideCutPath
10
118.8536585
20
39
11
134.9512195
21
39
0
LINE
8
right_outsideCutPath
10
134.9512195
20
39
11
134.9512195
21
42
0
LINE
8
right_outsideCutPath
10
134.9512195
20
42
11
151.0487805
21
42
0
LINE
8
right_outsideCutPath
10
151.0487805
20
42
11
151.0487805
21
39
0
LINE
8
right_outsideCutPath
10
151.0487805
20
39
11
167.1463415
21
39
0
LINE
8
right_outsideCutPath
10
167.1463415
20
39
11
167.1463415
21
42
0
LINE
8
right_outsideCutPath
10
167.1463415
20
42
11
183.2439024
21
42
0
LINE
8
right_outsideCutPath
10
183.2439024
20
42
11
183.2439024
21
39
0
LINE
8
right_outsideCutPath
10
183.2439024
20
39
11
199.3414634
21
39
0
LINE
8
right_outsideCutPath
10
199.3414634
20
39
11
200
21
39
0
LINE
8
right_outsideCutPath
10
200
20
39
11
200
21
47.4512195
0
LINE
8
right_outsideCutPath
10
200
20
47.4512195
11
203
21
47.4512195
0
LINE
8
right_outsideCutPath
10
203
20
47.4512195
11
203
21
63.5487805
0
LINE
8
right_outsideCutPath
10
203
20
63.5487805
11
200
21
63.5487805
0
LINE
8
right_outsideCutPath
10
200
20
63.5487805
11
200
21
72
0
LINE
8
right_outsideCutPath
10
200
20
72
11
183.2439024
21
72
0
LINE
8
right_outsideCutPath
10
183.2439024
20
72
11
183.2439024
21
69
0
LINE
8
right_outsideCutPath
10
183.2439024
20
69
11
167.1463415
21
69
0
LINE
8
right_outsideCutPath
10
167.1463415
20
69
11
167.1463415
21
72
0
LINE
8
right_outsideCutPath
10
167.1463415
20
72
11
151.0487805
21
72
0
LINE
8
right_outsideCutPath
10
151.0487805
20
72
11
151.0487805
21
69
0
LINE
8
right_outsideCutPath
10
151.0487805
20
69
11
134.9512195
21
69
0
LINE
8
right_outsideCutPath
10
134.9512195
20
69
11
134.9512195
21
72
0
LINE
8
right_outsideCutPath
10
134.9512195
20
72
11
118.8536585
21
72
0
LINE
8
right_outsideCutPath
10
118.8536585
20
72
11
118.8536585
21
69
0
LINE
8
right_outsideCutPath
10
118.8536585
20
69
11
102.7560976
21
69
0
LINE
8
right_outsideCutPath
10
102.7560976
20
69
11
102.7560976
21
72
0
LINE
8
right_outsideCutPath
10
102.7560976
20
72
11
86.6585366
21
72
0
LINE
8
right_outsideCutPath
10
86.6585366
20
72
11
86
21
72
0
LINE
8
bottom_outsideCutPath
10
209
20
243
11
209
21
226.2439024
0
LINE
8
bottom_outsideCutPath
10
209
20
226.2439024
11
206
21
226.2439024
0
LINE
8
bottom_outsideCutPath
10
206
20
226.2439024
11
206
21
210.1463415
0
LINE
8
bottom_outsideCutPath
10
206
20
210.1463415
11
209
21
210.1463415
0
LINE
8
bottom_outsideCutPath
10
209
20
210.1463415
11
209
21
194.0487805
0
LINE
8
bottom_outsideCutPath
10
209
20
194.0487805
11
206
21
194.0487805
0
LINE
8
bottom_outsideCutPath
10
206
20
194.0487805
11
206
21
177.9512195
0
LINE
8
bottom_outsideCutPath
10
206
20
177.9512195
11
209
21
177.9512195
0
LINE
8
bottom_outsideCutPath
10
209
20
177.9512195
11
209
21
161.8536585
0
LINE
8
bottom_outsideCutPath
10
209
20
161.8536585
11
206
21
161.8536585
0
LINE
8
bottom_outsideCutPath
10
206
20
161.8536585
11
206
21
145.7560976
0
LINE
8
bottom_outsideCutPath
10
206
20
145.7560976
11
209
21
145.7560976
0
LINE
8
bottom_outsideCutPath
10
209
20
145.7560976
11
209
21
129.6585366
0
LINE
8
bottom_outsideCutPath
10
209
20
129.6585366
11
209
21
129
0
LINE
8
bottom_outsideCutPath
10
209
20
129
11
221.8536585
21
129
0
LINE
8
bottom_outsideCutPath
10
221.8536585
20
129
11
221.8536585
21
126
0
LINE
8
bottom_outsideCutPath
10
221.8536585
20
126
11
237.9512195
21
126
0
LINE
8
bottom_outsideCutPath
10
237.9512195
20
126
11
237.9512195
21
129
0
LINE
8
bottom_outsideCutPath
10
237.9512195
20
129
11
254.0487805
21
129
0
LINE
8
bottom_outsideCutPath
10
254.0487805
20
129
11
254.0487805
21
126
0
LINE
8
bottom_outsideCutPath
10
254.0487805
20
126
11
270.1463415
21
126
0
LINE
8
bottom_outsideCutPath
10
270.1463415
20
126
11
270.1463415
21
129
0
LINE
8
bottom_outsideCutPath
10
270.1463415
20
129
11
283
21
129
0
LINE
8
bottom_outsideCutPath
10
283
20
129
11
283
21
145.7560976
0
LINE
8
bottom_outsideCutPath
10
283
20
145.7560976
11
286
21
145.7560976
0
LINE
8
bottom_outsideCutPath
10
286
20
145.7560976
11
286
21
161.8536585
0
LINE
8
bottom_outsideCutPath
10
286
20
161.8536585
11
283
21
161.8536585
0
LINE
8
bottom_outsideCutPath
10
283
20
161.8536585
11
283
21
177.9512195
0
LINE
8
bottom_outsideCutPath
10
283
20
177.9512195
11
286
21
177.9512195
0
LINE
8
bottom_outsideCutPath
10
286
20
177.9512195
11
286
21
194.0487805
0
LINE
8
bottom_outsideCutPath
10
286
20
194.0487805
11
283
21
194.0487805
0
LINE
8
bottom_outsideCutPath
10
283
20
194.0487805
11
283
21
210.1463415
0
LINE
8
bottom_outsideCutPath
10
283
20
210.1463415
11
286
21
210.1463415
0
LINE
8
bottom_outsideCutPath
10
286
20
210.1463415
11
286
21
226.2439024
0
LINE
8
bottom_outsideCutPath
10
286
20
226.2439024
11
283
21
226.2439024
0
LINE
8
bottom_outsideCutPath
10
283
20
226.2439024
11
283
21
242.3414634
0
LINE
8
bottom_outsideCutPath
10
283
20
242.3414634
11
283
21
243
0
LINE
8
bottom_outsideCutPath
10
283
20
243
11
270.1463415
21
243
0
LINE
8
bottom_outsideCutPath
10
270.1463415
20
243
11
270.1463415
21
246
0
LINE
8
bottom_outsideCutPath
10
270.1463415
20
246
11
254.0487805
21
246
0
LINE
8
bottom_outsideCutPath
10
254.0487805
20
246
11
254.0487805
21
243
0
LINE
8
bottom_outsideCutPath
10
254.0487805
20
243
11
237.9512195
21
243
0
LINE
8
bottom_outsideCutPath
10
237.9512195
20
243
11
237.9512195
21
246
0
LINE
8
bottom_outsideCutPath
10
237.9512195
20
246
11
221.8536585
21
246
0
LINE
8
bottom_outsideCutPath
10
221.8536585
20
246
11
221.8536585
21
243
0
LINE
8
bottom_outsideCutPath
10
221.8536585
20
243
11
209
21
243
0
ENDSEC
0
EOF